<?xml version="1.0" standalone="no"?>
<!DOCTYPE svg PUBLIC "-//W3C//DTD SVG 1.1//EN" "http://www.w3.org/Graphics/SVG/1.1/DTD/svg11.dtd" >
<svg>
<metadata>
Created by FontForge 20090622 at Fri Jul  1 11:57:02 2016
 By deploy user
Copyright (c) 2015 by Seniors Studio. All rights reserved.
</metadata>
<defs>
<font id="SVN-NickainleyScript" horiz-adv-x="765" >
  <font-face 
    font-family="SVN-Nickainley Script"
    font-weight="400"
    font-stretch="normal"
    units-per-em="1000"
    panose-1="2 0 5 3 0 0 0 2 0 2"
    ascent="800"
    descent="-200"
    x-height="474"
    cap-height="774"
    bbox="-326 -283 1153.13 1143"
    underline-thickness="50"
    underline-position="-50"
    unicode-range="U+0020-U+1EF9"
  />
<missing-glyph horiz-adv-x="165" 
 />
    <glyph glyph-name=".notdef" horiz-adv-x="165" 
 />
    <glyph glyph-name=".null" horiz-adv-x="0" 
 />
    <glyph glyph-name="nonmarkingreturn" horiz-adv-x="333" 
 />
    <glyph glyph-name="space" unicode=" " horiz-adv-x="165" 
 />
    <glyph glyph-name="exclam" unicode="!" horiz-adv-x="279" 
d="M337 733q20 -7 13 -27l-194 -550q-7 -20 -27 -13q-19 7 -12 27l194 550q6 20 26 13zM90 61q14 0 24.5 -10.5t10.5 -24.5t-10.5 -24t-24.5 -10t-24 10t-10 24t10 24.5t24 10.5z" />
    <glyph glyph-name="quotedbl" unicode="&#x22;" horiz-adv-x="257" 
d="M142 689q28 0 34 -33q7 -39 -21 -66q-20 -20 -52 -18q-20 1 -22 11q0 7 15 5q29 -6 40 27q1 5 -2 6q-26 7 -26 33q0 14 10 24.5t24 10.5zM250 689q28 0 34 -33q7 -39 -21 -66q-20 -20 -52 -18q-20 1 -22 11q0 7 15 5q29 -6 40 27q1 5 -2 6q-26 7 -26 33q0 14 10 24.5
t24 10.5z" />
    <glyph glyph-name="numbersign" unicode="#" horiz-adv-x="536" 
d="M472 457q14 0 14 -21t-14 -21l-100 2l-31 -87l103 -2q14 0 14 -22q0 -8 -4 -14.5t-10 -5.5l-118 2l-69 -195q-2 -8 -10.5 -12t-16.5 -1q-19 7 -12 27l64 181l-105 2l-69 -197q-7 -20 -27 -13t-13 27l65 184l-75 1q-14 0 -14 21t14 21l89 -1l31 87l-92 2q-14 0 -14 21
t14 21l107 -2l69 195q7 20 27 13q19 -7 13 -27l-64 -182l104 -1l70 197q2 8 10.5 12t16.5 1q19 -7 12 -27l-64 -184zM296 330l31 88l-104 1l-31 -87z" />
    <glyph glyph-name="dollar" unicode="$" horiz-adv-x="455" 
d="M397 624q20 -35 17 -91q-1 -2 -1.5 -7t-0.5 -7q-1 -8 -8 -13.5t-16 -4.5q-20 4 -18 24q1 3 1 11q3 41 -11 68q-11 22 -39 29l-84 -233q49 -43 74 -95q25 -53 16 -99q-9 -48 -42 -80t-79 -44q-38 -8 -71 -4q-8 2 -12 2l-20 -53q-2 -8 -10 -12t-16 -1q-20 7 -13 27l19 53
q-5 2 -15 8q-78 50 -67 158q2 9 8.5 14.5t15.5 4.5q8 -1 13.5 -8t4.5 -15q-9 -84 48 -118q1 0 3 -2t3 -2l92 255q-27 27 -42 59q-21 46 -16 89q6 64 58 106q46 36 104 36l18 50q7 19 27 12q8 -2 11.5 -10.5t0.5 -16.5l-14 -41q41 -11 61 -49zM273 287q-18 37 -51 69
l-85 -235l1 -1h3q29 -3 55 4q34 8 59 31.5t31 58.5q6 32 -13 73zM205 434l72 202q-32 -4 -62 -26q-38 -31 -42 -77q-3 -34 12 -66q7 -15 20 -33z" />
    <glyph glyph-name="percent" unicode="%" horiz-adv-x="413" 
d="M315 670q20 -7 13 -27l-194 -550q-7 -20 -27 -13t-13 27l194 550q7 20 27 13zM147 420q-31 -34 -63 -34q-5 0 -15 2q-19 6 -28 26q-7 14 -7 35q0 31 11 67q15 47 40 76q26 33 59 34q12 0 19 -3q19 -6 29 -24q8 -16 8 -35q1 -28 -10 -66q-15 -47 -43 -78zM83 428
q15 0 33 20q21 25 34 63q10 29 8 51q0 11 -3 17q-4 4 -5 4h-4q-15 0 -29 -19q-20 -21 -32 -60q-9 -29 -9 -54q0 -11 3 -19l3 -3h1zM388 302q1 -28 -10 -66q-15 -47 -43 -78q-31 -34 -63 -34q-11 0 -15 2q-19 6 -28 26q-7 14 -7 35q-2 31 11 67q15 46 39 76q29 33 60 34
q10 0 19 -3q19 -6 29 -25q8 -14 8 -34zM338 249q10 29 8 51q0 12 -4 17q-1 3 -4 4h-4q-15 0 -29 -19q-20 -21 -32 -60q-9 -28 -9 -54q0 -12 3 -19l2 -3h2q15 0 33 20q20 23 34 63z" />
    <glyph glyph-name="ampersand" unicode="&#x26;" horiz-adv-x="578" 
d="M541 334q18 -11 7 -29q-75 -122 -130 -173q-16 -14 -34 -28l17 -53l8 -23q5 -20 -14 -27q-20 -5 -27 14l-7 23q-4 13 -14 43q-63 -31 -130 -30v0h-2h-1q-61 0 -98 34q-42 37 -42 105v1v2q1 38 15.5 72t42.5 64.5t54.5 52.5t66.5 51q-19 108 -7 156q12 49 44 77
q34 31 79 31q15 0 22 -2q32 -7 53 -27q23 -25 23 -59q0 -12 -1 -19q-5 -24 -19 -47t-40 -46.5t-47 -39l-58 -41.5l-3 -3q20 -100 71 -266q4 3 10 8.5t10 7.5q53 51 122 164q11 18 29 7zM287 579q-9 -41 4 -120q60 43 93.5 75t39.5 64q1 4 1 11q0 18 -11 29t-31 16
q-4 1 -14 1q-26 0 -51 -20q-23 -23 -31 -56zM217 93q62 0 117 29q-47 150 -72 265q-69 -50 -107 -95t-39 -99v-3q0 -48 28 -73q27 -24 71 -24h2z" />
    <glyph glyph-name="quotesingle" unicode="'" horiz-adv-x="210" 
d="M207 689q28 0 34 -33q7 -39 -21 -66q-20 -20 -52 -18q-20 1 -22 11q0 7 15 5q29 -6 40 27q1 5 -2 6q-26 7 -26 33q0 14 10 24.5t24 10.5z" />
    <glyph glyph-name="parenleft" unicode="(" horiz-adv-x="292" 
d="M463 827q1 -8 -4 -15t-13 -9q-61 -12 -101 -47q-38 -31 -64 -85q-33 -65 -97 -265q-69 -218 -85 -305v-1q-1 -2 -1.5 -4.5t-0.5 -4.5q-9 -56 -1 -93t41 -44h2q8 -2 13 -9t4 -16q-2 -8 -9 -13t-16 -4l-2 1v0q-59 11 -74 75q-11 46 0 110h1l1 10q16 87 87 311
q67 209 99 271q31 61 74 99q50 42 121 55q9 2 16.5 -3t8.5 -14z" />
    <glyph glyph-name="parenright" unicode=")" horiz-adv-x="432" 
d="M-20 -71q-1 8 4 15t13 9q61 12 101 47q38 31 64 85q33 65 97 265q69 218 85 305v1q1 2 1.5 4.5t0.5 4.5q9 56 1 93t-41 44h-2q-8 2 -13 9t-4 16q2 8 9 13t16 4l2 -1v0q59 -11 74 -75q11 -46 0 -110h-1l-1 -10q-16 -87 -87 -311q-67 -209 -99 -271q-31 -61 -74 -99
q-50 -42 -121 -55q-9 -2 -16.5 3t-8.5 14z" />
    <glyph glyph-name="asterisk" unicode="*" horiz-adv-x="292" 
d="M234 646q8 -1 14 -7.5t5 -14.5q0 -9 -6.5 -15t-15.5 -5l-32 2l21 -24q14 -16 -2 -30q-6 -6 -15 -5.5t-14 7.5l-22 24l-2 -32q0 -9 -6.5 -15t-15.5 -5q-9 0 -15 6.5t-5 15.5l2 32l-24 -21q-16 -14 -30 2t2 30l24 21l-32 2q-9 1 -15 7.5t-5 14.5q1 9 7.5 15t14.5 5l33 -2
l-22 24q-6 7 -5.5 16t7.5 14q16 14 30 -2l21 -24l2 33q1 8 7.5 14t14.5 5q9 0 15 -6.5t5 -15.5l-2 -32l25 21q6 6 15 5.5t14 -7.5q6 -6 5.5 -15t-7.5 -14l-24 -22z" />
    <glyph glyph-name="plus" unicode="+" horiz-adv-x="353" 
d="M283 326q8 0 13 -6t5 -15q0 -8 -5.5 -14.5t-12.5 -6.5h-100l-35 -94q-6 -17 -26 -10t-13 25l29 79h-85q-7 0 -12.5 6.5t-5.5 14.5q0 9 5 15t13 6h100l35 94q2 7 10 10t16 0t12 -10t2 -14l-30 -80h85z" />
    <glyph glyph-name="comma" unicode="," horiz-adv-x="184" 
d="M102 61q28 0 34 -33q7 -39 -21 -66q-21 -20 -52 -18q-22 1 -22 11q0 8 15 4q14 -3 24.5 5.5t14.5 22.5q2 5 -2 6q-26 7 -26 33q0 14 10.5 24.5t24.5 10.5z" />
    <glyph glyph-name="hyphen" unicode="-" horiz-adv-x="370" 
d="M277 324q8 0 13 -6t5 -15q0 -8 -5.5 -14.5t-12.5 -6.5h-230q-7 0 -12.5 6.5t-5.5 14.5q0 9 5 15t13 6h230z" />
    <glyph glyph-name="period" unicode="." horiz-adv-x="175" 
d="M90 61q14 0 24.5 -10.5t10.5 -24.5t-10.5 -24t-24.5 -10t-24 10t-10 24t10 24.5t24 10.5z" />
    <glyph glyph-name="slash" unicode="/" horiz-adv-x="208" 
d="M305 733q20 -7 13 -27l-286 -814q-7 -20 -27 -13q-19 7 -12 27l286 814q6 20 26 13z" />
    <glyph glyph-name="zero" unicode="0" horiz-adv-x="498" 
d="M456 571q4 -90 -34 -209q-50 -155 -138 -253q-87 -101 -182 -102q-18 0 -36 5q-44 15 -65 62q-18 38 -20 102q-2 100 36 217q48 150 128 245q81 96 169 99q28 1 50 -6q44 -14 68 -60q21 -37 24 -100zM382 375q35 110 32 195q-3 51 -19 81q-15 31 -44 40q-18 5 -35 4
q-70 -3 -139 -85q-75 -89 -120 -229q-36 -111 -34 -204q2 -54 16 -86q14 -30 40 -39q9 -3 23 -3q74 1 151 88q83 94 129 238z" />
    <glyph glyph-name="one" unicode="1" horiz-adv-x="340" 
d="M353 714q8 -9 0 -30l-5 -13l-246 -649q-3 -8 -11.5 -12t-16.5 -1q-19 8 -12 28l207 546q-60 -76 -110.5 -120.5t-95.5 -45.5q-21 0 -31 5q-13 5 -23 17l-1 2q-8 13 -8 28q0 20 8 39q3 8 11.5 11.5t15.5 -0.5q19 -7 12 -27q-5 -13 -5 -21q0 -3 2 -7v-1l4 -2q6 -2 14 -2
q21 1 45 16t55 48t50 56l55 68l37 47l11 14l1 1q5 7 7 8q0 1 2 1q15 12 28 -3v-1z" />
    <glyph glyph-name="two" unicode="2" horiz-adv-x="455" 
d="M400 685q35 -36 33 -92q-1 -69 -46 -142q-33 -57 -103 -134q-76 -87 -182 -173l-79 -63q68 11 121 8q68 -4 188 -34q20 -5 15 -26q-5 -20 -26 -15q-110 29 -179 33q-79 3 -182 -22q-3 -1 -8.5 -2t-6.5 -1q-13 -5 -21.5 -3.5t-11.5 14.5l-1 2q-4 15 15 28l1 1q11 7 13 9
q59 40 135 104q102 83 178 168q65 72 98 127q39 66 40 122q2 38 -22 62q-23 23 -69 29q-52 6 -91 -25q-42 -32 -62 -98q-2 -8 -10 -12t-16 -2q-20 7 -15 27q24 78 77 118q52 43 122 34q60 -7 95 -42z" />
    <glyph glyph-name="three" unicode="3" horiz-adv-x="446" 
d="M385 667q29 -43 23 -97q0 -4 -2 -10q-14 -81 -100 -134q-30 -18 -74 -34q46 -10 80 -39q49 -41 50 -109q0 -4 -0.5 -11t-0.5 -10q-10 -93 -77 -152q-71 -62 -165 -62h-1h-5q-65 2 -107 36q-47 39 -47 108v4q0 24 10 49q9 22 27 39q6 6 15 5.5t15 -6.5q13 -17 -2 -30
q-9 -7 -16 -24q-7 -19 -7 -34v-4q0 -48 32 -74q30 -25 81 -27h5q77 0 137 52q56 49 63 124v5v6v5q0 49 -34 78q-34 30 -97 36q-12 1 -36 1q-12 0 -21 7v0q-6 5 -8 11q-1 2 -1 5q-1 8 4 17v-1q7 10 21 13q88 24 138 53q68 40 80 104q0 1 0.5 3t0.5 4q5 39 -16 69
q-21 31 -66 40h-1q-2 1 -5 1.5t-5 0.5q-52 6 -92 -25q-41 -33 -61 -98q-7 -19 -27 -14q-19 7 -14 27q24 78 77 118q52 43 122 34q2 -1 6.5 -1.5t6.5 -0.5h1q61 -11 93 -58z" />
    <glyph glyph-name="four" unicode="4" horiz-adv-x="468" 
d="M455 725q20 -7 13 -27l-137 -396q18 3 27 9q8 5 16 3.5t13 -9.5q12 -16 -6 -29q-19 -13 -66 -18l-81 -234q-7 -20 -27 -13q-19 7 -13 27l75 216q-78 -3 -194 3q-14 0 -49.5 1.5t-49.5 1.5q-7 0 -14 5q-16 15 -1 30q103 111 164 201q56 82 114 212q10 19 28 10
q20 -9 11 -28q-58 -128 -118 -218q-54 -80 -136 -171q16 0 52 -2q145 -6 208 -2l144 415q7 20 27 13z" />
    <glyph glyph-name="five" unicode="5" horiz-adv-x="465" 
d="M496 715q9 -20 -9 -29q-72 -37 -143 -39q-54 -2 -133 16q-3 1 -8 3t-6 2h-1q6 -4 5 -9l-69 -195q30 17 68 32q49 17 91 16q51 -2 80 -32q27 -30 30 -84q1 -4 1 -14q-2 -120 -82 -235q-88 -130 -209 -137h-12q-43 0 -75 16q-34 16 -51 47q-16 29 -16 70q0 56 33 122
q4 8 12.5 11t15.5 -1q8 -4 11 -12.5t-1 -15.5q-29 -60 -29 -105q0 -28 11 -48q10 -19 32 -30q22 -12 57 -12h10q99 6 177 119q73 107 73 211v12q-1 38 -19 57t-50 19q-31 1 -75 -14q-48 -17 -87 -45q-3 -2 -15 -11q-17 -14 -30 -7q-13 6 -13.5 15t6.5 25v1l4 10l81 229
q11 33 20.5 38.5t29.5 -3.5q9 -3 10 -3q72 -18 122 -16q61 2 125 35q19 9 28 -9z" />
    <glyph glyph-name="six" unicode="6" horiz-adv-x="480" 
d="M480 641q5 -21 -15 -26q-8 -2 -16 2.5t-10 12.5q-8 30 -27 46t-51 19h-2h-10q-97 -1 -193 -163q-31 -54 -52 -107q80 52 167 47h6h1q64 -7 96 -60q26 -44 23 -110q0 -1 -0.5 -5t-0.5 -6q-11 -113 -80 -193q-35 -42 -79.5 -66t-86.5 -26h-1h-3h-1q-59 -2 -95 37
q-38 39 -42 119q0 6 -1 9q0 16 2 52q4 38 8 56q-22 -31 -32 -49q-11 -18 -29 -7t-7 29q39 68 91 121q32 101 80 181q48 82 107.5 132t120.5 51q0 1 8 1l7 -1h2q45 -4 74 -29q29 -24 41 -67zM269 430q-91 5 -173 -63q-3 -3 -9.5 -8.5t-9.5 -8.5q-20 -69 -26 -131
q-2 -33 -1 -47v-8q3 -62 31 -92q23 -24 63 -24h4q72 3 136 78q60 70 70 169q0 6 1 10q2 53 -18 85q-19 36 -63 40v0h-1h-4z" />
    <glyph glyph-name="seven" unicode="7" horiz-adv-x="443" 
d="M498 711q19 -14 3 -33l-7 -10l-1 -1q-14 -18 -18 -22l-42 -45l-69 -73q-69 -73 -117 -134h40q9 0 15 -6t6 -15t-6 -15t-15 -6h-72l-30 -42q-82 -120 -146 -285q-9 -19 -28 -12q-19 8 -12 28q66 168 151 292q6 11 13 19h-46q-8 0 -14.5 6t-6.5 15t6.5 15t14.5 6h77
q54 72 140 163l68 73l25 26q-23 -4 -51 -4q-43 2 -73 7q-34 6 -89 21q-43 12 -55 12q-5 0 -12 -7q-10 -10 -28 -40q-2 -5 -7 -14t-7 -13q-3 -4 -8.5 -15.5l-8.5 -17.5q-4 -8 -12.5 -11t-15.5 1q-8 4 -11 12.5t1 15.5l18 35q10 20 15 27q19 36 35 50q19 19 40 19q18 1 67 -13
q53 -15 85 -20q33 -6 66 -6q35 -2 67 7l5 2q5 2 9 4q30 12 41 4z" />
    <glyph glyph-name="eight" unicode="8" horiz-adv-x="485" 
d="M424 696q34 -33 34 -84q0 -7 -1 -11q-5 -65 -54 -119v0q-45 -53 -110 -67q-9 -1 -16 4t-9 13t3 16t14 9q48 9 87 53q40 45 43 94v8q0 34 -20 54q-25 24 -77 28q-6 1 -20 1q-67 0 -119 -41q-47 -39 -53 -96q-3 -30 3.5 -53t25 -41t33 -27.5t42.5 -25.5q43 -25 61 -38
q40 -29 60 -67q21 -36 21 -82q-2 -90 -84 -155q-77 -61 -186 -61q-16 0 -24 1q-63 7 -96 47q-32 36 -32 92q0 13 1 20q11 97 79 163q46 43 123 77q-79 57 -69 154q7 75 69 125q61 50 145 50q15 0 23 -1q67 -4 103 -40zM198 381q-91 -36 -139 -81q-58 -56 -66 -137
q0 -3 -0.5 -8t-0.5 -7q0 -40 22 -65q25 -28 68 -32q6 -1 20 -1q93 0 160 52q66 52 68 123q0 32 -16 61q-16 30 -49 53q-14 11 -55 35z" />
    <glyph glyph-name="nine" unicode="9" horiz-adv-x="491" 
d="M469 520q18 -11 7 -29q-41 -68 -91 -120l-5.5 -17t-5.5 -16q-47 -130 -117 -219q-39 -48 -92 -80q-51 -31 -102 -32q-49 -2 -83 26q-33 27 -36 74q-1 9 5 15t15 7t15 -5t7 -15q1 -28 20 -43q21 -17 56 -17q39 1 82 27q45 26 80 70q56 70 97 172q-78 -51 -168 -47
q-3 0 -6 1q-63 6 -96 59q-26 45 -23 110q0 2 0.5 5.5t0.5 5.5q11 113 80 193q35 42 79.5 66t86.5 26h4q59 2 96 -37q38 -41 42 -118v-1v-9q2 -51 -9 -108q12 17 32 49q11 18 29 7zM347 393q30 99 28 178v8q-3 62 -31 92q-24 26 -63 24h-4q-73 -3 -136 -77q-60 -70 -70 -170
q0 -1 -0.5 -4t-0.5 -5q-3 -50 17 -86q22 -35 64 -39v0l5 -1q91 -5 173 64q3 3 9 8t9 8z" />
    <glyph glyph-name="colon" unicode=":" horiz-adv-x="266" 
d="M137 264q14 0 24.5 -10.5t10.5 -24.5t-10.5 -24t-24.5 -10t-24 10t-10 24t10 24.5t24 10.5zM175 410q14 0 24.5 -10.5t10.5 -24.5t-10.5 -24t-24.5 -10t-24 10t-10 24t10 24.5t24 10.5z" />
    <glyph glyph-name="semicolon" unicode=";" horiz-adv-x="255" 
d="M175 410q14 0 24.5 -10.5t10.5 -24.5t-10.5 -24t-24.5 -10t-24 10t-10 24t10 24.5t24 10.5zM138 265q28 0 34 -33q7 -39 -21 -66q-21 -20 -52 -18q-22 1 -22 11q0 8 15 4q14 -3 24.5 5.5t14.5 22.5q2 5 -2 6q-26 7 -26 33q0 14 10.5 24.5t24.5 10.5z" />
    <glyph glyph-name="less" unicode="&#x3c;" horiz-adv-x="489" 
d="M454 430q7 -20 -12 -27l-278 -104l208 -93q8 -3 11.5 -11.5t-0.5 -16.5q-9 -19 -28 -10l-255 113q-9 4 -12 12q-7 20 13 27l326 123q20 7 27 -13z" />
    <glyph glyph-name="equal" unicode="=" horiz-adv-x="402" 
d="M331 391q7 0 12.5 -6.5t5.5 -15.5q0 -8 -5.5 -14.5t-12.5 -6.5h-230q-7 0 -12.5 6.5t-5.5 14.5q0 9 5.5 15.5t12.5 6.5h230zM283 258q8 0 13 -6t5 -15t-5 -15t-13 -6h-230q-8 0 -13 6t-5 15t5 15t13 6h230z" />
    <glyph glyph-name="greater" unicode="&#x3e;" horiz-adv-x="495" 
d="M88 180q-7 20 12 27l278 104l-208 93q-8 3 -11.5 11.5t0.5 16.5q9 19 28 10l255 -113q9 -4 12 -12q7 -20 -13 -27l-326 -123q-20 -7 -27 13z" />
    <glyph glyph-name="question" unicode="?" horiz-adv-x="472" 
d="M515 569q2 -36 -8 -68t-23.5 -53t-41 -45.5t-44.5 -36.5t-51 -34q-59 -38 -76 -54q-29 -26 -49 -62v-1q-22 -43 -27 -95q-2 -9 -8.5 -14.5t-15.5 -4.5q-8 1 -13.5 8t-4.5 15q7 62 31 110l1 1q20 41 57 74q22 21 82 59q37 24 56.5 38.5t45.5 40t37 55t9 65.5q-2 55 -46 92
q-45 36 -113 35q-21 0 -40 -6q-44 -14 -70 -51q-27 -39 -26 -87q0 -26 8 -49q2 -8 -2 -16t-12 -10q-20 -7 -27 13q-8 29 -10 62q0 61 35 112q34 47 91 66q27 8 52 8q84 1 141 -44q57 -48 62 -123zM163 47q14 1 25 -8t13 -23q1 -14 -8.5 -25t-23.5 -12t-24.5 8t-12.5 23
t7.5 25t23.5 12z" />
    <glyph glyph-name="at" unicode="@" horiz-adv-x="727" 
d="M690 361q0 -67 -29 -132q-25 -73 -78 -116q-58 -46 -119 -33q-28 7 -41 25q-7 11 -10 25q-41 -49 -86 -49q-33 1 -49 27v0q-14 22 -14 61q1 32 17 85t41 96q47 79 105 80v0h1h6q32 -2 54 -27q0 -1 1 -2l2 -2l3.5 10t4.5 10q7 19 27 12q19 -7 12 -27l-16.5 -44l-19.5 -51
l-25 -72q-12 -35 -17 -54q-6 -23 -6 -36q0 -11 3 -17q4 -5 17 -8q39 -10 83 24q43 36 64 97q1 1 1 3q26 56 26 115q-2 50 -24 87q-23 39 -67 58q-42 18 -98 17q-108 -1 -198 -88q-92 -90 -104 -206q-2 -24 -2 -33q-1 -88 47 -140q44 -47 117 -55q8 -1 24 -1q33 0 57 5
q25 4 58 16q20 7 27 -12q7 -20 -12 -27q-40 -14 -65 -19q-35 -6 -65 -5q-19 0 -28 1q-90 10 -144 68q-59 63 -58 170q0 12 2 36q7 64 38 125t79 107q100 99 226 100q67 1 116 -20q56 -25 86 -75q28 -48 30 -109zM451 297v1q6 18 16 39v4q0 20 -11 35h-1q-9 10 -24 12h-3
q-35 0 -70 -60q-22 -38 -36.5 -85t-15.5 -75q0 -26 7 -37q5 -7 15 -7q19 -1 37 14.5t35 47t26.5 53t24.5 58.5z" />
    <glyph glyph-name="A" unicode="A" 
d="M811 675q8 -27 -2 -80.5t-23 -92.5l-39 -114q-9 -23 -26 -72v-1l-18 -47q-108 -294 -108 -344v-4q0 -41 14 -63q17 -24 51 -24h2q8 0 14.5 -6.5t6.5 -15.5q0 -8 -6.5 -14.5t-14.5 -6.5h-2q-58 1 -86 44q-22 33 -22 86v1v3q1 61 112 358v0q2 8 4 11h-212
q-72 -123 -138 -199.5t-130 -88.5q-16 -4 -36 -4q-53 0 -97 29q-42 31 -53 81q-2 18 -2 26q0 37 16 71q21 42 58 68q38 26 80 26q25 0 46 -10q8 -4 11 -12.5t-1 -15.5q-4 -8 -12.5 -11t-15.5 1q-14 6 -28 6q-28 0 -56 -19q-29 -19 -44 -51q-12 -27 -12 -53q0 -6 2 -18
q6 -34 36 -54q29 -21 72 -21q19 0 28 2q92 19 227 247h-49q-9 0 -15.5 6.5t-6.5 14.5q0 9 6.5 15.5t15.5 6.5h74l73 132q91 169 125 213q23 28 48 42q28 17 55 17q28 0 49 -18q19 -18 29 -47zM707 403q25 70 37 106.5t22 84.5t4 69q-5 17 -15 27q-8 7 -22 7q-14 1 -34 -10
q-20 -12 -35 -32q-33 -43 -122 -207l-62 -112h203z" />
    <glyph glyph-name="B" unicode="B" horiz-adv-x="794" 
d="M709 668q51 -58 49 -138q0 -2 -0.5 -5.5t-0.5 -4.5v0q-7 -90 -74 -151q-12 -12 -33 -26l18 -21q53 -68 50 -164q-5 -98 -67 -160q-61 -61 -153 -60h-20q-73 6 -115 44q-38 37 -38 86v7v1q5 50 42 79q19 16 46 21t52 -7q41 -18 61 -72q7 -20 -13 -27t-27 13q-13 37 -38 47
q-13 7 -28 4t-27 -12q-24 -19 -25 -49q-1 -3 -1 -5q0 -31 25 -55q31 -29 89 -32q6 -1 17 -1q77 0 123 48q51 51 54 132q3 79 -40 136q-14 17 -26 27q-33 -14 -82 -17q-35 0 -49 4q-42 11 -38 51v1q7 51 72 43v0q2 -1 6 -1t6 -1h3h1q49 -7 86 -32q22 12 41 29q55 51 60 124
q0 2 0.5 4.5t0.5 3.5q2 61 -39 108q-45 50 -128 56q-6 1 -14 1h-11q-120 0 -195 -83q-77 -86 -81 -234v-17q0 -19 -7 -20q-1 -1 -4 -1q-10 0 -21 6.5t-11 14.5q0 11 1 19q4 163 92 260q87 98 226 98q1 0 5 -0.5t7 -0.5q11 0 16 -1h1q100 -7 156 -70zM526 349q16 0 31 3
q-17 6 -36 9h-3q-8 2 -11 2q-23 2 -25 -6v-1q0 -3 7 -5q15 -4 37 -2zM491 582q-26 -50 -72 -198l-30 -97t-33 -88t-41.5 -85t-49.5 -61t-64 -43q-24 -8 -36 -10q-53 -9 -99 13q-47 22 -66 68q0 1 -1 2q-4 9 -7 25q-6 35 4 72v1q11 42 46 77q33 32 73 39q23 4 48 -2
q8 -2 12 -10t2 -16q-5 -20 -26 -15q-13 4 -29 1q-28 -5 -51 -28q-25 -23 -34 -57v-1q-7 -25 -3 -54q1 -8 5 -17v-1q14 -32 45 -46q34 -16 74 -9q20 4 28 8q35 14 64 46.5t54 88.5t38.5 96.5l36.5 114.5q44 147 74 206q14 27 39 50q24 20 52 26q9 1 16 -4t9 -14q1 -8 -4 -15
t-13 -9q-16 -3 -32 -17q-19 -16 -29 -37z" />
    <glyph glyph-name="C" unicode="C" horiz-adv-x="593" 
d="M637 239q19 -9 12 -28q-57 -137 -135 -208t-190 -71h-12q-82 5 -132 52q-54 52 -54 153q0 74 42 205q-73 17 -117 63q-59 60 -50 155q4 46 23 92q17 42 48 80q13 15 30 2q16 -14 2 -30q-25 -28 -41 -68q-17 -40 -20 -80q-6 -75 38 -122q38 -38 102 -52l9 23t7 18
q69 161 143 238q35 36 74 56q42 20 80 20h6v0v0q53 -3 84 -39q34 -37 34 -101v-10q-1 -27 -13 -60t-29 -55l-1 -2q-52 -67 -154 -107q-110 -40 -207 -29l-6 1q-42 -135 -42 -198q0 -83 41 -122q40 -38 105 -40q2 -1 10 -1q99 0 167 63.5t119 189.5q3 8 11 11.5t16 0.5z
M238 407q-6 -17 -13 -32q91 -7 183 28t136 93q14 19 24 45q9 29 9 48q0 1 0.5 3.5t0.5 4.5q0 47 -23 73q-22 23 -55 25h-4q-27 0 -61 -16q-33 -17 -62 -47q-69 -70 -135 -225z" />
    <glyph glyph-name="D" unicode="D" horiz-adv-x="833" 
d="M501 582q-26 -50 -72 -198l-30 -97t-33 -88t-41.5 -85t-49.5 -61t-64 -43q-24 -8 -36 -10q-53 -9 -99 13q-47 22 -66 68q0 1 -0.5 1t-0.5 1q-4 9 -7 25q-6 35 4 72v1q11 42 46 77q33 32 73 39q23 4 48 -2q8 -2 12 -10t2 -16q-5 -20 -26 -15q-13 4 -29 1q-28 -5 -51 -28
q-25 -23 -34 -57v-1q-7 -25 -3 -54q1 -8 5 -17v-1q14 -32 45 -46q34 -16 74 -9q20 4 28 8q35 14 64 46.5t54 88.5t38.5 96.5l36.5 114.5q44 147 74 206q14 27 39 50q24 20 52 26q9 1 16 -4t9 -14q1 -8 -4 -15t-13 -9q-16 -3 -32 -17q-19 -16 -29 -37zM742 630
q57 -89 57 -224q0 -22 -1 -34q-8 -130 -60 -242q-58 -121 -131 -167h-1h1q-25 -15 -56 -24q-27 -7 -60 -7h-21q-66 5 -111 48q-34 34 -34 83v8q3 43 32 72v0q30 30 71 30q34 0 60 -22q24 -21 37 -58q7 -20 -12 -27q-20 -7 -27 13q-10 26 -26 39q-14 13 -32 13q-23 0 -41 -18
q-17 -17 -20 -44v-6q0 -32 21 -52q36 -34 85 -36q6 -1 18 -1q27 0 49 6q29 9 45 19q61 38 115 149q50 106 56 226q0 5 0.5 15.5t0.5 16.5q0 123 -50 201q-55 84 -157 90h-15q-129 0 -207 -90q-80 -90 -81 -244q0 -9 -6 -15t-15 -6q-8 0 -14.5 6t-6.5 15q1 170 91 272
q90 104 239 104h17q124 -7 190 -109z" />
    <glyph glyph-name="E" unicode="E" horiz-adv-x="476" 
d="M521 239q19 -10 11 -28q-55 -135 -133.5 -203t-190.5 -68q-10 0 -15 1q-87 5 -139 57q-54 56 -54 140v14q7 112 90 192q39 38 93 61q-48 51 -42 117q4 26 8 41q-18 8 -32 18q-70 46 -108 127q-9 19 10 28q7 4 15.5 1t12.5 -11q35 -72 93 -110q4 -3 12.5 -8t10.5 -6
q20 43 56 76q69 63 166 63q49 0 76 -20q33 -21 33 -60v-1v-1q-2 -51 -64 -88q-61 -39 -147 -39l-8 1q-42 0 -87 14q-4 -17 -5 -29q-4 -54 44 -97q39 10 64 12q25 3 42 0q21 -3 29 -13q11 -9 13 -25q2 -7 0 -13q-6 -34 -45 -41q-17 -4 -45 3q-23 4 -49 19q-2 1 -17 11
q-59 -22 -100 -61q-73 -70 -76 -164q-1 -3 -1 -11q0 -70 42 -110q40 -42 111 -45q1 0 5.5 -0.5t7.5 -0.5q99 0 166.5 61t118.5 184q3 8 11.5 11.5t16.5 0.5zM296 391q-6 0 -16 -2q5 -2 15 -4q17 -5 29 -3q9 2 9 7q-2 2 -7 3q-12 2 -30 -1zM248 647q-30 -27 -46 -60
q38 -12 74 -12h7q74 0 125 32q42 27 44 53v1q0 15 -14 25q-19 13 -53 13q-79 0 -137 -52z" />
    <glyph glyph-name="F" unicode="F" horiz-adv-x="632" 
d="M832 683q1 -1 1 -3q0 -31 -35 -53q-29 -17 -72 -17q-64 0 -138 12q-4 -6 -12 -20q-34 -63 -87 -227q-6 -21 -12 -39h89q9 0 15 -6.5t6 -15.5q0 -8 -6 -14.5t-15 -6.5h-103q-5 -14 -13 -40l-22.5 -67.5t-23.5 -61.5t-29 -60t-34.5 -47.5t-44.5 -40t-54.5 -23t-68.5 -8.5
h-8q-75 4 -123 57q-44 51 -42 123v8q4 82 66 140q65 62 150 64q9 0 15 -6.5t6 -14.5q0 -9 -6 -15.5t-15 -6.5q-65 0 -121 -51q-49 -47 -53 -112v-6v-1q0 -56 32 -94q34 -39 93 -43h6q30 0 56.5 8.5t45.5 20.5t37.5 36t30 43t25.5 54t21 55.5l20 61.5l9 27h-58q-9 0 -15 6.5
t-6 14.5q0 9 6 15.5t15 6.5h72l17 52q54 168 90 234q1 3 5 9q-26 6 -110 30q-135 39 -202 39q-49 0 -88 -39q-40 -37 -43 -86q-1 -36 10 -59q12 -26 37 -39q25 -14 59 -16q48 -3 101 21q19 9 28 -10q4 -7 1 -15.5t-11 -12.5q-61 -28 -121 -25q-44 2 -78 21q-37 21 -54 58
q-17 34 -14 79q3 64 56 115q52 50 117 50q78 0 214 -41q84 -24 126 -33q19 20 48 39q57 32 118 34h1h2q37 0 59 -12q31 -15 32 -46zM790 680v1q0 6 -9 10q-14 8 -40 8h-1h-2q-50 -2 -96 -29q-2 -1 -17 -11q56 -7 101 -7q31 0 50 11q14 8 14 17z" />
    <glyph glyph-name="G" unicode="G" horiz-adv-x="703" 
d="M748 237q20 -9 11 -28q-46 -107 -108 -174q-60 -62 -130 -89q-23 -10 -53 -19l-12 -36q-30 -82 -50 -113q-41 -60 -105 -61q-15 0 -22 1q-45 4 -71 33q-25 26 -25 64v14q3 25 13.5 44t23.5 30t39 20t43.5 12.5l53.5 10.5q45 7 79 16l52 150q0 1 1 1q-102 -135 -215 -135
h-9q-54 2 -90 33q-48 41 -48 126q0 8 1 14q3 77 41 191q-73 17 -117 63q-59 60 -50 155q4 46 23 92q17 42 48 80q13 15 30 2q16 -14 2 -30q-25 -28 -41 -68q-17 -40 -20 -80q-6 -75 38 -122q38 -38 102 -52l9 23t7 18q69 161 143 238q35 36 74 56q42 20 80 20h6v0v0
q53 -3 84 -39q34 -37 34 -101v-10q-1 -27 -13 -60t-29 -55l-1 -2q-52 -67 -154 -107q-110 -40 -207 -29l-6 1q-38 -113 -41 -186q0 -1 -0.5 -5t-0.5 -7q0 -64 34 -94q24 -21 64 -23h7q100 0 195 139q68 98 136 271q8 20 8 21t1 3t1 3v1l1 1q7 19 27 12q19 -7 12 -27v-1
q-2 -7 -7.5 -20.5l-8.5 -20.5l-58 -155l-53 -149l-42 -121q6 2 20 8q65 26 115 79q58 63 100 162q9 20 28 11zM238 407l-6.5 -16l-6.5 -16q91 -7 183 28t136 93q14 19 24 45q9 29 9 48q0 1 0.5 3.5t0.5 4.5q0 47 -23 73q-22 23 -55 25h-4q-27 0 -61 -16q-33 -17 -62 -47
q-69 -70 -135 -225zM416 -95l3 10q-42 -9 -55 -11q-38 -7 -54.5 -11t-39.5 -13t-33 -22t-12 -33v-9q0 -21 14 -37t45 -19q5 -1 16 -1q43 1 71 43v0q18 27 45 103z" />
    <glyph glyph-name="H" unicode="H" horiz-adv-x="811" 
d="M892 716q19 -7 12 -27q-2 -4 -52 -148q-106 -304 -108 -309q-44 -121 -63 -179v-1q-31 -94 -33 -128v-3q0 -42 15 -64q17 -24 51 -24h2q8 0 14.5 -6.5t6.5 -15.5q-1 -9 -7 -15t-15 -6h-2q-57 1 -85 44q-22 33 -22 87v0v3q0 34 34 141l1 1q22 68 63 180q4 13 17 47h-258
q-5 -14 -13 -40l-22.5 -67.5t-23.5 -61.5t-29 -60t-34.5 -47.5t-44.5 -40t-54.5 -23t-68.5 -8.5h-8q-75 4 -123 57q-44 51 -42 123v8q4 82 66 140q65 62 150 64q9 0 15 -6.5t6 -14.5q0 -9 -6 -15.5t-15 -6.5q-65 0 -121 -51q-49 -47 -53 -112v-6v-1q0 -56 32 -94
q34 -39 93 -43h7q30 0 56 8.5t45 20.5t37.5 36t30 43t25.5 54t21 55.5l20 61.5l9 27h-42q-9 0 -15 6.5t-6 14.5q0 9 6 15.5t15 6.5h56l17 52q54 168 90 234l3 6q-37 9 -119 33q-125 39 -191 39q-49 0 -88 -39q-40 -37 -43 -86q-1 -33 10 -59q12 -26 37 -39q25 -14 59 -16
q48 -3 101 21q19 9 28 -10q4 -7 1 -15.5t-11 -12.5q-61 -28 -121 -25q-44 2 -78 21q-37 21 -54 58q-17 34 -14 79q3 64 56 115q52 50 117 50q74 0 204 -40q85 -27 134 -36l9 9q24 23 55 39q19 10 29 -9q4 -7 1 -15.5t-11 -12.5q-27 -15 -45 -32q-10 -10 -14 -16
q-10 -12 -18 -27q-34 -63 -87 -227q-6 -21 -12 -39h259l77 219q50 144 52 149q7 19 27 12z" />
    <glyph glyph-name="I" unicode="I" horiz-adv-x="544" 
d="M713 736q1 -4 0 -9q-5 -42 -41.5 -67t-101.5 -42q-7 -19 -15 -50q-8 -26 -12 -38q-16 -44 -35 -115l-20 -70.5t-22 -70t-26 -72.5t-29 -66.5t-35 -63t-40.5 -50.5t-48 -41.5t-55 -23.5t-63.5 -8q-6 0 -8 1q-78 6 -121 59q-43 52 -40 124q0 6 1 8q6 82 68 139q33 29 74 45
t78 15q9 0 15 -6.5t6 -15.5q0 -8 -6.5 -14.5t-15.5 -5.5q-69 0 -122 -49q-51 -46 -55 -111q-1 -3 -1 -6q-2 -58 30 -96q35 -40 92 -44h4l2 -1q36 -1 68 13.5t56.5 36t48.5 61t39 71.5t33 85t27.5 84t24.5 85q31 102 36 117q5 13 11 36q2 4 4.5 13t3.5 13q-9 -2 -29 -6
l-61 -14.5t-53.5 -15.5t-51 -21.5t-31.5 -26.5t-18 -36q-1 -5 -1 -12q-2 -34 17 -59q19 -26 51 -30q2 0 5.5 -0.5t5.5 -0.5q8 0 14.5 -6.5t5.5 -15.5q0 -8 -6.5 -14t-14.5 -6q-3 0 -8.5 0.5t-7.5 0.5q-49 7 -79 47q-28 35 -26 85q0 3 0.5 8.5t1.5 8.5q3 23 14 42.5t32.5 34
t39 24.5t52 20t52.5 14.5t58 13.5l54 12q42 111 111 121v0h18q14 -2 26 -9q17 -9 20 -29v0zM590 668q74 24 81 61l-9 3h-8q-36 -5 -64 -64z" />
    <glyph glyph-name="J" unicode="J" horiz-adv-x="521" 
d="M657 736q1 -4 0 -10q-10 -76 -142 -105l-8.5 -28.5t-7.5 -24.5l-12 -38q-3 -8 -36 -109v-2q-38 -119 -53 -171l-1 -1l-53 -149l-42 -121q9 3 20 8q64 25 115 79q59 62 101 162q3 8 11.5 11.5t15.5 -0.5q19 -9 12 -28q-49 -111 -109 -174q-58 -61 -130 -89
q-22 -10 -53 -19l-12 -36q-30 -82 -50 -113q-41 -60 -104 -61q-15 0 -22 1q-47 4 -72 33q-23 26 -25 64q0 9 1 14q2 25 13 44t23.5 30t39 20t43.5 12.5t54 10.5q43 7 78 16l52 150l54 149l53 171v1l36 111q5 13 11 36q6 20 10 31q-18 -3 -64 -10q-54 -8 -82.5 -13.5
t-73.5 -18t-69.5 -26.5t-45.5 -38.5t-25 -55.5q-1 -4 -1 -12q-2 -34 17 -59q19 -26 52 -30q2 0 5 -0.5t5 -0.5q9 0 15 -6.5t5 -15.5q0 -8 -6.5 -14t-14.5 -6q-10 0 -15 1q-51 7 -80 47q-27 36 -25 86q0 11 1 16q4 29 17.5 53t29.5 40.5t45.5 31t51 23t61 17t61.5 12l65 10.5
q60 10 87 15q42 108 109 117h19q18 -4 26 -9q15 -10 19 -26v-3zM233 -95l3 10q-42 -9 -55 -11q-38 -7 -54.5 -11t-39.5 -13t-32.5 -22t-11.5 -33q-1 -3 -1 -9q2 -23 14 -37q16 -16 45 -19q5 -1 17 -1q43 1 70 43v0q18 27 45 103zM535 669q73 22 80 60q-1 0 -2.5 0.5
t-3.5 1.5t-3 1v0h-8q-35 -5 -63 -63z" />
    <glyph glyph-name="K" unicode="K" horiz-adv-x="806" 
d="M1035 760q5 -20 -14 -27q-29 -9 -63.5 -39.5t-56 -56.5l-64.5 -80l-54.5 -67.5t-51 -57.5t-63 -57t-62.5 -36q76 -47 76 -202q0 -48 -11 -140q-6 -61 -7 -73v-3q0 -40 15 -64q17 -24 51 -24h2q8 0 14.5 -6.5t6.5 -15.5q0 -8 -6.5 -14.5t-14.5 -6.5h-2q-58 1 -86 44
q-22 33 -22 87v0v3q1 15 7 78q10 80 11 135q0 52 -8.5 89t-37 65t-75.5 29h-3q-9 0 -15 6t-6 15q0 8 6 14.5t15 6.5q41 0 79.5 17.5t78 55.5t64 66.5t66.5 81.5q43 55 68 84.5t63 62t73 43.5q20 7 27 -13zM594 629q-10 -12 -18 -27q-34 -63 -87 -227l-20 -63
q-13 -35 -19 -59l-22.5 -67.5t-23.5 -61.5t-29 -60t-34.5 -47.5t-44.5 -40t-54.5 -23t-68.5 -8.5h-8q-75 4 -123 57q-44 51 -42 123v8q4 82 66 140q65 62 150 64q9 0 15 -6.5t6 -14.5q0 -9 -6 -15.5t-15 -6.5q-65 0 -121 -51q-49 -47 -53 -112v-6v-1q0 -56 32 -94
q34 -39 93 -43h7q30 0 56 8.5t45 20.5t37.5 36t30 43t25.5 54t21 55.5l20 61.5l20 60q13 39 20 62q54 168 90 234l3 6q-37 9 -119 33q-125 39 -191 39q-49 0 -88 -39q-40 -37 -43 -86q-1 -33 10 -59q12 -26 37 -39q25 -14 59 -16q48 -3 101 21q19 9 28 -10q4 -7 1 -15.5
t-11 -12.5q-61 -28 -121 -25q-44 2 -78 21q-37 21 -54 58q-17 34 -14 79q3 64 56 115q52 50 117 50q74 0 204 -40q85 -27 134 -36l9 9q24 23 55 39q19 10 29 -9q4 -7 1 -15.5t-11 -12.5q-27 -15 -45 -32q-10 -10 -14 -16z" />
    <glyph glyph-name="L" unicode="L" horiz-adv-x="508" 
d="M763 -81q19 -10 10 -28q-20 -45 -73 -66q-54 -22 -111 -12q-41 7 -90 39.5t-80.5 61.5t-88.5 86l-76 73q-6 -8 -9 -11q-27 -31 -64 -49t-77 -18h-10q-40 3 -66 26q-28 26 -28 70v8q3 43 33 71q31 30 72 31q60 3 141 -65q20 33 40 82q20 52 55 160l17 56q34 111 58 177
q-17 -3 -61 -10q-54 -8 -82.5 -13.5t-73.5 -18t-69.5 -26.5t-45.5 -38.5t-25 -55.5q-1 -4 -1 -12q-2 -34 17 -59q19 -26 52 -30q1 0 5 -0.5t5 -0.5q9 0 15 -6.5t5 -15.5q0 -8 -6.5 -14t-15.5 -6q-10 0 -14 1q-51 7 -80 47q-27 34 -25 86q0 11 1 16q4 29 17.5 53t29.5 40.5
t45.5 31t51 23t61 17t61.5 12l65 10.5q50 8 86 15q2 6 7.5 17t5.5 12q16 34 38 56q26 28 58 32h20q19 -5 25 -9q16 -10 20 -26v-3v-10q-6 -43 -42.5 -67t-100.5 -39q-29 -73 -66 -199q-14 -44 -18 -55q-27 -90 -56 -164q-23 -55 -47 -93l82 -79l83.5 -81.5t74 -57.5
t78.5 -36q45 -8 88 9q39 17 51 44q7 19 28 11zM515 713q-16 -16 -29 -44q73 22 80 60l-9 3v0h-8q-18 -3 -34 -19zM213 89q6 8 10 12q-73 59 -116 58q-26 -1 -44 -19q-19 -18 -21 -43v-6q0 -24 15 -39q14 -12 40 -14q2 -1 7 -1q28 0 59 14q30 15 50 38z" />
    <glyph glyph-name="M" unicode="M" horiz-adv-x="1062" 
d="M1085 685q17 -31 17 -78q1 -58 -28 -143l-45 -127q-117 -319 -132 -409q-2 -6 -2 -19q0 -28 14 -45q13 -19 40 -24q8 -2 16 -2t14 -5.5t6 -13.5t-6 -14t-14 -6q-16 0 -23 2q-42 7 -66 39q-21 30 -21 69q0 8 2 26q17 90 135 416q34 94 45 127q26 72 26 129q0 36 -13 58
t-37 31q-17 6 -40 6q-43 0 -95 -42q-54 -45 -103 -121l-6 -23l-75 -241l-88 -255q-7 -20 -27 -13q-19 7 -13 27l87 254l75 240q14 47 15 80q1 42 -13 68q-12 22 -34 28q-10 2 -16 3q-37 1 -78 -33q-45 -37 -133 -151l-55 -78l-75 -229q-1 -4 -4 -13.5t-4 -14.5l-15.5 -49
t-19 -48.5t-26.5 -48.5t-33.5 -31t-43.5 -14h-1h-1q-24 2 -37 18q-15 17 -14 42v2v1q2 78 135 248l7 10q13 19 40 62l54 84l78 238l-91.5 -63.5t-91.5 -48.5t-102 -29q-25 0 -37 1q-54 6 -91 41q-36 35 -41 88q0 19 1 29q1 8 8 13.5t15 4.5q9 -1 14.5 -8t4.5 -15
q-1 -11 0 -21q2 -36 27 -60q27 -26 67 -30q14 -2 29 0q41 3 93 27t86 46.5t87 61.5l50 35q17 12 30 -5q5 -10 2 -19l-56 -172q72 91 117 128q53 45 107 43q18 -2 26 -5q39 -11 59 -47q18 -31 18 -76q34 42 68 70q63 50 120 50q28 1 53 -7q38 -14 59 -49zM299 229l25 76
q-1 -2 -3.5 -5.5t-3.5 -5.5t-5 -6q-2 -3 -4 -5q-125 -168 -126 -225v-2q0 -10 3 -14q4 -2 7 -2h1q12 0 23 6.5t21 22.5t16.5 27.5t15 36l11.5 33.5l11 34q1 3 4 13.5t4 15.5z" />
    <glyph glyph-name="N" unicode="N" horiz-adv-x="767" 
d="M1 721q1 8 7.5 13.5t14.5 4.5q20 -4 17 -22v-22q3 -36 28 -61q26 -24 67 -29q20 -2 30 -1q41 3 94 28t85 46t88 61q24 19 50 36q16 11 27 -5q6 -9 3 -18l-58 -177q69 90 126 131v0q20 15 49 25q25 8 53 10q122 0 122 -128q1 -79 -68 -282l-3 -9q-12 -30 -28 -76
q-98 -264 -99 -316v-3q0 -42 15 -64q16 -25 52 -26h1q8 0 14 -5.5t6 -13.5t-6 -14t-14 -6h-2q-56 0 -84 43q-22 32 -22 86v0v3q1 54 101 329l28 76l3 9q67 197 67 269q-2 88 -83 88q-17 0 -40 -7q-20 -8 -39 -21q-77 -55 -191 -226l-75 -229q-1 -4 -8 -28q-9 -31 -15 -49
t-19.5 -48.5t-26.5 -47.5t-33.5 -31t-43.5 -14v0h-1v0q-23 2 -37 17q-14 18 -13 41v1v1v1v0q2 73 134 248l8 10l40 62l54 84l79 242l-93 -64.5t-91 -48.5t-103 -30q-13 -1 -37 1q-54 6 -91 41q-35 34 -40 87q0 18 1 28zM299 231l28 84q-6 -11 -12 -18q-3 -5 -9 -12
q-125 -168 -127 -225v-2q0 -9 4 -15q3 -3 8 -3v0h1q18 0 33.5 14.5t28.5 44.5t19.5 49t17.5 54q1 3 4 13.5t4 15.5z" />
    <glyph glyph-name="O" unicode="O" horiz-adv-x="735" 
d="M779 236q8 -3 11.5 -11.5t0.5 -16.5q-2 -3 -5 -9.5t-4 -9.5l-2 -4t-1.5 -3.5t-2 -4t-2.5 -4.5v-1q-28 -52 -50 -73q-38 -38 -88 -37q-16 0 -29 3q-26 8 -43 25q-24 -30 -37 -43q-83 -86 -181 -86q-29 0 -56 8q-59 18 -87 79q-22 48 -22 120q0 104 38 223q7 25 23 61
q-27 -4 -58 -4h-10q-71 3 -119 36q-55 40 -55 108v1v4v1q1 34 16 63l1 1q11 22 38 49q15 15 30 -1q6 -6 6 -14.5t-6 -14.5q-23 -23 -31 -39l-1 -1q-10 -19 -11 -45v-4q0 -47 38 -73q36 -26 95 -29h9q37 0 80 8q34 66 73 112q74 84 151 84q23 0 34 -10h1l1 -1q13 -13 13 -32
q0 -31 -24 -62q-15 -21 -31 -33q-56 -49 -138 -80q-26 -9 -51 -15q-24 -49 -34 -83q-36 -113 -36 -210q0 -63 18 -103q19 -42 62 -56q18 -6 43 -6q79 0 151 74q23 23 42 51q-8 21 -8 45q0 19 7 49q2 8 10 12.5t16 2.5t12.5 -10t2.5 -16q-3 -9 -5 -29q33 56 59 123
q52 129 53 243q2 71 -20 114q-21 43 -67 50v1q-30 4 -73 -6q-8 -2 -16 2.5t-10 12.5t2.5 16t13.5 10q48 13 89 6h1q66 -11 98 -73q26 -53 24 -134q-1 -119 -56 -258q-38 -96 -84 -164q11 -14 30 -19q12 -2 18 -2q33 0 58 25q19 18 42 62l1 2q1 1 2 4t2.5 5.5t2.5 4.5
q1 3 4 9.5t4 8.5q3 8 11 11.5t16 -0.5zM369 582q-22 -25 -49 -69l9 3q74 27 125 71q13 11 25 27q16 20 16 37h1h-1q-1 1 -7 1q-59 0 -119 -70z" />
    <glyph glyph-name="P" unicode="P" horiz-adv-x="731" 
d="M714 706q64 -58 64 -148q0 -36 -9 -73q-7 -31 -25 -69q-16 -32 -38 -57q-26 -28 -50 -43q-49 -30 -103 -32q-46 -3 -104 19q-20 7 -13 27q7 19 27 12q48 -17 88 -16q43 2 82 26q21 12 41 35q20 21 32 49q13 24 22 59q8 34 8 63q0 73 -50 117q-51 46 -133 47
q-54 3 -104 -15q-47 -16 -85 -51q-27 -25 -44 -54q-16 -25 -32 -67q-6 -18 -14 -54q-6 -38 -7 -60q0 -3 -0.5 -8.5t-0.5 -7.5v-17q0 -8 -6 -14.5t-15 -6.5t-15 6.5t-6 14.5v18q0 13 1 18q1 31 8 64q6 32 15 60q15 41 36 76q22 36 51 63q47 42 100 60q54 20 119 18
q102 -4 160 -59zM519 608q-30 -59 -77 -224l-23.5 -79.5l-24.5 -76t-28 -77t-30.5 -65.5t-36 -60t-40 -43t-46.5 -30q-1 -1 -2 -1q-16 -7 -36 -10q-55 -9 -99 12q-48 22 -67 70q-4 9 -7 25q-6 36 4 73q12 44 45 77q35 33 74 39q26 5 47 -2q20 -5 15 -26q-2 -8 -10 -12.5
t-16 -1.5q-12 3 -29 1q-26 -4 -51 -28q-25 -23 -34 -58q-7 -25 -3 -55q1 -6 5 -16q12 -32 45 -48q32 -15 74 -9q12 3 28 8l1 1q28 11 54 42t44.5 65t40.5 93.5t33.5 96.5l31.5 106q53 177 81 232q14 29 39 50q24 21 52 26q8 1 15 -4t9 -13q1 -9 -4 -16t-13 -9
q-14 -1 -32 -16q-16 -15 -29 -37z" />
    <glyph glyph-name="Q" unicode="Q" horiz-adv-x="707" 
d="M946 -101q19 -9 10 -28q-19 -42 -73 -66q-54 -22 -111 -12q-40 7 -82.5 34t-66.5 50t-67 69q-45 47 -67 67q-66 -52 -143 -52q-29 0 -56 8q-59 18 -87 79q-22 48 -22 120q0 104 38 223q7 25 23 61q-27 -4 -58 -4h-10q-71 3 -119 36q-55 40 -55 108v1v4v1q1 34 16 63l1 1
q11 22 38 49q15 15 30 -1q6 -6 6 -14.5t-6 -14.5q-23 -23 -31 -39l-1 -1q-10 -19 -11 -45v-4q0 -47 38 -73q36 -26 95 -29h9q37 0 80 8q34 66 73 112q74 84 151 84q23 0 34 -10h1l1 -1q13 -13 13 -32q0 -31 -24 -62q-15 -21 -31 -33q-56 -49 -139 -80q-23 -9 -50 -15
q-24 -49 -34 -83q-36 -113 -36 -210q0 -63 18 -103q19 -42 62 -56q18 -6 43 -6q56 0 109 37q-40 27 -76 26q-10 0 -22 -5q-10 -4 -20 -12q-16 -14 -30 1q-6 6 -5.5 15t6.5 15q18 14 33 20q18 8 37 8q54 3 110 -40l9 9q77 80 136 228q52 129 53 243q2 71 -20 114
q-21 43 -67 50v1q-30 4 -73 -6q-8 -2 -16 2.5t-10 12.5t2.5 16t13.5 10q48 13 89 6h1q66 -11 98 -73q26 -53 24 -134q-1 -119 -56 -258q-63 -158 -145 -242l-6 -6q28 -25 65 -66l62.5 -64t58.5 -45t72 -31q46 -8 88 10q38 15 51 43q3 8 11.5 11.5t16.5 -0.5zM369 582
q-22 -25 -49 -69l9 3q74 27 125 71q13 11 25 27q16 20 16 37h1h-1q-1 1 -7 1q-59 0 -119 -70z" />
    <glyph glyph-name="R" unicode="R" horiz-adv-x="725" 
d="M705 673q57 -57 54 -140v-1q-3 -101 -90 -170q-44 -35 -108 -53q69 -48 67 -185q0 -50 -10 -128q-6 -63 -7 -72v-3h1q0 -42 14 -64q17 -24 51 -24h2q8 0 14.5 -6.5t6.5 -15.5q0 -8 -6.5 -14.5t-14.5 -6.5h-2q-58 1 -86 44q-22 33 -22 87v0v3q1 17 7 77q10 76 10 123
q2 169 -124 170h-1h-1h-1h-1h-1l-1 1h-1h-1l-1 1h-1l-1 1h-1v1q-1 0 -1 1h-1l-1 1l-1 1v1h-1l-1 1q0 1 -1 2q0 1 -1 2v2q-1 1 -1 2v2v1v1v0v2v1v1v1q1 0 1 1v1v1q1 0 1 1v1h1v1l1 1q0 1 1 1v1q1 0 1 1l1 1h1l1 1q1 1 2 1v1h2q0 1 2 1h2v1h2h1q111 4 181 59q72 57 75 138v2
q2 64 -42 109q-50 50 -138 53h-2h-11q-120 0 -195 -83q-77 -86 -81 -234q0 -2 -0.5 -7t-0.5 -10q0 -9 -6 -15t-15 -6q-8 0 -14.5 6t-6.5 15q0 11 1 19q4 163 92 260q87 98 226 98q1 0 5 -0.5t7 -0.5h3q106 -4 166 -66zM530 619q-19 -16 -29 -37q-25 -46 -72 -198l-30 -97
t-33 -88t-41.5 -85t-49.5 -61t-64 -43q-24 -8 -36 -10q-53 -9 -99 13q-47 22 -66 68q0 1 -0.5 1t-0.5 1q-4 9 -7 25q-6 35 4 72v1q11 42 46 77q33 32 73 39q23 4 48 -2q8 -2 12 -10t2 -16t-10 -12.5t-16 -2.5q-13 4 -29 1q-28 -5 -51 -28q-25 -23 -34 -57v-1q-7 -25 -3 -54
q1 -8 5 -17v-1q14 -32 45 -46q34 -16 74 -9q20 4 28 8q35 14 64 46.5t54 88.5t38.5 96.5l36.5 114.5q44 147 74 206q14 27 39 50q24 20 52 26q9 1 16 -4t9 -14q2 -8 -3.5 -15.5t-14.5 -8.5q-16 -3 -31 -17z" />
    <glyph glyph-name="S" unicode="S" horiz-adv-x="552" 
d="M496 723q13 -19 12 -49q0 -2 -1 -6t-1 -6l-3 -12v-2q-22 -64 -79 -91q-12 -7 -36 -14q11 -40 45 -114q23 -50 35 -80t21.5 -76t5.5 -87v-2v-1q-13 -121 -108 -186q-83 -56 -187 -46h-1q-6 0 -16 2q-88 14 -141 84q-49 68 -41 148q0 3 2 13q15 87 76 139q60 52 141 45
q55 -5 92 -53q35 -48 29 -104q-1 -9 -7.5 -14.5t-14.5 -4.5q-9 1 -15 7.5t-5 15.5q4 41 -21 75q-23 33 -61 36q-64 6 -110 -35q-52 -43 -63 -115q0 -1 -0.5 -4.5t-0.5 -5.5q-8 -65 33 -118q40 -55 114 -68q2 0 6.5 -0.5t6.5 -0.5h1q88 -10 159 38q79 54 90 157v1v1
q4 36 -5.5 79t-20 68.5t-32.5 74.5q-36 80 -48 123q-35 -3 -68 -2q-89 2 -159 48q-68 44 -108 127q-9 19 10 28q7 4 15.5 1t12.5 -11q35 -72 93 -110q59 -39 136 -41q30 -1 60 2q-5 43 6 78q4 18 16 39l1 2q12 20 27 31v0q15 12 31 17q15 6 32 4h2q26 -3 42 -25zM466 678
q1 12 -4 21q-5 7 -13 7h-1q-6 1 -14 -2q-11 -3 -19 -10q-9 -8 -17 -20l-1 -2q-7 -11 -12 -28q-7 -27 -4 -59l24 9q42 21 58 67q1 1 1 4t1 5q0 1 0.5 3.5t0.5 4.5z" />
    <glyph glyph-name="T" unicode="T" horiz-adv-x="619" 
d="M892 742q19 -16 19 -39q-3 -62 -126 -60q-65 1 -167 20q-17 -17 -31 -39q-38 -65 -98 -255q-9 -31 -20 -62l-20 -59l-22 -67.5t-23.5 -62t-29 -59.5t-34.5 -48t-44 -40.5t-54.5 -23t-68.5 -8.5q-6 0 -8 1q-75 3 -123 56q-44 51 -42 123v8q4 83 66 141q68 63 150 63
q9 0 15 -6t6 -15t-6 -15t-15 -6q-66 0 -121 -52q-49 -45 -53 -112v-6v0q-1 -55 32 -95q34 -39 93 -42h4l2 -1q30 0 56.5 8.5t45.5 20.5t37.5 36t30 43t25.5 54.5t21 56l20 61.5l20 59l9.5 30t10.5 32q58 187 102 263q2 4 5 8.5l7 10t6 8.5q-62 12 -199 44q-21 6 -42 10
q-86 18 -124 16q-60 -5 -98 -50q-14 -15 -24 -37q-7 -18 -9 -38q-1 -34 10 -59q12 -26 37 -39q25 -14 59 -16q50 -3 101 21q8 4 16.5 1t11.5 -11q4 -7 1 -15.5t-11 -12.5q-61 -28 -121 -25q-44 2 -77 21q-38 20 -55 58q-17 37 -14 79q2 28 12 53q13 27 31 48q48 57 127 64
q40 3 136 -16q7 -2 43 -11q163 -38 225 -49q49 41 118 56q53 12 97 6q51 -7 72 -28zM786 685q82 -2 82 19q0 4 -4 7q-14 12 -49 17q-40 5 -83 -5q-38 -8 -67 -25q71 -12 121 -13z" />
    <glyph glyph-name="U" unicode="U" horiz-adv-x="776" 
d="M822 236q17 -10 9 -29q-6 -13 -15 -30l-23.5 -49t-26.5 -45.5t-34 -43.5t-39 -27.5t-48 -12.5q-69 0 -69 95q0 20 1 31q-16 -26 -25 -39q-83 -114 -183 -114v0h-2q-60 1 -87 45q-22 33 -22 88v0v4q0 36 18 106v1q19 74 50 163q3 8 8.5 26.5l8.5 28.5q38 127 57 177
q-23 -5 -61 -10q-54 -8 -82.5 -13.5t-73.5 -18t-69.5 -26.5t-45.5 -38.5t-25 -55.5q0 -2 -0.5 -6t-0.5 -6q-2 -34 17 -59q19 -26 52 -30q4 -1 10 -1q9 0 15 -6.5t6 -15.5q-1 -8 -7.5 -14.5t-14.5 -5.5q-10 0 -15 1q-50 7 -80 47q-27 36 -25 86q0 3 0.5 8t0.5 8q4 29 17.5 53
t30 40.5t45.5 31t51 23t61 17t61 12l65 10.5q50 8 86 15q1 2 13 29q20 37 38 57q27 27 59 31h19q18 -4 26 -9q17 -11 19 -26v-3q1 -4 0 -10q-6 -43 -42.5 -67t-100.5 -39q-29 -73 -66 -199q-14 -44 -17 -55v-1q-32 -93 -49 -160v-1q-17 -68 -17 -95v-1v-3q0 -42 15 -65
q17 -25 53 -25h1q79 0 149 96q42 58 106 203v2q1 1 1 2l1 2l51 143l99 269q7 20 27 13q19 -7 12 -27l-98 -269l-51 -142l-1 -3q0 -3 -1 -4v-1l-1 -1q-45 -139 -45 -204q0 -53 27 -53q21 0 40.5 13.5t37.5 40.5t28.5 46.5t26.5 53.5l8 16.5l7 14.5q10 19 29 10zM499 713
q-12 -12 -29 -44q73 22 80 60q-2 1 -8 3h-1h-8q-18 -3 -34 -19z" />
    <glyph glyph-name="V" unicode="V" horiz-adv-x="714" 
d="M925 787q8 0 14.5 -6.5t5.5 -14.5q0 -9 -6 -15t-15 -6q-24 0 -47 -13t-45.5 -43t-40.5 -57.5t-42 -79.5l-38 -84.5l-40 -94.5q-24 -59 -37 -88.5l-37 -81t-40 -79t-40.5 -63.5t-46 -54t-48.5 -31.5t-55 -13.5q-121 0 -100 184q11 94 56 223q3 9 9 28.5l9 29.5
q41 134 59 184q-23 -5 -61 -10q-54 -8 -82.5 -13.5t-73.5 -18t-69.5 -26.5t-45.5 -38.5t-25 -55.5q0 -2 -0.5 -6t-0.5 -6q-2 -34 17 -59q19 -26 52 -30q4 -1 10 -1q9 0 15 -6.5t6 -15.5q-1 -8 -7.5 -14.5t-14.5 -5.5q-10 0 -15 1q-50 7 -80 47q-27 36 -25 86q0 3 0.5 8
t0.5 8q4 29 17.5 53t30 40.5t45.5 31t51 23t61 17t61 12l65 10.5q60 10 86 15q1 2 13 29q20 37 38 57q27 27 59 31h19q18 -4 26 -9q17 -11 19 -26v-3q1 -4 0 -10q-6 -43 -42.5 -67t-100.5 -39q-26 -65 -68 -205l-18 -59v-1q-45 -131 -54 -214q-15 -136 58 -136q25 0 49.5 14
t49 45t43.5 60t43.5 82t39 87l40.5 96l42.5 101l41.5 90.5t46.5 85.5t47.5 62t55.5 45.5t59.5 13.5zM499 713q-12 -12 -29 -44q73 22 80 60q-2 1 -8 3h-1h-8q-18 -3 -34 -19z" />
    <glyph glyph-name="W" unicode="W" horiz-adv-x="950" 
d="M1133 787q8 0 14.5 -6.5t5.5 -14.5q0 -9 -6 -15t-15 -6q-18 0 -34.5 -7t-32 -25t-28 -34.5t-27.5 -49t-24 -54t-24 -65l-22 -65l-23 -70.5l-20 -62l-19.5 -59t-21.5 -59.5l-21.5 -53t-24 -50.5l-25.5 -42t-29 -37.5t-31 -25.5t-35.5 -18.5t-38.5 -5.5q-11 0 -23 3
q-43 9 -63 48q-18 34 -18 86q0 13 2 41q-93 -179 -183 -179v0h-2q-59 1 -87 44q-22 34 -22 89v0v4q0 34 20 111q19 77 51 170q3 8 8.5 26.5l8.5 28.5q38 127 57 177q-23 -5 -61 -10q-54 -8 -82.5 -13.5t-73.5 -18t-69.5 -26.5t-45.5 -38.5t-25 -55.5q0 -2 -0.5 -6t-0.5 -6
q-2 -34 17 -59q19 -26 52 -30q4 -1 10 -1q9 0 15 -6.5t6 -15.5q-1 -9 -7 -15t-15 -5q-10 0 -15 1q-50 7 -80 47q-27 36 -25 86q0 3 0.5 8t0.5 8q4 29 17.5 53t30 40.5t45.5 31t51 23t61 17t61 12l65 10.5q60 10 86 15q1 2 13 29q20 37 38 57q27 27 59 31h19q18 -4 26 -9
q17 -11 19 -26v-3q1 -4 0 -10q-6 -43 -42.5 -67t-100.5 -39q-29 -73 -66 -199q-14 -44 -17 -55v-1q-32 -95 -50 -166q-19 -76 -19 -102v-3q0 -43 15 -65q16 -25 53 -26h1q75 0 172 209q36 76 81 204l45 137v1l17 47q3 10 6.5 20.5t6 17t2.5 8.5q7 20 27 13t13 -27l-15 -45
l-17 -49q-24 -79 -45 -135q-43 -143 -60 -224q-10 -48 -10 -81q0 -43 13 -66t35 -27q4 -1 14 -1q19 0 37 8t34.5 26t30 36t28.5 50.5l25.5 56.5t25 66.5l22.5 67.5l23 72q16 51 24.5 75.5l24.5 70.5t26.5 70t27.5 59t32.5 53t35 37t40.5 26.5t45 7.5zM499 713
q-12 -12 -29 -44q73 22 80 60q-2 1 -8 3h-1h-8q-18 -3 -34 -19z" />
    <glyph glyph-name="X" unicode="X" horiz-adv-x="751" 
d="M1021 745q6 -6 5.5 -15t-6.5 -14q-16 -14 -30 1q-19 19 -49 14q-38 -6 -77 -40q-48 -42 -173 -234q-83 -127 -135 -198q9 -98 23 -223q5 -42 9 -71q7 -38 13 -60q9 -35 27 -51q17 -16 38 -16q10 0 18 3q6 2 16 8q16 14 29 -3q14 -15 -3 -30q-15 -11 -28 -15
q-17 -5 -32 -5q-39 0 -68 28q-27 27 -38 70q-9 35 -13 64q-4 25 -10 74q-2 19 -9 81t-10 96q-193 -249 -357 -249q-13 0 -20 1q-67 7 -106 53q-35 43 -35 99q0 10 1 16q3 30 16 55q12 26 33 49q16 15 30 1q16 -15 1 -30q-17 -19 -26 -38v0q-11 -21 -12 -42q-1 -3 -1 -11
q0 -41 26 -72q27 -32 77 -38q2 0 7.5 -0.5t8.5 -0.5q152 0 352 269v1q-12 121 -15 240q-2 70 2 111q-45 -8 -74 -11q-38 -5 -58.5 -8.5t-53.5 -11t-52 -18t-40.5 -26.5t-33.5 -40t-17 -55q-1 -2 -1 -7q-1 -29 19 -55q19 -26 44 -29q2 -1 6 -1q20 -2 20 -22q-1 -9 -7 -15
t-15 -5q-7 0 -10 1q-42 6 -71 45q-31 39 -28 83q0 8 1 12q4 26 13 48t18.5 38.5t27 30.5l30 23.5t36 18t38 12.5t42.5 9.5t41.5 7.5t44.5 6q56 7 87 13q1 10 5 23q25 83 91 84q22 2 37 -9q16 -12 17 -35q0 -32 -26 -56q-23 -21 -64 -35q-4 -1 -11.5 -3.5t-11.5 -3.5
q-6 -39 -4 -119q4 -109 11 -189l104 157q129 196 181 242q49 43 99 50q53 8 86 -28zM604 732q-35 -1 -51 -53h1q35 13 48 26q13 11 13 24v2q-2 1 -11 1z" />
    <glyph glyph-name="Y" unicode="Y" 
d="M810 237q18 -9 11 -28q-46 -108 -109 -174q-58 -60 -129 -89q-24 -11 -54 -19l-12 -36q-26 -79 -49 -113q-41 -60 -105 -61q-15 0 -22 1q-47 4 -72 33q-23 26 -25 64q0 9 1 14q2 25 13 44t23.5 30t39 20t43.5 12.5t54 10.5q45 7 79 16q2 5 55 157q-73 -89 -163 -89v0h-2
q-58 0 -87 44q-23 35 -23 88v1l1 3q0 56 52 230q29 101 71 215q-20 -4 -62 -10q-54 -8 -82.5 -13.5t-73.5 -18t-69.5 -26.5t-45.5 -38.5t-25 -55.5q0 -2 -0.5 -6t-0.5 -6q-2 -34 17 -59q19 -26 52 -30q4 -1 10 -1q9 0 15 -6.5t6 -15.5q-1 -9 -7 -15t-15 -5q-10 0 -15 1
q-50 7 -80 47q-27 36 -25 86q0 3 0.5 8t0.5 8q4 29 17.5 53t30 40.5t45.5 31t51 23t61 17t61 12l65 10.5q60 10 87 15q2 6 6.5 16t5.5 13q20 37 38 57q27 27 59 31h19q18 -4 26 -9q17 -11 19 -26v-3q1 -4 0 -10q-10 -75 -142 -105q-36 -91 -80 -237q-50 -168 -50 -218v-4
q0 -42 15 -65q17 -25 52 -25h2q79 0 148 96q39 53 108 205l32 90l99 269q7 20 27 13q19 -7 12 -27l-98 -269q-8 -20 -19.5 -53t-12.5 -37q-1 0 -1 -2q-11 -28 -18 -50l-1 -2l-42 -117q-73 -202 -76 -211q9 3 19 8q65 25 116 79q58 63 100 162q9 20 28 11zM499 713
q-12 -12 -29 -44q73 22 80 60q-2 1 -8 3h-1h-8q-18 -3 -34 -19zM477 -95l4 10q-38 -8 -55 -11l-37 -7t-31 -7t-29 -10t-20 -13t-16 -18.5t-6 -23.5q-1 -3 -1 -9q2 -23 14 -37q16 -16 45 -19q5 -1 17 -1q43 1 71 43q21 33 44 103z" />
    <glyph glyph-name="Z" unicode="Z" horiz-adv-x="627" 
d="M864 754q16 -20 11 -49q-5 -31 -43 -44q-30 -10 -73 -6q-32 2 -93 17q-4 -5 -12 -17l-82 -117l-195 -283l-20 -30q-48 -73 -81 -114q28 -25 84 -81l83.5 -81.5t74 -57.5t78.5 -36q45 -8 88 9q39 17 51 44q7 19 28 11q19 -10 10 -28q-20 -45 -73 -66q-54 -22 -111 -12
q-41 7 -90 39.5t-80.5 61.5t-88.5 86l-81 78q-9 -10 -27 -28q-23 -23 -53 -39q-32 -16 -65 -16h-10q-40 3 -66 26q-28 26 -28 70v8q3 43 33 71q31 30 72 31q58 3 139 -63q12 15 78 110l20 31l195 283l82 117l3 6l-15 4q-158 47 -240 43q-52 -4 -86 -37v0q-20 -19 -31 -45
q-10 -25 -9 -52q2 -38 29 -67q14 -15 -1 -30q-6 -6 -15 -5.5t-15 6.5q-37 40 -40 94q-3 37 12 70q14 35 41 60q47 44 112 48q40 2 90 -5.5t78.5 -14.5t86.5 -24q8 -3 34 -10q48 47 109 59q30 6 57 1q28 -6 45 -26zM193 81q16 16 24 25q-68 54 -111 53q-26 -1 -43 -19
q-19 -18 -21 -43v-6q0 -24 15 -39q14 -12 40 -14q2 -1 7 -1q20 0 46 12q20 11 43 32zM833 712q2 11 -3 16q-5 8 -20 11q-18 3 -40 -1q-36 -9 -67 -31q37 -9 59 -10q34 -3 56 4q15 6 15 11z" />
    <glyph glyph-name="bracketleft" unicode="[" horiz-adv-x="394" 
d="M203 -71h-142q-9 0 -15 6.5t-6 14.5q0 5 2 9l304 833q5 14 20 14h148q9 0 15 -6t6 -15t-6 -15t-15 -6h-133l-290 -792h112q9 0 15 -6.5t6 -15.5q0 -8 -6 -14.5t-15 -6.5z" />
    <glyph glyph-name="bracketright" unicode="]" horiz-adv-x="525" 
d="M336 806h142q9 0 15 -6.5t6 -14.5q0 -5 -2 -9l-304 -833q-5 -14 -20 -14h-148q-9 0 -15 6t-6 15t6 15t15 6h133l290 792h-112q-9 0 -15 6.5t-6 15.5q0 8 6 14.5t15 6.5z" />
    <glyph glyph-name="asciicircum" unicode="^" horiz-adv-x="370" 
d="M335 408q2 -8 -3.5 -15.5t-14.5 -8.5q-20 -2 -24 18l-32 226l-176 -239q-5 -7 -13.5 -8t-15.5 4q-18 12 -5 29l207 281q12 16 29 5q7 -6 9 -15z" />
    <glyph glyph-name="underscore" unicode="_" horiz-adv-x="455" 
d="M397 -4q11 0 19 -6.5t8 -15.5t-8 -15t-19 -6h-332q-11 0 -19 6t-8 15t8 15.5t19 6.5h332z" />
    <glyph glyph-name="grave" unicode="`" horiz-adv-x="184" 
d="M150 598q4 -8 2 -16t-10 -13q-8 -4 -16 -2t-13 10l-83 144q-11 18 7 29q18 10 29 -8z" />
    <glyph glyph-name="a" unicode="a" horiz-adv-x="403" 
d="M448 238q20 -9 11 -28l-1 -3l-25.5 -55t-28.5 -52.5t-36.5 -52t-41 -32.5t-50.5 -15v0h-1q-37 0 -57 29q-14 22 -14 55v0v1q-59 -84 -127 -83q-42 1 -62 34q-20 28 -18 80q1 45 23 118t57 132q65 108 141 109h9q40 -3 69 -35q8 -9 13 -20q3 10 17 45q8 19 27 12
q8 -3 11.5 -11t0.5 -16l-50 -134q-4 -12 -17.5 -48.5t-18.5 -52.5q-16 -44 -23 -76q-10 -37 -10 -53v-2q0 -21 7 -32q7 -10 23 -10v0q18 0 36 13t31 29t29.5 45t24.5 46.5l22 48.5l1 3q9 20 28 11zM78 44q23 -1 46.5 16.5t40 40t36.5 62.5t30 64.5l27 66.5q5 11 12.5 30
l10.5 27q1 3 1 7q-2 36 -18 54q-17 18 -40 20q-2 1 -6 1q-52 -1 -105 -89q-32 -54 -52.5 -121t-21.5 -108q0 -38 11 -56q9 -14 28 -15z" />
    <glyph glyph-name="b" unicode="b" horiz-adv-x="382" 
d="M427 238q8 -3 11.5 -11.5t-0.5 -15.5q-1 -4 -8 -20q-3 -5 -9 -17q-23 -46 -50 -73q-37 -37 -88 -37q-15 0 -28 3q-26 8 -43 25q-72 -98 -151 -95h-1h-2h-1q-79 4 -75 96q3 44 31 123l4 11v1l85 246l23 64l7 21l22 67q7 20 27 13t13 -27l-22 -65q-1 -4 -2.5 -9t-3 -8.5
t-1.5 -5.5l-23 -64l-12 -34q49 50 100 49q43 -1 63 -34q18 -28 18 -80l-1 -5v-1q-6 -105 -71 -220q-3 -6 -4 -7q11 -13 31 -20q12 -2 17 -2q32 0 59 25q18 18 42 62q1 2 3.5 7.5t3.5 8.5q1 2 8 18q9 20 28 11zM212 239q20 -5 15 -26q-1 -5 -4 -17q41 89 45 161v1v4v1
q2 38 -10 55q-9 14 -29 15q-23 1 -47 -17t-41 -40.5t-37.5 -64t-30.5 -65.5l-27 -67l-7 -17q-12 -40 -15 -71q-2 -51 35 -52h1h1h1q64 -1 125 91q-8 21 -8 46q0 24 7 48q2 9 10 13t16 2z" />
    <glyph glyph-name="c" unicode="c" horiz-adv-x="367" 
d="M412 238q19 -9 11 -28q-52 -116 -135 -169q-69 -43 -154 -40h-2h-1q-58 3 -91 35q-38 37 -37 101v2v1q3 70 40 150q36 82 86 135q23 23 49 35q26 14 52 14h1h3h1q36 -2 58 -27t22 -68v-6v0v0q0 -19 -8 -40q-5 -16 -19 -37q-12 -16 -30 -5q-16 12 -5 30q9 10 14 26
q6 13 6 28v4q0 28 -12 40q-10 11 -28 13h-3q-12 0 -34 -9q-22 -13 -36 -28q-46 -47 -79 -122q-33 -76 -36 -135v-2q-1 -47 24 -69q22 -22 64 -24h2q74 -2 131 34q73 46 118 150q9 18 28 11z" />
    <glyph glyph-name="d" unicode="d" horiz-adv-x="430" 
d="M475 238q20 -9 11 -28q-33 -72 -61 -113q-31 -47 -65 -72q-18 -12 -39 -18q-20 -7 -41 -7v0h-1q-32 0 -53 22q-20 23 -20 62v1v2v1q-60 -87 -129 -86q-42 1 -62 34q-20 28 -18 80q1 45 23 118t57 132q65 108 141 109h9q40 -3 69 -35q1 -2 4 -5.5t5 -6.5t3 -6l19 52l22 63
v1l6 17q2 7 5.5 17.5t9.5 26.5t10 28q7 19 27 12q19 -7 12 -27l-24 -70l-6 -18l-1 -1l-21 -63l-86 -245q-15 -48 -23 -77q-10 -35 -10 -52v-2q0 -23 10 -33q8 -9 21 -9h1q12 0 29 5q15 5 27 13q27 20 54 60q27 42 57 108q10 19 28 10zM78 44q23 -1 46.5 16.5t40 40
t36.5 62.5t30 64.5l27 66.5q5 11 12.5 30l10.5 27q1 3 1 7q-2 36 -18 54q-17 18 -40 20q-2 1 -6 1q-52 -1 -105 -89q-32 -54 -52.5 -121t-21.5 -108q0 -38 11 -56q9 -14 28 -15z" />
    <glyph glyph-name="e" unicode="e" horiz-adv-x="364" 
d="M409 238q19 -9 11 -28q-52 -116 -135 -169q-69 -43 -154 -40h-2h-1q-58 3 -91 35q-38 37 -37 101v2v1q1 34 15 84l1 1v1q10 34 24 64q36 82 86 135q23 23 49 35q26 14 53 14q34 0 54 -15q22 -14 29 -42q6 -21 -3 -50q-13 -42 -48 -71q-35 -30 -92 -54q-61 -26 -115 -40
q-10 -37 -11 -64v-2q-1 -47 24 -69q22 -22 64 -24h2q74 -2 131 34q73 46 118 150q9 18 28 11zM78 273l-9 -23q45 14 82 31q52 23 82 48q26 21 35 51q5 16 2 28q-3 11 -11 16q-11 8 -31 8q-17 0 -35 -9q-22 -13 -36 -28q-46 -47 -79 -122z" />
    <glyph glyph-name="f" unicode="f" horiz-adv-x="194" 
d="M394 727q4 -8 1.5 -16t-10.5 -12q-7 -4 -15.5 -1t-12.5 11q-4 7 -11 12q-5 4 -15 6q-35 5 -68 -33q-40 -47 -78 -145q-15 -35 -29 -75h64q8 0 14.5 -6.5t6.5 -14.5q0 -9 -6.5 -15t-14.5 -6h-80q-40 -106 -60 -164l-8 -20v-1l-53 -148l-42 -121l10 3.5t10 4.5
q65 27 115 80q58 60 101 161q3 8 11.5 11.5t15.5 -0.5q8 -3 11.5 -11t0.5 -16q-48 -109 -109 -174q-55 -59 -130 -90q-22 -10 -53 -19l-12 -35q-29 -82 -50 -113q-40 -59 -104 -62q-15 0 -22 1q-45 4 -72 33q-23 26 -25 64v14q3 25 14 44t23.5 30t39 20t43.5 12.5t54 10.5
q71 14 78 16l52 150l53 149l1 1l7 19l55 150h-65q-9 0 -15 6t-6 15q0 8 6 14.5t15 6.5h81l34 91q41 106 86 157q49 55 105 47q20 -3 35 -14v0q13 -9 23 -28zM-92 -94l3 10q-8 -2 -26.5 -5.5l-28.5 -5.5q-35 -6 -53.5 -10.5t-40.5 -13t-32.5 -22t-12.5 -33.5v-9q2 -22 14 -36
q16 -17 45 -20q5 -1 17 -1q42 1 70 43v0q18 27 45 103z" />
    <glyph glyph-name="g" unicode="g" horiz-adv-x="414" 
d="M458 238q8 -3 11.5 -11t0.5 -16q-48 -109 -109 -174q-55 -59 -130 -90q-22 -10 -53 -19l-12 -35q-29 -82 -50 -113q-40 -59 -104 -62q-15 0 -22 1q-45 4 -72 33q-23 26 -25 64q0 10 1 14q2 25 13 44t23.5 30t39 20t43.5 12.5t54 10.5q71 14 78 16l30 85q-47 -48 -98 -47
q-43 1 -63 34q-18 28 -18 80q2 46 24 118.5t56 131.5q65 108 141 109h9q40 -3 69 -35q9 -11 14 -21q5 12 15 40l1 1v1q3 8 11 12t16 0q20 -7 13 -27l-1 -1v-1q-23 -57 -74 -195l-53 -149l-42 -121l10 3.5t10 4.5q65 27 115 80q58 60 101 161q3 8 11.5 11.5t15.5 -0.5z
M126 -94l3 10q-8 -2 -26.5 -5.5l-28.5 -5.5q-35 -6 -53.5 -10.5t-40.5 -13t-32.5 -22t-12.5 -33.5v-9q2 -22 14 -36q16 -17 45 -20q5 -1 17 -1q42 1 70 43v0q18 27 45 103zM78 43q23 -1 46 16.5t40 40t37 62t30.5 65l26.5 66.5q13 34 23 57v7q0 34 -18 54q-15 18 -40 20
q-2 1 -5 1q-54 -1 -105 -89q-32 -54 -52.5 -121t-21.5 -108q-2 -37 10 -56q9 -14 29 -15z" />
    <glyph glyph-name="h" unicode="h" horiz-adv-x="399" 
d="M444 238q18 -8 11 -28l-2 -3l-25 -55t-28.5 -53t-36 -51.5t-41 -33t-50.5 -14.5v0h-1q-38 0 -57 29q-14 22 -14 55v0v3q0 24 11 68q10 33 24 73q4 7 7 19q36 89 36 134q0 52 -52 52q-34 0 -79 -55q-53 -67 -90 -166l-1 -1l-70 -196q-7 -20 -27 -14q-20 7 -13 27l70 197
l1 1v1q0 1 1 1q60 168 72 197v1q15 43 19 53q3 10 10.5 31t9.5 28l6 17q3 8 25 72q8 19 27 12q20 -7 13 -27q-21 -58 -25 -71q-1 -2 -2.5 -7.5t-3.5 -9.5q-13 -39 -21 -59l-13 -37q47 47 91 47q94 0 94 -94q0 -48 -38 -149q-2 -4 -4 -10.5t-3 -8.5q-14 -35 -23 -69
q-10 -35 -10 -58v-2q0 -21 7 -32q7 -10 22 -10h1q18 0 36 13t31 29t29.5 45t24.5 46.5l22 48.5l1 3q9 20 28 11z" />
    <glyph glyph-name="i" unicode="i" horiz-adv-x="184" 
d="M163 524q-14 0 -24.5 10t-10.5 24t10.5 24t24.5 10t24 -10t10 -24t-10 -24t-24 -10zM229 238q8 -3 11.5 -11.5t-0.5 -16.5q-41 -92 -68 -131q-54 -79 -116 -79v0h-1q-37 0 -57 29q-14 22 -14 55v0v3q0 23 11 62q10 39 24 79q3 11 22 62q27 77 36 99q1 2 8 25l17 46
q6 20 26 13q20 -6 13 -26l-16 -47l-9 -25l-36 -100l-21 -60q-14 -39 -24 -76q-9 -40 -9 -53v-2q0 -21 7 -32q7 -10 22 -10h1v0q39 0 81 60q23 34 64 125q4 8 12.5 11.5t15.5 -0.5z" />
    <glyph glyph-name="j" unicode="j" horiz-adv-x="195" 
d="M239 239q8 -3 11.5 -11t0.5 -16q-48 -109 -109 -174q-55 -59 -130 -90q-22 -10 -53 -19l-12 -35q-29 -82 -50 -113q-40 -59 -104 -62q-15 0 -22 1q-45 4 -72 33q-23 26 -25 64v14q3 25 14 44t23.5 30t39 20t43.5 12.5t54 10.5q71 14 78 16l52 150l54 149l73 196l1 1v1
q3 8 11 12t16 0q20 -7 13 -27l-1 -1v-1q-23 -57 -74 -195l-53 -149l-42 -121l10 3.5t10 4.5q65 27 115 80q58 60 101 161q3 8 11.5 11.5t15.5 -0.5zM-93 -93l3 10q-8 -2 -26.5 -5.5l-28.5 -5.5q-35 -6 -53.5 -10.5t-40.5 -13t-32.5 -22t-12.5 -33.5v-9q2 -22 14 -36
q16 -17 45 -20q5 -1 17 -1q42 1 70 43v0q18 27 45 103zM166 524q-14 0 -24.5 10t-10.5 24t10.5 24t24.5 10t24 -10t10 -24t-10 -24t-24 -10z" />
    <glyph glyph-name="k" unicode="k" horiz-adv-x="398" 
d="M132 412l-1 -2l-73 -199l-70 -196q-7 -20 -27 -14q-20 7 -13 27l70 197l1 1q59 165 73 199v1q15 43 19 53q3 10 10.5 31t9.5 28l6 17l25 72q7 19 27 12t13 -27q-2 -7 -11.5 -33.5t-13.5 -36.5q-1 -2 -2 -5.5t-2 -6.5l-2 -6q-13 -39 -21 -59zM443 238q19 -7 11 -28
q-41 -92 -69 -131q-53 -79 -115 -79q-31 0 -52 21q-19 21 -22 54v1q0 21 6 67q5 50 5 59q-2 45 -44 45q-9 0 -23 -7q-2 -1 -10 -6l-14 -13q-8 -6 -17 -5h-2q0 1 -2 1q-1 0 -1 1h-1q-1 0 -1 1q-4 2 -6 4q-13 15 0 29q1 1 7 6t10 8l223 204q16 14 30 -2q6 -6 5.5 -15t-6.5 -14
l-167 -152q59 -10 61 -85q0 -21 -6 -65q-5 -52 -5 -58h1q0 -17 10 -29q8 -8 21 -8q39 0 80 60q26 38 65 125q9 20 28 11z" />
    <glyph glyph-name="l" unicode="l" horiz-adv-x="209" 
d="M255 238q19 -9 10 -28q-33 -72 -61 -113q-31 -47 -65 -72q-18 -12 -38 -18q-20 -7 -42 -7v0h-1q-33 0 -52 22q-21 23 -21 62v1v2q0 24 11 62q5 19 24 79l86 246l22 64l6 17l25 72q7 19 27 13q20 -7 13 -27l-13 -36t-12 -35q-1 -2 -2 -5.5t-2 -6.5l-2 -6l-22 -64l-86 -245
q-15 -48 -23 -77q-10 -35 -10 -52v-2q0 -23 10 -33q7 -9 21 -9h1v0q12 0 29 5q15 5 27 13q26 18 54 60q24 35 57 108q4 8 12.5 11t16.5 -1z" />
    <glyph glyph-name="m" unicode="m" horiz-adv-x="621" 
d="M666 238q20 -9 11 -28l-1 -3q-19 -44 -32.5 -70t-37.5 -63t-52 -55.5t-59 -18.5h-1h-1q-37 0 -57 29q-14 22 -14 55v0v3q2 32 12 68q5 21 24 73q4 12 7 19q35 93 35 134q0 52 -52 52q-33 0 -78 -55q-49 -60 -87 -157l-31 -90q-7 -19 -16 -46.5l-14.5 -44.5t-6.5 -19
q-7 -20 -27 -13t-13 27q8 20 37 109l26 78v2q1 2 1 3q2 4 4 10q12 32 13 38q23 61 23 102q0 22 -7 35q-6 13 -19 17q-12 4 -24 4q-35 0 -87 -73q-37 -55 -82 -149q0 -2 -2 -4l-68 -193q-7 -20 -27 -14q-20 7 -13 27l72 205l82 228q7 20 27 13t13 -27q-5 -11 -10 -28
q49 57 95 57q21 0 38 -6q29 -11 43 -38q11 -22 11 -48q3 5 9 13t7 9q56 70 111 70q94 0 94 -94q0 -54 -38 -149q-1 -3 -3 -9.5t-3 -9.5q-14 -35 -23 -69q-10 -35 -10 -58l-1 -2h1q0 -21 7 -32q7 -10 22 -10h1q29 0 58.5 33.5t45.5 65t38 83.5l1 3q4 8 12.5 11.5t15.5 -0.5z
" />
    <glyph glyph-name="n" unicode="n" horiz-adv-x="399" 
d="M444 238q20 -9 11 -28l-2 -3l-25 -55t-28.5 -53t-36 -51.5t-41 -33t-50.5 -14.5v0h-1q-37 0 -57 29q-14 22 -14 55v0v3q0 27 12 68q5 21 24 73q4 12 7 19q35 93 35 134q0 52 -52 52q-33 0 -78 -55q-54 -67 -91 -165l-70 -198q-7 -20 -27 -14q-20 7 -13 27l70 197v2
q0 1 0.5 1t0.5 1v1l1 2l82 228q7 20 27 13t13 -27q-2 -4 -4 -10t-4 -10q47 49 93 49q94 0 94 -94q0 -48 -38 -149q-2 -4 -4 -10.5t-3 -8.5q-19 -56 -23 -69q-10 -35 -10 -58v-2q0 -21 7 -32q7 -10 22 -10h1v0q18 0 36 13t31 29t29.5 45t24.5 46.5l22 48.5l1 3q9 20 28 11z
" />
    <glyph glyph-name="o" unicode="o" horiz-adv-x="391" 
d="M436 238q8 -3 11.5 -11t-0.5 -16q-2 -3 -4 -9.5t-4 -10.5q-3 -5 -9 -17q-27 -50 -50 -73q-39 -37 -88 -37q-14 0 -28 3q-25 8 -44 24q-30 -40 -66 -65.5t-70 -25.5q-39 0 -60.5 21t-25 55t2.5 74.5t21 82.5t30 76.5t30 58.5q65 107 140 107h1q48 -2 75 -33q26 -31 25 -81
q-1 -47 -22.5 -112t-55.5 -122q11 -14 30 -19q10 -2 17 -2q33 0 58 25q22 22 42 62l2 4t2 3.5t2 4t2 4.5t8 18q3 8 11.5 11.5t16.5 -0.5zM221 239q20 -5 15 -26q-3 -7 -5 -23q48 97 50 172q1 34 -15 52q-14 17 -44 19q-53 0 -103 -87q-38 -62 -65 -157q-37 -143 30 -147
q51 0 112 87q-8 19 -8 47q0 24 7 48q5 20 26 15z" />
    <glyph glyph-name="p" unicode="p" horiz-adv-x="380" 
d="M425 238q8 -3 11.5 -11.5t-0.5 -15.5q-1 -4 -8 -20q-3 -5 -9 -17q-23 -46 -50 -73q-37 -37 -88 -37q-15 0 -28 3q-27 9 -41 23q-71 -96 -150 -93h-1h-2h-1q-52 3 -68 42l-96 -269q-7 -20 -27 -13t-13 27l112 313l53.5 147l50 137.5l23.5 63.5q1 2 3 8t3 8q7 20 27 13
t13 -27l-8 -21q49 50 100 49q43 -1 63 -34q18 -28 18 -80l-1 -5v-1q-6 -105 -71 -220q-1 -3 -5 -9q12 -13 29 -18q12 -2 18 -2q31 0 58 25q18 18 42 62l2 4t1.5 3.5t2 4t2.5 4.5q6 16 7 18q9 20 28 11zM210 239q20 -5 15 -26q-3 -8 -5 -26q46 96 49 170v1v4v1q2 38 -10 55
q-9 14 -29 15q-23 1 -47 -17t-41 -40.5t-37.5 -64t-30.5 -65.5l-27 -67l-7 -17q-12 -40 -15 -71q-2 -51 35 -52h1h2q65 -1 123 88q-9 21 -9 49q0 24 7 48q2 9 10 13t16 2z" />
    <glyph glyph-name="q" unicode="q" horiz-adv-x="404" 
d="M449 237q19 -9 11 -28q-48 -102 -81 -140q-45 -51 -97 -54q9 -50 11 -102q0 -84 -25 -131q-26 -50 -72 -59l-1 -1q-5 -1 -17 -1v0h-2h-3q-35 1 -53 28q-14 21 -14 54h-1v4l1 2q0 21 10 61q5 20 24 79l34 98q-48 -48 -96 -47q-42 1 -62 34q-20 28 -18 80q1 46 23 119.5
t57 132.5q65 108 141 109h9q40 -3 69 -35q6 -8 12 -18l15 39q7 20 27 13q19 -9 12 -28l-39 -103q0 -1 -0.5 -3t-0.5 -3q-2 -4 -3 -7l-51 -138l-89 -257q-15 -44 -23 -76q-9 -38 -9 -51v-1v-4q0 -20 7 -30t20 -10h1h2q6 0 9 1q26 5 43 37q21 41 20 111q0 57 -14 121q-2 5 0 9
q1 9 8.5 14t15.5 3q48 -10 87 38q29 33 74 129q4 8 12.5 11.5t15.5 -0.5zM79 42q23 -1 46.5 17t40 40t37 63t30 64.5l26.5 67.5q16 41 22 53q0 1 2 5v6q-2 36 -18 54q-17 18 -40 20q-2 1 -6 1q-52 -1 -105 -89q-32 -54 -52.5 -122t-21.5 -109q0 -38 11 -56q9 -14 28 -15z
" />
    <glyph glyph-name="r" unicode="r" horiz-adv-x="368" 
d="M413 238q20 -9 11 -28l-1 -3q-15 -34 -25 -54.5t-29 -53.5t-36 -51.5t-41.5 -33t-50.5 -14.5v0h-1q-37 0 -57 29q-14 22 -14 55v0v3q0 23 11 62q10 39 24 79l18 56l18 52l-16 5q-72 25 -93 35q-2 -7 -10 -25v-1l-81 -175q-9 -19 -28 -10t-10 28l80 174l12 30
q-56 39 -51 94q3 22 19 38l1 1q18 16 41 16q7 0 17 -2l1 -1q20 -5 32 -26q8 -15 8 -37q0 -13 -5 -30q-3 -10 -11 -34q23 -12 91 -35q23 -7 38 -12q8 -3 11.5 -11.5t0.5 -16.5v-1q-14 -36 -24 -69l-19 -56q-20 -61 -23 -76q-8 -30 -10 -53v-2q0 -21 8 -32q7 -10 22 -10v0
q22 0 43 16t41 49.5t30.5 54.5t28.5 62l1 3q9 20 28 11zM117 463q3 9 3 18q0 10 -3 16q-3 5 -7 6h-1q-1 0 -2.5 0.5t-2.5 0.5q-7 0 -12 -5h-1q-4 -4 -6 -13q-3 -25 24 -47q1 4 4 12t4 12z" />
    <glyph glyph-name="s" unicode="s" horiz-adv-x="385" 
d="M272 336q19 -32 28.5 -50.5t19.5 -48.5t10 -58v-1v-1q-1 -84 -60 -133q-51 -42 -123 -44h-1q-2 0 -5.5 0.5t-4.5 0.5q-60 3 -102 47q-38 43 -38 98v9q5 60 42 99q36 40 94 41q39 0 68 -31q27 -28 28 -70q0 -9 -6 -15t-15 -6t-15 6t-6 15q-1 25 -17 42q-15 17 -36 17
q-38 0 -64 -28q-28 -29 -31 -73v-6q0 -40 27 -69q28 -31 73 -34q3 -1 8 -1v0h1q55 2 96 34q44 37 45 102v1q-1 48 -52 136l-17 29q-11 -11 -20 -23q-14 -16 -30 -2q-16 12 -3 29q16 20 33 36l1 1q-20 46 -13 88q1 13 8 28q0 1 0.5 1t0.5 1q6 13 17 24q9 9 21 14v0q12 6 24 6
q22 -2 35 -17q11 -11 13 -35q0 -10 -4 -28q-2 -12 -10 -29q-14 -30 -42 -62q2 -4 10 -18t12 -22zM232 420q15 20 22 36q6 14 7 21q3 10 2 18q0 7 -2 8q0 1 -3 1q-2 1 -7 -1q-6 -4 -9 -7q-5 -5 -8 -12l-1 -1q-4 -9 -5 -17q-3 -23 4 -46z" />
    <glyph glyph-name="t" unicode="t" horiz-adv-x="208" 
d="M254 238q19 -9 10 -28q-33 -72 -61 -113q-31 -47 -65 -72q-18 -12 -38 -18q-20 -7 -42 -7v0h-1q-33 0 -52 22q-21 23 -21 62v1v2q0 23 11 62q10 39 24 79q3 11 22 62l36 99q0 2 15 44h-63q-9 0 -15 6t-6 15q0 8 6 14.5t15 6.5h77q2 3 4 11t4 11l44 127q7 20 27 13t13 -27
q-5 -12 -44 -127q0 -1 -1 -4t-2 -4h67q9 0 15 -6.5t6 -14.5q0 -9 -6 -15t-15 -6h-82q-5 -17 -12 -37l-8 -21l-36 -100l-21 -60q-14 -39 -24 -76q-9 -40 -9 -53v-2q0 -23 10 -33q7 -9 21 -9h1v0q12 0 29 5q15 5 27 13q26 18 54 60q24 35 57 108q4 8 12.5 11t16.5 -1z" />
    <glyph glyph-name="u" unicode="u" horiz-adv-x="365" 
d="M411 238q19 -9 10 -28l-1 -3q-19 -44 -32.5 -70t-37.5 -63t-52 -55.5t-59 -18.5v0h-1h-1q-37 0 -56 29q-11 16 -14 42q-50 -71 -110 -71v0h-1q-37 0 -57 29q-14 22 -14 55v0v3q0 23 11 62q10 39 24 79l29 82l56 152q7 19 27 12q19 -7 12 -27l-55 -152l-11.5 -32
l-11 -29.5t-6.5 -18.5q-14 -39 -24 -76q-9 -40 -9 -53v-2q0 -21 7 -32q7 -10 23 -10v0q18 0 36 13t31 29t29.5 45t24.5 46.5l22 48.5v1q1 1 1 3l29 82l56 152q7 19 27 12t13 -27l-56 -152q-28 -77 -29 -80v-1q0 -1 -1 -4q-15 -44 -22 -71q-9 -33 -9 -53v-2q0 -21 7 -32
q7 -10 22 -10h1q29 0 58.5 33.5t45.5 65t38 83.5l2 3q3 8 11.5 11.5t16.5 -0.5z" />
    <glyph glyph-name="v" unicode="v" horiz-adv-x="345" 
d="M390 238q8 -3 11.5 -11.5t-0.5 -15.5q-1 -4 -8 -20l-4 -8t-5 -9q-23 -46 -50 -73q-37 -37 -88 -37q-14 0 -28 3q-26 8 -42 24l-14 -20q-54 -71 -107 -71h-2q-38 1 -56 29q-14 22 -14 55v3q0 23 11 62q10 39 24 79l29 82l55 152q3 8 11.5 11.5t16.5 0.5q19 -7 12 -27
l-55 -152q-16 -42 -29 -80q-14 -39 -24 -76q-9 -40 -9 -53v-2q0 -21 7 -32q7 -9 22 -10h1q32 0 73 54l22 33q-8 21 -8 47q0 24 7 48q2 9 10 13t16 2q20 -5 15 -26q-4 -15 -5 -24q11 19 25 48l62 121q35 67 52 106q4 8 12.5 11t16.5 -1t11 -12.5t-1 -16.5l-53 -106l-62 -122
q-32 -62 -49 -90q13 -15 30 -19q12 -2 18 -2q33 0 58 25q18 18 42 62l2 4t1.5 3.5t2 4t2.5 4.5q7 16 7 18q9 20 28 11z" />
    <glyph glyph-name="w" unicode="w" horiz-adv-x="529" 
d="M574 238q8 -3 11.5 -11.5t-0.5 -15.5q-1 -4 -8 -20q-3 -5 -9 -17q-27 -50 -50 -73q-39 -37 -88 -37q-14 0 -28 3q-26 8 -42 24q-10 -14 -15 -20q-53 -71 -106 -71h-2q-38 1 -56 29q-11 16 -14 42q-50 -71 -110 -71v0h-1q-37 0 -57 29q-14 22 -14 55v0v3q0 23 11 62
q10 39 24 79l29 82l56 152q7 19 27 12q19 -7 12 -27l-55 -152l-11.5 -32l-11 -29.5t-6.5 -18.5q-14 -39 -24 -76q-9 -40 -9 -53v-2q0 -21 7 -32q7 -10 23 -10v0q18 0 36 13t31 29t29.5 45t24.5 46.5l22 48.5l1 2v2l29 82l56 152q7 19 27 12t13 -27l-56 -152q-28 -77 -29 -80
v-1q0 -1 -1 -2v-2q-16 -47 -22 -71q-9 -33 -9 -53v-2q0 -21 7 -32q7 -9 21 -10h2q32 0 73 54l22 33q-8 21 -8 47q0 24 7 48q5 20 26 15q20 -5 15 -26q-3 -7 -5 -24q21 38 25 48l62 121l52 106q10 19 28 10q19 -9 10 -29l-52 -106l-62 -122l-49 -90q11 -14 30 -19
q10 -2 17 -2q33 0 58 25q20 20 43 62q4 10 7 16q1 2 8 18q9 20 28 11z" />
    <glyph glyph-name="x" unicode="x" horiz-adv-x="460" 
d="M505 238q20 -9 11 -28q-41 -91 -70 -132q-57 -78 -117 -78q-98 0 -138 165l-141 -158q-14 -16 -30 -2t-2 30l163 182q-8 48 -16 118q-8 74 -12 91q-2 -3 -4.5 -9t-3.5 -9q-1 -1 -2 -4t-1 -4l-41 -92l-59 -132q-9 -20 -28 -11q-19 10 -10 28l59 132l41 93q0 2 2 6
q6 16 11 25t16.5 19t25.5 10q16 0 25 -12l1 -2q4 -7 7 -18q5 -23 15 -106q7 -64 10 -83l188 211q15 15 30 1q6 -5 6.5 -14t-5.5 -15l-210 -236q30 -161 103 -161q41 0 82 60q27 37 66 124q4 8 12.5 11.5t15.5 -0.5z" />
    <glyph glyph-name="y" unicode="y" horiz-adv-x="377" 
d="M421 239q8 -3 11.5 -11t0.5 -16q-48 -109 -109 -174q-55 -59 -130 -90q-22 -10 -53 -19l-12 -35q-29 -82 -50 -113q-40 -59 -104 -62q-15 0 -22 1q-45 4 -72 33q-23 26 -25 64v14q3 25 14 44t23.5 30t39 20t43.5 12.5t54 10.5q71 14 78 16l24 68q-35 -32 -75 -32h-1h-1
q-37 0 -57 29q-14 22 -14 55v0v3q2 29 11 62q5 19 24 79l29 82l56 152q7 19 27 12q19 -7 12 -27l-55 -152l-11.5 -32l-11 -29.5t-6.5 -18.5q-15 -47 -23 -76q-8 -30 -10 -53v-2h1q0 -23 7 -32q7 -10 22 -10h1q22 0 42.5 16t40.5 49.5t30.5 54.5t28.5 62l1 3q1 1 1 2
q2 6 6.5 17.5l6.5 16.5l73 196l1 1v1q3 8 11 12t16 0q20 -7 13 -27l-1 -1v-1q-23 -57 -74 -195l-53 -149l-42 -121l10 3.5t10 4.5q65 27 115 80q58 60 101 161q3 8 11.5 11.5t15.5 -0.5zM89 -93l3 10q-8 -2 -26.5 -5.5l-28.5 -5.5q-35 -6 -53.5 -10.5t-40.5 -13t-32.5 -22
t-12.5 -33.5v-9q2 -22 14 -36q16 -17 45 -20q5 -1 17 -1q42 1 70 43v0q18 27 45 103z" />
    <glyph glyph-name="z" unicode="z" horiz-adv-x="420" 
d="M465 239q8 -3 11.5 -11.5t-0.5 -15.5q-77 -181 -217 -246q-29 -81 -75 -141q-28 -39 -64 -63q-36 -23 -72 -24q-15 0 -22 1q-47 4 -72 33q-23 26 -25 64v14q3 26 13 44.5t21 29t35.5 19t39.5 11.5t50 9q92 15 138 35l2 8q18 58 12 101q-3 17 -10 29q-39 -20 -82 -19
q-17 0 -24 1q-22 3 -37 12q-22 14 -21 37v6q3 24 31 38q21 11 50 10q42 -3 68 -16q13 -6 23 -14q11 7 19 16q59 56 64 120q1 6 1 17q0 39 -21 63q-17 22 -48 25q-1 0 -4 0.5t-5 0.5q-26 -2 -48 -14q-23 -12 -45 -38q-15 -19 -30 -42l-27 -48q-23 -46 -49 -106l-4 -9
q-9 -20 -28 -11q-8 3 -11 11.5t0 15.5l4 10q35 78 51 108q16 31 28 51q11 17 33 47q28 32 58 49q33 18 68 18q9 0 13 -1q48 -5 76 -39q31 -36 31 -91v-21q-9 -81 -77 -146q-7 -7 -21 -19q12 -19 15 -44q6 -36 -4 -90q101 64 160 204q9 20 28 11zM149 159q24 -1 47 8
q-23 11 -52 12q-16 0 -28 -5q-8 -5 -8 -7v-1q0 1 1 0q4 -2 21 -6q6 -1 19 -1zM151 -150q29 42 54 95q-35 -11 -110 -24q-32 -5 -48.5 -9t-36 -12t-28.5 -21t-11 -33v-9q2 -22 14 -36q16 -17 45 -20q5 -1 17 -1q26 2 50 18q26 16 54 52z" />
    <glyph glyph-name="braceleft" unicode="{" horiz-adv-x="366" 
d="M484 844q9 -1 15 -7.5t5 -14.5q0 -9 -6.5 -15t-15.5 -5q-35 1 -63.5 -5.5t-49.5 -24t-35 -33.5t-27 -47t-19.5 -49.5t-17.5 -55.5q-13 -46 -22.5 -73.5t-28 -61.5t-41.5 -55q4 -6 6 -10l1 -1q41 -71 -31 -202q-5 -8 -13 -22t-9 -16q-50 -86 -55 -119q-3 -26 19 -43.5
t78 -25.5q8 -1 13.5 -8t4.5 -16q-1 -8 -8 -13.5t-16 -4.5q-78 11 -108 40.5t-24 75.5q5 39 60 136l21 37q60 108 31 160v1q-1 1 -5 7q-37 -21 -92 -22h-1v0h-1q-20 0 -32 8q-17 12 -17 34v1q0 16 13 27.5t35 16.5q35 8 71 -2q15 -5 25 -10q21 18 38.5 49t26 55t21.5 69
q10 36 16 54.5t19 50t24.5 48.5t31 38t41.5 31.5t53.5 17.5t68.5 5zM50 393q20 0 40 5q-15 3 -32 -1l-16 -3v0v0v0q1 -1 7 -1h1z" />
    <glyph glyph-name="bar" unicode="|" horiz-adv-x="277" 
d="M158 811q9 0 15.5 -5.5t6.5 -12.5v-860q0 -7 -6.5 -12.5t-15.5 -5.5t-15.5 5.5t-6.5 12.5v860q0 7 6.5 12.5t15.5 5.5z" />
    <glyph glyph-name="braceright" unicode="}" horiz-adv-x="521" 
d="M21 -77q-9 1 -15 7.5t-5 14.5q0 9 6.5 15t15.5 5q35 -1 63.5 5.5t49.5 24t35 33.5t27 47t19.5 49.5t17.5 55.5q13 46 22.5 73.5t28 61.5t41.5 55q-4 6 -6 10l-1 1q-41 71 31 202q5 8 13 22t9 16q50 86 55 119q3 26 -19 43.5t-78 25.5q-8 1 -13.5 8t-4.5 16q1 8 8 13.5
t16 4.5q78 -11 108 -40.5t24 -75.5q-5 -39 -60 -136l-21 -37q-60 -108 -31 -160v-1q1 -1 5 -7q37 21 92 22h1v0h1q20 0 32 -8q17 -12 17 -34v-1q0 -16 -13 -27.5t-35 -16.5q-35 -8 -71 2q-15 5 -25 10q-21 -18 -38.5 -49t-26 -55t-21.5 -69q-10 -36 -16 -54.5t-19 -50
t-24.5 -48.5t-31 -38t-41.5 -31.5t-53.5 -17.5t-68.5 -5zM456 374h-1q-20 0 -40 -5q15 -3 32 1l16 3v0v0v0q-1 1 -7 1z" />
    <glyph glyph-name="asciitilde" unicode="~" horiz-adv-x="472" 
d="M435 419q11 -16 -6 -29q-33 -21 -64.5 -30.5t-65 -7.5t-53 6t-54.5 13q-30 9 -46.5 12t-37 -0.5t-34.5 -18.5q-6 -7 -15 -7t-15 5q-7 6 -7 15t5 15q17 19 35 28t41.5 8t39 -4.5t46.5 -11.5q40 -11 63.5 -15t63.5 1t75 28q7 5 16 2.5t13 -9.5z" />
    <glyph glyph-name="Agrave" unicode="&#xc0;" 
d="M813 810q4 -7 0 -15.5t-12 -13.5q-8 -4 -16.5 -2t-11.5 10l-61 144q-7 18 11 29q21 10 28 -8zM811 675q8 -27 -2 -80.5t-23 -92.5l-39 -114q-9 -23 -26 -72v-1l-18 -47q-108 -294 -108 -344v-4q0 -41 14 -63q17 -24 51 -24h2q8 0 14.5 -6.5t6.5 -15.5q0 -8 -6.5 -14.5
t-14.5 -6.5h-2q-58 1 -86 44q-22 33 -22 86v1v3q1 61 112 358v0q2 8 4 11h-212q-72 -123 -138 -199.5t-130 -88.5q-16 -4 -36 -4q-53 0 -97 29q-42 31 -53 81q-2 18 -2 26q0 37 16 71q21 42 58 68q38 26 80 26q25 0 46 -10q8 -4 11 -12.5t-1 -15.5q-4 -8 -12.5 -11t-15.5 1
q-14 6 -28 6q-28 0 -56 -19q-29 -19 -44 -51q-12 -27 -12 -53q0 -6 2 -18q6 -34 36 -54q29 -21 72 -21q19 0 28 2q92 19 227 247h-49q-9 0 -15.5 6.5t-6.5 14.5q0 9 6.5 15.5t15.5 6.5h74l73 132q91 169 125 213q23 28 48 42q28 17 55 17q28 0 49 -18q19 -18 29 -47z
M707 403q25 70 37 106.5t22 84.5t4 69q-5 17 -15 27q-8 7 -22 7q-14 1 -34 -10q-20 -12 -35 -32q-33 -43 -122 -207l-62 -112h203z" />
    <glyph glyph-name="Aacute" unicode="&#xc1;" 
d="M722 812l129 141q16 18 30 7q7 -5 8.5 -14.5t-4.5 -17.5l-129 -141q-14 -16 -32 -4q-6 5 -7 13t5 16zM811 675q8 -27 -2 -80.5t-23 -92.5l-39 -114q-9 -23 -26 -72v-1l-18 -47q-108 -294 -108 -344v-4q0 -41 14 -63q17 -24 51 -24h2q8 0 14.5 -6.5t6.5 -15.5
q0 -8 -6.5 -14.5t-14.5 -6.5h-2q-58 1 -86 44q-22 33 -22 86v1v3q1 61 112 358v0q2 8 4 11h-212q-72 -123 -138 -199.5t-130 -88.5q-16 -4 -36 -4q-53 0 -97 29q-42 31 -53 81q-2 18 -2 26q0 37 16 71q21 42 58 68q38 26 80 26q25 0 46 -10q8 -4 11 -12.5t-1 -15.5
q-4 -8 -12.5 -11t-15.5 1q-14 6 -28 6q-28 0 -56 -19q-29 -19 -44 -51q-12 -27 -12 -53q0 -6 2 -18q6 -34 36 -54q29 -21 72 -21q19 0 28 2q92 19 227 247h-49q-9 0 -15.5 6.5t-6.5 14.5q0 9 6.5 15.5t15.5 6.5h74l73 132q91 169 125 213q23 28 48 42q28 17 55 17
q28 0 49 -18q19 -18 29 -47zM707 403q25 70 37 106.5t22 84.5t4 69q-5 17 -15 27q-8 7 -22 7q-14 1 -34 -10q-20 -12 -35 -32q-33 -43 -122 -207l-62 -112h203z" />
    <glyph glyph-name="Acircumflex" unicode="&#xc2;" 
d="M664 799l127 144q3 6 14 12q8 5 17 2t10 -10l40 -149q7 -18 -14 -30q-8 -4 -15.5 -2t-9.5 10l-30 117l-109 -120q-15 -16 -29 -4q-6 5 -6.5 13.5t5.5 16.5zM811 675q8 -27 -2 -80.5t-23 -92.5l-39 -114q-9 -23 -26 -72v-1l-18 -47q-108 -294 -108 -344v-4q0 -41 14 -63
q17 -24 51 -24h2q8 0 14.5 -6.5t6.5 -15.5q0 -8 -6.5 -14.5t-14.5 -6.5h-2q-58 1 -86 44q-22 33 -22 86v1v3q1 61 112 358v0q2 8 4 11h-212q-72 -123 -138 -199.5t-130 -88.5q-16 -4 -36 -4q-53 0 -97 29q-42 31 -53 81q-2 18 -2 26q0 37 16 71q21 42 58 68q38 26 80 26
q25 0 46 -10q8 -4 11 -12.5t-1 -15.5q-4 -8 -12.5 -11t-15.5 1q-14 6 -28 6q-28 0 -56 -19q-29 -19 -44 -51q-12 -27 -12 -53q0 -6 2 -18q6 -34 36 -54q29 -21 72 -21q19 0 28 2q92 19 227 247h-49q-9 0 -15.5 6.5t-6.5 14.5q0 9 6.5 15.5t15.5 6.5h74l73 132
q91 169 125 213q23 28 48 42q28 17 55 17q28 0 49 -18q19 -18 29 -47zM707 403q25 70 37 106.5t22 84.5t4 69q-5 17 -15 27q-8 7 -22 7q-14 1 -34 -10q-20 -12 -35 -32q-33 -43 -122 -207l-62 -112h203z" />
    <glyph glyph-name="Atilde" unicode="&#xc3;" 
d="M917 841q9 -17 -5 -31q-28 -23 -55.5 -28t-46.5 1t-50 22q-68 31 -99 -18q-4 -7 -12.5 -7t-12.5 5q-14 14 -2 30q46 63 129 31q8 -3 25.5 -11t25.5 -10t22 -3t27.5 5.5t29.5 20.5q5 5 12.5 2.5t11.5 -9.5zM811 675q8 -27 -2 -80.5t-23 -92.5l-39 -114q-9 -23 -26 -72v-1
l-18 -47q-108 -294 -108 -344v-4q0 -41 14 -63q17 -24 51 -24h2q8 0 14.5 -6.5t6.5 -15.5q0 -8 -6.5 -14.5t-14.5 -6.5h-2q-58 1 -86 44q-22 33 -22 86v1v3q1 61 112 358v0q2 8 4 11h-212q-72 -123 -138 -199.5t-130 -88.5q-16 -4 -36 -4q-53 0 -97 29q-42 31 -53 81
q-2 18 -2 26q0 37 16 71q21 42 58 68q38 26 80 26q25 0 46 -10q8 -4 11 -12.5t-1 -15.5q-4 -8 -12.5 -11t-15.5 1q-14 6 -28 6q-28 0 -56 -19q-29 -19 -44 -51q-12 -27 -12 -53q0 -6 2 -18q6 -34 36 -54q29 -21 72 -21q19 0 28 2q92 19 227 247h-49q-9 0 -15.5 6.5
t-6.5 14.5q0 9 6.5 15.5t15.5 6.5h74l73 132q91 169 125 213q23 28 48 42q28 17 55 17q28 0 49 -18q19 -18 29 -47zM707 403q25 70 37 106.5t22 84.5t4 69q-5 17 -15 27q-8 7 -22 7q-14 1 -34 -10q-20 -12 -35 -32q-33 -43 -122 -207l-62 -112h203z" />
    <glyph glyph-name="Egrave" unicode="&#xc8;" horiz-adv-x="476" 
d="M422 810q4 -7 0 -15.5t-12 -13.5q-8 -4 -16.5 -2t-11.5 10l-61 144q-7 18 11 29q21 10 28 -8zM521 239q19 -10 11 -28q-55 -135 -133.5 -203t-190.5 -68q-10 0 -15 1q-87 5 -139 57q-54 56 -54 140v14q7 112 90 192q39 38 93 61q-48 51 -42 117q4 26 8 41q-18 8 -32 18
q-70 46 -108 127q-9 19 10 28q7 4 15.5 1t12.5 -11q35 -72 93 -110q4 -3 12.5 -8t10.5 -6q20 43 56 76q69 63 166 63q49 0 76 -20q33 -21 33 -60v-1v-1q-2 -51 -64 -88q-61 -39 -147 -39l-8 1q-42 0 -87 14q-4 -17 -5 -29q-4 -54 44 -97q39 10 64 12q25 3 42 0q21 -3 29 -13
q11 -9 13 -25q2 -7 0 -13q-6 -34 -45 -41q-17 -4 -45 3q-23 4 -49 19q-2 1 -17 11q-59 -22 -100 -61q-73 -70 -76 -164q-1 -3 -1 -11q0 -70 42 -110q40 -42 111 -45q1 0 5.5 -0.5t7.5 -0.5q99 0 166.5 61t118.5 184q3 8 11.5 11.5t16.5 0.5zM296 391q-6 0 -16 -2q5 -2 15 -4
q17 -5 29 -3q9 2 9 7q-2 2 -7 3q-12 2 -30 -1zM248 647q-30 -27 -46 -60q38 -12 74 -12h7q74 0 125 32q42 27 44 53v1q0 15 -14 25q-19 13 -53 13q-79 0 -137 -52z" />
    <glyph glyph-name="Eacute" unicode="&#xc9;" horiz-adv-x="476" 
d="M340 812l129 141q16 18 30 7q7 -5 8.5 -14.5t-4.5 -17.5l-129 -141q-14 -16 -32 -4q-6 5 -7 13t5 16zM521 239q19 -10 11 -28q-55 -135 -133.5 -203t-190.5 -68q-10 0 -15 1q-87 5 -139 57q-54 56 -54 140v14q7 112 90 192q39 38 93 61q-48 51 -42 117q4 26 8 41
q-18 8 -32 18q-70 46 -108 127q-9 19 10 28q7 4 15.5 1t12.5 -11q35 -72 93 -110q4 -3 12.5 -8t10.5 -6q20 43 56 76q69 63 166 63q49 0 76 -20q33 -21 33 -60v-1v-1q-2 -51 -64 -88q-61 -39 -147 -39l-8 1q-42 0 -87 14q-4 -17 -5 -29q-4 -54 44 -97q39 10 64 12q25 3 42 0
q21 -3 29 -13q11 -9 13 -25q2 -7 0 -13q-6 -34 -45 -41q-17 -4 -45 3q-23 4 -49 19q-2 1 -17 11q-59 -22 -100 -61q-73 -70 -76 -164q-1 -3 -1 -11q0 -70 42 -110q40 -42 111 -45q1 0 5.5 -0.5t7.5 -0.5q99 0 166.5 61t118.5 184q3 8 11.5 11.5t16.5 0.5zM296 391
q-6 0 -16 -2q5 -2 15 -4q17 -5 29 -3q9 2 9 7q-2 2 -7 3q-12 2 -30 -1zM248 647q-30 -27 -46 -60q38 -12 74 -12h7q74 0 125 32q42 27 44 53v1q0 15 -14 25q-19 13 -53 13q-79 0 -137 -52z" />
    <glyph glyph-name="Ecircumflex" unicode="&#xca;" horiz-adv-x="476" 
d="M279 794l127 144q3 6 14 12q8 5 17 2t10 -10l40 -149q7 -18 -14 -30q-8 -4 -15.5 -2t-9.5 10l-30 117l-109 -120q-15 -16 -29 -4q-6 5 -6.5 13.5t5.5 16.5zM521 239q19 -10 11 -28q-55 -135 -133.5 -203t-190.5 -68q-10 0 -15 1q-87 5 -139 57q-54 56 -54 140v14
q7 112 90 192q39 38 93 61q-48 51 -42 117q4 26 8 41q-18 8 -32 18q-70 46 -108 127q-9 19 10 28q7 4 15.5 1t12.5 -11q35 -72 93 -110q4 -3 12.5 -8t10.5 -6q20 43 56 76q69 63 166 63q49 0 76 -20q33 -21 33 -60v-1v-1q-2 -51 -64 -88q-61 -39 -147 -39l-8 1q-42 0 -87 14
q-4 -17 -5 -29q-4 -54 44 -97q39 10 64 12q25 3 42 0q21 -3 29 -13q11 -9 13 -25q2 -7 0 -13q-6 -34 -45 -41q-17 -4 -45 3q-23 4 -49 19q-2 1 -17 11q-59 -22 -100 -61q-73 -70 -76 -164q-1 -3 -1 -11q0 -70 42 -110q40 -42 111 -45q1 0 5.5 -0.5t7.5 -0.5q99 0 166.5 61
t118.5 184q3 8 11.5 11.5t16.5 0.5zM296 391q-6 0 -16 -2q5 -2 15 -4q17 -5 29 -3q9 2 9 7q-2 2 -7 3q-12 2 -30 -1zM248 647q-30 -27 -46 -60q38 -12 74 -12h7q74 0 125 32q42 27 44 53v1q0 15 -14 25q-19 13 -53 13q-79 0 -137 -52z" />
    <glyph glyph-name="Igrave" unicode="&#xcc;" horiz-adv-x="544" 
d="M683 841q4 -7 0 -15.5t-12 -13.5q-8 -4 -16.5 -2t-11.5 10l-61 144q-7 18 11 29q21 10 28 -8zM713 736q1 -4 0 -9q-5 -42 -41.5 -67t-101.5 -42q-7 -19 -15 -50q-8 -26 -12 -38q-16 -44 -35 -115l-20 -70.5t-22 -70t-26 -72.5t-29 -66.5t-35 -63t-40.5 -50.5t-48 -41.5
t-55 -23.5t-63.5 -8q-6 0 -8 1q-78 6 -121 59q-43 52 -40 124q0 6 1 8q6 82 68 139q33 29 74 45t78 15q9 0 15 -6.5t6 -15.5q0 -8 -6.5 -14.5t-15.5 -5.5q-69 0 -122 -49q-51 -46 -55 -111q-1 -3 -1 -6q-2 -58 30 -96q35 -40 92 -44h4l2 -1q36 -1 68 13.5t56.5 36t48.5 61
t39 71.5t33 85t27.5 84t24.5 85q31 102 36 117q5 13 11 36q2 4 4.5 13t3.5 13q-9 -2 -29 -6l-61 -14.5t-53.5 -15.5t-51 -21.5t-31.5 -26.5t-18 -36q-1 -5 -1 -12q-2 -34 17 -59q19 -26 51 -30q2 0 5.5 -0.5t5.5 -0.5q8 0 14.5 -6.5t5.5 -15.5q0 -8 -6.5 -14t-14.5 -6
q-3 0 -8.5 0.5t-7.5 0.5q-49 7 -79 47q-28 35 -26 85q0 3 0.5 8.5t1.5 8.5q3 23 14 42.5t32.5 34t39 24.5t52 20t52.5 14.5t58 13.5l54 12q42 111 111 121v0h18q14 -2 26 -9q17 -9 20 -29v0zM590 668q74 24 81 61l-9 3h-8q-36 -5 -64 -64z" />
    <glyph glyph-name="Iacute" unicode="&#xcd;" horiz-adv-x="544" 
d="M622 842l129 141q16 18 30 7q7 -5 8.5 -14.5t-4.5 -17.5l-129 -141q-14 -16 -32 -4q-6 5 -7 13t5 16zM713 736q1 -4 0 -9q-5 -42 -41.5 -67t-101.5 -42q-7 -19 -15 -50q-8 -26 -12 -38q-16 -44 -35 -115l-20 -70.5t-22 -70t-26 -72.5t-29 -66.5t-35 -63t-40.5 -50.5
t-48 -41.5t-55 -23.5t-63.5 -8q-6 0 -8 1q-78 6 -121 59q-43 52 -40 124q0 6 1 8q6 82 68 139q33 29 74 45t78 15q9 0 15 -6.5t6 -15.5q0 -8 -6.5 -14.5t-15.5 -5.5q-69 0 -122 -49q-51 -46 -55 -111q-1 -3 -1 -6q-2 -58 30 -96q35 -40 92 -44h4l2 -1q36 -1 68 13.5t56.5 36
t48.5 61t39 71.5t33 85t27.5 84t24.5 85q31 102 36 117q5 13 11 36q2 4 4.5 13t3.5 13q-9 -2 -29 -6l-61 -14.5t-53.5 -15.5t-51 -21.5t-31.5 -26.5t-18 -36q-1 -5 -1 -12q-2 -34 17 -59q19 -26 51 -30q2 0 5.5 -0.5t5.5 -0.5q8 0 14.5 -6.5t5.5 -15.5q0 -8 -6.5 -14
t-14.5 -6q-3 0 -8.5 0.5t-7.5 0.5q-49 7 -79 47q-28 35 -26 85q0 3 0.5 8.5t1.5 8.5q3 23 14 42.5t32.5 34t39 24.5t52 20t52.5 14.5t58 13.5l54 12q42 111 111 121v0h18q14 -2 26 -9q17 -9 20 -29v0zM590 668q74 24 81 61l-9 3h-8q-36 -5 -64 -64z" />
    <glyph glyph-name="Ograve" unicode="&#xd2;" horiz-adv-x="735" 
d="M650 825q4 -7 0 -15.5t-12 -13.5q-8 -4 -16.5 -2t-11.5 10l-61 144q-7 18 11 29q21 10 28 -8zM779 236q8 -3 11.5 -11.5t0.5 -16.5q-2 -3 -5 -9.5t-4 -9.5l-2 -4t-1.5 -3.5t-2 -4t-2.5 -4.5v-1q-28 -52 -50 -73q-38 -38 -88 -37q-16 0 -29 3q-26 8 -43 25
q-24 -30 -37 -43q-83 -86 -181 -86q-29 0 -56 8q-59 18 -87 79q-22 48 -22 120q0 104 38 223q7 25 23 61q-27 -4 -58 -4h-10q-71 3 -119 36q-55 40 -55 108v1v4v1q1 34 16 63l1 1q11 22 38 49q15 15 30 -1q6 -6 6 -14.5t-6 -14.5q-23 -23 -31 -39l-1 -1q-10 -19 -11 -45v-4
q0 -47 38 -73q36 -26 95 -29h9q37 0 80 8q34 66 73 112q74 84 151 84q23 0 34 -10h1l1 -1q13 -13 13 -32q0 -31 -24 -62q-15 -21 -31 -33q-56 -49 -138 -80q-26 -9 -51 -15q-24 -49 -34 -83q-36 -113 -36 -210q0 -63 18 -103q19 -42 62 -56q18 -6 43 -6q79 0 151 74
q23 23 42 51q-8 21 -8 45q0 19 7 49q2 8 10 12.5t16 2.5t12.5 -10t2.5 -16q-3 -9 -5 -29q33 56 59 123q52 129 53 243q2 71 -20 114q-21 43 -67 50v1q-30 4 -73 -6q-8 -2 -16 2.5t-10 12.5t2.5 16t13.5 10q48 13 89 6h1q66 -11 98 -73q26 -53 24 -134q-1 -119 -56 -258
q-38 -96 -84 -164q11 -14 30 -19q12 -2 18 -2q33 0 58 25q19 18 42 62l1 2q1 1 2 4t2.5 5.5t2.5 4.5q1 3 4 9.5t4 8.5q3 8 11 11.5t16 -0.5zM369 582q-22 -25 -49 -69l9 3q74 27 125 71q13 11 25 27q16 20 16 37h1h-1q-1 1 -7 1q-59 0 -119 -70z" />
    <glyph glyph-name="Oacute" unicode="&#xd3;" horiz-adv-x="735" 
d="M570 826l129 141q16 18 30 7q7 -5 8.5 -14.5t-4.5 -17.5l-129 -141q-14 -16 -32 -4q-6 5 -7 13t5 16zM779 236q8 -3 11.5 -11.5t0.5 -16.5q-2 -3 -5 -9.5t-4 -9.5l-2 -4t-1.5 -3.5t-2 -4t-2.5 -4.5v-1q-28 -52 -50 -73q-38 -38 -88 -37q-16 0 -29 3q-26 8 -43 25
q-24 -30 -37 -43q-83 -86 -181 -86q-29 0 -56 8q-59 18 -87 79q-22 48 -22 120q0 104 38 223q7 25 23 61q-27 -4 -58 -4h-10q-71 3 -119 36q-55 40 -55 108v1v4v1q1 34 16 63l1 1q11 22 38 49q15 15 30 -1q6 -6 6 -14.5t-6 -14.5q-23 -23 -31 -39l-1 -1q-10 -19 -11 -45v-4
q0 -47 38 -73q36 -26 95 -29h9q37 0 80 8q34 66 73 112q74 84 151 84q23 0 34 -10h1l1 -1q13 -13 13 -32q0 -31 -24 -62q-15 -21 -31 -33q-56 -49 -138 -80q-26 -9 -51 -15q-24 -49 -34 -83q-36 -113 -36 -210q0 -63 18 -103q19 -42 62 -56q18 -6 43 -6q79 0 151 74
q23 23 42 51q-8 21 -8 45q0 19 7 49q2 8 10 12.5t16 2.5t12.5 -10t2.5 -16q-3 -9 -5 -29q33 56 59 123q52 129 53 243q2 71 -20 114q-21 43 -67 50v1q-30 4 -73 -6q-8 -2 -16 2.5t-10 12.5t2.5 16t13.5 10q48 13 89 6h1q66 -11 98 -73q26 -53 24 -134q-1 -119 -56 -258
q-38 -96 -84 -164q11 -14 30 -19q12 -2 18 -2q33 0 58 25q19 18 42 62l1 2q1 1 2 4t2.5 5.5t2.5 4.5q1 3 4 9.5t4 8.5q3 8 11 11.5t16 -0.5zM369 582q-22 -25 -49 -69l9 3q74 27 125 71q13 11 25 27q16 20 16 37h1h-1q-1 1 -7 1q-59 0 -119 -70z" />
    <glyph glyph-name="Ocircumflex" unicode="&#xd4;" horiz-adv-x="735" 
d="M490 811l127 144q3 6 14 12q8 5 17 2t10 -10l40 -149q7 -18 -14 -30q-8 -4 -15.5 -2t-9.5 10l-30 117l-109 -120q-15 -16 -29 -4q-6 5 -6.5 13.5t5.5 16.5zM779 236q8 -3 11.5 -11.5t0.5 -16.5q-2 -3 -5 -9.5t-4 -9.5l-2 -4t-1.5 -3.5t-2 -4t-2.5 -4.5v-1
q-28 -52 -50 -73q-38 -38 -88 -37q-16 0 -29 3q-26 8 -43 25q-24 -30 -37 -43q-83 -86 -181 -86q-29 0 -56 8q-59 18 -87 79q-22 48 -22 120q0 104 38 223q7 25 23 61q-27 -4 -58 -4h-10q-71 3 -119 36q-55 40 -55 108v1v4v1q1 34 16 63l1 1q11 22 38 49q15 15 30 -1
q6 -6 6 -14.5t-6 -14.5q-23 -23 -31 -39l-1 -1q-10 -19 -11 -45v-4q0 -47 38 -73q36 -26 95 -29h9q37 0 80 8q34 66 73 112q74 84 151 84q23 0 34 -10h1l1 -1q13 -13 13 -32q0 -31 -24 -62q-15 -21 -31 -33q-56 -49 -138 -80q-26 -9 -51 -15q-24 -49 -34 -83
q-36 -113 -36 -210q0 -63 18 -103q19 -42 62 -56q18 -6 43 -6q79 0 151 74q23 23 42 51q-8 21 -8 45q0 19 7 49q2 8 10 12.5t16 2.5t12.5 -10t2.5 -16q-3 -9 -5 -29q33 56 59 123q52 129 53 243q2 71 -20 114q-21 43 -67 50v1q-30 4 -73 -6q-8 -2 -16 2.5t-10 12.5t2.5 16
t13.5 10q48 13 89 6h1q66 -11 98 -73q26 -53 24 -134q-1 -119 -56 -258q-38 -96 -84 -164q11 -14 30 -19q12 -2 18 -2q33 0 58 25q19 18 42 62l1 2q1 1 2 4t2.5 5.5t2.5 4.5q1 3 4 9.5t4 8.5q3 8 11 11.5t16 -0.5zM369 582q-22 -25 -49 -69l9 3q74 27 125 71q13 11 25 27
q16 20 16 37h1h-1q-1 1 -7 1q-59 0 -119 -70z" />
    <glyph glyph-name="Otilde" unicode="&#xd5;" horiz-adv-x="735" 
d="M767 858q9 -17 -5 -31q-28 -23 -55.5 -28t-46.5 1t-50 22q-68 31 -99 -18q-4 -7 -12.5 -7t-12.5 5q-14 14 -2 30q46 63 129 31q8 -3 25.5 -11t25.5 -10t22 -3t27.5 5.5t29.5 20.5q5 5 12.5 2.5t11.5 -9.5zM779 236q8 -3 11.5 -11.5t0.5 -16.5q-2 -3 -5 -9.5t-4 -9.5
l-2 -4t-1.5 -3.5t-2 -4t-2.5 -4.5v-1q-28 -52 -50 -73q-38 -38 -88 -37q-16 0 -29 3q-26 8 -43 25q-24 -30 -37 -43q-83 -86 -181 -86q-29 0 -56 8q-59 18 -87 79q-22 48 -22 120q0 104 38 223q7 25 23 61q-27 -4 -58 -4h-10q-71 3 -119 36q-55 40 -55 108v1v4v1q1 34 16 63
l1 1q11 22 38 49q15 15 30 -1q6 -6 6 -14.5t-6 -14.5q-23 -23 -31 -39l-1 -1q-10 -19 -11 -45v-4q0 -47 38 -73q36 -26 95 -29h9q37 0 80 8q34 66 73 112q74 84 151 84q23 0 34 -10h1l1 -1q13 -13 13 -32q0 -31 -24 -62q-15 -21 -31 -33q-56 -49 -138 -80q-26 -9 -51 -15
q-24 -49 -34 -83q-36 -113 -36 -210q0 -63 18 -103q19 -42 62 -56q18 -6 43 -6q79 0 151 74q23 23 42 51q-8 21 -8 45q0 19 7 49q2 8 10 12.5t16 2.5t12.5 -10t2.5 -16q-3 -9 -5 -29q33 56 59 123q52 129 53 243q2 71 -20 114q-21 43 -67 50v1q-30 4 -73 -6q-8 -2 -16 2.5
t-10 12.5t2.5 16t13.5 10q48 13 89 6h1q66 -11 98 -73q26 -53 24 -134q-1 -119 -56 -258q-38 -96 -84 -164q11 -14 30 -19q12 -2 18 -2q33 0 58 25q19 18 42 62l1 2q1 1 2 4t2.5 5.5t2.5 4.5q1 3 4 9.5t4 8.5q3 8 11 11.5t16 -0.5zM369 582q-22 -25 -49 -69l9 3
q74 27 125 71q13 11 25 27q16 20 16 37h1h-1q-1 1 -7 1q-59 0 -119 -70z" />
    <glyph glyph-name="Ugrave" unicode="&#xd9;" horiz-adv-x="776" 
d="M692 840q4 -7 0 -15.5t-12 -13.5q-8 -4 -16.5 -2t-11.5 10l-61 144q-7 18 11 29q21 10 28 -8zM822 236q17 -10 9 -29q-6 -13 -15 -30l-23.5 -49t-26.5 -45.5t-34 -43.5t-39 -27.5t-48 -12.5q-69 0 -69 95q0 20 1 31q-16 -26 -25 -39q-83 -114 -183 -114v0h-2
q-60 1 -87 45q-22 33 -22 88v0v4q0 36 18 106v1q19 74 50 163q3 8 8.5 26.5l8.5 28.5q38 127 57 177q-23 -5 -61 -10q-54 -8 -82.5 -13.5t-73.5 -18t-69.5 -26.5t-45.5 -38.5t-25 -55.5q0 -2 -0.5 -6t-0.5 -6q-2 -34 17 -59q19 -26 52 -30q4 -1 10 -1q9 0 15 -6.5t6 -15.5
q-1 -8 -7.5 -14.5t-14.5 -5.5q-10 0 -15 1q-50 7 -80 47q-27 36 -25 86q0 3 0.5 8t0.5 8q4 29 17.5 53t30 40.5t45.5 31t51 23t61 17t61 12l65 10.5q50 8 86 15q1 2 13 29q20 37 38 57q27 27 59 31h19q18 -4 26 -9q17 -11 19 -26v-3q1 -4 0 -10q-6 -43 -42.5 -67t-100.5 -39
q-29 -73 -66 -199q-14 -44 -17 -55v-1q-32 -93 -49 -160v-1q-17 -68 -17 -95v-1v-3q0 -42 15 -65q17 -25 53 -25h1q79 0 149 96q42 58 106 203v2q1 1 1 2l1 2l51 143l99 269q7 20 27 13q19 -7 12 -27l-98 -269l-51 -142l-1 -3q0 -3 -1 -4v-1l-1 -1q-45 -139 -45 -204
q0 -53 27 -53q21 0 40.5 13.5t37.5 40.5t28.5 46.5t26.5 53.5l8 16.5l7 14.5q10 19 29 10zM499 713q-12 -12 -29 -44q73 22 80 60q-2 1 -8 3h-1h-8q-18 -3 -34 -19z" />
    <glyph glyph-name="Uacute" unicode="&#xda;" horiz-adv-x="776" 
d="M614 842l129 141q16 18 30 7q7 -5 8.5 -14.5t-4.5 -17.5l-129 -141q-14 -16 -32 -4q-6 5 -7 13t5 16zM822 236q17 -10 9 -29q-6 -13 -15 -30l-23.5 -49t-26.5 -45.5t-34 -43.5t-39 -27.5t-48 -12.5q-69 0 -69 95q0 20 1 31q-16 -26 -25 -39q-83 -114 -183 -114v0h-2
q-60 1 -87 45q-22 33 -22 88v0v4q0 36 18 106v1q19 74 50 163q3 8 8.5 26.5l8.5 28.5q38 127 57 177q-23 -5 -61 -10q-54 -8 -82.5 -13.5t-73.5 -18t-69.5 -26.5t-45.5 -38.5t-25 -55.5q0 -2 -0.5 -6t-0.5 -6q-2 -34 17 -59q19 -26 52 -30q4 -1 10 -1q9 0 15 -6.5t6 -15.5
q-1 -8 -7.5 -14.5t-14.5 -5.5q-10 0 -15 1q-50 7 -80 47q-27 36 -25 86q0 3 0.5 8t0.5 8q4 29 17.5 53t30 40.5t45.5 31t51 23t61 17t61 12l65 10.5q50 8 86 15q1 2 13 29q20 37 38 57q27 27 59 31h19q18 -4 26 -9q17 -11 19 -26v-3q1 -4 0 -10q-6 -43 -42.5 -67t-100.5 -39
q-29 -73 -66 -199q-14 -44 -17 -55v-1q-32 -93 -49 -160v-1q-17 -68 -17 -95v-1v-3q0 -42 15 -65q17 -25 53 -25h1q79 0 149 96q42 58 106 203v2q1 1 1 2l1 2l51 143l99 269q7 20 27 13q19 -7 12 -27l-98 -269l-51 -142l-1 -3q0 -3 -1 -4v-1l-1 -1q-45 -139 -45 -204
q0 -53 27 -53q21 0 40.5 13.5t37.5 40.5t28.5 46.5t26.5 53.5l8 16.5l7 14.5q10 19 29 10zM499 713q-12 -12 -29 -44q73 22 80 60q-2 1 -8 3h-1h-8q-18 -3 -34 -19z" />
    <glyph glyph-name="Yacute" unicode="&#xdd;" 
d="M614 842l129 141q16 18 30 7q7 -5 8.5 -14.5t-4.5 -17.5l-129 -141q-14 -16 -32 -4q-6 5 -7 13t5 16zM810 237q18 -9 11 -28q-46 -108 -109 -174q-58 -60 -129 -89q-24 -11 -54 -19l-12 -36q-26 -79 -49 -113q-41 -60 -105 -61q-15 0 -22 1q-47 4 -72 33q-23 26 -25 64
q0 9 1 14q2 25 13 44t23.5 30t39 20t43.5 12.5t54 10.5q45 7 79 16q2 5 55 157q-73 -89 -163 -89v0h-2q-58 0 -87 44q-23 35 -23 88v1l1 3q0 56 52 230q29 101 71 215q-20 -4 -62 -10q-54 -8 -82.5 -13.5t-73.5 -18t-69.5 -26.5t-45.5 -38.5t-25 -55.5q0 -2 -0.5 -6t-0.5 -6
q-2 -34 17 -59q19 -26 52 -30q4 -1 10 -1q9 0 15 -6.5t6 -15.5q-1 -9 -7 -15t-15 -5q-10 0 -15 1q-50 7 -80 47q-27 36 -25 86q0 3 0.5 8t0.5 8q4 29 17.5 53t30 40.5t45.5 31t51 23t61 17t61 12l65 10.5q60 10 87 15q2 6 6.5 16t5.5 13q20 37 38 57q27 27 59 31h19
q18 -4 26 -9q17 -11 19 -26v-3q1 -4 0 -10q-10 -75 -142 -105q-36 -91 -80 -237q-50 -168 -50 -218v-4q0 -42 15 -65q17 -25 52 -25h2q79 0 148 96q39 53 108 205l32 90l99 269q7 20 27 13q19 -7 12 -27l-98 -269q-8 -20 -19.5 -53t-12.5 -37q-1 0 -1 -2q-11 -28 -18 -50
l-1 -2l-42 -117q-73 -202 -76 -211q9 3 19 8q65 25 116 79q58 63 100 162q9 20 28 11zM499 713q-12 -12 -29 -44q73 22 80 60q-2 1 -8 3h-1h-8q-18 -3 -34 -19zM477 -95l4 10q-38 -8 -55 -11l-37 -7t-31 -7t-29 -10t-20 -13t-16 -18.5t-6 -23.5q-1 -3 -1 -9q2 -23 14 -37
q16 -16 45 -19q5 -1 17 -1q43 1 71 43q21 33 44 103z" />
    <glyph glyph-name="agrave" unicode="&#xe0;" horiz-adv-x="403" 
d="M308 553q4 -7 0 -15.5t-12 -13.5q-8 -4 -16.5 -2t-11.5 10l-61 144q-7 18 11 29q21 10 28 -8zM448 238q20 -9 11 -28l-1 -3l-25.5 -55t-28.5 -52.5t-36.5 -52t-41 -32.5t-50.5 -15v0h-1q-37 0 -57 29q-14 22 -14 55v0v1q-59 -84 -127 -83q-42 1 -62 34q-20 28 -18 80
q1 45 23 118t57 132q65 108 141 109h9q40 -3 69 -35q8 -9 13 -20q3 10 17 45q8 19 27 12q8 -3 11.5 -11t0.5 -16l-50 -134q-4 -12 -17.5 -48.5t-18.5 -52.5q-16 -44 -23 -76q-10 -37 -10 -53v-2q0 -21 7 -32q7 -10 23 -10v0q18 0 36 13t31 29t29.5 45t24.5 46.5l22 48.5l1 3
q9 20 28 11zM78 44q23 -1 46.5 16.5t40 40t36.5 62.5t30 64.5l27 66.5q5 11 12.5 30l10.5 27q1 3 1 7q-2 36 -18 54q-17 18 -40 20q-2 1 -6 1q-52 -1 -105 -89q-32 -54 -52.5 -121t-21.5 -108q0 -38 11 -56q9 -14 28 -15z" />
    <glyph glyph-name="aacute" unicode="&#xe1;" horiz-adv-x="403" 
d="M220 555l129 141q16 18 30 7q7 -5 8.5 -14.5t-4.5 -17.5l-129 -141q-14 -16 -32 -4q-6 5 -7 13t5 16zM448 238q20 -9 11 -28l-1 -3l-25.5 -55t-28.5 -52.5t-36.5 -52t-41 -32.5t-50.5 -15v0h-1q-37 0 -57 29q-14 22 -14 55v0v1q-59 -84 -127 -83q-42 1 -62 34
q-20 28 -18 80q1 45 23 118t57 132q65 108 141 109h9q40 -3 69 -35q8 -9 13 -20q3 10 17 45q8 19 27 12q8 -3 11.5 -11t0.5 -16l-50 -134q-4 -12 -17.5 -48.5t-18.5 -52.5q-16 -44 -23 -76q-10 -37 -10 -53v-2q0 -21 7 -32q7 -10 23 -10v0q18 0 36 13t31 29t29.5 45
t24.5 46.5l22 48.5l1 3q9 20 28 11zM78 44q23 -1 46.5 16.5t40 40t36.5 62.5t30 64.5l27 66.5q5 11 12.5 30l10.5 27q1 3 1 7q-2 36 -18 54q-17 18 -40 20q-2 1 -6 1q-52 -1 -105 -89q-32 -54 -52.5 -121t-21.5 -108q0 -38 11 -56q9 -14 28 -15z" />
    <glyph glyph-name="acircumflex" unicode="&#xe2;" horiz-adv-x="403" 
d="M169 543l127 144q3 6 14 12q8 5 17 2t10 -10l40 -149q7 -18 -14 -30q-8 -4 -15.5 -2t-9.5 10l-30 117l-109 -120q-15 -16 -29 -4q-6 5 -6.5 13.5t5.5 16.5zM448 238q20 -9 11 -28l-1 -3l-25.5 -55t-28.5 -52.5t-36.5 -52t-41 -32.5t-50.5 -15v0h-1q-37 0 -57 29
q-14 22 -14 55v0v1q-59 -84 -127 -83q-42 1 -62 34q-20 28 -18 80q1 45 23 118t57 132q65 108 141 109h9q40 -3 69 -35q8 -9 13 -20q3 10 17 45q8 19 27 12q8 -3 11.5 -11t0.5 -16l-50 -134q-4 -12 -17.5 -48.5t-18.5 -52.5q-16 -44 -23 -76q-10 -37 -10 -53v-2q0 -21 7 -32
q7 -10 23 -10v0q18 0 36 13t31 29t29.5 45t24.5 46.5l22 48.5l1 3q9 20 28 11zM78 44q23 -1 46.5 16.5t40 40t36.5 62.5t30 64.5l27 66.5q5 11 12.5 30l10.5 27q1 3 1 7q-2 36 -18 54q-17 18 -40 20q-2 1 -6 1q-52 -1 -105 -89q-32 -54 -52.5 -121t-21.5 -108q0 -38 11 -56
q9 -14 28 -15z" />
    <glyph glyph-name="atilde" unicode="&#xe3;" horiz-adv-x="403" 
d="M433 583q9 -17 -5 -31q-28 -23 -55.5 -28t-46.5 1t-50 22q-68 31 -99 -18q-4 -7 -12.5 -7t-12.5 5q-14 14 -2 30q46 63 129 31q8 -3 25.5 -11t25.5 -10t22 -3t27.5 5.5t29.5 20.5q5 5 12.5 2.5t11.5 -9.5zM448 238q20 -9 11 -28l-1 -3l-25.5 -55t-28.5 -52.5t-36.5 -52
t-41 -32.5t-50.5 -15v0h-1q-37 0 -57 29q-14 22 -14 55v0v1q-59 -84 -127 -83q-42 1 -62 34q-20 28 -18 80q1 45 23 118t57 132q65 108 141 109h9q40 -3 69 -35q8 -9 13 -20q3 10 17 45q8 19 27 12q8 -3 11.5 -11t0.5 -16l-50 -134q-4 -12 -17.5 -48.5t-18.5 -52.5
q-16 -44 -23 -76q-10 -37 -10 -53v-2q0 -21 7 -32q7 -10 23 -10v0q18 0 36 13t31 29t29.5 45t24.5 46.5l22 48.5l1 3q9 20 28 11zM78 44q23 -1 46.5 16.5t40 40t36.5 62.5t30 64.5l27 66.5q5 11 12.5 30l10.5 27q1 3 1 7q-2 36 -18 54q-17 18 -40 20q-2 1 -6 1
q-52 -1 -105 -89q-32 -54 -52.5 -121t-21.5 -108q0 -38 11 -56q9 -14 28 -15z" />
    <glyph glyph-name="egrave" unicode="&#xe8;" horiz-adv-x="364" 
d="M289 553q4 -7 0 -15.5t-12 -13.5q-8 -4 -16.5 -2t-11.5 10l-61 144q-7 18 11 29q21 10 28 -8zM409 238q19 -9 11 -28q-52 -116 -135 -169q-69 -43 -154 -40h-2h-1q-58 3 -91 35q-38 37 -37 101v2v1q1 34 15 84l1 1v1q10 34 24 64q36 82 86 135q23 23 49 35q26 14 53 14
q34 0 54 -15q22 -14 29 -42q6 -21 -3 -50q-13 -42 -48 -71q-35 -30 -92 -54q-61 -26 -115 -40q-10 -37 -11 -64v-2q-1 -47 24 -69q22 -22 64 -24h2q74 -2 131 34q73 46 118 150q9 18 28 11zM78 273l-9 -23q45 14 82 31q52 23 82 48q26 21 35 51q5 16 2 28q-3 11 -11 16
q-11 8 -31 8q-17 0 -35 -9q-22 -13 -36 -28q-46 -47 -79 -122z" />
    <glyph glyph-name="eacute" unicode="&#xe9;" horiz-adv-x="364" 
d="M174 555l129 141q16 18 30 7q7 -5 8.5 -14.5t-4.5 -17.5l-129 -141q-14 -16 -32 -4q-6 5 -7 13t5 16zM409 238q19 -9 11 -28q-52 -116 -135 -169q-69 -43 -154 -40h-2h-1q-58 3 -91 35q-38 37 -37 101v2v1q1 34 15 84l1 1v1q10 34 24 64q36 82 86 135q23 23 49 35
q26 14 53 14q34 0 54 -15q22 -14 29 -42q6 -21 -3 -50q-13 -42 -48 -71q-35 -30 -92 -54q-61 -26 -115 -40q-10 -37 -11 -64v-2q-1 -47 24 -69q22 -22 64 -24h2q74 -2 131 34q73 46 118 150q9 18 28 11zM78 273l-9 -23q45 14 82 31q52 23 82 48q26 21 35 51q5 16 2 28
q-3 11 -11 16q-11 8 -31 8q-17 0 -35 -9q-22 -13 -36 -28q-46 -47 -79 -122z" />
    <glyph glyph-name="ecircumflex" unicode="&#xea;" horiz-adv-x="364" 
d="M150 543l127 144q3 6 14 12q8 5 17 2t10 -10l40 -149q7 -18 -14 -30q-8 -4 -15.5 -2t-9.5 10l-30 117l-109 -120q-15 -16 -29 -4q-6 5 -6.5 13.5t5.5 16.5zM409 238q19 -9 11 -28q-52 -116 -135 -169q-69 -43 -154 -40h-2h-1q-58 3 -91 35q-38 37 -37 101v2v1q1 34 15 84
l1 1v1q10 34 24 64q36 82 86 135q23 23 49 35q26 14 53 14q34 0 54 -15q22 -14 29 -42q6 -21 -3 -50q-13 -42 -48 -71q-35 -30 -92 -54q-61 -26 -115 -40q-10 -37 -11 -64v-2q-1 -47 24 -69q22 -22 64 -24h2q74 -2 131 34q73 46 118 150q9 18 28 11zM78 273l-9 -23
q45 14 82 31q52 23 82 48q26 21 35 51q5 16 2 28q-3 11 -11 16q-11 8 -31 8q-17 0 -35 -9q-22 -13 -36 -28q-46 -47 -79 -122z" />
    <glyph glyph-name="igrave" unicode="&#xec;" horiz-adv-x="184" 
d="M229 238q8 -3 11.5 -11.5t-0.5 -16.5q-41 -92 -68 -131q-54 -79 -116 -79v0h-1q-37 0 -57 29q-14 22 -14 55v0v3q0 23 11 62q10 39 24 79q3 11 22 62q27 77 36 99q1 2 8 25l17 46q6 20 26 13q20 -6 13 -26l-16 -47l-9 -25l-36 -100l-21 -60q-14 -39 -24 -76
q-9 -40 -9 -53v-2q0 -21 7 -32q7 -10 22 -10h1v0q39 0 81 60q23 34 64 125q4 8 12.5 11.5t15.5 -0.5zM167 553q4 -7 0 -15.5t-12 -13.5q-8 -4 -16.5 -2t-11.5 10l-61 144q-7 18 11 29q21 10 28 -8z" />
    <glyph glyph-name="iacute" unicode="&#xed;" horiz-adv-x="184" 
d="M229 238q8 -3 11.5 -11.5t-0.5 -16.5q-41 -92 -68 -131q-54 -79 -116 -79v0h-1q-37 0 -57 29q-14 22 -14 55v0v3q0 23 11 62q10 39 24 79q3 11 22 62q27 77 36 99q1 2 8 25l17 46q6 20 26 13q20 -6 13 -26l-16 -47l-9 -25l-36 -100l-21 -60q-14 -39 -24 -76
q-9 -40 -9 -53v-2q0 -21 7 -32q7 -10 22 -10h1v0q39 0 81 60q23 34 64 125q4 8 12.5 11.5t15.5 -0.5zM119 555l129 141q16 18 30 7q7 -5 8.5 -14.5t-4.5 -17.5l-129 -141q-14 -16 -32 -4q-6 5 -7 13t5 16z" />
    <glyph glyph-name="ograve" unicode="&#xf2;" horiz-adv-x="391" 
d="M297 553q4 -7 0 -15.5t-12 -13.5q-8 -4 -16.5 -2t-11.5 10l-61 144q-7 18 11 29q21 10 28 -8zM436 238q8 -3 11.5 -11t-0.5 -16q-2 -3 -4 -9.5t-4 -10.5q-3 -5 -9 -17q-27 -50 -50 -73q-39 -37 -88 -37q-14 0 -28 3q-25 8 -44 24q-30 -40 -66 -65.5t-70 -25.5
q-39 0 -60.5 21t-25 55t2.5 74.5t21 82.5t30 76.5t30 58.5q65 107 140 107h1q48 -2 75 -33q26 -31 25 -81q-1 -47 -22.5 -112t-55.5 -122q11 -14 30 -19q10 -2 17 -2q33 0 58 25q22 22 42 62l2 4t2 3.5t2 4t2 4.5t8 18q3 8 11.5 11.5t16.5 -0.5zM221 239q20 -5 15 -26
q-3 -7 -5 -23q48 97 50 172q1 34 -15 52q-14 17 -44 19q-53 0 -103 -87q-38 -62 -65 -157q-37 -143 30 -147q51 0 112 87q-8 19 -8 47q0 24 7 48q5 20 26 15z" />
    <glyph glyph-name="oacute" unicode="&#xf3;" horiz-adv-x="391" 
d="M212 555l129 141q16 18 30 7q7 -5 8.5 -14.5t-4.5 -17.5l-129 -141q-14 -16 -32 -4q-6 5 -7 13t5 16zM436 238q8 -3 11.5 -11t-0.5 -16q-2 -3 -4 -9.5t-4 -10.5q-3 -5 -9 -17q-27 -50 -50 -73q-39 -37 -88 -37q-14 0 -28 3q-25 8 -44 24q-30 -40 -66 -65.5t-70 -25.5
q-39 0 -60.5 21t-25 55t2.5 74.5t21 82.5t30 76.5t30 58.5q65 107 140 107h1q48 -2 75 -33q26 -31 25 -81q-1 -47 -22.5 -112t-55.5 -122q11 -14 30 -19q10 -2 17 -2q33 0 58 25q22 22 42 62l2 4t2 3.5t2 4t2 4.5t8 18q3 8 11.5 11.5t16.5 -0.5zM221 239q20 -5 15 -26
q-3 -7 -5 -23q48 97 50 172q1 34 -15 52q-14 17 -44 19q-53 0 -103 -87q-38 -62 -65 -157q-37 -143 30 -147q51 0 112 87q-8 19 -8 47q0 24 7 48q5 20 26 15z" />
    <glyph glyph-name="ocircumflex" unicode="&#xf4;" horiz-adv-x="391" 
d="M158 543l127 144q3 6 14 12q8 5 17 2t10 -10l40 -149q7 -18 -14 -30q-8 -4 -15.5 -2t-9.5 10l-30 117l-109 -120q-15 -16 -29 -4q-6 5 -6.5 13.5t5.5 16.5zM436 238q8 -3 11.5 -11t-0.5 -16q-2 -3 -4 -9.5t-4 -10.5q-3 -5 -9 -17q-27 -50 -50 -73q-39 -37 -88 -37
q-14 0 -28 3q-25 8 -44 24q-30 -40 -66 -65.5t-70 -25.5q-39 0 -60.5 21t-25 55t2.5 74.5t21 82.5t30 76.5t30 58.5q65 107 140 107h1q48 -2 75 -33q26 -31 25 -81q-1 -47 -22.5 -112t-55.5 -122q11 -14 30 -19q10 -2 17 -2q33 0 58 25q22 22 42 62l2 4t2 3.5t2 4t2 4.5
t8 18q3 8 11.5 11.5t16.5 -0.5zM221 239q20 -5 15 -26q-3 -7 -5 -23q48 97 50 172q1 34 -15 52q-14 17 -44 19q-53 0 -103 -87q-38 -62 -65 -157q-37 -143 30 -147q51 0 112 87q-8 19 -8 47q0 24 7 48q5 20 26 15z" />
    <glyph glyph-name="otilde" unicode="&#xf5;" horiz-adv-x="391" 
d="M400 583q9 -17 -5 -31q-28 -23 -55.5 -28t-46.5 1t-50 22q-68 31 -99 -18q-4 -7 -12.5 -7t-12.5 5q-14 14 -2 30q46 63 129 31q8 -3 25.5 -11t25.5 -10t22 -3t27.5 5.5t29.5 20.5q5 5 12.5 2.5t11.5 -9.5zM436 238q8 -3 11.5 -11t-0.5 -16q-2 -3 -4 -9.5t-4 -10.5
q-3 -5 -9 -17q-27 -50 -50 -73q-39 -37 -88 -37q-14 0 -28 3q-25 8 -44 24q-30 -40 -66 -65.5t-70 -25.5q-39 0 -60.5 21t-25 55t2.5 74.5t21 82.5t30 76.5t30 58.5q65 107 140 107h1q48 -2 75 -33q26 -31 25 -81q-1 -47 -22.5 -112t-55.5 -122q11 -14 30 -19q10 -2 17 -2
q33 0 58 25q22 22 42 62l2 4t2 3.5t2 4t2 4.5t8 18q3 8 11.5 11.5t16.5 -0.5zM221 239q20 -5 15 -26q-3 -7 -5 -23q48 97 50 172q1 34 -15 52q-14 17 -44 19q-53 0 -103 -87q-38 -62 -65 -157q-37 -143 30 -147q51 0 112 87q-8 19 -8 47q0 24 7 48q5 20 26 15z" />
    <glyph glyph-name="ugrave" unicode="&#xf9;" horiz-adv-x="365" 
d="M262 553q4 -7 0 -15.5t-12 -13.5q-8 -4 -16.5 -2t-11.5 10l-61 144q-7 18 11 29q21 10 28 -8zM411 238q19 -9 10 -28l-1 -3q-19 -44 -32.5 -70t-37.5 -63t-52 -55.5t-59 -18.5v0h-1h-1q-37 0 -56 29q-11 16 -14 42q-50 -71 -110 -71v0h-1q-37 0 -57 29q-14 22 -14 55v0v3
q0 23 11 62q10 39 24 79l29 82l56 152q7 19 27 12q19 -7 12 -27l-55 -152l-11.5 -32l-11 -29.5t-6.5 -18.5q-14 -39 -24 -76q-9 -40 -9 -53v-2q0 -21 7 -32q7 -10 23 -10v0q18 0 36 13t31 29t29.5 45t24.5 46.5l22 48.5v1q1 1 1 3l29 82l56 152q7 19 27 12t13 -27l-56 -152
q-28 -77 -29 -80v-1q0 -1 -1 -4q-15 -44 -22 -71q-9 -33 -9 -53v-2q0 -21 7 -32q7 -10 22 -10h1q29 0 58.5 33.5t45.5 65t38 83.5l2 3q3 8 11.5 11.5t16.5 -0.5z" />
    <glyph glyph-name="uacute" unicode="&#xfa;" horiz-adv-x="365" 
d="M198 555l129 141q16 18 30 7q7 -5 8.5 -14.5t-4.5 -17.5l-129 -141q-14 -16 -32 -4q-6 5 -7 13t5 16zM411 238q19 -9 10 -28l-1 -3q-19 -44 -32.5 -70t-37.5 -63t-52 -55.5t-59 -18.5v0h-1h-1q-37 0 -56 29q-11 16 -14 42q-50 -71 -110 -71v0h-1q-37 0 -57 29
q-14 22 -14 55v0v3q0 23 11 62q10 39 24 79l29 82l56 152q7 19 27 12q19 -7 12 -27l-55 -152l-11.5 -32l-11 -29.5t-6.5 -18.5q-14 -39 -24 -76q-9 -40 -9 -53v-2q0 -21 7 -32q7 -10 23 -10v0q18 0 36 13t31 29t29.5 45t24.5 46.5l22 48.5v1q1 1 1 3l29 82l56 152
q7 19 27 12t13 -27l-56 -152q-28 -77 -29 -80v-1q0 -1 -1 -4q-15 -44 -22 -71q-9 -33 -9 -53v-2q0 -21 7 -32q7 -10 22 -10h1q29 0 58.5 33.5t45.5 65t38 83.5l2 3q3 8 11.5 11.5t16.5 -0.5z" />
    <glyph glyph-name="yacute" unicode="&#xfd;" horiz-adv-x="377" 
d="M202 555l129 141q16 18 30 7q7 -5 8.5 -14.5t-4.5 -17.5l-129 -141q-14 -16 -32 -4q-6 5 -7 13t5 16zM421 239q8 -3 11.5 -11t0.5 -16q-48 -109 -109 -174q-55 -59 -130 -90q-22 -10 -53 -19l-12 -35q-29 -82 -50 -113q-40 -59 -104 -62q-15 0 -22 1q-45 4 -72 33
q-23 26 -25 64v14q3 25 14 44t23.5 30t39 20t43.5 12.5t54 10.5q71 14 78 16l24 68q-35 -32 -75 -32h-1h-1q-37 0 -57 29q-14 22 -14 55v0v3q2 29 11 62q5 19 24 79l29 82l56 152q7 19 27 12q19 -7 12 -27l-55 -152l-11.5 -32l-11 -29.5t-6.5 -18.5q-15 -47 -23 -76
q-8 -30 -10 -53v-2h1q0 -23 7 -32q7 -10 22 -10h1q22 0 42.5 16t40.5 49.5t30.5 54.5t28.5 62l1 3q1 1 1 2q2 6 6.5 17.5l6.5 16.5l73 196l1 1v1q3 8 11 12t16 0q20 -7 13 -27l-1 -1v-1q-23 -57 -74 -195l-53 -149l-42 -121l10 3.5t10 4.5q65 27 115 80q58 60 101 161
q3 8 11.5 11.5t15.5 -0.5zM89 -93l3 10q-8 -2 -26.5 -5.5l-28.5 -5.5q-35 -6 -53.5 -10.5t-40.5 -13t-32.5 -22t-12.5 -33.5v-9q2 -22 14 -36q16 -17 45 -20q5 -1 17 -1q42 1 70 43v0q18 27 45 103z" />
    <glyph glyph-name="Abreve" unicode="&#x102;" 
d="M921 861q9 -17 -6 -30q-42 -37 -84.5 -50t-73 -4t-51.5 27.5t-26 40.5q-2 22 0 26q6 7 18 9t15 -5q16 -54 69.5 -58.5t109.5 50.5q5 5 15 3t14 -9zM811 675q8 -27 -2 -80.5t-23 -92.5l-39 -114q-9 -23 -26 -72v-1l-18 -47q-108 -294 -108 -344v-4q0 -41 14 -63
q17 -24 51 -24h2q8 0 14.5 -6.5t6.5 -15.5q0 -8 -6.5 -14.5t-14.5 -6.5h-2q-58 1 -86 44q-22 33 -22 86v1v3q1 61 112 358v0q2 8 4 11h-212q-72 -123 -138 -199.5t-130 -88.5q-16 -4 -36 -4q-53 0 -97 29q-42 31 -53 81q-2 18 -2 26q0 37 16 71q21 42 58 68q38 26 80 26
q25 0 46 -10q8 -4 11 -12.5t-1 -15.5q-4 -8 -12.5 -11t-15.5 1q-14 6 -28 6q-28 0 -56 -19q-29 -19 -44 -51q-12 -27 -12 -53q0 -6 2 -18q6 -34 36 -54q29 -21 72 -21q19 0 28 2q92 19 227 247h-49q-9 0 -15.5 6.5t-6.5 14.5q0 9 6.5 15.5t15.5 6.5h74l73 132
q91 169 125 213q23 28 48 42q28 17 55 17q28 0 49 -18q19 -18 29 -47zM707 403q25 70 37 106.5t22 84.5t4 69q-5 17 -15 27q-8 7 -22 7q-14 1 -34 -10q-20 -12 -35 -32q-33 -43 -122 -207l-62 -112h203z" />
    <glyph glyph-name="abreve" unicode="&#x103;" horiz-adv-x="403" 
d="M411 602q9 -17 -6 -30q-42 -37 -84.5 -50t-73 -4t-51.5 27.5t-26 40.5q-2 22 0 26q6 7 18 9t15 -5q16 -54 69.5 -58.5t109.5 50.5q5 5 15 3t14 -9zM448 238q20 -9 11 -28l-1 -3l-25.5 -55t-28.5 -52.5t-36.5 -52t-41 -32.5t-50.5 -15v0h-1q-37 0 -57 29q-14 22 -14 55v0
v1q-59 -84 -127 -83q-42 1 -62 34q-20 28 -18 80q1 45 23 118t57 132q65 108 141 109h9q40 -3 69 -35q8 -9 13 -20q3 10 17 45q8 19 27 12q8 -3 11.5 -11t0.5 -16l-50 -134q-4 -12 -17.5 -48.5t-18.5 -52.5q-16 -44 -23 -76q-10 -37 -10 -53v-2q0 -21 7 -32q7 -10 23 -10v0
q18 0 36 13t31 29t29.5 45t24.5 46.5l22 48.5l1 3q9 20 28 11zM78 44q23 -1 46.5 16.5t40 40t36.5 62.5t30 64.5l27 66.5q5 11 12.5 30l10.5 27q1 3 1 7q-2 36 -18 54q-17 18 -40 20q-2 1 -6 1q-52 -1 -105 -89q-32 -54 -52.5 -121t-21.5 -108q0 -38 11 -56q9 -14 28 -15z
" />
    <glyph glyph-name="Dcroat" unicode="&#x110;" horiz-adv-x="833" 
d="M742 630q57 -89 57 -224q0 -22 -1 -34q-8 -130 -60 -242q-58 -121 -131 -167q-25 -15 -56 -24q-27 -7 -60 -7h-21q-66 5 -111 48q-34 34 -34 83v8q3 43 32 72q30 30 71 30q34 0 60 -22q24 -21 37 -58q7 -20 -12 -27q-20 -7 -27 13q-10 26 -26 39q-14 13 -32 13
q-23 0 -41 -18q-17 -17 -20 -44v-6q0 -32 21 -52q36 -34 85 -36q6 -1 18 -1q27 0 49 6q29 9 45 19q61 38 115 149q50 106 56 226q0 5 0.5 15.5t0.5 16.5q0 123 -50 201q-55 84 -157 90h-15q-129 0 -207 -90q-80 -90 -81 -244q0 -9 -6 -15t-15 -6q-8 0 -14.5 6t-6.5 15
q1 170 91 272q90 104 239 104h17q124 -7 190 -109zM522 341q8 0 13 -5.5t5 -13.5t-5.5 -13.5t-12.5 -5.5h-118q-39 -118 -82.5 -192.5t-110.5 -100.5q-24 -8 -36 -10q-53 -9 -99 13q-47 22 -66 68q0 1 -0.5 1t-0.5 1q-4 9 -7 25q-6 35 4 72v1q11 42 46 77q33 32 73 39
q23 4 48 -2q8 -2 12 -10t2 -16q-5 -20 -26 -15q-13 4 -29 1q-28 -5 -51 -28q-25 -23 -34 -57v-1q-7 -25 -3 -54q1 -8 5 -17v-1q14 -32 45 -46q34 -16 74 -9q20 4 28 8q54 21 92 85.5t72 167.5h-69q-7 0 -12.5 5.5t-5.5 13.5t5 13.5t13 5.5h81q3 9 8.5 27.5t8.5 27.5
q44 147 74 206q14 27 39 50q24 20 52 26q9 1 16 -4t9 -14q1 -8 -4 -15t-13 -9q-16 -3 -32 -17q-19 -16 -29 -37q-26 -50 -72 -198q-5 -15 -13 -43h106z" />
    <glyph glyph-name="dcroat" unicode="&#x111;" horiz-adv-x="430" 
d="M475 238q20 -9 11 -28q-33 -72 -61 -113q-31 -47 -65 -72q-18 -12 -39 -18q-20 -7 -41 -7h-1q-32 0 -53 22q-20 23 -20 62v4q-60 -87 -129 -86q-42 1 -62 34q-20 28 -18 80q1 45 23 118t57 132q65 108 141 109h9q40 -3 69 -35q1 -2 4 -5.5t5 -6.5t3 -6l19 52l19 56h-91
q-14 0 -14 18t14 18h103q2 7 9.5 27.5l12.5 33.5q7 19 27 12q19 -7 12 -27l-8.5 -25t-7.5 -21h36q14 0 14 -18t-14 -18h-48l-2 -6l-1 -1l-21 -63l-86 -245q-15 -48 -23 -77q-10 -35 -10 -52v-2q0 -23 10 -33q8 -9 21 -9h1q12 0 29 5q15 5 27 13q27 20 54 60q27 42 57 108
q10 19 28 10zM78 44q23 -1 46.5 16.5t40 40t36.5 62.5t30 64.5l27 66.5q5 11 12.5 30l10.5 27q1 3 1 7q-2 36 -18 54q-17 18 -40 20q-2 1 -6 1q-52 -1 -105 -89q-32 -54 -52.5 -121t-21.5 -108q0 -38 11 -56q9 -14 28 -15z" />
    <glyph glyph-name="Itilde" unicode="&#x128;" horiz-adv-x="544" 
d="M789 866q9 -17 -5 -31q-28 -23 -55.5 -28t-46.5 1t-50 22q-68 31 -99 -18q-4 -7 -12.5 -7t-12.5 5q-14 14 -2 30q46 63 129 31q8 -3 25.5 -11t25.5 -10t22 -3t27.5 5.5t29.5 20.5q5 5 12.5 2.5t11.5 -9.5zM713 736q1 -4 0 -9q-5 -42 -41.5 -67t-101.5 -42q-7 -19 -15 -50
q-8 -26 -12 -38q-16 -44 -35 -115l-20 -70.5t-22 -70t-26 -72.5t-29 -66.5t-35 -63t-40.5 -50.5t-48 -41.5t-55 -23.5t-63.5 -8q-6 0 -8 1q-78 6 -121 59q-43 52 -40 124q0 6 1 8q6 82 68 139q33 29 74 45t78 15q9 0 15 -6.5t6 -15.5q0 -8 -6.5 -14.5t-15.5 -5.5
q-69 0 -122 -49q-51 -46 -55 -111q-1 -3 -1 -6q-2 -58 30 -96q35 -40 92 -44h4l2 -1q36 -1 68 13.5t56.5 36t48.5 61t39 71.5t33 85t27.5 84t24.5 85q31 102 36 117q5 13 11 36q2 4 4.5 13t3.5 13q-9 -2 -29 -6l-61 -14.5t-53.5 -15.5t-51 -21.5t-31.5 -26.5t-18 -36
q-1 -5 -1 -12q-2 -34 17 -59q19 -26 51 -30q2 0 5.5 -0.5t5.5 -0.5q8 0 14.5 -6.5t5.5 -15.5q0 -8 -6.5 -14t-14.5 -6q-3 0 -8.5 0.5t-7.5 0.5q-49 7 -79 47q-28 35 -26 85q0 3 0.5 8.5t1.5 8.5q3 23 14 42.5t32.5 34t39 24.5t52 20t52.5 14.5t58 13.5l54 12q42 111 111 121
v0h18q14 -2 26 -9q17 -9 20 -29v0zM590 668q74 24 81 61l-9 3h-8q-36 -5 -64 -64z" />
    <glyph glyph-name="itilde" unicode="&#x129;" horiz-adv-x="184" 
d="M229 238q8 -3 11.5 -11.5t-0.5 -16.5q-41 -92 -68 -131q-54 -79 -116 -79v0h-1q-37 0 -57 29q-14 22 -14 55v0v3q0 23 11 62q10 39 24 79q3 11 22 62q27 77 36 99q1 2 8 25l17 46q6 20 26 13q20 -6 13 -26l-16 -47l-9 -25l-36 -100l-21 -60q-14 -39 -24 -76
q-9 -40 -9 -53v-2q0 -21 7 -32q7 -10 22 -10h1v0q39 0 81 60q23 34 64 125q4 8 12.5 11.5t15.5 -0.5zM284 583q9 -17 -5 -31q-28 -23 -55.5 -28t-46.5 1t-50 22q-68 31 -99 -18q-4 -7 -12.5 -7t-12.5 5q-14 14 -2 30q46 63 129 31q8 -3 25.5 -11t25.5 -10t22 -3t27.5 5.5
t29.5 20.5q5 5 12.5 2.5t11.5 -9.5z" />
    <glyph glyph-name="Utilde" unicode="&#x168;" horiz-adv-x="776" 
d="M812 881q9 -17 -5 -31q-28 -23 -55.5 -28t-46.5 1t-50 22q-68 31 -99 -18q-4 -7 -12.5 -7t-12.5 5q-14 14 -2 30q46 63 129 31q8 -3 25.5 -11t25.5 -10t22 -3t27.5 5.5t29.5 20.5q5 5 12.5 2.5t11.5 -9.5zM822 236q17 -10 9 -29q-6 -13 -15 -30l-23.5 -49t-26.5 -45.5
t-34 -43.5t-39 -27.5t-48 -12.5q-69 0 -69 95q0 20 1 31q-16 -26 -25 -39q-83 -114 -183 -114v0h-2q-60 1 -87 45q-22 33 -22 88v0v4q0 36 18 106v1q19 74 50 163q3 8 8.5 26.5l8.5 28.5q38 127 57 177q-23 -5 -61 -10q-54 -8 -82.5 -13.5t-73.5 -18t-69.5 -26.5
t-45.5 -38.5t-25 -55.5q0 -2 -0.5 -6t-0.5 -6q-2 -34 17 -59q19 -26 52 -30q4 -1 10 -1q9 0 15 -6.5t6 -15.5q-1 -8 -7.5 -14.5t-14.5 -5.5q-10 0 -15 1q-50 7 -80 47q-27 36 -25 86q0 3 0.5 8t0.5 8q4 29 17.5 53t30 40.5t45.5 31t51 23t61 17t61 12l65 10.5q50 8 86 15
q1 2 13 29q20 37 38 57q27 27 59 31h19q18 -4 26 -9q17 -11 19 -26v-3q1 -4 0 -10q-6 -43 -42.5 -67t-100.5 -39q-29 -73 -66 -199q-14 -44 -17 -55v-1q-32 -93 -49 -160v-1q-17 -68 -17 -95v-1v-3q0 -42 15 -65q17 -25 53 -25h1q79 0 149 96q42 58 106 203v2q1 1 1 2l1 2
l51 143l99 269q7 20 27 13q19 -7 12 -27l-98 -269l-51 -142l-1 -3q0 -3 -1 -4v-1l-1 -1q-45 -139 -45 -204q0 -53 27 -53q21 0 40.5 13.5t37.5 40.5t28.5 46.5t26.5 53.5l8 16.5l7 14.5q10 19 29 10zM499 713q-12 -12 -29 -44q73 22 80 60q-2 1 -8 3h-1h-8q-18 -3 -34 -19z
" />
    <glyph glyph-name="utilde" unicode="&#x169;" horiz-adv-x="365" 
d="M388 583q9 -17 -5 -31q-28 -23 -55.5 -28t-46.5 1t-50 22q-68 31 -99 -18q-4 -7 -12.5 -7t-12.5 5q-14 14 -2 30q46 63 129 31q8 -3 25.5 -11t25.5 -10t22 -3t27.5 5.5t29.5 20.5q5 5 12.5 2.5t11.5 -9.5zM411 238q19 -9 10 -28l-1 -3q-19 -44 -32.5 -70t-37.5 -63
t-52 -55.5t-59 -18.5v0h-1h-1q-37 0 -56 29q-11 16 -14 42q-50 -71 -110 -71v0h-1q-37 0 -57 29q-14 22 -14 55v0v3q0 23 11 62q10 39 24 79l29 82l56 152q7 19 27 12q19 -7 12 -27l-55 -152l-11.5 -32l-11 -29.5t-6.5 -18.5q-14 -39 -24 -76q-9 -40 -9 -53v-2q0 -21 7 -32
q7 -10 23 -10v0q18 0 36 13t31 29t29.5 45t24.5 46.5l22 48.5v1q1 1 1 3l29 82l56 152q7 19 27 12t13 -27l-56 -152q-28 -77 -29 -80v-1q0 -1 -1 -4q-15 -44 -22 -71q-9 -33 -9 -53v-2q0 -21 7 -32q7 -10 22 -10h1q29 0 58.5 33.5t45.5 65t38 83.5l2 3q3 8 11.5 11.5
t16.5 -0.5z" />
    <glyph glyph-name="Ohorn" unicode="&#x1a0;" horiz-adv-x="735" 
d="M779 236q8 -3 11.5 -11.5t0.5 -16.5q-2 -3 -5 -9.5t-4 -9.5l-2 -4t-1.5 -3.5t-2 -4t-2.5 -4.5v-1q-28 -52 -50 -73q-38 -38 -88 -37q-16 0 -29 3q-26 8 -43 25q-24 -30 -37 -43q-83 -86 -181 -86q-29 0 -56 8q-59 18 -87 79q-22 48 -22 120q0 104 38 223q7 25 23 61
q-27 -4 -58 -4h-10q-71 3 -119 36q-55 40 -55 108v6q1 34 16 63l1 1q11 22 38 49q15 15 30 -1q6 -6 6 -14.5t-6 -14.5q-23 -23 -31 -39l-1 -1q-10 -19 -11 -45v-4q0 -47 38 -73q36 -26 95 -29h9q37 0 80 8q34 66 73 112q74 84 151 84q23 0 34 -10h1l1 -1q13 -13 13 -32
q0 -31 -24 -62q-15 -21 -31 -33q-56 -49 -138 -80q-26 -9 -51 -15q-24 -49 -34 -83q-36 -113 -36 -210q0 -63 18 -103q19 -42 62 -56q18 -6 43 -6q79 0 151 74q23 23 42 51q-8 21 -8 45q0 19 7 49q2 8 10 12.5t16 2.5t12.5 -10t2.5 -16q-3 -9 -5 -29q33 56 59 123
q52 129 53 243q2 71 -20 114q-21 43 -67 50v1q-30 4 -73 -6q-8 -2 -16 2.5t-10 12.5t2.5 16t13.5 10q48 13 89 6h1q55 -10 86 -53q25 -2 37 22q2 5 -2 6q-26 9 -23 36q2 16 15.5 27t28.5 11q30 0 30 -35q0 -41 -34 -72q-17 -15 -38 -20q24 -50 22 -129q-1 -119 -56 -258
q-38 -96 -84 -164q11 -14 30 -19q12 -2 18 -2q33 0 58 25q19 18 42 62l1 2q1 1 2 4t2.5 5.5t2.5 4.5q1 3 4 9.5t4 8.5q3 8 11 11.5t16 -0.5zM369 582q-22 -25 -49 -69l9 3q74 27 125 71q13 11 25 27q16 20 16 37q-1 1 -7 1q-59 0 -119 -70z" />
    <glyph glyph-name="ohorn" unicode="&#x1a1;" horiz-adv-x="391" 
d="M436 238q8 -3 11.5 -11t-0.5 -16q-2 -3 -4 -9.5t-4 -10.5q-3 -5 -9 -17q-27 -50 -50 -73q-39 -37 -88 -37q-14 0 -28 3q-25 8 -44 24q-30 -40 -66 -65.5t-70 -25.5q-39 0 -60.5 21t-25 55t2.5 74.5t21 82.5t30 76.5t30 58.5q65 107 140 107h1q48 -2 75 -33l1 -2
q1 -2 2 -2q20 2 30 22q2 5 -2 6q-26 9 -23 36q2 16 15.5 27t28.5 11q30 0 30 -35q0 -41 -34 -72q-14 -13 -32 -19q9 -22 9 -53q-1 -47 -22.5 -112t-55.5 -122q11 -14 30 -19q10 -2 17 -2q33 0 58 25q22 22 42 62l2 4t2 3.5t2 4t2 4.5t8 18q3 8 11.5 11.5t16.5 -0.5zM221 239
q20 -5 15 -26q-3 -7 -5 -23q48 97 50 172q1 34 -15 52q-14 17 -44 19q-53 0 -103 -87q-38 -62 -65 -157q-37 -143 30 -147q51 0 112 87q-8 19 -8 47q0 24 7 48q5 20 26 15z" />
    <glyph glyph-name="Uhorn" unicode="&#x1af;" horiz-adv-x="776" 
d="M822 236q17 -10 9 -29q-6 -13 -15 -30l-23.5 -49t-26.5 -45.5t-34 -43.5t-39 -27.5t-48 -12.5q-69 0 -69 95q0 20 1 31q-16 -26 -25 -39q-83 -114 -183 -114h-2q-60 1 -87 45q-22 33 -22 88v4q0 36 18 106v1q19 74 50 163q3 8 8.5 26.5l8.5 28.5q38 127 57 177
q-23 -5 -61 -10q-54 -8 -82.5 -13.5t-73.5 -18t-69.5 -26.5t-45.5 -38.5t-25 -55.5q0 -2 -0.5 -6t-0.5 -6q-2 -34 17 -59q19 -26 52 -30q4 -1 10 -1q9 0 15 -6.5t6 -15.5q-1 -8 -7.5 -14.5t-14.5 -5.5q-10 0 -15 1q-50 7 -80 47q-27 36 -25 86q0 3 0.5 8t0.5 8q4 29 17.5 53
t30 40.5t45.5 31t51 23t61 17t61 12l65 10.5q50 8 86 15q1 2 13 29q20 37 38 57q27 27 59 31h19q18 -4 26 -9q17 -11 19 -26v-3q1 -4 0 -10q-6 -43 -42.5 -67t-100.5 -39q-29 -73 -66 -199q-14 -44 -17 -55v-1q-32 -93 -49 -160v-1q-17 -68 -17 -95v-4q0 -42 15 -65
q17 -25 53 -25h1q79 0 149 96q42 58 106 203v2q1 1 1 2l1 2l51 143l99 269q7 20 27 13q15 -5 13 -21q26 0 36 22q2 5 -2 6q-26 9 -23 36q2 16 15.5 27t28.5 11q31 0 31 -36q-1 -41 -35 -72q-27 -23 -60 -21l-90 -248l-51 -142l-1 -3q0 -3 -1 -4v-1l-1 -1q-45 -139 -45 -204
q0 -53 27 -53q21 0 40.5 13.5t37.5 40.5t28.5 46.5t26.5 53.5l8 16.5l7 14.5q10 19 29 10zM499 713q-12 -12 -29 -44q73 22 80 60q-2 1 -8 3h-9q-18 -3 -34 -19z" />
    <glyph glyph-name="uhorn" unicode="&#x1b0;" horiz-adv-x="365" 
d="M411 238q19 -9 10 -28l-1 -3q-19 -44 -32.5 -70t-37.5 -63t-52 -55.5t-59 -18.5h-2q-37 0 -56 29q-11 16 -14 42q-50 -71 -110 -71h-1q-37 0 -57 29q-14 22 -14 55v3q0 23 11 62q10 39 24 79l29 82l56 152q7 19 27 12q19 -7 12 -27l-55 -152l-11.5 -32l-11 -29.5
t-6.5 -18.5q-14 -39 -24 -76q-9 -40 -9 -53v-2q0 -21 7 -32q7 -10 23 -10q18 0 36 13t31 29t29.5 45t24.5 46.5l22 48.5v1q1 1 1 3l29 82l56 152q7 19 27 12q19 -7 13 -27q25 0 36 22q2 5 -2 6q-26 9 -23 36q2 16 15.5 27t28.5 11q30 0 30 -35q1 -40 -32 -71
q-27 -25 -63 -23h-1l-45 -125q-28 -77 -29 -80v-1q0 -1 -1 -4q-15 -44 -22 -71q-9 -33 -9 -53v-2q0 -21 7 -32q7 -10 22 -10h1q29 0 58.5 33.5t45.5 65t38 83.5l2 3q3 8 11.5 11.5t16.5 -0.5z" />
    <glyph glyph-name="uni1EA0" unicode="&#x1ea0;" 
d="M368 -102q14 0 24.5 -10.5t10.5 -24.5t-10.5 -24t-24.5 -10t-24 10t-10 24t10 24.5t24 10.5zM811 675q8 -27 -2 -80.5t-23 -92.5l-39 -114q-9 -23 -26 -72v-1l-18 -47q-108 -294 -108 -344v-4q0 -41 14 -63q17 -24 51 -24h2q8 0 14.5 -6.5t6.5 -15.5q0 -8 -6.5 -14.5
t-14.5 -6.5h-2q-58 1 -86 44q-22 33 -22 86v1v3q1 61 112 358v0q2 8 4 11h-212q-72 -123 -138 -199.5t-130 -88.5q-16 -4 -36 -4q-53 0 -97 29q-42 31 -53 81q-2 18 -2 26q0 37 16 71q21 42 58 68q38 26 80 26q25 0 46 -10q8 -4 11 -12.5t-1 -15.5q-4 -8 -12.5 -11t-15.5 1
q-14 6 -28 6q-28 0 -56 -19q-29 -19 -44 -51q-12 -27 -12 -53q0 -6 2 -18q6 -34 36 -54q29 -21 72 -21q19 0 28 2q92 19 227 247h-49q-9 0 -15.5 6.5t-6.5 14.5q0 9 6.5 15.5t15.5 6.5h74l73 132q91 169 125 213q23 28 48 42q28 17 55 17q28 0 49 -18q19 -18 29 -47z
M707 403q25 70 37 106.5t22 84.5t4 69q-5 17 -15 27q-8 7 -22 7q-14 1 -34 -10q-20 -12 -35 -32q-33 -43 -122 -207l-62 -112h203z" />
    <glyph glyph-name="uni1EA1" unicode="&#x1ea1;" horiz-adv-x="403" 
d="M74 -47q14 0 24.5 -10.5t10.5 -24.5t-10.5 -24t-24.5 -10t-24 10t-10 24t10 24.5t24 10.5zM448 238q20 -9 11 -28l-1 -3l-25.5 -55t-28.5 -52.5t-36.5 -52t-41 -32.5t-50.5 -15v0h-1q-37 0 -57 29q-14 22 -14 55v0v1q-59 -84 -127 -83q-42 1 -62 34q-20 28 -18 80
q1 45 23 118t57 132q65 108 141 109h9q40 -3 69 -35q8 -9 13 -20q3 10 17 45q8 19 27 12q8 -3 11.5 -11t0.5 -16l-50 -134q-4 -12 -17.5 -48.5t-18.5 -52.5q-16 -44 -23 -76q-10 -37 -10 -53v-2q0 -21 7 -32q7 -10 23 -10v0q18 0 36 13t31 29t29.5 45t24.5 46.5l22 48.5l1 3
q9 20 28 11zM78 44q23 -1 46.5 16.5t40 40t36.5 62.5t30 64.5l27 66.5q5 11 12.5 30l10.5 27q1 3 1 7q-2 36 -18 54q-17 18 -40 20q-2 1 -6 1q-52 -1 -105 -89q-32 -54 -52.5 -121t-21.5 -108q0 -38 11 -56q9 -14 28 -15z" />
    <glyph glyph-name="uni1EA2" unicode="&#x1ea2;" 
d="M950 943q-11 -41 -33 -60.5t-65 -40.5q-9 -5 -14 -6l4 1q-16 -10 -28 -20q-5 -6 -14 -25q0 -1 -1 -4l-1 -2q-9 -19 -29 -17q-8 1 -11.5 8t0.5 14q2 3 2 6q9 24 23 40q5 3 5 4q8 8 37 27q18 10 26 14h-1q19 11 26 16t17 16.5t14 26.5q5 23 -9 35q-17 15 -47 15
q-7 0 -18 -3q-19 -4 -36 -21q-16 -12 -13 -38q0 -19 -22 -24h1q-9 -3 -15.5 0.5t-7.5 11.5q0 22 4 32q3 10 7.5 17t10.5 13.5t8 10.5q25 25 62 35q18 5 31 5q44 0 70 -24q27 -25 17 -63zM811 675q8 -27 -2 -80.5t-23 -92.5l-39 -114q-9 -23 -26 -72v-1l-18 -47
q-108 -294 -108 -344v-4q0 -41 14 -63q17 -24 51 -24h2q8 0 14.5 -6.5t6.5 -15.5q0 -8 -6.5 -14.5t-14.5 -6.5h-2q-58 1 -86 44q-22 33 -22 86v1v3q1 61 112 358v0q2 8 4 11h-212q-72 -123 -138 -199.5t-130 -88.5q-16 -4 -36 -4q-53 0 -97 29q-42 31 -53 81q-2 18 -2 26
q0 37 16 71q21 42 58 68q38 26 80 26q25 0 46 -10q8 -4 11 -12.5t-1 -15.5q-4 -8 -12.5 -11t-15.5 1q-14 6 -28 6q-28 0 -56 -19q-29 -19 -44 -51q-12 -27 -12 -53q0 -6 2 -18q6 -34 36 -54q29 -21 72 -21q19 0 28 2q92 19 227 247h-49q-9 0 -15.5 6.5t-6.5 14.5
q0 9 6.5 15.5t15.5 6.5h74l73 132q91 169 125 213q23 28 48 42q28 17 55 17q28 0 49 -18q19 -18 29 -47zM707 403q25 70 37 106.5t22 84.5t4 69q-5 17 -15 27q-8 7 -22 7q-14 1 -34 -10q-20 -12 -35 -32q-33 -43 -122 -207l-62 -112h203z" />
    <glyph glyph-name="uni1EA3" unicode="&#x1ea3;" horiz-adv-x="403" 
d="M443 695q-11 -41 -33 -60.5t-65 -40.5q-9 -5 -14 -6l4 1q-16 -10 -28 -20q-5 -6 -14 -25q0 -1 -1 -4l-1 -2q-9 -19 -29 -17q-8 1 -11.5 8t0.5 14q2 3 2 6q9 24 23 40q5 3 5 4q8 8 37 27q18 10 26 14h-1q19 11 26 16t17 16.5t14 26.5q5 23 -9 35q-17 15 -47 15
q-8 0 -18 -3q-20 -4 -36 -21q-16 -12 -13 -38q0 -19 -22 -24h1q-9 -3 -15.5 0.5t-7.5 11.5q0 22 4 32q3 10 7.5 17t10.5 13.5t8 10.5q25 25 62 35q18 5 31 5q44 0 70 -24q27 -25 17 -63zM448 238q20 -9 11 -28l-1 -3l-25.5 -55t-28.5 -52.5t-36.5 -52t-41 -32.5t-50.5 -15v0
h-1q-37 0 -57 29q-14 22 -14 55v0v1q-59 -84 -127 -83q-42 1 -62 34q-20 28 -18 80q1 45 23 118t57 132q65 108 141 109h9q40 -3 69 -35q8 -9 13 -20q3 10 17 45q8 19 27 12q8 -3 11.5 -11t0.5 -16l-50 -134q-4 -12 -17.5 -48.5t-18.5 -52.5q-16 -44 -23 -76
q-10 -37 -10 -53v-2q0 -21 7 -32q7 -10 23 -10v0q18 0 36 13t31 29t29.5 45t24.5 46.5l22 48.5l1 3q9 20 28 11zM78 44q23 -1 46.5 16.5t40 40t36.5 62.5t30 64.5l27 66.5q5 11 12.5 30l10.5 27q1 3 1 7q-2 36 -18 54q-17 18 -40 20q-2 1 -6 1q-52 -1 -105 -89
q-32 -54 -52.5 -121t-21.5 -108q0 -38 11 -56q9 -14 28 -15z" />
    <glyph glyph-name="uni1EA4" unicode="&#x1ea4;" 
d="M664 799l127 144q3 6 14 12q8 5 17 2t10 -10l40 -149q7 -18 -14 -30q-8 -4 -15.5 -2t-9.5 10l-30 117l-109 -120q-15 -16 -29 -4q-6 5 -6.5 13.5t5.5 16.5zM811 675q8 -27 -2 -80.5t-23 -92.5l-39 -114q-9 -23 -26 -72v-1l-18 -47q-108 -294 -108 -344v-4q0 -41 14 -63
q17 -24 51 -24h2q8 0 14.5 -6.5t6.5 -15.5q0 -8 -6.5 -14.5t-14.5 -6.5h-2q-58 1 -86 44q-22 33 -22 86v1v3q1 61 112 358v0q2 8 4 11h-212q-72 -123 -138 -199.5t-130 -88.5q-16 -4 -36 -4q-53 0 -97 29q-42 31 -53 81q-2 18 -2 26q0 37 16 71q21 42 58 68q38 26 80 26
q25 0 46 -10q8 -4 11 -12.5t-1 -15.5q-4 -8 -12.5 -11t-15.5 1q-14 6 -28 6q-28 0 -56 -19q-29 -19 -44 -51q-12 -27 -12 -53q0 -6 2 -18q6 -34 36 -54q29 -21 72 -21q19 0 28 2q92 19 227 247h-49q-9 0 -15.5 6.5t-6.5 14.5q0 9 6.5 15.5t15.5 6.5h74l73 132
q91 169 125 213q23 28 48 42q28 17 55 17q28 0 49 -18q19 -18 29 -47zM707 403q25 70 37 106.5t22 84.5t4 69q-5 17 -15 27q-8 7 -22 7q-14 1 -34 -10q-20 -12 -35 -32q-33 -43 -122 -207l-62 -112h203zM884 914l129 141q16 18 30 7q7 -5 8.5 -14.5t-4.5 -17.5l-129 -141
q-14 -16 -32 -4q-6 5 -7 13t5 16z" />
    <glyph glyph-name="uni1EA5" unicode="&#x1ea5;" horiz-adv-x="403" 
d="M169 543l127 144q3 6 14 12q8 5 17 2t10 -10l40 -149q7 -18 -14 -30q-8 -4 -15.5 -2t-9.5 10l-30 117l-109 -120q-15 -16 -29 -4q-6 5 -6.5 13.5t5.5 16.5zM448 238q20 -9 11 -28l-1 -3l-25.5 -55t-28.5 -52.5t-36.5 -52t-41 -32.5t-50.5 -15v0h-1q-37 0 -57 29
q-14 22 -14 55v0v1q-59 -84 -127 -83q-42 1 -62 34q-20 28 -18 80q1 45 23 118t57 132q65 108 141 109h9q40 -3 69 -35q8 -9 13 -20q3 10 17 45q8 19 27 12q8 -3 11.5 -11t0.5 -16l-50 -134q-4 -12 -17.5 -48.5t-18.5 -52.5q-16 -44 -23 -76q-10 -37 -10 -53v-2q0 -21 7 -32
q7 -10 23 -10v0q18 0 36 13t31 29t29.5 45t24.5 46.5l22 48.5l1 3q9 20 28 11zM78 44q23 -1 46.5 16.5t40 40t36.5 62.5t30 64.5l27 66.5q5 11 12.5 30l10.5 27q1 3 1 7q-2 36 -18 54q-17 18 -40 20q-2 1 -6 1q-52 -1 -105 -89q-32 -54 -52.5 -121t-21.5 -108q0 -38 11 -56
q9 -14 28 -15zM389 657l129 141q16 18 30 7q7 -5 8.5 -14.5t-4.5 -17.5l-129 -141q-14 -16 -32 -4q-6 5 -7 13t5 16z" />
    <glyph glyph-name="uni1EA6" unicode="&#x1ea6;" 
d="M664 799q-6 -8 -5.5 -16.5t6.5 -13.5q14 -12 29 4l109 120l30 -117q2 -8 9.5 -10t15.5 2q21 12 14 30l-40 149q-1 7 -10 10t-17 -2q-11 -6 -14 -12zM811 675q8 -27 -2 -80.5t-23 -92.5l-39 -114q-9 -23 -26 -72v-1l-18 -47q-108 -294 -108 -344v-4q0 -41 14 -63
q17 -24 51 -24h2q8 0 14.5 -6.5t6.5 -15.5q0 -8 -6.5 -14.5t-14.5 -6.5h-2q-58 1 -86 44q-22 33 -22 86v1v3q1 61 112 358v0q2 8 4 11h-212q-72 -123 -138 -199.5t-130 -88.5q-16 -4 -36 -4q-53 0 -97 29q-42 31 -53 81q-2 18 -2 26q0 37 16 71q21 42 58 68q38 26 80 26
q25 0 46 -10q8 -4 11 -12.5t-1 -15.5q-4 -8 -12.5 -11t-15.5 1q-14 6 -28 6q-28 0 -56 -19q-29 -19 -44 -51q-12 -27 -12 -53q0 -6 2 -18q6 -34 36 -54q29 -21 72 -21q19 0 28 2q92 19 227 247h-49q-9 0 -15.5 6.5t-6.5 14.5q0 9 6.5 15.5t15.5 6.5h74l73 132
q91 169 125 213q23 28 48 42q28 17 55 17q28 0 49 -18q19 -18 29 -47zM707 403q25 70 37 106.5t22 84.5t4 69q-5 17 -15 27q-8 7 -22 7q-14 1 -34 -10q-20 -12 -35 -32q-33 -43 -122 -207l-62 -112h203zM941 913q4 -7 0 -15.5t-12 -13.5q-8 -4 -16.5 -2t-11.5 10l-61 144
q-7 18 11 29q21 10 28 -8z" />
    <glyph glyph-name="uni1EA7" unicode="&#x1ea7;" horiz-adv-x="403" 
d="M169 543q-6 -8 -5.5 -16.5t6.5 -13.5q14 -12 29 4l109 120l30 -117q2 -8 9.5 -10t15.5 2q21 12 14 30l-40 149q-1 7 -10 10t-17 -2q-11 -6 -14 -12zM448 238q20 -9 11 -28l-1 -3l-25.5 -55t-28.5 -52.5t-36.5 -52t-41 -32.5t-50.5 -15v0h-1q-37 0 -57 29q-14 22 -14 55v0
v1q-59 -84 -127 -83q-42 1 -62 34q-20 28 -18 80q1 45 23 118t57 132q65 108 141 109h9q40 -3 69 -35q8 -9 13 -20q3 10 17 45q8 19 27 12q8 -3 11.5 -11t0.5 -16l-50 -134q-4 -12 -17.5 -48.5t-18.5 -52.5q-16 -44 -23 -76q-10 -37 -10 -53v-2q0 -21 7 -32q7 -10 23 -10v0
q18 0 36 13t31 29t29.5 45t24.5 46.5l22 48.5l1 3q9 20 28 11zM78 44q23 -1 46.5 16.5t40 40t36.5 62.5t30 64.5l27 66.5q5 11 12.5 30l10.5 27q1 3 1 7q-2 36 -18 54q-17 18 -40 20q-2 1 -6 1q-52 -1 -105 -89q-32 -54 -52.5 -121t-21.5 -108q0 -38 11 -56q9 -14 28 -15z
M446 657q4 -7 0 -15.5t-12 -13.5q-8 -4 -16.5 -2t-11.5 10l-61 144q-7 18 11 29q21 10 28 -8z" />
    <glyph glyph-name="uni1EA8" unicode="&#x1ea8;" 
d="M664 799q-6 -8 -5.5 -16.5t6.5 -13.5q14 -12 29 4l109 120l30 -117q2 -8 9.5 -10t15.5 2q21 12 14 30l-40 149q-1 7 -10 10t-17 -2q-11 -6 -14 -12zM811 675q8 -27 -2 -80.5t-23 -92.5l-39 -114q-9 -23 -26 -72v-1l-18 -47q-108 -294 -108 -344v-4q0 -41 14 -63
q17 -24 51 -24h2q8 0 14.5 -6.5t6.5 -15.5q0 -8 -6.5 -14.5t-14.5 -6.5h-2q-58 1 -86 44q-22 33 -22 86v1v3q1 61 112 358v0q2 8 4 11h-212q-72 -123 -138 -199.5t-130 -88.5q-16 -4 -36 -4q-53 0 -97 29q-42 31 -53 81q-2 18 -2 26q0 37 16 71q21 42 58 68q38 26 80 26
q25 0 46 -10q8 -4 11 -12.5t-1 -15.5q-4 -8 -12.5 -11t-15.5 1q-14 6 -28 6q-28 0 -56 -19q-29 -19 -44 -51q-12 -27 -12 -53q0 -6 2 -18q6 -34 36 -54q29 -21 72 -21q19 0 28 2q92 19 227 247h-49q-9 0 -15.5 6.5t-6.5 14.5q0 9 6.5 15.5t15.5 6.5h74l73 132
q91 169 125 213q23 28 48 42q28 17 55 17q28 0 49 -18q19 -18 29 -47zM707 403q25 70 37 106.5t22 84.5t4 69q-5 17 -15 27q-8 7 -22 7q-14 1 -34 -10q-20 -12 -35 -32q-33 -43 -122 -207l-62 -112h203zM1073 1044q-11 -41 -33 -60.5t-65 -40.5q-9 -5 -14 -6l4 1
q-16 -10 -28 -20q-5 -6 -14 -25q0 -1 -1 -3l-1 -3q-9 -19 -29 -17q-8 1 -11.5 8t0.5 14q2 3 2 6q9 24 23 40q5 3 5 4q8 8 37 27q18 10 26 14h-1q19 11 26 16t17 16.5t14 26.5q5 23 -9 35q-17 15 -47 15q-7 0 -18 -3q-20 -5 -36 -21q-16 -12 -13 -38q0 -19 -22 -24h1
q-9 -3 -15.5 0.5t-7.5 11.5q0 22 4 32q3 10 7.5 17t10.5 13.5t8 10.5q25 25 62 35q18 5 31 5q44 0 70 -24q27 -25 17 -63z" />
    <glyph glyph-name="uni1EA9" unicode="&#x1ea9;" horiz-adv-x="403" 
d="M169 543q-6 -8 -5.5 -16.5t6.5 -13.5q14 -12 29 4l109 120l30 -117q2 -8 9.5 -10t15.5 2q21 12 14 30l-40 149q-1 7 -10 10t-17 -2q-11 -6 -14 -12zM448 238q20 -9 11 -28l-1 -3l-25.5 -55t-28.5 -52.5t-36.5 -52t-41 -32.5t-50.5 -15v0h-1q-37 0 -57 29q-14 22 -14 55v0
v1q-59 -84 -127 -83q-42 1 -62 34q-20 28 -18 80q1 45 23 118t57 132q65 108 141 109h9q40 -3 69 -35q8 -9 13 -20q3 10 17 45q8 19 27 12q8 -3 11.5 -11t0.5 -16l-50 -134q-4 -12 -17.5 -48.5t-18.5 -52.5q-16 -44 -23 -76q-10 -37 -10 -53v-2q0 -21 7 -32q7 -10 23 -10v0
q18 0 36 13t31 29t29.5 45t24.5 46.5l22 48.5l1 3q9 20 28 11zM78 44q23 -1 46.5 16.5t40 40t36.5 62.5t30 64.5l27 66.5q5 11 12.5 30l10.5 27q1 3 1 7q-2 36 -18 54q-17 18 -40 20q-2 1 -6 1q-52 -1 -105 -89q-32 -54 -52.5 -121t-21.5 -108q0 -38 11 -56q9 -14 28 -15z
M578 788q-11 -41 -33 -60.5t-65 -40.5q-9 -5 -14 -6l4 1q-16 -10 -28 -20q-5 -6 -14 -25q0 -1 -1 -3l-1 -3q-9 -19 -29 -17q-8 1 -11.5 8t0.5 14q2 3 2 6q9 24 23 40q5 3 5 4q8 8 37 27q18 10 26 14h-1q19 11 26 16t17 16.5t14 26.5q5 23 -9 35q-17 15 -47 15q-7 0 -18 -3
q-20 -5 -36 -21q-16 -12 -13 -38q0 -19 -22 -24h1q-9 -3 -15.5 0.5t-7.5 11.5q0 22 4 32q3 10 7.5 17t10.5 13.5t8 10.5q25 25 62 35q18 5 31 5q44 0 70 -24q27 -25 17 -63z" />
    <glyph glyph-name="uni1EAA" unicode="&#x1eaa;" 
d="M664 799q-6 -8 -5.5 -16.5t6.5 -13.5q14 -12 29 4l109 120l30 -117q2 -8 9.5 -10t15.5 2q21 12 14 30l-40 149q-1 7 -10 10t-17 -2q-11 -6 -14 -12zM811 675q8 -27 -2 -80.5t-23 -92.5l-39 -114q-9 -23 -26 -72v-1l-18 -47q-108 -294 -108 -344v-4q0 -41 14 -63
q17 -24 51 -24h2q8 0 14.5 -6.5t6.5 -15.5q0 -8 -6.5 -14.5t-14.5 -6.5h-2q-58 1 -86 44q-22 33 -22 86v1v3q1 61 112 358v0q2 8 4 11h-212q-72 -123 -138 -199.5t-130 -88.5q-16 -4 -36 -4q-53 0 -97 29q-42 31 -53 81q-2 18 -2 26q0 37 16 71q21 42 58 68q38 26 80 26
q25 0 46 -10q8 -4 11 -12.5t-1 -15.5q-4 -8 -12.5 -11t-15.5 1q-14 6 -28 6q-28 0 -56 -19q-29 -19 -44 -51q-12 -27 -12 -53q0 -6 2 -18q6 -34 36 -54q29 -21 72 -21q19 0 28 2q92 19 227 247h-49q-9 0 -15.5 6.5t-6.5 14.5q0 9 6.5 15.5t15.5 6.5h74l73 132
q91 169 125 213q23 28 48 42q28 17 55 17q28 0 49 -18q19 -18 29 -47zM707 403q25 70 37 106.5t22 84.5t4 69q-5 17 -15 27q-8 7 -22 7q-14 1 -34 -10q-20 -12 -35 -32q-33 -43 -122 -207l-62 -112h203zM977 1046q9 -17 -5 -31q-28 -23 -55.5 -28t-46.5 1t-50 22
q-68 31 -99 -18q-4 -7 -12.5 -7t-12.5 5q-14 14 -2 30q46 63 129 31q8 -3 25.5 -11t25.5 -10t22 -3t27.5 5.5t29.5 20.5q5 5 12.5 2.5t11.5 -9.5z" />
    <glyph glyph-name="uni1EAB" unicode="&#x1eab;" horiz-adv-x="403" 
d="M169 543q-6 -8 -5.5 -16.5t6.5 -13.5q14 -12 29 4l109 120l30 -117q2 -8 9.5 -10t15.5 2q21 12 14 30l-40 149q-1 7 -10 10t-17 -2q-11 -6 -14 -12zM448 238q20 -9 11 -28l-1 -3l-25.5 -55t-28.5 -52.5t-36.5 -52t-41 -32.5t-50.5 -15v0h-1q-37 0 -57 29q-14 22 -14 55v0
v1q-59 -84 -127 -83q-42 1 -62 34q-20 28 -18 80q1 45 23 118t57 132q65 108 141 109h9q40 -3 69 -35q8 -9 13 -20q3 10 17 45q8 19 27 12q8 -3 11.5 -11t0.5 -16l-50 -134q-4 -12 -17.5 -48.5t-18.5 -52.5q-16 -44 -23 -76q-10 -37 -10 -53v-2q0 -21 7 -32q7 -10 23 -10v0
q18 0 36 13t31 29t29.5 45t24.5 46.5l22 48.5l1 3q9 20 28 11zM78 44q23 -1 46.5 16.5t40 40t36.5 62.5t30 64.5l27 66.5q5 11 12.5 30l10.5 27q1 3 1 7q-2 36 -18 54q-17 18 -40 20q-2 1 -6 1q-52 -1 -105 -89q-32 -54 -52.5 -121t-21.5 -108q0 -38 11 -56q9 -14 28 -15z
M482 790q9 -17 -5 -31q-28 -23 -55.5 -28t-46.5 1t-50 22q-68 31 -99 -18q-4 -7 -12.5 -7t-12.5 5q-14 14 -2 30q46 63 129 31q8 -3 25.5 -11t25.5 -10t22 -3t27.5 5.5t29.5 20.5q5 5 12.5 2.5t11.5 -9.5z" />
    <glyph glyph-name="uni1EAC" unicode="&#x1eac;" 
d="M664 799l127 144q3 6 14 12q8 5 17 2t10 -10l40 -149q7 -18 -14 -30q-8 -4 -15.5 -2t-9.5 10l-30 117l-109 -120q-15 -16 -29 -4q-6 5 -6.5 13.5t5.5 16.5zM811 675q8 -27 -2 -80.5t-23 -92.5l-39 -114q-9 -23 -26 -72v-1l-18 -47q-108 -294 -108 -344v-4q0 -41 14 -63
q17 -24 51 -24h2q8 0 14.5 -6.5t6.5 -15.5q0 -8 -6.5 -14.5t-14.5 -6.5h-2q-58 1 -86 44q-22 33 -22 86v1v3q1 61 112 358v0q2 8 4 11h-212q-72 -123 -138 -199.5t-130 -88.5q-16 -4 -36 -4q-53 0 -97 29q-42 31 -53 81q-2 18 -2 26q0 37 16 71q21 42 58 68q38 26 80 26
q25 0 46 -10q8 -4 11 -12.5t-1 -15.5q-4 -8 -12.5 -11t-15.5 1q-14 6 -28 6q-28 0 -56 -19q-29 -19 -44 -51q-12 -27 -12 -53q0 -6 2 -18q6 -34 36 -54q29 -21 72 -21q19 0 28 2q92 19 227 247h-49q-9 0 -15.5 6.5t-6.5 14.5q0 9 6.5 15.5t15.5 6.5h74l73 132
q91 169 125 213q23 28 48 42q28 17 55 17q28 0 49 -18q19 -18 29 -47zM707 403q25 70 37 106.5t22 84.5t4 69q-5 17 -15 27q-8 7 -22 7q-14 1 -34 -10q-20 -12 -35 -32q-33 -43 -122 -207l-62 -112h203zM368 -102q14 0 24.5 -10.5t10.5 -24.5t-10.5 -24t-24.5 -10t-24 10
t-10 24t10 24.5t24 10.5z" />
    <glyph glyph-name="uni1EAD" unicode="&#x1ead;" horiz-adv-x="403" 
d="M169 543l127 144q3 6 14 12q8 5 17 2t10 -10l40 -149q7 -18 -14 -30q-8 -4 -15.5 -2t-9.5 10l-30 117l-109 -120q-15 -16 -29 -4q-6 5 -6.5 13.5t5.5 16.5zM448 238q20 -9 11 -28l-1 -3l-25.5 -55t-28.5 -52.5t-36.5 -52t-41 -32.5t-50.5 -15v0h-1q-37 0 -57 29
q-14 22 -14 55v0v1q-59 -84 -127 -83q-42 1 -62 34q-20 28 -18 80q1 45 23 118t57 132q65 108 141 109h9q40 -3 69 -35q8 -9 13 -20q3 10 17 45q8 19 27 12q8 -3 11.5 -11t0.5 -16l-50 -134q-4 -12 -17.5 -48.5t-18.5 -52.5q-16 -44 -23 -76q-10 -37 -10 -53v-2q0 -21 7 -32
q7 -10 23 -10v0q18 0 36 13t31 29t29.5 45t24.5 46.5l22 48.5l1 3q9 20 28 11zM78 44q23 -1 46.5 16.5t40 40t36.5 62.5t30 64.5l27 66.5q5 11 12.5 30l10.5 27q1 3 1 7q-2 36 -18 54q-17 18 -40 20q-2 1 -6 1q-52 -1 -105 -89q-32 -54 -52.5 -121t-21.5 -108q0 -38 11 -56
q9 -14 28 -15zM74 -47q14 0 24.5 -10.5t10.5 -24.5t-10.5 -24t-24.5 -10t-24 10t-10 24t10 24.5t24 10.5z" />
    <glyph glyph-name="uni1EAE" unicode="&#x1eae;" 
d="M921 861q9 -17 -6 -30q-42 -37 -84.5 -50t-73 -4t-51.5 27.5t-26 40.5q-2 22 0 26q6 7 18 9t15 -5q16 -54 69.5 -58.5t109.5 50.5q5 5 15 3t14 -9zM811 675q8 -27 -2 -80.5t-23 -92.5l-39 -114q-9 -23 -26 -72v-1l-18 -47q-108 -294 -108 -344v-4q0 -41 14 -63
q17 -24 51 -24h2q8 0 14.5 -6.5t6.5 -15.5q0 -8 -6.5 -14.5t-14.5 -6.5h-2q-58 1 -86 44q-22 33 -22 86v1v3q1 61 112 358v0q2 8 4 11h-212q-72 -123 -138 -199.5t-130 -88.5q-16 -4 -36 -4q-53 0 -97 29q-42 31 -53 81q-2 18 -2 26q0 37 16 71q21 42 58 68q38 26 80 26
q25 0 46 -10q8 -4 11 -12.5t-1 -15.5q-4 -8 -12.5 -11t-15.5 1q-14 6 -28 6q-28 0 -56 -19q-29 -19 -44 -51q-12 -27 -12 -53q0 -6 2 -18q6 -34 36 -54q29 -21 72 -21q19 0 28 2q92 19 227 247h-49q-9 0 -15.5 6.5t-6.5 14.5q0 9 6.5 15.5t15.5 6.5h74l73 132
q91 169 125 213q23 28 48 42q28 17 55 17q28 0 49 -18q19 -18 29 -47zM707 403q25 70 37 106.5t22 84.5t4 69q-5 17 -15 27q-8 7 -22 7q-14 1 -34 -10q-20 -12 -35 -32q-33 -43 -122 -207l-62 -112h203zM780 907l129 141q16 18 30 7q7 -5 8.5 -14.5t-4.5 -17.5l-129 -141
q-14 -16 -32 -4q-6 5 -7 13t5 16z" />
    <glyph glyph-name="uni1EAF" unicode="&#x1eaf;" horiz-adv-x="403" 
d="M411 602q9 -17 -6 -30q-42 -37 -84.5 -50t-73 -4t-51.5 27.5t-26 40.5q-2 22 0 26q6 7 18 9t15 -5q16 -54 69.5 -58.5t109.5 50.5q5 5 15 3t14 -9zM448 238q20 -9 11 -28l-1 -3l-25.5 -55t-28.5 -52.5t-36.5 -52t-41 -32.5t-50.5 -15v0h-1q-37 0 -57 29q-14 22 -14 55v0
v1q-59 -84 -127 -83q-42 1 -62 34q-20 28 -18 80q1 45 23 118t57 132q65 108 141 109h9q40 -3 69 -35q8 -9 13 -20q3 10 17 45q8 19 27 12q8 -3 11.5 -11t0.5 -16l-50 -134q-4 -12 -17.5 -48.5t-18.5 -52.5q-16 -44 -23 -76q-10 -37 -10 -53v-2q0 -21 7 -32q7 -10 23 -10v0
q18 0 36 13t31 29t29.5 45t24.5 46.5l22 48.5l1 3q9 20 28 11zM78 44q23 -1 46.5 16.5t40 40t36.5 62.5t30 64.5l27 66.5q5 11 12.5 30l10.5 27q1 3 1 7q-2 36 -18 54q-17 18 -40 20q-2 1 -6 1q-52 -1 -105 -89q-32 -54 -52.5 -121t-21.5 -108q0 -38 11 -56q9 -14 28 -15z
M270 648l129 141q16 18 30 7q7 -5 8.5 -14.5t-4.5 -17.5l-129 -141q-14 -16 -32 -4q-6 5 -7 13t5 16z" />
    <glyph glyph-name="uni1EB0" unicode="&#x1eb0;" 
d="M921 861q9 -17 -6 -30q-42 -37 -84.5 -50t-73 -4t-51.5 27.5t-26 40.5q-2 22 0 26q6 7 18 9t15 -5q16 -54 69.5 -58.5t109.5 50.5q5 5 15 3t14 -9zM811 675q8 -27 -2 -80.5t-23 -92.5l-39 -114q-9 -23 -26 -72v-1l-18 -47q-108 -294 -108 -344v-4q0 -41 14 -63
q17 -24 51 -24h2q8 0 14.5 -6.5t6.5 -15.5q0 -8 -6.5 -14.5t-14.5 -6.5h-2q-58 1 -86 44q-22 33 -22 86v1v3q1 61 112 358v0q2 8 4 11h-212q-72 -123 -138 -199.5t-130 -88.5q-16 -4 -36 -4q-53 0 -97 29q-42 31 -53 81q-2 18 -2 26q0 37 16 71q21 42 58 68q38 26 80 26
q25 0 46 -10q8 -4 11 -12.5t-1 -15.5q-4 -8 -12.5 -11t-15.5 1q-14 6 -28 6q-28 0 -56 -19q-29 -19 -44 -51q-12 -27 -12 -53q0 -6 2 -18q6 -34 36 -54q29 -21 72 -21q19 0 28 2q92 19 227 247h-49q-9 0 -15.5 6.5t-6.5 14.5q0 9 6.5 15.5t15.5 6.5h74l73 132
q91 169 125 213q23 28 48 42q28 17 55 17q28 0 49 -18q19 -18 29 -47zM707 403q25 70 37 106.5t22 84.5t4 69q-5 17 -15 27q-8 7 -22 7q-14 1 -34 -10q-20 -12 -35 -32q-33 -43 -122 -207l-62 -112h203zM829 905q4 -7 0 -15.5t-12 -13.5q-8 -4 -16.5 -2t-11.5 10l-61 144
q-7 18 11 29q21 10 28 -8z" />
    <glyph glyph-name="uni1EB1" unicode="&#x1eb1;" horiz-adv-x="403" 
d="M411 602q9 -17 -6 -30q-42 -37 -84.5 -50t-73 -4t-51.5 27.5t-26 40.5q-2 22 0 26q6 7 18 9t15 -5q16 -54 69.5 -58.5t109.5 50.5q5 5 15 3t14 -9zM448 238q20 -9 11 -28l-1 -3l-25.5 -55t-28.5 -52.5t-36.5 -52t-41 -32.5t-50.5 -15v0h-1q-37 0 -57 29q-14 22 -14 55v0
v1q-59 -84 -127 -83q-42 1 -62 34q-20 28 -18 80q1 45 23 118t57 132q65 108 141 109h9q40 -3 69 -35q8 -9 13 -20q3 10 17 45q8 19 27 12q8 -3 11.5 -11t0.5 -16l-50 -134q-4 -12 -17.5 -48.5t-18.5 -52.5q-16 -44 -23 -76q-10 -37 -10 -53v-2q0 -21 7 -32q7 -10 23 -10v0
q18 0 36 13t31 29t29.5 45t24.5 46.5l22 48.5l1 3q9 20 28 11zM78 44q23 -1 46.5 16.5t40 40t36.5 62.5t30 64.5l27 66.5q5 11 12.5 30l10.5 27q1 3 1 7q-2 36 -18 54q-17 18 -40 20q-2 1 -6 1q-52 -1 -105 -89q-32 -54 -52.5 -121t-21.5 -108q0 -38 11 -56q9 -14 28 -15z
M319 646q4 -7 0 -15.5t-12 -13.5q-8 -4 -16.5 -2t-11.5 10l-61 144q-7 18 11 29q21 10 28 -8z" />
    <glyph glyph-name="uni1EB2" unicode="&#x1eb2;" 
d="M921 861q9 -17 -6 -30q-42 -37 -84.5 -50t-73 -4t-51.5 27.5t-26 40.5q-2 22 0 26q6 7 18 9t15 -5q16 -54 69.5 -58.5t109.5 50.5q5 5 15 3t14 -9zM811 675q8 -27 -2 -80.5t-23 -92.5l-39 -114q-9 -23 -26 -72v-1l-18 -47q-108 -294 -108 -344v-4q0 -41 14 -63
q17 -24 51 -24h2q8 0 14.5 -6.5t6.5 -15.5q0 -8 -6.5 -14.5t-14.5 -6.5h-2q-58 1 -86 44q-22 33 -22 86v1v3q1 61 112 358v0q2 8 4 11h-212q-72 -123 -138 -199.5t-130 -88.5q-16 -4 -36 -4q-53 0 -97 29q-42 31 -53 81q-2 18 -2 26q0 37 16 71q21 42 58 68q38 26 80 26
q25 0 46 -10q8 -4 11 -12.5t-1 -15.5q-4 -8 -12.5 -11t-15.5 1q-14 6 -28 6q-28 0 -56 -19q-29 -19 -44 -51q-12 -27 -12 -53q0 -6 2 -18q6 -34 36 -54q29 -21 72 -21q19 0 28 2q92 19 227 247h-49q-9 0 -15.5 6.5t-6.5 14.5q0 9 6.5 15.5t15.5 6.5h74l73 132
q91 169 125 213q23 28 48 42q28 17 55 17q28 0 49 -18q19 -18 29 -47zM707 403q25 70 37 106.5t22 84.5t4 69q-5 17 -15 27q-8 7 -22 7q-14 1 -34 -10q-20 -12 -35 -32q-33 -43 -122 -207l-62 -112h203zM979 1045q-11 -41 -33 -60.5t-65 -40.5q-9 -5 -14 -6l4 1
q-16 -10 -28 -20q-5 -6 -14 -25q0 -1 -1 -4l-1 -2q-9 -19 -29 -17q-8 1 -11.5 8t0.5 14q2 3 2 6q9 24 23 40q4 3 5 4q8 8 37 27q18 10 26 14h-1q19 11 26 16t17 16.5t14 26.5q5 23 -9 35q-17 15 -47 15q-8 0 -18 -3q-20 -4 -36 -21q-16 -12 -13 -38q0 -19 -22 -24h1
q-9 -3 -15.5 0.5t-7.5 11.5q0 22 4 32q3 10 7.5 17t10.5 13.5t8 10.5q25 25 62 35q18 5 31 5q44 0 70 -24q27 -25 17 -63z" />
    <glyph glyph-name="uni1EB3" unicode="&#x1eb3;" horiz-adv-x="403" 
d="M411 602q9 -17 -6 -30q-42 -37 -84.5 -50t-73 -4t-51.5 27.5t-26 40.5q-2 22 0 26q6 7 18 9t15 -5q16 -54 69.5 -58.5t109.5 50.5q5 5 15 3t14 -9zM448 238q20 -9 11 -28l-1 -3l-25.5 -55t-28.5 -52.5t-36.5 -52t-41 -32.5t-50.5 -15v0h-1q-37 0 -57 29q-14 22 -14 55v0
v1q-59 -84 -127 -83q-42 1 -62 34q-20 28 -18 80q1 45 23 118t57 132q65 108 141 109h9q40 -3 69 -35q8 -9 13 -20q3 10 17 45q8 19 27 12q8 -3 11.5 -11t0.5 -16l-50 -134q-4 -12 -17.5 -48.5t-18.5 -52.5q-16 -44 -23 -76q-10 -37 -10 -53v-2q0 -21 7 -32q7 -10 23 -10v0
q18 0 36 13t31 29t29.5 45t24.5 46.5l22 48.5l1 3q9 20 28 11zM78 44q23 -1 46.5 16.5t40 40t36.5 62.5t30 64.5l27 66.5q5 11 12.5 30l10.5 27q1 3 1 7q-2 36 -18 54q-17 18 -40 20q-2 1 -6 1q-52 -1 -105 -89q-32 -54 -52.5 -121t-21.5 -108q0 -38 11 -56q9 -14 28 -15z
M469 786q-11 -41 -33 -60.5t-65 -40.5q-9 -5 -14 -6l4 1q-16 -10 -28 -20q-5 -6 -14 -25q0 -1 -1 -3l-1 -3q-9 -19 -29 -17q-8 1 -11.5 8t0.5 14q2 3 2 6q9 24 23 40q4 3 5 4q8 8 37 27q18 10 26 14h-1q19 11 26 16t17 16.5t14 26.5q5 23 -9 35q-17 15 -47 15q-8 0 -18 -3
q-20 -4 -36 -21q-16 -12 -13 -38q0 -19 -22 -24h1q-9 -3 -15.5 0.5t-7.5 11.5q0 22 4 32q3 10 7.5 17t10.5 13.5t8 10.5q25 25 62 35q18 5 31 5q44 0 70 -24q27 -25 17 -63z" />
    <glyph glyph-name="uni1EB4" unicode="&#x1eb4;" 
d="M921 861q9 -17 -6 -30q-42 -37 -84.5 -50t-73 -4t-51.5 27.5t-26 40.5q-2 22 0 26q6 7 18 9t15 -5q16 -54 69.5 -58.5t109.5 50.5q5 5 15 3t14 -9zM811 675q8 -27 -2 -80.5t-23 -92.5l-39 -114q-9 -23 -26 -72v-1l-18 -47q-108 -294 -108 -344v-4q0 -41 14 -63
q17 -24 51 -24h2q8 0 14.5 -6.5t6.5 -15.5q0 -8 -6.5 -14.5t-14.5 -6.5h-2q-58 1 -86 44q-22 33 -22 86v1v3q1 61 112 358v0q2 8 4 11h-212q-72 -123 -138 -199.5t-130 -88.5q-16 -4 -36 -4q-53 0 -97 29q-42 31 -53 81q-2 18 -2 26q0 37 16 71q21 42 58 68q38 26 80 26
q25 0 46 -10q8 -4 11 -12.5t-1 -15.5q-4 -8 -12.5 -11t-15.5 1q-14 6 -28 6q-28 0 -56 -19q-29 -19 -44 -51q-12 -27 -12 -53q0 -6 2 -18q6 -34 36 -54q29 -21 72 -21q19 0 28 2q92 19 227 247h-49q-9 0 -15.5 6.5t-6.5 14.5q0 9 6.5 15.5t15.5 6.5h74l73 132
q91 169 125 213q23 28 48 42q28 17 55 17q28 0 49 -18q19 -18 29 -47zM707 403q25 70 37 106.5t22 84.5t4 69q-5 17 -15 27q-8 7 -22 7q-14 1 -34 -10q-20 -12 -35 -32q-33 -43 -122 -207l-62 -112h203zM979 978q9 -17 -5 -31q-28 -23 -55.5 -28t-46.5 1t-50 22
q-68 31 -99 -18q-4 -7 -12.5 -7t-12.5 5q-14 14 -2 30q46 63 129 31q8 -3 25.5 -11t25.5 -10t22 -3t27.5 5.5t29.5 20.5q5 5 12.5 2.5t11.5 -9.5z" />
    <glyph glyph-name="uni1EB5" unicode="&#x1eb5;" horiz-adv-x="403" 
d="M411 602q9 -17 -6 -30q-42 -37 -84.5 -50t-73 -4t-51.5 27.5t-26 40.5q-2 22 0 26q6 7 18 9t15 -5q16 -54 69.5 -58.5t109.5 50.5q5 5 15 3t14 -9zM448 238q20 -9 11 -28l-1 -3l-25.5 -55t-28.5 -52.5t-36.5 -52t-41 -32.5t-50.5 -15v0h-1q-37 0 -57 29q-14 22 -14 55v0
v1q-59 -84 -127 -83q-42 1 -62 34q-20 28 -18 80q1 45 23 118t57 132q65 108 141 109h9q40 -3 69 -35q8 -9 13 -20q3 10 17 45q8 19 27 12q8 -3 11.5 -11t0.5 -16l-50 -134q-4 -12 -17.5 -48.5t-18.5 -52.5q-16 -44 -23 -76q-10 -37 -10 -53v-2q0 -21 7 -32q7 -10 23 -10v0
q18 0 36 13t31 29t29.5 45t24.5 46.5l22 48.5l1 3q9 20 28 11zM78 44q23 -1 46.5 16.5t40 40t36.5 62.5t30 64.5l27 66.5q5 11 12.5 30l10.5 27q1 3 1 7q-2 36 -18 54q-17 18 -40 20q-2 1 -6 1q-52 -1 -105 -89q-32 -54 -52.5 -121t-21.5 -108q0 -38 11 -56q9 -14 28 -15z
M469 719q9 -17 -5 -31q-28 -23 -55.5 -28t-46.5 1t-50 22q-68 31 -99 -18q-4 -7 -12.5 -7t-12.5 5q-14 14 -2 30q46 63 129 31q8 -3 25.5 -11t25.5 -10t22 -3t27.5 5.5t29.5 20.5q5 5 12.5 2.5t11.5 -9.5z" />
    <glyph glyph-name="uni1EB6" unicode="&#x1eb6;" 
d="M921 861q9 -17 -6 -30q-42 -37 -84.5 -50t-73 -4t-51.5 27.5t-26 40.5q-2 22 0 26q6 7 18 9t15 -5q16 -54 69.5 -58.5t109.5 50.5q5 5 15 3t14 -9zM811 675q8 -27 -2 -80.5t-23 -92.5l-39 -114q-9 -23 -26 -72v-1l-18 -47q-108 -294 -108 -344v-4q0 -41 14 -63
q17 -24 51 -24h2q8 0 14.5 -6.5t6.5 -15.5q0 -8 -6.5 -14.5t-14.5 -6.5h-2q-58 1 -86 44q-22 33 -22 86v1v3q1 61 112 358v0q2 8 4 11h-212q-72 -123 -138 -199.5t-130 -88.5q-16 -4 -36 -4q-53 0 -97 29q-42 31 -53 81q-2 18 -2 26q0 37 16 71q21 42 58 68q38 26 80 26
q25 0 46 -10q8 -4 11 -12.5t-1 -15.5q-4 -8 -12.5 -11t-15.5 1q-14 6 -28 6q-28 0 -56 -19q-29 -19 -44 -51q-12 -27 -12 -53q0 -6 2 -18q6 -34 36 -54q29 -21 72 -21q19 0 28 2q92 19 227 247h-49q-9 0 -15.5 6.5t-6.5 14.5q0 9 6.5 15.5t15.5 6.5h74l73 132
q91 169 125 213q23 28 48 42q28 17 55 17q28 0 49 -18q19 -18 29 -47zM707 403q25 70 37 106.5t22 84.5t4 69q-5 17 -15 27q-8 7 -22 7q-14 1 -34 -10q-20 -12 -35 -32q-33 -43 -122 -207l-62 -112h203zM368 -102q14 0 24.5 -10.5t10.5 -24.5t-10.5 -24t-24.5 -10t-24 10
t-10 24t10 24.5t24 10.5z" />
    <glyph glyph-name="uni1EB7" unicode="&#x1eb7;" horiz-adv-x="403" 
d="M411 602q9 -17 -6 -30q-42 -37 -84.5 -50t-73 -4t-51.5 27.5t-26 40.5q-2 22 0 26q6 7 18 9t15 -5q16 -54 69.5 -58.5t109.5 50.5q5 5 15 3t14 -9zM448 238q20 -9 11 -28l-1 -3l-25.5 -55t-28.5 -52.5t-36.5 -52t-41 -32.5t-50.5 -15v0h-1q-37 0 -57 29q-14 22 -14 55v0
v1q-59 -84 -127 -83q-42 1 -62 34q-20 28 -18 80q1 45 23 118t57 132q65 108 141 109h9q40 -3 69 -35q8 -9 13 -20q3 10 17 45q8 19 27 12q8 -3 11.5 -11t0.5 -16l-50 -134q-4 -12 -17.5 -48.5t-18.5 -52.5q-16 -44 -23 -76q-10 -37 -10 -53v-2q0 -21 7 -32q7 -10 23 -10v0
q18 0 36 13t31 29t29.5 45t24.5 46.5l22 48.5l1 3q9 20 28 11zM78 44q23 -1 46.5 16.5t40 40t36.5 62.5t30 64.5l27 66.5q5 11 12.5 30l10.5 27q1 3 1 7q-2 36 -18 54q-17 18 -40 20q-2 1 -6 1q-52 -1 -105 -89q-32 -54 -52.5 -121t-21.5 -108q0 -38 11 -56q9 -14 28 -15z
M74 -47q14 0 24.5 -10.5t10.5 -24.5t-10.5 -24t-24.5 -10t-24 10t-10 24t10 24.5t24 10.5z" />
    <glyph glyph-name="uni1EB8" unicode="&#x1eb8;" horiz-adv-x="476" 
d="M193 -102q14 0 24.5 -10.5t10.5 -24.5t-10.5 -24t-24.5 -10t-24 10t-10 24t10 24.5t24 10.5zM521 239q19 -10 11 -28q-55 -135 -133.5 -203t-190.5 -68q-10 0 -15 1q-87 5 -139 57q-54 56 -54 140v14q7 112 90 192q39 38 93 61q-48 51 -42 117q4 26 8 41q-18 8 -32 18
q-70 46 -108 127q-9 19 10 28q7 4 15.5 1t12.5 -11q35 -72 93 -110q4 -3 12.5 -8t10.5 -6q20 43 56 76q69 63 166 63q49 0 76 -20q33 -21 33 -60v-1v-1q-2 -51 -64 -88q-61 -39 -147 -39l-8 1q-42 0 -87 14q-4 -17 -5 -29q-4 -54 44 -97q39 10 64 12q25 3 42 0q21 -3 29 -13
q11 -9 13 -25q2 -7 0 -13q-6 -34 -45 -41q-17 -4 -45 3q-23 4 -49 19q-2 1 -17 11q-59 -22 -100 -61q-73 -70 -76 -164q-1 -3 -1 -11q0 -70 42 -110q40 -42 111 -45q1 0 5.5 -0.5t7.5 -0.5q99 0 166.5 61t118.5 184q3 8 11.5 11.5t16.5 0.5zM296 391q-6 0 -16 -2q5 -2 15 -4
q17 -5 29 -3q9 2 9 7q-2 2 -7 3q-12 2 -30 -1zM248 647q-30 -27 -46 -60q38 -12 74 -12h7q74 0 125 32q42 27 44 53v1q0 15 -14 25q-19 13 -53 13q-79 0 -137 -52z" />
    <glyph glyph-name="uni1EB9" unicode="&#x1eb9;" horiz-adv-x="364" 
d="M107 -47q14 0 24.5 -10.5t10.5 -24.5t-10.5 -24t-24.5 -10t-24 10t-10 24t10 24.5t24 10.5zM409 238q19 -9 11 -28q-52 -116 -135 -169q-69 -43 -154 -40h-2h-1q-58 3 -91 35q-38 37 -37 101v2v1q1 34 15 84l1 1v1q10 34 24 64q36 82 86 135q23 23 49 35q26 14 53 14
q34 0 54 -15q22 -14 29 -42q6 -21 -3 -50q-13 -42 -48 -71q-35 -30 -92 -54q-61 -26 -115 -40q-10 -37 -11 -64v-2q-1 -47 24 -69q22 -22 64 -24h2q74 -2 131 34q73 46 118 150q9 18 28 11zM78 273l-9 -23q45 14 82 31q52 23 82 48q26 21 35 51q5 16 2 28q-3 11 -11 16
q-11 8 -31 8q-17 0 -35 -9q-22 -13 -36 -28q-46 -47 -79 -122z" />
    <glyph glyph-name="uni1EBA" unicode="&#x1eba;" horiz-adv-x="476" 
d="M560 943q-11 -41 -33 -60.5t-65 -40.5q-9 -5 -14 -6l4 1q-16 -10 -28 -20q-5 -6 -14 -25q0 -1 -1 -4l-1 -2q-9 -19 -29 -17q-8 1 -11.5 8t0.5 14q2 3 2 6q9 24 23 40q5 3 5 4q8 8 37 27q18 10 26 14h-1q19 11 26 16t17 16.5t14 26.5q5 23 -9 35q-17 15 -47 15
q-7 0 -18 -3q-19 -4 -36 -21q-16 -12 -13 -38q0 -19 -22 -24h1q-9 -3 -15.5 0.5t-7.5 11.5q0 22 4 32q3 10 7.5 17t10.5 13.5t8 10.5q25 25 62 35q18 5 31 5q44 0 70 -24q27 -25 17 -63zM521 239q19 -10 11 -28q-55 -135 -133.5 -203t-190.5 -68q-10 0 -15 1q-87 5 -139 57
q-54 56 -54 140v14q7 112 90 192q39 38 93 61q-48 51 -42 117q4 26 8 41q-18 8 -32 18q-70 46 -108 127q-9 19 10 28q7 4 15.5 1t12.5 -11q35 -72 93 -110q4 -3 12.5 -8t10.5 -6q20 43 56 76q69 63 166 63q49 0 76 -20q33 -21 33 -60v-1v-1q-2 -51 -64 -88q-61 -39 -147 -39
l-8 1q-42 0 -87 14q-4 -17 -5 -29q-4 -54 44 -97q39 10 64 12q25 3 42 0q21 -3 29 -13q11 -9 13 -25q2 -7 0 -13q-6 -34 -45 -41q-17 -4 -45 3q-23 4 -49 19q-2 1 -17 11q-59 -22 -100 -61q-73 -70 -76 -164q-1 -3 -1 -11q0 -70 42 -110q40 -42 111 -45q1 0 5.5 -0.5
t7.5 -0.5q99 0 166.5 61t118.5 184q3 8 11.5 11.5t16.5 0.5zM296 391q-6 0 -16 -2q5 -2 15 -4q17 -5 29 -3q9 2 9 7q-2 2 -7 3q-12 2 -30 -1zM248 647q-30 -27 -46 -60q38 -12 74 -12h7q74 0 125 32q42 27 44 53v1q0 15 -14 25q-19 13 -53 13q-79 0 -137 -52z" />
    <glyph glyph-name="uni1EBB" unicode="&#x1ebb;" horiz-adv-x="364" 
d="M404 695q-11 -41 -33 -60.5t-65 -40.5q-9 -5 -14 -6l4 1q-16 -10 -28 -20q-5 -6 -14 -25q0 -1 -1 -4l-1 -2q-9 -19 -29 -17q-8 1 -11.5 8t0.5 14q2 3 2 6q9 24 23 40q5 3 5 4q8 8 37 27q18 10 26 14h-1q19 11 26 16t17 16.5t14 26.5q5 23 -9 35q-17 15 -47 15
q-7 0 -18 -3q-19 -4 -36 -21q-16 -12 -13 -38q0 -19 -22 -24h1q-9 -3 -15.5 0.5t-7.5 11.5q0 22 4 32q3 10 7.5 17t10.5 13.5t8 10.5q25 25 62 35q18 5 31 5q44 0 70 -24q27 -25 17 -63zM409 238q19 -9 11 -28q-52 -116 -135 -169q-69 -43 -154 -40h-2h-1q-58 3 -91 35
q-38 37 -37 101v2v1q1 34 15 84l1 1v1q10 34 24 64q36 82 86 135q23 23 49 35q26 14 53 14q34 0 54 -15q22 -14 29 -42q6 -21 -3 -50q-13 -42 -48 -71q-35 -30 -92 -54q-61 -26 -115 -40q-10 -37 -11 -64v-2q-1 -47 24 -69q22 -22 64 -24h2q74 -2 131 34q73 46 118 150
q9 18 28 11zM78 273l-9 -23q45 14 82 31q52 23 82 48q26 21 35 51q5 16 2 28q-3 11 -11 16q-11 8 -31 8q-17 0 -35 -9q-22 -13 -36 -28q-46 -47 -79 -122z" />
    <glyph glyph-name="uni1EBC" unicode="&#x1ebc;" horiz-adv-x="476" 
d="M554 841q9 -17 -5 -31q-28 -23 -55.5 -28t-46.5 1t-50 22q-68 31 -99 -18q-4 -7 -12.5 -7t-12.5 5q-14 14 -2 30q46 63 129 31q8 -3 25.5 -11t25.5 -10t22 -3t27.5 5.5t29.5 20.5q5 5 12.5 2.5t11.5 -9.5zM521 239q19 -10 11 -28q-55 -135 -133.5 -203t-190.5 -68
q-10 0 -15 1q-87 5 -139 57q-54 56 -54 140v14q7 112 90 192q39 38 93 61q-48 51 -42 117q4 26 8 41q-18 8 -32 18q-70 46 -108 127q-9 19 10 28q7 4 15.5 1t12.5 -11q35 -72 93 -110q4 -3 12.5 -8t10.5 -6q20 43 56 76q69 63 166 63q49 0 76 -20q33 -21 33 -60v-1v-1
q-2 -51 -64 -88q-61 -39 -147 -39l-8 1q-42 0 -87 14q-4 -17 -5 -29q-4 -54 44 -97q39 10 64 12q25 3 42 0q21 -3 29 -13q11 -9 13 -25q2 -7 0 -13q-6 -34 -45 -41q-17 -4 -45 3q-23 4 -49 19q-2 1 -17 11q-59 -22 -100 -61q-73 -70 -76 -164q-1 -3 -1 -11q0 -70 42 -110
q40 -42 111 -45q1 0 5.5 -0.5t7.5 -0.5q99 0 166.5 61t118.5 184q3 8 11.5 11.5t16.5 0.5zM296 391q-6 0 -16 -2q5 -2 15 -4q17 -5 29 -3q9 2 9 7q-2 2 -7 3q-12 2 -30 -1zM248 647q-30 -27 -46 -60q38 -12 74 -12h7q74 0 125 32q42 27 44 53v1q0 15 -14 25q-19 13 -53 13
q-79 0 -137 -52z" />
    <glyph glyph-name="uni1EBD" unicode="&#x1ebd;" horiz-adv-x="364" 
d="M403 583q9 -17 -5 -31q-28 -23 -55.5 -28t-46.5 1t-50 22q-68 31 -99 -18q-4 -7 -12.5 -7t-12.5 5q-14 14 -2 30q46 63 129 31q8 -3 25.5 -11t25.5 -10t22 -3t27.5 5.5t29.5 20.5q5 5 12.5 2.5t11.5 -9.5zM409 238q19 -9 11 -28q-52 -116 -135 -169q-69 -43 -154 -40h-2
h-1q-58 3 -91 35q-38 37 -37 101v2v1q1 34 15 84l1 1v1q10 34 24 64q36 82 86 135q23 23 49 35q26 14 53 14q34 0 54 -15q22 -14 29 -42q6 -21 -3 -50q-13 -42 -48 -71q-35 -30 -92 -54q-61 -26 -115 -40q-10 -37 -11 -64v-2q-1 -47 24 -69q22 -22 64 -24h2q74 -2 131 34
q73 46 118 150q9 18 28 11zM78 273l-9 -23q45 14 82 31q52 23 82 48q26 21 35 51q5 16 2 28q-3 11 -11 16q-11 8 -31 8q-17 0 -35 -9q-22 -13 -36 -28q-46 -47 -79 -122z" />
    <glyph glyph-name="uni1EBE" unicode="&#x1ebe;" horiz-adv-x="476" 
d="M279 794l127 144q3 6 14 12q8 5 17 2t10 -10l40 -149q7 -18 -14 -30q-8 -4 -15.5 -2t-9.5 10l-30 117l-109 -120q-15 -16 -29 -4q-6 5 -6.5 13.5t5.5 16.5zM521 239q19 -10 11 -28q-55 -135 -133.5 -203t-190.5 -68q-10 0 -15 1q-87 5 -139 57q-54 56 -54 140v14
q7 112 90 192q39 38 93 61q-48 51 -42 117q4 26 8 41q-18 8 -32 18q-70 46 -108 127q-9 19 10 28q7 4 15.5 1t12.5 -11q35 -72 93 -110q4 -3 12.5 -8t10.5 -6q20 43 56 76q69 63 166 63q49 0 76 -20q33 -21 33 -60v-1v-1q-2 -51 -64 -88q-61 -39 -147 -39l-8 1q-42 0 -87 14
q-4 -17 -5 -29q-4 -54 44 -97q39 10 64 12q25 3 42 0q21 -3 29 -13q11 -9 13 -25q2 -7 0 -13q-6 -34 -45 -41q-17 -4 -45 3q-23 4 -49 19q-2 1 -17 11q-59 -22 -100 -61q-73 -70 -76 -164q-1 -3 -1 -11q0 -70 42 -110q40 -42 111 -45q1 0 5.5 -0.5t7.5 -0.5q99 0 166.5 61
t118.5 184q3 8 11.5 11.5t16.5 0.5zM296 391q-6 0 -16 -2q5 -2 15 -4q17 -5 29 -3q9 2 9 7q-2 2 -7 3q-12 2 -30 -1zM248 647q-30 -27 -46 -60q38 -12 74 -12h7q74 0 125 32q42 27 44 53v1q0 15 -14 25q-19 13 -53 13q-79 0 -137 -52zM499 909l129 141q16 18 30 7
q7 -5 8.5 -14.5t-4.5 -17.5l-129 -141q-14 -16 -32 -4q-6 5 -7 13t5 16z" />
    <glyph glyph-name="uni1EBF" unicode="&#x1ebf;" horiz-adv-x="364" 
d="M150 543l127 144q3 6 14 12q8 5 17 2t10 -10l40 -149q7 -18 -14 -30q-8 -4 -15.5 -2t-9.5 10l-30 117l-109 -120q-15 -16 -29 -4q-6 5 -6.5 13.5t5.5 16.5zM409 238q19 -9 11 -28q-52 -116 -135 -169q-69 -43 -154 -40h-2h-1q-58 3 -91 35q-38 37 -37 101v2v1q1 34 15 84
l1 1v1q10 34 24 64q36 82 86 135q23 23 49 35q26 14 53 14q34 0 54 -15q22 -14 29 -42q6 -21 -3 -50q-13 -42 -48 -71q-35 -30 -92 -54q-61 -26 -115 -40q-10 -37 -11 -64v-2q-1 -47 24 -69q22 -22 64 -24h2q74 -2 131 34q73 46 118 150q9 18 28 11zM78 273l-9 -23
q45 14 82 31q52 23 82 48q26 21 35 51q5 16 2 28q-3 11 -11 16q-11 8 -31 8q-17 0 -35 -9q-22 -13 -36 -28q-46 -47 -79 -122zM370 657l129 141q16 18 30 7q7 -5 8.5 -14.5t-4.5 -17.5l-129 -141q-14 -16 -32 -4q-6 5 -7 13t5 16z" />
    <glyph glyph-name="uni1EC0" unicode="&#x1ec0;" horiz-adv-x="476" 
d="M279 794q-6 -8 -5.5 -16.5t6.5 -13.5q14 -12 29 4l109 120l30 -117q2 -8 9.5 -10t15.5 2q21 12 14 30l-40 149q-1 7 -10 10t-17 -2q-11 -6 -14 -12zM521 239q19 -10 11 -28q-55 -135 -133.5 -203t-190.5 -68q-10 0 -15 1q-87 5 -139 57q-54 56 -54 140v14q7 112 90 192
q39 38 93 61q-48 51 -42 117q4 26 8 41q-18 8 -32 18q-70 46 -108 127q-9 19 10 28q7 4 15.5 1t12.5 -11q35 -72 93 -110q4 -3 12.5 -8t10.5 -6q20 43 56 76q69 63 166 63q49 0 76 -20q33 -21 33 -60v-1v-1q-2 -51 -64 -88q-61 -39 -147 -39l-8 1q-42 0 -87 14
q-4 -17 -5 -29q-4 -54 44 -97q39 10 64 12q25 3 42 0q21 -3 29 -13q11 -9 13 -25q2 -7 0 -13q-6 -34 -45 -41q-17 -4 -45 3q-23 4 -49 19q-2 1 -17 11q-59 -22 -100 -61q-73 -70 -76 -164q-1 -3 -1 -11q0 -70 42 -110q40 -42 111 -45q1 0 5.5 -0.5t7.5 -0.5q99 0 166.5 61
t118.5 184q3 8 11.5 11.5t16.5 0.5zM296 391q-6 0 -16 -2q5 -2 15 -4q17 -5 29 -3q9 2 9 7q-2 2 -7 3q-12 2 -30 -1zM248 647q-30 -27 -46 -60q38 -12 74 -12h7q74 0 125 32q42 27 44 53v1q0 15 -14 25q-19 13 -53 13q-79 0 -137 -52zM556 908q4 -7 0 -15.5t-12 -13.5
q-8 -4 -16.5 -2t-11.5 10l-61 144q-7 18 11 29q21 10 28 -8z" />
    <glyph glyph-name="uni1EC1" unicode="&#x1ec1;" horiz-adv-x="364" 
d="M150 543q-6 -8 -5.5 -16.5t6.5 -13.5q14 -12 29 4l109 120l30 -117q2 -8 9.5 -10t15.5 2q21 12 14 30l-40 149q-1 7 -10 10t-17 -2q-11 -6 -14 -12zM409 238q19 -9 11 -28q-52 -116 -135 -169q-69 -43 -154 -40h-2h-1q-58 3 -91 35q-38 37 -37 101v2v1q1 34 15 84l1 1v1
q10 34 24 64q36 82 86 135q23 23 49 35q26 14 53 14q34 0 54 -15q22 -14 29 -42q6 -21 -3 -50q-13 -42 -48 -71q-35 -30 -92 -54q-61 -26 -115 -40q-10 -37 -11 -64v-2q-1 -47 24 -69q22 -22 64 -24h2q74 -2 131 34q73 46 118 150q9 18 28 11zM78 273l-9 -23q45 14 82 31
q52 23 82 48q26 21 35 51q5 16 2 28q-3 11 -11 16q-11 8 -31 8q-17 0 -35 -9q-22 -13 -36 -28q-46 -47 -79 -122zM427 657q4 -7 0 -15.5t-12 -13.5q-8 -4 -16.5 -2t-11.5 10l-61 144q-7 18 11 29q21 10 28 -8z" />
    <glyph glyph-name="uni1EC2" unicode="&#x1ec2;" horiz-adv-x="476" 
d="M279 794q-6 -8 -5.5 -16.5t6.5 -13.5q14 -12 29 4l109 120l30 -117q2 -8 9.5 -10t15.5 2q21 12 14 30l-40 149q-1 7 -10 10t-17 -2q-11 -6 -14 -12zM521 239q19 -10 11 -28q-55 -135 -133.5 -203t-190.5 -68q-10 0 -15 1q-87 5 -139 57q-54 56 -54 140v14q7 112 90 192
q39 38 93 61q-48 51 -42 117q4 26 8 41q-18 8 -32 18q-70 46 -108 127q-9 19 10 28q7 4 15.5 1t12.5 -11q35 -72 93 -110q4 -3 12.5 -8t10.5 -6q20 43 56 76q69 63 166 63q49 0 76 -20q33 -21 33 -60v-1v-1q-2 -51 -64 -88q-61 -39 -147 -39l-8 1q-42 0 -87 14
q-4 -17 -5 -29q-4 -54 44 -97q39 10 64 12q25 3 42 0q21 -3 29 -13q11 -9 13 -25q2 -7 0 -13q-6 -34 -45 -41q-17 -4 -45 3q-23 4 -49 19q-2 1 -17 11q-59 -22 -100 -61q-73 -70 -76 -164q-1 -3 -1 -11q0 -70 42 -110q40 -42 111 -45q1 0 5.5 -0.5t7.5 -0.5q99 0 166.5 61
t118.5 184q3 8 11.5 11.5t16.5 0.5zM296 391q-6 0 -16 -2q5 -2 15 -4q17 -5 29 -3q9 2 9 7q-2 2 -7 3q-12 2 -30 -1zM248 647q-30 -27 -46 -60q38 -12 74 -12h7q74 0 125 32q42 27 44 53v1q0 15 -14 25q-19 13 -53 13q-79 0 -137 -52zM688 1039q-11 -41 -33 -60.5t-65 -40.5
q-9 -5 -14 -6l4 1q-16 -10 -28 -20q-5 -6 -14 -25q0 -1 -1 -4l-1 -2q-9 -19 -29 -17q-8 1 -11.5 8t0.5 14q2 3 2 6q9 24 23 40q5 3 5 4q8 8 37 27q18 10 26 14h-1q19 11 26 16t17 16.5t14 26.5q5 23 -9 35q-17 15 -47 15q-7 0 -18 -3q-19 -4 -36 -21q-16 -12 -13 -38
q0 -19 -22 -24h1q-9 -3 -15.5 0.5t-7.5 11.5q0 22 4 32q3 10 7.5 17t10.5 13.5t8 10.5q25 25 62 35q18 5 31 5q44 0 70 -24q27 -25 17 -63z" />
    <glyph glyph-name="uni1EC3" unicode="&#x1ec3;" horiz-adv-x="364" 
d="M150 543q-6 -8 -5.5 -16.5t6.5 -13.5q14 -12 29 4l109 120l30 -117q2 -8 9.5 -10t15.5 2q21 12 14 30l-40 149q-1 7 -10 10t-17 -2q-11 -6 -14 -12zM409 238q19 -9 11 -28q-52 -116 -135 -169q-69 -43 -154 -40h-2h-1q-58 3 -91 35q-38 37 -37 101v2v1q1 34 15 84l1 1v1
q10 34 24 64q36 82 86 135q23 23 49 35q26 14 53 14q34 0 54 -15q22 -14 29 -42q6 -21 -3 -50q-13 -42 -48 -71q-35 -30 -92 -54q-61 -26 -115 -40q-10 -37 -11 -64v-2q-1 -47 24 -69q22 -22 64 -24h2q74 -2 131 34q73 46 118 150q9 18 28 11zM78 273l-9 -23q45 14 82 31
q52 23 82 48q26 21 35 51q5 16 2 28q-3 11 -11 16q-11 8 -31 8q-17 0 -35 -9q-22 -13 -36 -28q-46 -47 -79 -122zM559 788q-11 -41 -33 -60.5t-65 -40.5q-9 -5 -14 -6l4 1q-16 -10 -28 -20q-5 -6 -14 -25q0 -1 -1 -3l-1 -3q-9 -19 -29 -17q-8 1 -11.5 8t0.5 14q2 3 2 6
q9 24 23 40q4 3 5 4q8 8 37 27q18 10 26 14h-1q19 11 26 16t17 16.5t14 26.5q5 23 -9 35q-17 15 -47 15q-8 0 -18 -3q-20 -5 -36 -21q-16 -12 -13 -38q0 -19 -22 -24h1q-9 -3 -15.5 0.5t-7.5 11.5q0 22 4 32q3 10 7.5 17t10.5 13.5t8 10.5q25 25 62 35q18 5 31 5
q44 0 70 -24q27 -25 17 -63z" />
    <glyph glyph-name="uni1EC4" unicode="&#x1ec4;" horiz-adv-x="476" 
d="M279 794q-6 -8 -5.5 -16.5t6.5 -13.5q14 -12 29 4l109 120l30 -117q2 -8 9.5 -10t15.5 2q21 12 14 30l-40 149q-1 7 -10 10t-17 -2q-11 -6 -14 -12zM521 239q19 -10 11 -28q-55 -135 -133.5 -203t-190.5 -68q-10 0 -15 1q-87 5 -139 57q-54 56 -54 140v14q7 112 90 192
q39 38 93 61q-48 51 -42 117q4 26 8 41q-18 8 -32 18q-70 46 -108 127q-9 19 10 28q7 4 15.5 1t12.5 -11q35 -72 93 -110q4 -3 12.5 -8t10.5 -6q20 43 56 76q69 63 166 63q49 0 76 -20q33 -21 33 -60v-1v-1q-2 -51 -64 -88q-61 -39 -147 -39l-8 1q-42 0 -87 14
q-4 -17 -5 -29q-4 -54 44 -97q39 10 64 12q25 3 42 0q21 -3 29 -13q11 -9 13 -25q2 -7 0 -13q-6 -34 -45 -41q-17 -4 -45 3q-23 4 -49 19q-2 1 -17 11q-59 -22 -100 -61q-73 -70 -76 -164q-1 -3 -1 -11q0 -70 42 -110q40 -42 111 -45q1 0 5.5 -0.5t7.5 -0.5q99 0 166.5 61
t118.5 184q3 8 11.5 11.5t16.5 0.5zM296 391q-6 0 -16 -2q5 -2 15 -4q17 -5 29 -3q9 2 9 7q-2 2 -7 3q-12 2 -30 -1zM248 647q-30 -27 -46 -60q38 -12 74 -12h7q74 0 125 32q42 27 44 53v1q0 15 -14 25q-19 13 -53 13q-79 0 -137 -52zM592 1041q9 -17 -5 -31
q-28 -23 -55.5 -28t-46.5 1t-50 22q-68 31 -99 -18q-4 -7 -12.5 -7t-12.5 5q-14 14 -2 30q46 63 129 31q8 -3 25.5 -11t25.5 -10t22 -3t27.5 5.5t29.5 20.5q5 5 12.5 2.5t11.5 -9.5z" />
    <glyph glyph-name="uni1EC5" unicode="&#x1ec5;" horiz-adv-x="364" 
d="M150 543q-6 -8 -5.5 -16.5t6.5 -13.5q14 -12 29 4l109 120l30 -117q2 -8 9.5 -10t15.5 2q21 12 14 30l-40 149q-1 7 -10 10t-17 -2q-11 -6 -14 -12zM409 238q19 -9 11 -28q-52 -116 -135 -169q-69 -43 -154 -40h-2h-1q-58 3 -91 35q-38 37 -37 101v2v1q1 34 15 84l1 1v1
q10 34 24 64q36 82 86 135q23 23 49 35q26 14 53 14q34 0 54 -15q22 -14 29 -42q6 -21 -3 -50q-13 -42 -48 -71q-35 -30 -92 -54q-61 -26 -115 -40q-10 -37 -11 -64v-2q-1 -47 24 -69q22 -22 64 -24h2q74 -2 131 34q73 46 118 150q9 18 28 11zM78 273l-9 -23q45 14 82 31
q52 23 82 48q26 21 35 51q5 16 2 28q-3 11 -11 16q-11 8 -31 8q-17 0 -35 -9q-22 -13 -36 -28q-46 -47 -79 -122zM463 790q9 -17 -5 -31q-28 -23 -55.5 -28t-46.5 1t-50 22q-68 31 -99 -18q-4 -7 -12.5 -7t-12.5 5q-14 14 -2 30q46 63 129 31q8 -3 25.5 -11t25.5 -10t22 -3
t27.5 5.5t29.5 20.5q5 5 12.5 2.5t11.5 -9.5z" />
    <glyph glyph-name="uni1EC6" unicode="&#x1ec6;" horiz-adv-x="476" 
d="M279 794l127 144q3 6 14 12q8 5 17 2t10 -10l40 -149q7 -18 -14 -30q-8 -4 -15.5 -2t-9.5 10l-30 117l-109 -120q-15 -16 -29 -4q-6 5 -6.5 13.5t5.5 16.5zM521 239q19 -10 11 -28q-55 -135 -133.5 -203t-190.5 -68q-10 0 -15 1q-87 5 -139 57q-54 56 -54 140v14
q7 112 90 192q39 38 93 61q-48 51 -42 117q4 26 8 41q-18 8 -32 18q-70 46 -108 127q-9 19 10 28q7 4 15.5 1t12.5 -11q35 -72 93 -110q4 -3 12.5 -8t10.5 -6q20 43 56 76q69 63 166 63q49 0 76 -20q33 -21 33 -60v-1v-1q-2 -51 -64 -88q-61 -39 -147 -39l-8 1q-42 0 -87 14
q-4 -17 -5 -29q-4 -54 44 -97q39 10 64 12q25 3 42 0q21 -3 29 -13q11 -9 13 -25q2 -7 0 -13q-6 -34 -45 -41q-17 -4 -45 3q-23 4 -49 19q-2 1 -17 11q-59 -22 -100 -61q-73 -70 -76 -164q-1 -3 -1 -11q0 -70 42 -110q40 -42 111 -45q1 0 5.5 -0.5t7.5 -0.5q99 0 166.5 61
t118.5 184q3 8 11.5 11.5t16.5 0.5zM296 391q-6 0 -16 -2q5 -2 15 -4q17 -5 29 -3q9 2 9 7q-2 2 -7 3q-12 2 -30 -1zM248 647q-30 -27 -46 -60q38 -12 74 -12h7q74 0 125 32q42 27 44 53v1q0 15 -14 25q-19 13 -53 13q-79 0 -137 -52zM193 -102q14 0 24.5 -10.5t10.5 -24.5
t-10.5 -24t-24.5 -10t-24 10t-10 24t10 24.5t24 10.5z" />
    <glyph glyph-name="uni1EC7" unicode="&#x1ec7;" horiz-adv-x="364" 
d="M150 543l127 144q3 6 14 12q8 5 17 2t10 -10l40 -149q7 -18 -14 -30q-8 -4 -15.5 -2t-9.5 10l-30 117l-109 -120q-15 -16 -29 -4q-6 5 -6.5 13.5t5.5 16.5zM409 238q19 -9 11 -28q-52 -116 -135 -169q-69 -43 -154 -40h-2h-1q-58 3 -91 35q-38 37 -37 101v2v1q1 34 15 84
l1 1v1q10 34 24 64q36 82 86 135q23 23 49 35q26 14 53 14q34 0 54 -15q22 -14 29 -42q6 -21 -3 -50q-13 -42 -48 -71q-35 -30 -92 -54q-61 -26 -115 -40q-10 -37 -11 -64v-2q-1 -47 24 -69q22 -22 64 -24h2q74 -2 131 34q73 46 118 150q9 18 28 11zM78 273l-9 -23
q45 14 82 31q52 23 82 48q26 21 35 51q5 16 2 28q-3 11 -11 16q-11 8 -31 8q-17 0 -35 -9q-22 -13 -36 -28q-46 -47 -79 -122zM107 -47q14 0 24.5 -10.5t10.5 -24.5t-10.5 -24t-24.5 -10t-24 10t-10 24t10 24.5t24 10.5z" />
    <glyph glyph-name="uni1EC8" unicode="&#x1ec8;" horiz-adv-x="544" 
d="M829 979q-11 -41 -33 -60.5t-65 -40.5q-9 -5 -14 -6l4 1q-16 -10 -28 -20q-5 -6 -14 -25q0 -1 -1 -4l-1 -2q-9 -19 -29 -17q-8 1 -11.5 8t0.5 14q2 3 2 6q9 24 23 40q4 3 5 4q8 8 37 27q18 10 26 14h-1q19 11 26 16t17 16.5t14 26.5q5 23 -9 35q-17 15 -47 15
q-8 0 -18 -3q-20 -4 -36 -21q-16 -12 -13 -38q0 -19 -22 -24h1q-9 -3 -15.5 0.5t-7.5 11.5q0 22 4 32q3 10 7.5 17t10.5 13.5t8 10.5q25 25 62 35q18 5 31 5q44 0 70 -24q27 -25 17 -63zM713 736q1 -4 0 -9q-5 -42 -41.5 -67t-101.5 -42q-7 -19 -15 -50q-8 -26 -12 -38
q-16 -44 -35 -115l-20 -70.5t-22 -70t-26 -72.5t-29 -66.5t-35 -63t-40.5 -50.5t-48 -41.5t-55 -23.5t-63.5 -8q-6 0 -8 1q-78 6 -121 59q-43 52 -40 124q0 6 1 8q6 82 68 139q33 29 74 45t78 15q9 0 15 -6.5t6 -15.5q0 -8 -6.5 -14.5t-15.5 -5.5q-69 0 -122 -49
q-51 -46 -55 -111q-1 -3 -1 -6q-2 -58 30 -96q35 -40 92 -44h4l2 -1q36 -1 68 13.5t56.5 36t48.5 61t39 71.5t33 85t27.5 84t24.5 85q31 102 36 117q5 13 11 36q2 4 4.5 13t3.5 13q-9 -2 -29 -6l-61 -14.5t-53.5 -15.5t-51 -21.5t-31.5 -26.5t-18 -36q-1 -5 -1 -12
q-2 -34 17 -59q19 -26 51 -30q2 0 5.5 -0.5t5.5 -0.5q8 0 14.5 -6.5t5.5 -15.5q0 -8 -6.5 -14t-14.5 -6q-3 0 -8.5 0.5t-7.5 0.5q-49 7 -79 47q-28 35 -26 85q0 3 0.5 8.5t1.5 8.5q3 23 14 42.5t32.5 34t39 24.5t52 20t52.5 14.5t58 13.5l54 12q42 111 111 121v0h18
q14 -2 26 -9q17 -9 20 -29v0zM590 668q74 24 81 61l-9 3h-8q-36 -5 -64 -64z" />
    <glyph glyph-name="uni1EC9" unicode="&#x1ec9;" horiz-adv-x="184" 
d="M229 238q8 -3 11.5 -11.5t-0.5 -16.5q-41 -92 -68 -131q-54 -79 -116 -79v0h-1q-37 0 -57 29q-14 22 -14 55v0v3q0 23 11 62q10 39 24 79q3 11 22 62q27 77 36 99q1 2 8 25l17 46q6 20 26 13q20 -6 13 -26l-16 -47l-9 -25l-36 -100l-21 -60q-14 -39 -24 -76
q-9 -40 -9 -53v-2q0 -21 7 -32q7 -10 22 -10h1v0q39 0 81 60q23 34 64 125q4 8 12.5 11.5t15.5 -0.5zM323 695q-11 -41 -33 -60.5t-65 -40.5q-9 -5 -14 -6l4 1q-16 -10 -28 -20q-5 -6 -14 -25q0 -1 -1 -4l-1 -2q-9 -19 -29 -17q-8 1 -11.5 8t0.5 14q2 3 2 6q9 24 23 40
q5 3 5 4q8 8 37 27q18 10 26 14h-1q19 11 26 16t17 16.5t14 26.5q5 23 -9 35q-17 15 -47 15q-8 0 -18 -3q-19 -4 -36 -21q-16 -12 -13 -38q0 -19 -22 -24h1q-9 -3 -15.5 0.5t-7.5 11.5q0 22 4 32q3 10 7.5 17t10.5 13.5t8 10.5q25 25 62 35q18 5 31 5q44 0 70 -24
q27 -25 17 -63z" />
    <glyph glyph-name="uni1ECA" unicode="&#x1eca;" horiz-adv-x="544" 
d="M152 -100q14 0 24.5 -10.5t10.5 -24.5t-10.5 -24t-24.5 -10t-24 10t-10 24t10 24.5t24 10.5zM713 736q1 -4 0 -9q-5 -42 -41.5 -67t-101.5 -42q-7 -19 -15 -50q-8 -26 -12 -38q-16 -44 -35 -115l-20 -70.5t-22 -70t-26 -72.5t-29 -66.5t-35 -63t-40.5 -50.5t-48 -41.5
t-55 -23.5t-63.5 -8q-6 0 -8 1q-78 6 -121 59q-43 52 -40 124q0 6 1 8q6 82 68 139q33 29 74 45t78 15q9 0 15 -6.5t6 -15.5q0 -8 -6.5 -14.5t-15.5 -5.5q-69 0 -122 -49q-51 -46 -55 -111q-1 -3 -1 -6q-2 -58 30 -96q35 -40 92 -44h4l2 -1q36 -1 68 13.5t56.5 36t48.5 61
t39 71.5t33 85t27.5 84t24.5 85q31 102 36 117q5 13 11 36q2 4 4.5 13t3.5 13q-9 -2 -29 -6l-61 -14.5t-53.5 -15.5t-51 -21.5t-31.5 -26.5t-18 -36q-1 -5 -1 -12q-2 -34 17 -59q19 -26 51 -30q2 0 5.5 -0.5t5.5 -0.5q8 0 14.5 -6.5t5.5 -15.5q0 -8 -6.5 -14t-14.5 -6
q-3 0 -8.5 0.5t-7.5 0.5q-49 7 -79 47q-28 35 -26 85q0 3 0.5 8.5t1.5 8.5q3 23 14 42.5t32.5 34t39 24.5t52 20t52.5 14.5t58 13.5l54 12q42 111 111 121v0h18q14 -2 26 -9q17 -9 20 -29v0zM590 668q74 24 81 61l-9 3h-8q-36 -5 -64 -64z" />
    <glyph glyph-name="uni1ECB" unicode="&#x1ecb;" horiz-adv-x="184" 
d="M11 -47q14 0 24.5 -10.5t10.5 -24.5t-10.5 -24t-24.5 -10t-24 10t-10 24t10 24.5t24 10.5zM163 524q-14 0 -24.5 10t-10.5 24t10.5 24t24.5 10t24 -10t10 -24t-10 -24t-24 -10zM229 238q8 -3 11.5 -11.5t-0.5 -16.5q-41 -92 -68 -131q-54 -79 -116 -79v0h-1q-37 0 -57 29
q-14 22 -14 55v0v3q0 23 11 62q10 39 24 79q3 11 22 62q27 77 36 99q1 2 8 25l17 46q6 20 26 13q20 -6 13 -26l-16 -47l-9 -25l-36 -100l-21 -60q-14 -39 -24 -76q-9 -40 -9 -53v-2q0 -21 7 -32q7 -10 22 -10h1v0q39 0 81 60q23 34 64 125q4 8 12.5 11.5t15.5 -0.5z" />
    <glyph glyph-name="uni1ECC" unicode="&#x1ecc;" horiz-adv-x="735" 
d="M308 -86q14 0 24.5 -10.5t10.5 -24.5t-10.5 -24t-24.5 -10t-24 10t-10 24t10 24.5t24 10.5zM779 236q8 -3 11.5 -11.5t0.5 -16.5q-2 -3 -5 -9.5t-4 -9.5l-2 -4t-1.5 -3.5t-2 -4t-2.5 -4.5v-1q-28 -52 -50 -73q-38 -38 -88 -37q-16 0 -29 3q-26 8 -43 25q-24 -30 -37 -43
q-83 -86 -181 -86q-29 0 -56 8q-59 18 -87 79q-22 48 -22 120q0 104 38 223q7 25 23 61q-27 -4 -58 -4h-10q-71 3 -119 36q-55 40 -55 108v1v4v1q1 34 16 63l1 1q11 22 38 49q15 15 30 -1q6 -6 6 -14.5t-6 -14.5q-23 -23 -31 -39l-1 -1q-10 -19 -11 -45v-4q0 -47 38 -73
q36 -26 95 -29h9q37 0 80 8q34 66 73 112q74 84 151 84q23 0 34 -10h1l1 -1q13 -13 13 -32q0 -31 -24 -62q-15 -21 -31 -33q-56 -49 -138 -80q-26 -9 -51 -15q-24 -49 -34 -83q-36 -113 -36 -210q0 -63 18 -103q19 -42 62 -56q18 -6 43 -6q79 0 151 74q23 23 42 51
q-8 21 -8 45q0 19 7 49q2 8 10 12.5t16 2.5t12.5 -10t2.5 -16q-3 -9 -5 -29q33 56 59 123q52 129 53 243q2 71 -20 114q-21 43 -67 50v1q-30 4 -73 -6q-8 -2 -16 2.5t-10 12.5t2.5 16t13.5 10q48 13 89 6h1q66 -11 98 -73q26 -53 24 -134q-1 -119 -56 -258q-38 -96 -84 -164
q11 -14 30 -19q12 -2 18 -2q33 0 58 25q19 18 42 62l1 2q1 1 2 4t2.5 5.5t2.5 4.5q1 3 4 9.5t4 8.5q3 8 11 11.5t16 -0.5zM369 582q-22 -25 -49 -69l9 3q74 27 125 71q13 11 25 27q16 20 16 37h1h-1q-1 1 -7 1q-59 0 -119 -70z" />
    <glyph glyph-name="uni1ECD" unicode="&#x1ecd;" horiz-adv-x="391" 
d="M50 -47q14 0 24.5 -10.5t10.5 -24.5t-10.5 -24t-24.5 -10t-24 10t-10 24t10 24.5t24 10.5zM436 238q8 -3 11.5 -11t-0.5 -16q-2 -3 -4 -9.5t-4 -10.5q-3 -5 -9 -17q-27 -50 -50 -73q-39 -37 -88 -37q-14 0 -28 3q-25 8 -44 24q-30 -40 -66 -65.5t-70 -25.5
q-39 0 -60.5 21t-25 55t2.5 74.5t21 82.5t30 76.5t30 58.5q65 107 140 107h1q48 -2 75 -33q26 -31 25 -81q-1 -47 -22.5 -112t-55.5 -122q11 -14 30 -19q10 -2 17 -2q33 0 58 25q22 22 42 62l2 4t2 3.5t2 4t2 4.5t8 18q3 8 11.5 11.5t16.5 -0.5zM221 239q20 -5 15 -26
q-3 -7 -5 -23q48 97 50 172q1 34 -15 52q-14 17 -44 19q-53 0 -103 -87q-38 -62 -65 -157q-37 -143 30 -147q51 0 112 87q-8 19 -8 47q0 24 7 48q5 20 26 15z" />
    <glyph glyph-name="uni1ECE" unicode="&#x1ece;" horiz-adv-x="735" 
d="M790 960q-11 -41 -33 -60.5t-65 -40.5q-9 -5 -14 -6l4 1q-16 -10 -28 -20q-5 -6 -14 -25q0 -1 -1 -3l-1 -3q-9 -19 -29 -17q-8 1 -11.5 8t0.5 14q2 3 2 6q9 24 23 40q5 3 5 4q8 8 37 27q18 10 26 14h-1q19 11 26 16t17 16.5t14 26.5q5 23 -9 35q-17 15 -47 15
q-7 0 -18 -3q-19 -5 -36 -21q-16 -12 -13 -38q0 -19 -22 -24h1q-9 -3 -15.5 0.5t-7.5 11.5q0 22 4 32q3 10 7.5 17t10.5 13.5t8 10.5q25 25 62 35q18 5 31 5q44 0 70 -24q27 -25 17 -63zM779 236q8 -3 11.5 -11.5t0.5 -16.5q-2 -3 -5 -9.5t-4 -9.5l-2 -4t-1.5 -3.5t-2 -4
t-2.5 -4.5v-1q-28 -52 -50 -73q-38 -38 -88 -37q-16 0 -29 3q-26 8 -43 25q-24 -30 -37 -43q-83 -86 -181 -86q-29 0 -56 8q-59 18 -87 79q-22 48 -22 120q0 104 38 223q7 25 23 61q-27 -4 -58 -4h-10q-71 3 -119 36q-55 40 -55 108v1v4v1q1 34 16 63l1 1q11 22 38 49
q15 15 30 -1q6 -6 6 -14.5t-6 -14.5q-23 -23 -31 -39l-1 -1q-10 -19 -11 -45v-4q0 -47 38 -73q36 -26 95 -29h9q37 0 80 8q34 66 73 112q74 84 151 84q23 0 34 -10h1l1 -1q13 -13 13 -32q0 -31 -24 -62q-15 -21 -31 -33q-56 -49 -138 -80q-26 -9 -51 -15q-24 -49 -34 -83
q-36 -113 -36 -210q0 -63 18 -103q19 -42 62 -56q18 -6 43 -6q79 0 151 74q23 23 42 51q-8 21 -8 45q0 19 7 49q2 8 10 12.5t16 2.5t12.5 -10t2.5 -16q-3 -9 -5 -29q33 56 59 123q52 129 53 243q2 71 -20 114q-21 43 -67 50v1q-30 4 -73 -6q-8 -2 -16 2.5t-10 12.5t2.5 16
t13.5 10q48 13 89 6h1q66 -11 98 -73q26 -53 24 -134q-1 -119 -56 -258q-38 -96 -84 -164q11 -14 30 -19q12 -2 18 -2q33 0 58 25q19 18 42 62l1 2q1 1 2 4t2.5 5.5t2.5 4.5q1 3 4 9.5t4 8.5q3 8 11 11.5t16 -0.5zM369 582q-22 -25 -49 -69l9 3q74 27 125 71q13 11 25 27
q16 20 16 37h1h-1q-1 1 -7 1q-59 0 -119 -70z" />
    <glyph glyph-name="uni1ECF" unicode="&#x1ecf;" horiz-adv-x="391" 
d="M429 695q-11 -41 -33 -60.5t-65 -40.5q-9 -5 -14 -6l4 1q-16 -10 -28 -20q-5 -6 -14 -25q0 -1 -1 -4l-1 -2q-9 -19 -29 -17q-8 1 -11.5 8t0.5 14q2 3 2 6q9 24 23 40q4 3 5 4q8 8 37 27q18 10 26 14h-1q19 11 26 16t17 16.5t14 26.5q5 23 -9 35q-17 15 -47 15
q-8 0 -18 -3q-20 -4 -36 -21q-16 -12 -13 -38q0 -19 -22 -24h1q-9 -3 -15.5 0.5t-7.5 11.5q0 22 4 32q3 10 7.5 17t10.5 13.5t8 10.5q25 25 62 35q18 5 31 5q44 0 70 -24q27 -25 17 -63zM436 238q8 -3 11.5 -11t-0.5 -16q-2 -3 -4 -9.5t-4 -10.5q-3 -5 -9 -17
q-27 -50 -50 -73q-39 -37 -88 -37q-14 0 -28 3q-25 8 -44 24q-30 -40 -66 -65.5t-70 -25.5q-39 0 -60.5 21t-25 55t2.5 74.5t21 82.5t30 76.5t30 58.5q65 107 140 107h1q48 -2 75 -33q26 -31 25 -81q-1 -47 -22.5 -112t-55.5 -122q11 -14 30 -19q10 -2 17 -2q33 0 58 25
q22 22 42 62l2 4t2 3.5t2 4t2 4.5t8 18q3 8 11.5 11.5t16.5 -0.5zM221 239q20 -5 15 -26q-3 -7 -5 -23q48 97 50 172q1 34 -15 52q-14 17 -44 19q-53 0 -103 -87q-38 -62 -65 -157q-37 -143 30 -147q51 0 112 87q-8 19 -8 47q0 24 7 48q5 20 26 15z" />
    <glyph glyph-name="uni1ED0" unicode="&#x1ed0;" horiz-adv-x="735" 
d="M490 811l127 144q3 6 14 12q8 5 17 2t10 -10l40 -149q7 -18 -14 -30q-8 -4 -15.5 -2t-9.5 10l-30 117l-109 -120q-15 -16 -29 -4q-6 5 -6.5 13.5t5.5 16.5zM779 236q8 -3 11.5 -11.5t0.5 -16.5q-2 -3 -5 -9.5t-4 -9.5l-2 -4t-1.5 -3.5t-2 -4t-2.5 -4.5v-1
q-28 -52 -50 -73q-38 -38 -88 -37q-16 0 -29 3q-26 8 -43 25q-24 -30 -37 -43q-83 -86 -181 -86q-29 0 -56 8q-59 18 -87 79q-22 48 -22 120q0 104 38 223q7 25 23 61q-27 -4 -58 -4h-10q-71 3 -119 36q-55 40 -55 108v1v4v1q1 34 16 63l1 1q11 22 38 49q15 15 30 -1
q6 -6 6 -14.5t-6 -14.5q-23 -23 -31 -39l-1 -1q-10 -19 -11 -45v-4q0 -47 38 -73q36 -26 95 -29h9q37 0 80 8q34 66 73 112q74 84 151 84q23 0 34 -10h1l1 -1q13 -13 13 -32q0 -31 -24 -62q-15 -21 -31 -33q-56 -49 -138 -80q-26 -9 -51 -15q-24 -49 -34 -83
q-36 -113 -36 -210q0 -63 18 -103q19 -42 62 -56q18 -6 43 -6q79 0 151 74q23 23 42 51q-8 21 -8 45q0 19 7 49q2 8 10 12.5t16 2.5t12.5 -10t2.5 -16q-3 -9 -5 -29q33 56 59 123q52 129 53 243q2 71 -20 114q-21 43 -67 50v1q-30 4 -73 -6q-8 -2 -16 2.5t-10 12.5t2.5 16
t13.5 10q48 13 89 6h1q66 -11 98 -73q26 -53 24 -134q-1 -119 -56 -258q-38 -96 -84 -164q11 -14 30 -19q12 -2 18 -2q33 0 58 25q19 18 42 62l1 2q1 1 2 4t2.5 5.5t2.5 4.5q1 3 4 9.5t4 8.5q3 8 11 11.5t16 -0.5zM369 582q-22 -25 -49 -69l9 3q74 27 125 71q13 11 25 27
q16 20 16 37h1h-1q-1 1 -7 1q-59 0 -119 -70zM710 926l129 141q16 18 30 7q7 -5 8.5 -14.5t-4.5 -17.5l-129 -141q-14 -16 -32 -4q-6 5 -7 13t5 16z" />
    <glyph glyph-name="uni1ED1" unicode="&#x1ed1;" horiz-adv-x="391" 
d="M158 543l127 144q3 6 14 12q8 5 17 2t10 -10l40 -149q7 -18 -14 -30q-8 -4 -15.5 -2t-9.5 10l-30 117l-109 -120q-15 -16 -29 -4q-6 5 -6.5 13.5t5.5 16.5zM436 238q8 -3 11.5 -11t-0.5 -16q-2 -3 -4 -9.5t-4 -10.5q-3 -5 -9 -17q-27 -50 -50 -73q-39 -37 -88 -37
q-14 0 -28 3q-25 8 -44 24q-30 -40 -66 -65.5t-70 -25.5q-39 0 -60.5 21t-25 55t2.5 74.5t21 82.5t30 76.5t30 58.5q65 107 140 107h1q48 -2 75 -33q26 -31 25 -81q-1 -47 -22.5 -112t-55.5 -122q11 -14 30 -19q10 -2 17 -2q33 0 58 25q22 22 42 62l2 4t2 3.5t2 4t2 4.5
t8 18q3 8 11.5 11.5t16.5 -0.5zM221 239q20 -5 15 -26q-3 -7 -5 -23q48 97 50 172q1 34 -15 52q-14 17 -44 19q-53 0 -103 -87q-38 -62 -65 -157q-37 -143 30 -147q51 0 112 87q-8 19 -8 47q0 24 7 48q5 20 26 15zM378 657l129 141q16 18 30 7q7 -5 8.5 -14.5t-4.5 -17.5
l-129 -141q-14 -16 -32 -4q-6 5 -7 13t5 16z" />
    <glyph glyph-name="uni1ED2" unicode="&#x1ed2;" horiz-adv-x="735" 
d="M490 811q-6 -8 -5.5 -16.5t6.5 -13.5q14 -12 29 4l109 120l30 -117q2 -8 9.5 -10t15.5 2q21 12 14 30l-40 149q-1 7 -10 10t-17 -2q-11 -6 -14 -12zM779 236q8 -3 11.5 -11.5t0.5 -16.5q-2 -3 -5 -9.5t-4 -9.5l-2 -4t-1.5 -3.5t-2 -4t-2.5 -4.5v-1q-28 -52 -50 -73
q-38 -38 -88 -37q-16 0 -29 3q-26 8 -43 25q-24 -30 -37 -43q-83 -86 -181 -86q-29 0 -56 8q-59 18 -87 79q-22 48 -22 120q0 104 38 223q7 25 23 61q-27 -4 -58 -4h-10q-71 3 -119 36q-55 40 -55 108v1v4v1q1 34 16 63l1 1q11 22 38 49q15 15 30 -1q6 -6 6 -14.5t-6 -14.5
q-23 -23 -31 -39l-1 -1q-10 -19 -11 -45v-4q0 -47 38 -73q36 -26 95 -29h9q37 0 80 8q34 66 73 112q74 84 151 84q23 0 34 -10h1l1 -1q13 -13 13 -32q0 -31 -24 -62q-15 -21 -31 -33q-56 -49 -138 -80q-26 -9 -51 -15q-24 -49 -34 -83q-36 -113 -36 -210q0 -63 18 -103
q19 -42 62 -56q18 -6 43 -6q79 0 151 74q23 23 42 51q-8 21 -8 45q0 19 7 49q2 8 10 12.5t16 2.5t12.5 -10t2.5 -16q-3 -9 -5 -29q33 56 59 123q52 129 53 243q2 71 -20 114q-21 43 -67 50v1q-30 4 -73 -6q-8 -2 -16 2.5t-10 12.5t2.5 16t13.5 10q48 13 89 6h1
q66 -11 98 -73q26 -53 24 -134q-1 -119 -56 -258q-38 -96 -84 -164q11 -14 30 -19q12 -2 18 -2q33 0 58 25q19 18 42 62l1 2q1 1 2 4t2.5 5.5t2.5 4.5q1 3 4 9.5t4 8.5q3 8 11 11.5t16 -0.5zM369 582q-22 -25 -49 -69l9 3q74 27 125 71q13 11 25 27q16 20 16 37h1h-1
q-1 1 -7 1q-59 0 -119 -70zM767 925q4 -7 0 -15.5t-12 -13.5q-8 -4 -16.5 -2t-11.5 10l-61 144q-7 18 11 29q21 10 28 -8z" />
    <glyph glyph-name="uni1ED3" unicode="&#x1ed3;" horiz-adv-x="391" 
d="M158 543q-6 -8 -5.5 -16.5t6.5 -13.5q14 -12 29 4l109 120l30 -117q2 -8 9.5 -10t15.5 2q21 12 14 30l-40 149q-1 7 -10 10t-17 -2q-11 -6 -14 -12zM436 238q8 -3 11.5 -11t-0.5 -16q-2 -3 -4 -9.5t-4 -10.5q-3 -5 -9 -17q-27 -50 -50 -73q-39 -37 -88 -37q-14 0 -28 3
q-25 8 -44 24q-30 -40 -66 -65.5t-70 -25.5q-39 0 -60.5 21t-25 55t2.5 74.5t21 82.5t30 76.5t30 58.5q65 107 140 107h1q48 -2 75 -33q26 -31 25 -81q-1 -47 -22.5 -112t-55.5 -122q11 -14 30 -19q10 -2 17 -2q33 0 58 25q22 22 42 62l2 4t2 3.5t2 4t2 4.5t8 18
q3 8 11.5 11.5t16.5 -0.5zM221 239q20 -5 15 -26q-3 -7 -5 -23q48 97 50 172q1 34 -15 52q-14 17 -44 19q-53 0 -103 -87q-38 -62 -65 -157q-37 -143 30 -147q51 0 112 87q-8 19 -8 47q0 24 7 48q5 20 26 15zM435 657q4 -7 0 -15.5t-12 -13.5q-8 -4 -16.5 -2t-11.5 10
l-61 144q-7 18 11 29q21 10 28 -8z" />
    <glyph glyph-name="uni1ED4" unicode="&#x1ed4;" horiz-adv-x="735" 
d="M490 811q-6 -8 -5.5 -16.5t6.5 -13.5q14 -12 29 4l109 120l30 -117q2 -8 9.5 -10t15.5 2q21 12 14 30l-40 149q-1 7 -10 10t-17 -2q-11 -6 -14 -12zM779 236q8 -3 11.5 -11.5t0.5 -16.5q-2 -3 -5 -9.5t-4 -9.5l-2 -4t-1.5 -3.5t-2 -4t-2.5 -4.5v-1q-28 -52 -50 -73
q-38 -38 -88 -37q-16 0 -29 3q-26 8 -43 25q-24 -30 -37 -43q-83 -86 -181 -86q-29 0 -56 8q-59 18 -87 79q-22 48 -22 120q0 104 38 223q7 25 23 61q-27 -4 -58 -4h-10q-71 3 -119 36q-55 40 -55 108v1v4v1q1 34 16 63l1 1q11 22 38 49q15 15 30 -1q6 -6 6 -14.5t-6 -14.5
q-23 -23 -31 -39l-1 -1q-10 -19 -11 -45v-4q0 -47 38 -73q36 -26 95 -29h9q37 0 80 8q34 66 73 112q74 84 151 84q23 0 34 -10h1l1 -1q13 -13 13 -32q0 -31 -24 -62q-15 -21 -31 -33q-56 -49 -138 -80q-26 -9 -51 -15q-24 -49 -34 -83q-36 -113 -36 -210q0 -63 18 -103
q19 -42 62 -56q18 -6 43 -6q79 0 151 74q23 23 42 51q-8 21 -8 45q0 19 7 49q2 8 10 12.5t16 2.5t12.5 -10t2.5 -16q-3 -9 -5 -29q33 56 59 123q52 129 53 243q2 71 -20 114q-21 43 -67 50v1q-30 4 -73 -6q-8 -2 -16 2.5t-10 12.5t2.5 16t13.5 10q48 13 89 6h1
q66 -11 98 -73q26 -53 24 -134q-1 -119 -56 -258q-38 -96 -84 -164q11 -14 30 -19q12 -2 18 -2q33 0 58 25q19 18 42 62l1 2q1 1 2 4t2.5 5.5t2.5 4.5q1 3 4 9.5t4 8.5q3 8 11 11.5t16 -0.5zM369 582q-22 -25 -49 -69l9 3q74 27 125 71q13 11 25 27q16 20 16 37h1h-1
q-1 1 -7 1q-59 0 -119 -70zM899 1056q-11 -41 -33 -60.5t-65 -40.5q-9 -5 -14 -6l4 1q-16 -10 -28 -20q-5 -6 -14 -25q0 -1 -1 -3l-1 -3q-9 -19 -29 -17q-8 1 -11.5 8t0.5 14q2 3 2 6q9 24 23 40q5 3 5 4q8 8 37 27q18 10 26 14h-1q19 11 26 16t17 16.5t14 26.5q5 23 -9 35
q-17 15 -47 15q-8 0 -18 -3q-20 -5 -36 -21q-16 -12 -13 -38q0 -19 -22 -24h1q-9 -3 -15.5 0.5t-7.5 11.5q0 22 4 32q3 10 7.5 17t10.5 13.5t8 10.5q25 25 62 35q18 5 31 5q44 0 70 -24q27 -25 17 -63z" />
    <glyph glyph-name="uni1ED5" unicode="&#x1ed5;" horiz-adv-x="391" 
d="M158 543q-6 -8 -5.5 -16.5t6.5 -13.5q14 -12 29 4l109 120l30 -117q2 -8 9.5 -10t15.5 2q21 12 14 30l-40 149q-1 7 -10 10t-17 -2q-11 -6 -14 -12zM436 238q8 -3 11.5 -11t-0.5 -16q-2 -3 -4 -9.5t-4 -10.5q-3 -5 -9 -17q-27 -50 -50 -73q-39 -37 -88 -37q-14 0 -28 3
q-25 8 -44 24q-30 -40 -66 -65.5t-70 -25.5q-39 0 -60.5 21t-25 55t2.5 74.5t21 82.5t30 76.5t30 58.5q65 107 140 107h1q48 -2 75 -33q26 -31 25 -81q-1 -47 -22.5 -112t-55.5 -122q11 -14 30 -19q10 -2 17 -2q33 0 58 25q22 22 42 62l2 4t2 3.5t2 4t2 4.5t8 18
q3 8 11.5 11.5t16.5 -0.5zM221 239q20 -5 15 -26q-3 -7 -5 -23q48 97 50 172q1 34 -15 52q-14 17 -44 19q-53 0 -103 -87q-38 -62 -65 -157q-37 -143 30 -147q51 0 112 87q-8 19 -8 47q0 24 7 48q5 20 26 15zM567 788q-11 -41 -33 -60.5t-65 -40.5q-9 -5 -14 -6l4 1
q-16 -10 -28 -20q-5 -6 -14 -25q0 -1 -1 -3l-1 -3q-9 -19 -29 -17q-8 1 -11.5 8t0.5 14q2 3 2 6q9 24 23 40q4 3 5 4q8 8 37 27q18 10 26 14h-1q19 11 26 16t17 16.5t14 26.5q5 23 -9 35q-17 15 -47 15q-7 0 -18 -3q-19 -5 -36 -21q-16 -12 -13 -38q0 -19 -22 -24h1
q-9 -3 -15.5 0.5t-7.5 11.5q0 22 4 32q3 10 7.5 17t10.5 13.5t8 10.5q25 25 62 35q18 5 31 5q44 0 70 -24q27 -25 17 -63z" />
    <glyph glyph-name="uni1ED6" unicode="&#x1ed6;" horiz-adv-x="735" 
d="M490 811q-6 -8 -5.5 -16.5t6.5 -13.5q14 -12 29 4l109 120l30 -117q2 -8 9.5 -10t15.5 2q21 12 14 30l-40 149q-1 7 -10 10t-17 -2q-11 -6 -14 -12zM779 236q8 -3 11.5 -11.5t0.5 -16.5q-2 -3 -5 -9.5t-4 -9.5l-2 -4t-1.5 -3.5t-2 -4t-2.5 -4.5v-1q-28 -52 -50 -73
q-38 -38 -88 -37q-16 0 -29 3q-26 8 -43 25q-24 -30 -37 -43q-83 -86 -181 -86q-29 0 -56 8q-59 18 -87 79q-22 48 -22 120q0 104 38 223q7 25 23 61q-27 -4 -58 -4h-10q-71 3 -119 36q-55 40 -55 108v1v4v1q1 34 16 63l1 1q11 22 38 49q15 15 30 -1q6 -6 6 -14.5t-6 -14.5
q-23 -23 -31 -39l-1 -1q-10 -19 -11 -45v-4q0 -47 38 -73q36 -26 95 -29h9q37 0 80 8q34 66 73 112q74 84 151 84q23 0 34 -10h1l1 -1q13 -13 13 -32q0 -31 -24 -62q-15 -21 -31 -33q-56 -49 -138 -80q-26 -9 -51 -15q-24 -49 -34 -83q-36 -113 -36 -210q0 -63 18 -103
q19 -42 62 -56q18 -6 43 -6q79 0 151 74q23 23 42 51q-8 21 -8 45q0 19 7 49q2 8 10 12.5t16 2.5t12.5 -10t2.5 -16q-3 -9 -5 -29q33 56 59 123q52 129 53 243q2 71 -20 114q-21 43 -67 50v1q-30 4 -73 -6q-8 -2 -16 2.5t-10 12.5t2.5 16t13.5 10q48 13 89 6h1
q66 -11 98 -73q26 -53 24 -134q-1 -119 -56 -258q-38 -96 -84 -164q11 -14 30 -19q12 -2 18 -2q33 0 58 25q19 18 42 62l1 2q1 1 2 4t2.5 5.5t2.5 4.5q1 3 4 9.5t4 8.5q3 8 11 11.5t16 -0.5zM369 582q-22 -25 -49 -69l9 3q74 27 125 71q13 11 25 27q16 20 16 37h1h-1
q-1 1 -7 1q-59 0 -119 -70zM803 1058q9 -17 -5 -31q-28 -23 -55.5 -28t-46.5 1t-50 22q-68 31 -99 -18q-4 -7 -12.5 -7t-12.5 5q-14 14 -2 30q46 63 129 31q8 -3 25.5 -11t25.5 -10t22 -3t27.5 5.5t29.5 20.5q5 5 12.5 2.5t11.5 -9.5z" />
    <glyph glyph-name="uni1ED7" unicode="&#x1ed7;" horiz-adv-x="391" 
d="M158 543q-6 -8 -5.5 -16.5t6.5 -13.5q14 -12 29 4l109 120l30 -117q2 -8 9.5 -10t15.5 2q21 12 14 30l-40 149q-1 7 -10 10t-17 -2q-11 -6 -14 -12zM436 238q8 -3 11.5 -11t-0.5 -16q-2 -3 -4 -9.5t-4 -10.5q-3 -5 -9 -17q-27 -50 -50 -73q-39 -37 -88 -37q-14 0 -28 3
q-25 8 -44 24q-30 -40 -66 -65.5t-70 -25.5q-39 0 -60.5 21t-25 55t2.5 74.5t21 82.5t30 76.5t30 58.5q65 107 140 107h1q48 -2 75 -33q26 -31 25 -81q-1 -47 -22.5 -112t-55.5 -122q11 -14 30 -19q10 -2 17 -2q33 0 58 25q22 22 42 62l2 4t2 3.5t2 4t2 4.5t8 18
q3 8 11.5 11.5t16.5 -0.5zM221 239q20 -5 15 -26q-3 -7 -5 -23q48 97 50 172q1 34 -15 52q-14 17 -44 19q-53 0 -103 -87q-38 -62 -65 -157q-37 -143 30 -147q51 0 112 87q-8 19 -8 47q0 24 7 48q5 20 26 15zM471 790q9 -17 -5 -31q-28 -23 -55.5 -28t-46.5 1t-50 22
q-68 31 -99 -18q-4 -7 -12.5 -7t-12.5 5q-14 14 -2 30q46 63 129 31q8 -3 25.5 -11t25.5 -10t22 -3t27.5 5.5t29.5 20.5q5 5 12.5 2.5t11.5 -9.5z" />
    <glyph glyph-name="uni1ED8" unicode="&#x1ed8;" horiz-adv-x="735" 
d="M490 811l127 144q3 6 14 12q8 5 17 2t10 -10l40 -149q7 -18 -14 -30q-8 -4 -15.5 -2t-9.5 10l-30 117l-109 -120q-15 -16 -29 -4q-6 5 -6.5 13.5t5.5 16.5zM779 236q8 -3 11.5 -11.5t0.5 -16.5q-2 -3 -5 -9.5t-4 -9.5l-2 -4t-1.5 -3.5t-2 -4t-2.5 -4.5v-1
q-28 -52 -50 -73q-38 -38 -88 -37q-16 0 -29 3q-26 8 -43 25q-24 -30 -37 -43q-83 -86 -181 -86q-29 0 -56 8q-59 18 -87 79q-22 48 -22 120q0 104 38 223q7 25 23 61q-27 -4 -58 -4h-10q-71 3 -119 36q-55 40 -55 108v1v4v1q1 34 16 63l1 1q11 22 38 49q15 15 30 -1
q6 -6 6 -14.5t-6 -14.5q-23 -23 -31 -39l-1 -1q-10 -19 -11 -45v-4q0 -47 38 -73q36 -26 95 -29h9q37 0 80 8q34 66 73 112q74 84 151 84q23 0 34 -10h1l1 -1q13 -13 13 -32q0 -31 -24 -62q-15 -21 -31 -33q-56 -49 -138 -80q-26 -9 -51 -15q-24 -49 -34 -83
q-36 -113 -36 -210q0 -63 18 -103q19 -42 62 -56q18 -6 43 -6q79 0 151 74q23 23 42 51q-8 21 -8 45q0 19 7 49q2 8 10 12.5t16 2.5t12.5 -10t2.5 -16q-3 -9 -5 -29q33 56 59 123q52 129 53 243q2 71 -20 114q-21 43 -67 50v1q-30 4 -73 -6q-8 -2 -16 2.5t-10 12.5t2.5 16
t13.5 10q48 13 89 6h1q66 -11 98 -73q26 -53 24 -134q-1 -119 -56 -258q-38 -96 -84 -164q11 -14 30 -19q12 -2 18 -2q33 0 58 25q19 18 42 62l1 2q1 1 2 4t2.5 5.5t2.5 4.5q1 3 4 9.5t4 8.5q3 8 11 11.5t16 -0.5zM369 582q-22 -25 -49 -69l9 3q74 27 125 71q13 11 25 27
q16 20 16 37h1h-1q-1 1 -7 1q-59 0 -119 -70zM308 -86q14 0 24.5 -10.5t10.5 -24.5t-10.5 -24t-24.5 -10t-24 10t-10 24t10 24.5t24 10.5z" />
    <glyph glyph-name="uni1ED9" unicode="&#x1ed9;" horiz-adv-x="391" 
d="M158 543l127 144q3 6 14 12q8 5 17 2t10 -10l40 -149q7 -18 -14 -30q-8 -4 -15.5 -2t-9.5 10l-30 117l-109 -120q-15 -16 -29 -4q-6 5 -6.5 13.5t5.5 16.5zM436 238q8 -3 11.5 -11t-0.5 -16q-2 -3 -4 -9.5t-4 -10.5q-3 -5 -9 -17q-27 -50 -50 -73q-39 -37 -88 -37
q-14 0 -28 3q-25 8 -44 24q-30 -40 -66 -65.5t-70 -25.5q-39 0 -60.5 21t-25 55t2.5 74.5t21 82.5t30 76.5t30 58.5q65 107 140 107h1q48 -2 75 -33q26 -31 25 -81q-1 -47 -22.5 -112t-55.5 -122q11 -14 30 -19q10 -2 17 -2q33 0 58 25q22 22 42 62l2 4t2 3.5t2 4t2 4.5
t8 18q3 8 11.5 11.5t16.5 -0.5zM221 239q20 -5 15 -26q-3 -7 -5 -23q48 97 50 172q1 34 -15 52q-14 17 -44 19q-53 0 -103 -87q-38 -62 -65 -157q-37 -143 30 -147q51 0 112 87q-8 19 -8 47q0 24 7 48q5 20 26 15zM50 -47q14 0 24.5 -10.5t10.5 -24.5t-10.5 -24t-24.5 -10
t-24 10t-10 24t10 24.5t24 10.5z" />
    <glyph glyph-name="uni1EDA" unicode="&#x1eda;" horiz-adv-x="735" 
d="M779 236q8 -3 11.5 -11.5t0.5 -16.5q-2 -3 -5 -9.5t-4 -9.5l-2 -4t-1.5 -3.5t-2 -4t-2.5 -4.5v-1q-28 -52 -50 -73q-38 -38 -88 -37q-16 0 -29 3q-26 8 -43 25q-24 -30 -37 -43q-83 -86 -181 -86q-29 0 -56 8q-59 18 -87 79q-22 48 -22 120q0 104 38 223q7 25 23 61
q-27 -4 -58 -4h-10q-71 3 -119 36q-55 40 -55 108v6q1 34 16 63l1 1q11 22 38 49q15 15 30 -1q6 -6 6 -14.5t-6 -14.5q-23 -23 -31 -39l-1 -1q-10 -19 -11 -45v-4q0 -47 38 -73q36 -26 95 -29h9q37 0 80 8q34 66 73 112q74 84 151 84q23 0 34 -10h1l1 -1q13 -13 13 -32
q0 -31 -24 -62q-15 -21 -31 -33q-56 -49 -138 -80q-26 -9 -51 -15q-24 -49 -34 -83q-36 -113 -36 -210q0 -63 18 -103q19 -42 62 -56q18 -6 43 -6q79 0 151 74q23 23 42 51q-8 21 -8 45q0 19 7 49q2 8 10 12.5t16 2.5t12.5 -10t2.5 -16q-3 -9 -5 -29q33 56 59 123
q52 129 53 243q2 71 -20 114q-21 43 -67 50v1q-30 4 -73 -6q-8 -2 -16 2.5t-10 12.5t2.5 16t13.5 10q48 13 89 6h1q55 -10 86 -53q25 -2 37 22q2 5 -2 6q-26 9 -23 36q2 16 15.5 27t28.5 11q30 0 30 -35q0 -41 -34 -72q-17 -15 -38 -20q24 -50 22 -129q-1 -119 -56 -258
q-38 -96 -84 -164q11 -14 30 -19q12 -2 18 -2q33 0 58 25q19 18 42 62l1 2q1 1 2 4t2.5 5.5t2.5 4.5q1 3 4 9.5t4 8.5q3 8 11 11.5t16 -0.5zM369 582q-22 -25 -49 -69l9 3q74 27 125 71q13 11 25 27q16 20 16 37q-1 1 -7 1q-59 0 -119 -70zM570 826l129 141q16 18 30 7
q7 -5 8.5 -14.5t-4.5 -17.5l-129 -141q-14 -16 -32 -4q-6 5 -7 13t5 16z" />
    <glyph glyph-name="uni1EDB" unicode="&#x1edb;" horiz-adv-x="391" 
d="M436 238q8 -3 11.5 -11t-0.5 -16q-2 -3 -4 -9.5t-4 -10.5q-3 -5 -9 -17q-27 -50 -50 -73q-39 -37 -88 -37q-14 0 -28 3q-25 8 -44 24q-30 -40 -66 -65.5t-70 -25.5q-39 0 -60.5 21t-25 55t2.5 74.5t21 82.5t30 76.5t30 58.5q65 107 140 107h1q48 -2 75 -33l1 -2
q1 -2 2 -2q20 2 30 22q2 5 -2 6q-26 9 -23 36q2 16 15.5 27t28.5 11q30 0 30 -35q0 -41 -34 -72q-14 -13 -32 -19q9 -22 9 -53q-1 -47 -22.5 -112t-55.5 -122q11 -14 30 -19q10 -2 17 -2q33 0 58 25q22 22 42 62l2 4t2 3.5t2 4t2 4.5t8 18q3 8 11.5 11.5t16.5 -0.5zM221 239
q20 -5 15 -26q-3 -7 -5 -23q48 97 50 172q1 34 -15 52q-14 17 -44 19q-53 0 -103 -87q-38 -62 -65 -157q-37 -143 30 -147q51 0 112 87q-8 19 -8 47q0 24 7 48q5 20 26 15zM212 555l129 141q16 18 30 7q7 -5 8.5 -14.5t-4.5 -17.5l-129 -141q-14 -16 -32 -4q-6 5 -7 13t5 16
z" />
    <glyph glyph-name="uni1EDC" unicode="&#x1edc;" horiz-adv-x="735" 
d="M779 236q8 -3 11.5 -11.5t0.5 -16.5q-2 -3 -5 -9.5t-4 -9.5l-2 -4t-1.5 -3.5t-2 -4t-2.5 -4.5v-1q-28 -52 -50 -73q-38 -38 -88 -37q-16 0 -29 3q-26 8 -43 25q-24 -30 -37 -43q-83 -86 -181 -86q-29 0 -56 8q-59 18 -87 79q-22 48 -22 120q0 104 38 223q7 25 23 61
q-27 -4 -58 -4h-10q-71 3 -119 36q-55 40 -55 108v6q1 34 16 63l1 1q11 22 38 49q15 15 30 -1q6 -6 6 -14.5t-6 -14.5q-23 -23 -31 -39l-1 -1q-10 -19 -11 -45v-4q0 -47 38 -73q36 -26 95 -29h9q37 0 80 8q34 66 73 112q74 84 151 84q23 0 34 -10h1l1 -1q13 -13 13 -32
q0 -31 -24 -62q-15 -21 -31 -33q-56 -49 -138 -80q-26 -9 -51 -15q-24 -49 -34 -83q-36 -113 -36 -210q0 -63 18 -103q19 -42 62 -56q18 -6 43 -6q79 0 151 74q23 23 42 51q-8 21 -8 45q0 19 7 49q2 8 10 12.5t16 2.5t12.5 -10t2.5 -16q-3 -9 -5 -29q33 56 59 123
q52 129 53 243q2 71 -20 114q-21 43 -67 50v1q-30 4 -73 -6q-8 -2 -16 2.5t-10 12.5t2.5 16t13.5 10q48 13 89 6h1q55 -10 86 -53q25 -2 37 22q2 5 -2 6q-26 9 -23 36q2 16 15.5 27t28.5 11q30 0 30 -35q0 -41 -34 -72q-17 -15 -38 -20q24 -50 22 -129q-1 -119 -56 -258
q-38 -96 -84 -164q11 -14 30 -19q12 -2 18 -2q33 0 58 25q19 18 42 62l1 2q1 1 2 4t2.5 5.5t2.5 4.5q1 3 4 9.5t4 8.5q3 8 11 11.5t16 -0.5zM369 582q-22 -25 -49 -69l9 3q74 27 125 71q13 11 25 27q16 20 16 37q-1 1 -7 1q-59 0 -119 -70zM650 825q4 -7 0 -15.5t-12 -13.5
q-8 -4 -16.5 -2t-11.5 10l-61 144q-7 18 11 29q21 10 28 -8z" />
    <glyph glyph-name="uni1EDD" unicode="&#x1edd;" horiz-adv-x="391" 
d="M436 238q8 -3 11.5 -11t-0.5 -16q-2 -3 -4 -9.5t-4 -10.5q-3 -5 -9 -17q-27 -50 -50 -73q-39 -37 -88 -37q-14 0 -28 3q-25 8 -44 24q-30 -40 -66 -65.5t-70 -25.5q-39 0 -60.5 21t-25 55t2.5 74.5t21 82.5t30 76.5t30 58.5q65 107 140 107h1q48 -2 75 -33l1 -2
q1 -2 2 -2q20 2 30 22q2 5 -2 6q-26 9 -23 36q2 16 15.5 27t28.5 11q30 0 30 -35q0 -41 -34 -72q-14 -13 -32 -19q9 -22 9 -53q-1 -47 -22.5 -112t-55.5 -122q11 -14 30 -19q10 -2 17 -2q33 0 58 25q22 22 42 62l2 4t2 3.5t2 4t2 4.5t8 18q3 8 11.5 11.5t16.5 -0.5zM221 239
q20 -5 15 -26q-3 -7 -5 -23q48 97 50 172q1 34 -15 52q-14 17 -44 19q-53 0 -103 -87q-38 -62 -65 -157q-37 -143 30 -147q51 0 112 87q-8 19 -8 47q0 24 7 48q5 20 26 15zM297 553q4 -7 0 -15.5t-12 -13.5q-8 -4 -16.5 -2t-11.5 10l-61 144q-7 18 11 29q21 10 28 -8z" />
    <glyph glyph-name="uni1EDE" unicode="&#x1ede;" horiz-adv-x="735" 
d="M779 236q8 -3 11.5 -11.5t0.5 -16.5q-2 -3 -5 -9.5t-4 -9.5l-2 -4t-1.5 -3.5t-2 -4t-2.5 -4.5v-1q-28 -52 -50 -73q-38 -38 -88 -37q-16 0 -29 3q-26 8 -43 25q-24 -30 -37 -43q-83 -86 -181 -86q-29 0 -56 8q-59 18 -87 79q-22 48 -22 120q0 104 38 223q7 25 23 61
q-27 -4 -58 -4h-10q-71 3 -119 36q-55 40 -55 108v6q1 34 16 63l1 1q11 22 38 49q15 15 30 -1q6 -6 6 -14.5t-6 -14.5q-23 -23 -31 -39l-1 -1q-10 -19 -11 -45v-4q0 -47 38 -73q36 -26 95 -29h9q37 0 80 8q34 66 73 112q74 84 151 84q23 0 34 -10h1l1 -1q13 -13 13 -32
q0 -31 -24 -62q-15 -21 -31 -33q-56 -49 -138 -80q-26 -9 -51 -15q-24 -49 -34 -83q-36 -113 -36 -210q0 -63 18 -103q19 -42 62 -56q18 -6 43 -6q79 0 151 74q23 23 42 51q-8 21 -8 45q0 19 7 49q2 8 10 12.5t16 2.5t12.5 -10t2.5 -16q-3 -9 -5 -29q33 56 59 123
q52 129 53 243q2 71 -20 114q-21 43 -67 50v1q-30 4 -73 -6q-8 -2 -16 2.5t-10 12.5t2.5 16t13.5 10q48 13 89 6h1q55 -10 86 -53q25 -2 37 22q2 5 -2 6q-26 9 -23 36q2 16 15.5 27t28.5 11q30 0 30 -35q0 -41 -34 -72q-17 -15 -38 -20q24 -50 22 -129q-1 -119 -56 -258
q-38 -96 -84 -164q11 -14 30 -19q12 -2 18 -2q33 0 58 25q19 18 42 62l1 2q1 1 2 4t2.5 5.5t2.5 4.5q1 3 4 9.5t4 8.5q3 8 11 11.5t16 -0.5zM369 582q-22 -25 -49 -69l9 3q74 27 125 71q13 11 25 27q16 20 16 37q-1 1 -7 1q-59 0 -119 -70zM790 960q-11 -41 -33 -60.5
t-65 -40.5q-9 -5 -14 -6l4 1q-16 -10 -28 -20q-5 -6 -14 -25q0 -1 -1 -3l-1 -3q-9 -19 -29 -17q-8 1 -11.5 8t0.5 14q2 3 2 6q9 24 23 40q5 3 5 4q8 8 37 27q18 10 26 14h-1q19 11 26 16t17 16.5t14 26.5q5 23 -9 35q-17 15 -47 15q-7 0 -18 -3q-19 -5 -36 -21
q-16 -12 -13 -38q0 -19 -22 -24h1q-9 -3 -15.5 0.5t-7.5 11.5q0 22 4 32q3 10 7.5 17t10.5 13.5t8 10.5q25 25 62 35q18 5 31 5q44 0 70 -24q27 -25 17 -63z" />
    <glyph glyph-name="uni1EDF" unicode="&#x1edf;" horiz-adv-x="391" 
d="M436 238q8 -3 11.5 -11t-0.5 -16q-2 -3 -4 -9.5t-4 -10.5q-3 -5 -9 -17q-27 -50 -50 -73q-39 -37 -88 -37q-14 0 -28 3q-25 8 -44 24q-30 -40 -66 -65.5t-70 -25.5q-39 0 -60.5 21t-25 55t2.5 74.5t21 82.5t30 76.5t30 58.5q65 107 140 107h1q48 -2 75 -33l1 -2
q1 -2 2 -2q20 2 30 22q2 5 -2 6q-26 9 -23 36q2 16 15.5 27t28.5 11q30 0 30 -35q0 -41 -34 -72q-14 -13 -32 -19q9 -22 9 -53q-1 -47 -22.5 -112t-55.5 -122q11 -14 30 -19q10 -2 17 -2q33 0 58 25q22 22 42 62l2 4t2 3.5t2 4t2 4.5t8 18q3 8 11.5 11.5t16.5 -0.5zM221 239
q20 -5 15 -26q-3 -7 -5 -23q48 97 50 172q1 34 -15 52q-14 17 -44 19q-53 0 -103 -87q-38 -62 -65 -157q-37 -143 30 -147q51 0 112 87q-8 19 -8 47q0 24 7 48q5 20 26 15zM429 695q-11 -41 -33 -60.5t-65 -40.5q-9 -5 -14 -6l4 1q-16 -10 -28 -20q-5 -6 -14 -25q0 -1 -1 -4
l-1 -2q-9 -19 -29 -17q-8 1 -11.5 8t0.5 14q2 3 2 6q9 24 23 40q4 3 5 4q8 8 37 27q18 10 26 14h-1q19 11 26 16t17 16.5t14 26.5q5 23 -9 35q-17 15 -47 15q-8 0 -18 -3q-20 -4 -36 -21q-16 -12 -13 -38q0 -19 -22 -24h1q-9 -3 -15.5 0.5t-7.5 11.5q0 22 4 32q3 10 7.5 17
t10.5 13.5t8 10.5q25 25 62 35q18 5 31 5q44 0 70 -24q27 -25 17 -63z" />
    <glyph glyph-name="uni1EE0" unicode="&#x1ee0;" horiz-adv-x="735" 
d="M779 236q8 -3 11.5 -11.5t0.5 -16.5q-2 -3 -5 -9.5t-4 -9.5l-2 -4t-1.5 -3.5t-2 -4t-2.5 -4.5v-1q-28 -52 -50 -73q-38 -38 -88 -37q-16 0 -29 3q-26 8 -43 25q-24 -30 -37 -43q-83 -86 -181 -86q-29 0 -56 8q-59 18 -87 79q-22 48 -22 120q0 104 38 223q7 25 23 61
q-27 -4 -58 -4h-10q-71 3 -119 36q-55 40 -55 108v6q1 34 16 63l1 1q11 22 38 49q15 15 30 -1q6 -6 6 -14.5t-6 -14.5q-23 -23 -31 -39l-1 -1q-10 -19 -11 -45v-4q0 -47 38 -73q36 -26 95 -29h9q37 0 80 8q34 66 73 112q74 84 151 84q23 0 34 -10h1l1 -1q13 -13 13 -32
q0 -31 -24 -62q-15 -21 -31 -33q-56 -49 -138 -80q-26 -9 -51 -15q-24 -49 -34 -83q-36 -113 -36 -210q0 -63 18 -103q19 -42 62 -56q18 -6 43 -6q79 0 151 74q23 23 42 51q-8 21 -8 45q0 19 7 49q2 8 10 12.5t16 2.5t12.5 -10t2.5 -16q-3 -9 -5 -29q33 56 59 123
q52 129 53 243q2 71 -20 114q-21 43 -67 50v1q-30 4 -73 -6q-8 -2 -16 2.5t-10 12.5t2.5 16t13.5 10q48 13 89 6h1q55 -10 86 -53q25 -2 37 22q2 5 -2 6q-26 9 -23 36q2 16 15.5 27t28.5 11q30 0 30 -35q0 -41 -34 -72q-17 -15 -38 -20q24 -50 22 -129q-1 -119 -56 -258
q-38 -96 -84 -164q11 -14 30 -19q12 -2 18 -2q33 0 58 25q19 18 42 62l1 2q1 1 2 4t2.5 5.5t2.5 4.5q1 3 4 9.5t4 8.5q3 8 11 11.5t16 -0.5zM369 582q-22 -25 -49 -69l9 3q74 27 125 71q13 11 25 27q16 20 16 37q-1 1 -7 1q-59 0 -119 -70zM775 883q9 -17 -5 -31
q-28 -23 -55.5 -28t-46.5 1t-50 22q-68 31 -99 -18q-4 -7 -12.5 -7t-12.5 5q-14 14 -2 30q46 63 129 31q8 -3 25.5 -11t25.5 -10t22 -3t27.5 5.5t29.5 20.5q5 5 12.5 2.5t11.5 -9.5z" />
    <glyph glyph-name="uni1EE1" unicode="&#x1ee1;" horiz-adv-x="391" 
d="M436 238q8 -3 11.5 -11t-0.5 -16q-2 -3 -4 -9.5t-4 -10.5q-3 -5 -9 -17q-27 -50 -50 -73q-39 -37 -88 -37q-14 0 -28 3q-25 8 -44 24q-30 -40 -66 -65.5t-70 -25.5q-39 0 -60.5 21t-25 55t2.5 74.5t21 82.5t30 76.5t30 58.5q65 107 140 107h1q48 -2 75 -33l1 -2
q1 -2 2 -2q20 2 30 22q2 5 -2 6q-26 9 -23 36q2 16 15.5 27t28.5 11q30 0 30 -35q0 -41 -34 -72q-14 -13 -32 -19q9 -22 9 -53q-1 -47 -22.5 -112t-55.5 -122q11 -14 30 -19q10 -2 17 -2q33 0 58 25q22 22 42 62l2 4t2 3.5t2 4t2 4.5t8 18q3 8 11.5 11.5t16.5 -0.5zM221 239
q20 -5 15 -26q-3 -7 -5 -23q48 97 50 172q1 34 -15 52q-14 17 -44 19q-53 0 -103 -87q-38 -62 -65 -157q-37 -143 30 -147q51 0 112 87q-8 19 -8 47q0 24 7 48q5 20 26 15zM429 631q9 -17 -5 -31q-28 -23 -55.5 -28t-46.5 1t-50 22q-68 31 -99 -18q-4 -7 -12.5 -7t-12.5 5
q-14 14 -2 30q46 63 129 31q8 -3 25.5 -11t25.5 -10t22 -3t27.5 5.5t29.5 20.5q5 5 12.5 2.5t11.5 -9.5z" />
    <glyph glyph-name="uni1EE2" unicode="&#x1ee2;" horiz-adv-x="735" 
d="M779 236q8 -3 11.5 -11.5t0.5 -16.5q-2 -3 -5 -9.5t-4 -9.5l-2 -4t-1.5 -3.5t-2 -4t-2.5 -4.5v-1q-28 -52 -50 -73q-38 -38 -88 -37q-16 0 -29 3q-26 8 -43 25q-24 -30 -37 -43q-83 -86 -181 -86q-29 0 -56 8q-59 18 -87 79q-22 48 -22 120q0 104 38 223q7 25 23 61
q-27 -4 -58 -4h-10q-71 3 -119 36q-55 40 -55 108v6q1 34 16 63l1 1q11 22 38 49q15 15 30 -1q6 -6 6 -14.5t-6 -14.5q-23 -23 -31 -39l-1 -1q-10 -19 -11 -45v-4q0 -47 38 -73q36 -26 95 -29h9q37 0 80 8q34 66 73 112q74 84 151 84q23 0 34 -10h1l1 -1q13 -13 13 -32
q0 -31 -24 -62q-15 -21 -31 -33q-56 -49 -138 -80q-26 -9 -51 -15q-24 -49 -34 -83q-36 -113 -36 -210q0 -63 18 -103q19 -42 62 -56q18 -6 43 -6q79 0 151 74q23 23 42 51q-8 21 -8 45q0 19 7 49q2 8 10 12.5t16 2.5t12.5 -10t2.5 -16q-3 -9 -5 -29q33 56 59 123
q52 129 53 243q2 71 -20 114q-21 43 -67 50v1q-30 4 -73 -6q-8 -2 -16 2.5t-10 12.5t2.5 16t13.5 10q48 13 89 6h1q55 -10 86 -53q25 -2 37 22q2 5 -2 6q-26 9 -23 36q2 16 15.5 27t28.5 11q30 0 30 -35q0 -41 -34 -72q-17 -15 -38 -20q24 -50 22 -129q-1 -119 -56 -258
q-38 -96 -84 -164q11 -14 30 -19q12 -2 18 -2q33 0 58 25q19 18 42 62l1 2q1 1 2 4t2.5 5.5t2.5 4.5q1 3 4 9.5t4 8.5q3 8 11 11.5t16 -0.5zM369 582q-22 -25 -49 -69l9 3q74 27 125 71q13 11 25 27q16 20 16 37q-1 1 -7 1q-59 0 -119 -70zM308 -86q14 0 24.5 -10.5
t10.5 -24.5t-10.5 -24t-24.5 -10t-24 10t-10 24t10 24.5t24 10.5z" />
    <glyph glyph-name="uni1EE3" unicode="&#x1ee3;" horiz-adv-x="391" 
d="M436 238q8 -3 11.5 -11t-0.5 -16q-2 -3 -4 -9.5t-4 -10.5q-3 -5 -9 -17q-27 -50 -50 -73q-39 -37 -88 -37q-14 0 -28 3q-25 8 -44 24q-30 -40 -66 -65.5t-70 -25.5q-39 0 -60.5 21t-25 55t2.5 74.5t21 82.5t30 76.5t30 58.5q65 107 140 107h1q48 -2 75 -33l1 -2
q1 -2 2 -2q20 2 30 22q2 5 -2 6q-26 9 -23 36q2 16 15.5 27t28.5 11q30 0 30 -35q0 -41 -34 -72q-14 -13 -32 -19q9 -22 9 -53q-1 -47 -22.5 -112t-55.5 -122q11 -14 30 -19q10 -2 17 -2q33 0 58 25q22 22 42 62l2 4t2 3.5t2 4t2 4.5t8 18q3 8 11.5 11.5t16.5 -0.5zM221 239
q20 -5 15 -26q-3 -7 -5 -23q48 97 50 172q1 34 -15 52q-14 17 -44 19q-53 0 -103 -87q-38 -62 -65 -157q-37 -143 30 -147q51 0 112 87q-8 19 -8 47q0 24 7 48q5 20 26 15zM50 -47q14 0 24.5 -10.5t10.5 -24.5t-10.5 -24t-24.5 -10t-24 10t-10 24t10 24.5t24 10.5z" />
    <glyph glyph-name="uni1EE4" unicode="&#x1ee4;" horiz-adv-x="776" 
d="M362 -86q14 0 24.5 -10.5t10.5 -24.5t-10.5 -24t-24.5 -10t-24 10t-10 24t10 24.5t24 10.5zM822 236q17 -10 9 -29q-6 -13 -15 -30l-23.5 -49t-26.5 -45.5t-34 -43.5t-39 -27.5t-48 -12.5q-69 0 -69 95q0 20 1 31q-16 -26 -25 -39q-83 -114 -183 -114v0h-2q-60 1 -87 45
q-22 33 -22 88v0v4q0 36 18 106v1q19 74 50 163q3 8 8.5 26.5l8.5 28.5q38 127 57 177q-23 -5 -61 -10q-54 -8 -82.5 -13.5t-73.5 -18t-69.5 -26.5t-45.5 -38.5t-25 -55.5q0 -2 -0.5 -6t-0.5 -6q-2 -34 17 -59q19 -26 52 -30q4 -1 10 -1q9 0 15 -6.5t6 -15.5
q-1 -8 -7.5 -14.5t-14.5 -5.5q-10 0 -15 1q-50 7 -80 47q-27 36 -25 86q0 3 0.5 8t0.5 8q4 29 17.5 53t30 40.5t45.5 31t51 23t61 17t61 12l65 10.5q50 8 86 15q1 2 13 29q20 37 38 57q27 27 59 31h19q18 -4 26 -9q17 -11 19 -26v-3q1 -4 0 -10q-6 -43 -42.5 -67t-100.5 -39
q-29 -73 -66 -199q-14 -44 -17 -55v-1q-32 -93 -49 -160v-1q-17 -68 -17 -95v-1v-3q0 -42 15 -65q17 -25 53 -25h1q79 0 149 96q42 58 106 203v2q1 1 1 2l1 2l51 143l99 269q7 20 27 13q19 -7 12 -27l-98 -269l-51 -142l-1 -3q0 -3 -1 -4v-1l-1 -1q-45 -139 -45 -204
q0 -53 27 -53q21 0 40.5 13.5t37.5 40.5t28.5 46.5t26.5 53.5l8 16.5l7 14.5q10 19 29 10zM499 713q-12 -12 -29 -44q73 22 80 60q-2 1 -8 3h-1h-8q-18 -3 -34 -19z" />
    <glyph glyph-name="uni1EE5" unicode="&#x1ee5;" horiz-adv-x="365" 
d="M50 -47q14 0 24.5 -10.5t10.5 -24.5t-10.5 -24t-24.5 -10t-24 10t-10 24t10 24.5t24 10.5zM411 238q19 -9 10 -28l-1 -3q-19 -44 -32.5 -70t-37.5 -63t-52 -55.5t-59 -18.5v0h-1h-1q-37 0 -56 29q-11 16 -14 42q-50 -71 -110 -71v0h-1q-37 0 -57 29q-14 22 -14 55v0v3
q0 23 11 62q10 39 24 79l29 82l56 152q7 19 27 12q19 -7 12 -27l-55 -152l-11.5 -32l-11 -29.5t-6.5 -18.5q-14 -39 -24 -76q-9 -40 -9 -53v-2q0 -21 7 -32q7 -10 23 -10v0q18 0 36 13t31 29t29.5 45t24.5 46.5l22 48.5v1q1 1 1 3l29 82l56 152q7 19 27 12t13 -27l-56 -152
q-28 -77 -29 -80v-1q0 -1 -1 -4q-15 -44 -22 -71q-9 -33 -9 -53v-2q0 -21 7 -32q7 -10 22 -10h1q29 0 58.5 33.5t45.5 65t38 83.5l2 3q3 8 11.5 11.5t16.5 -0.5z" />
    <glyph glyph-name="uni1EE6" unicode="&#x1ee6;" horiz-adv-x="776" 
d="M826 973q-11 -41 -33 -60.5t-65 -40.5q-9 -5 -14 -6l4 1q-16 -10 -28 -20q-5 -6 -14 -25q0 -1 -1 -4l-1 -2q-9 -19 -29 -17q-8 1 -11.5 8t0.5 14q2 3 2 6q9 24 23 40q5 3 5 4q8 8 37 27q18 10 26 14h-1q19 11 26 16t17 16.5t14 26.5q5 23 -9 35q-17 15 -47 15
q-7 0 -18 -3q-19 -4 -36 -21q-16 -12 -13 -38q0 -19 -22 -24h1q-9 -3 -15.5 0.5t-7.5 11.5q0 22 4 32q3 10 7.5 17t10.5 13.5t8 10.5q25 25 62 35q18 5 31 5q44 0 70 -24q27 -25 17 -63zM822 236q17 -10 9 -29q-6 -13 -15 -30l-23.5 -49t-26.5 -45.5t-34 -43.5t-39 -27.5
t-48 -12.5q-69 0 -69 95q0 20 1 31q-16 -26 -25 -39q-83 -114 -183 -114v0h-2q-60 1 -87 45q-22 33 -22 88v0v4q0 36 18 106v1q19 74 50 163q3 8 8.5 26.5l8.5 28.5q38 127 57 177q-23 -5 -61 -10q-54 -8 -82.5 -13.5t-73.5 -18t-69.5 -26.5t-45.5 -38.5t-25 -55.5
q0 -2 -0.5 -6t-0.5 -6q-2 -34 17 -59q19 -26 52 -30q4 -1 10 -1q9 0 15 -6.5t6 -15.5q-1 -8 -7.5 -14.5t-14.5 -5.5q-10 0 -15 1q-50 7 -80 47q-27 36 -25 86q0 3 0.5 8t0.5 8q4 29 17.5 53t30 40.5t45.5 31t51 23t61 17t61 12l65 10.5q50 8 86 15q1 2 13 29q20 37 38 57
q27 27 59 31h19q18 -4 26 -9q17 -11 19 -26v-3q1 -4 0 -10q-6 -43 -42.5 -67t-100.5 -39q-29 -73 -66 -199q-14 -44 -17 -55v-1q-32 -93 -49 -160v-1q-17 -68 -17 -95v-1v-3q0 -42 15 -65q17 -25 53 -25h1q79 0 149 96q42 58 106 203v2q1 1 1 2l1 2l51 143l99 269
q7 20 27 13q19 -7 12 -27l-98 -269l-51 -142l-1 -3q0 -3 -1 -4v-1l-1 -1q-45 -139 -45 -204q0 -53 27 -53q21 0 40.5 13.5t37.5 40.5t28.5 46.5t26.5 53.5l8 16.5l7 14.5q10 19 29 10zM499 713q-12 -12 -29 -44q73 22 80 60q-2 1 -8 3h-1h-8q-18 -3 -34 -19z" />
    <glyph glyph-name="uni1EE7" unicode="&#x1ee7;" horiz-adv-x="365" 
d="M414 695q-11 -41 -33 -60.5t-65 -40.5q-9 -5 -14 -6l4 1q-16 -10 -28 -20q-5 -6 -14 -25q0 -1 -1 -4l-1 -2q-9 -19 -29 -17q-8 1 -11.5 8t0.5 14q2 3 2 6q9 24 23 40q5 3 5 4q8 8 37 27q18 10 26 14h-1q19 11 26 16t17 16.5t14 26.5q5 23 -9 35q-17 15 -47 15
q-7 0 -18 -3q-19 -4 -36 -21q-16 -12 -13 -38q0 -19 -22 -24h1q-9 -3 -15.5 0.5t-7.5 11.5q0 22 4 32q3 10 7.5 17t10.5 13.5t8 10.5q25 25 62 35q18 5 31 5q44 0 70 -24q27 -25 17 -63zM411 238q19 -9 10 -28l-1 -3q-19 -44 -32.5 -70t-37.5 -63t-52 -55.5t-59 -18.5v0h-1
h-1q-37 0 -56 29q-11 16 -14 42q-50 -71 -110 -71v0h-1q-37 0 -57 29q-14 22 -14 55v0v3q0 23 11 62q10 39 24 79l29 82l56 152q7 19 27 12q19 -7 12 -27l-55 -152l-11.5 -32l-11 -29.5t-6.5 -18.5q-14 -39 -24 -76q-9 -40 -9 -53v-2q0 -21 7 -32q7 -10 23 -10v0q18 0 36 13
t31 29t29.5 45t24.5 46.5l22 48.5v1q1 1 1 3l29 82l56 152q7 19 27 12t13 -27l-56 -152q-28 -77 -29 -80v-1q0 -1 -1 -4q-15 -44 -22 -71q-9 -33 -9 -53v-2q0 -21 7 -32q7 -10 22 -10h1q29 0 58.5 33.5t45.5 65t38 83.5l2 3q3 8 11.5 11.5t16.5 -0.5z" />
    <glyph glyph-name="uni1EE8" unicode="&#x1ee8;" horiz-adv-x="776" 
d="M822 236q17 -10 9 -29q-6 -13 -15 -30l-23.5 -49t-26.5 -45.5t-34 -43.5t-39 -27.5t-48 -12.5q-69 0 -69 95q0 20 1 31q-16 -26 -25 -39q-83 -114 -183 -114h-2q-60 1 -87 45q-22 33 -22 88v4q0 36 18 106v1q19 74 50 163q3 8 8.5 26.5l8.5 28.5q38 127 57 177
q-23 -5 -61 -10q-54 -8 -82.5 -13.5t-73.5 -18t-69.5 -26.5t-45.5 -38.5t-25 -55.5q0 -2 -0.5 -6t-0.5 -6q-2 -34 17 -59q19 -26 52 -30q4 -1 10 -1q9 0 15 -6.5t6 -15.5q-1 -8 -7.5 -14.5t-14.5 -5.5q-10 0 -15 1q-50 7 -80 47q-27 36 -25 86q0 3 0.5 8t0.5 8q4 29 17.5 53
t30 40.5t45.5 31t51 23t61 17t61 12l65 10.5q50 8 86 15q1 2 13 29q20 37 38 57q27 27 59 31h19q18 -4 26 -9q17 -11 19 -26v-3q1 -4 0 -10q-6 -43 -42.5 -67t-100.5 -39q-29 -73 -66 -199q-14 -44 -17 -55v-1q-32 -93 -49 -160v-1q-17 -68 -17 -95v-4q0 -42 15 -65
q17 -25 53 -25h1q79 0 149 96q42 58 106 203v2q1 1 1 2l1 2l51 143l99 269q7 20 27 13q15 -5 13 -21q26 0 36 22q2 5 -2 6q-26 9 -23 36q2 16 15.5 27t28.5 11q31 0 31 -36q-1 -41 -35 -72q-27 -23 -60 -21l-90 -248l-51 -142l-1 -3q0 -3 -1 -4v-1l-1 -1q-45 -139 -45 -204
q0 -53 27 -53q21 0 40.5 13.5t37.5 40.5t28.5 46.5t26.5 53.5l8 16.5l7 14.5q10 19 29 10zM499 713q-12 -12 -29 -44q73 22 80 60q-2 1 -8 3h-9q-18 -3 -34 -19zM614 842l129 141q16 18 30 7q7 -5 8.5 -14.5t-4.5 -17.5l-129 -141q-14 -16 -32 -4q-6 5 -7 13t5 16z" />
    <glyph glyph-name="uni1EE9" unicode="&#x1ee9;" horiz-adv-x="365" 
d="M411 238q19 -9 10 -28l-1 -3q-19 -44 -32.5 -70t-37.5 -63t-52 -55.5t-59 -18.5h-2q-37 0 -56 29q-11 16 -14 42q-50 -71 -110 -71h-1q-37 0 -57 29q-14 22 -14 55v3q0 23 11 62q10 39 24 79l29 82l56 152q7 19 27 12q19 -7 12 -27l-55 -152l-11.5 -32l-11 -29.5
t-6.5 -18.5q-14 -39 -24 -76q-9 -40 -9 -53v-2q0 -21 7 -32q7 -10 23 -10q18 0 36 13t31 29t29.5 45t24.5 46.5l22 48.5v1q1 1 1 3l29 82l56 152q7 19 27 12q19 -7 13 -27q25 0 36 22q2 5 -2 6q-26 9 -23 36q2 16 15.5 27t28.5 11q30 0 30 -35q1 -40 -32 -71
q-27 -25 -63 -23h-1l-45 -125q-28 -77 -29 -80v-1q0 -1 -1 -4q-15 -44 -22 -71q-9 -33 -9 -53v-2q0 -21 7 -32q7 -10 22 -10h1q29 0 58.5 33.5t45.5 65t38 83.5l2 3q3 8 11.5 11.5t16.5 -0.5zM198 555l129 141q16 18 30 7q7 -5 8.5 -14.5t-4.5 -17.5l-129 -141
q-14 -16 -32 -4q-6 5 -7 13t5 16z" />
    <glyph glyph-name="uni1EEA" unicode="&#x1eea;" horiz-adv-x="776" 
d="M822 236q17 -10 9 -29q-6 -13 -15 -30l-23.5 -49t-26.5 -45.5t-34 -43.5t-39 -27.5t-48 -12.5q-69 0 -69 95q0 20 1 31q-16 -26 -25 -39q-83 -114 -183 -114h-2q-60 1 -87 45q-22 33 -22 88v4q0 36 18 106v1q19 74 50 163q3 8 8.5 26.5l8.5 28.5q38 127 57 177
q-23 -5 -61 -10q-54 -8 -82.5 -13.5t-73.5 -18t-69.5 -26.5t-45.5 -38.5t-25 -55.5q0 -2 -0.5 -6t-0.5 -6q-2 -34 17 -59q19 -26 52 -30q4 -1 10 -1q9 0 15 -6.5t6 -15.5q-1 -8 -7.5 -14.5t-14.5 -5.5q-10 0 -15 1q-50 7 -80 47q-27 36 -25 86q0 3 0.5 8t0.5 8q4 29 17.5 53
t30 40.5t45.5 31t51 23t61 17t61 12l65 10.5q50 8 86 15q1 2 13 29q20 37 38 57q27 27 59 31h19q18 -4 26 -9q17 -11 19 -26v-3q1 -4 0 -10q-6 -43 -42.5 -67t-100.5 -39q-29 -73 -66 -199q-14 -44 -17 -55v-1q-32 -93 -49 -160v-1q-17 -68 -17 -95v-4q0 -42 15 -65
q17 -25 53 -25h1q79 0 149 96q42 58 106 203v2q1 1 1 2l1 2l51 143l99 269q7 20 27 13q15 -5 13 -21q26 0 36 22q2 5 -2 6q-26 9 -23 36q2 16 15.5 27t28.5 11q31 0 31 -36q-1 -41 -35 -72q-27 -23 -60 -21l-90 -248l-51 -142l-1 -3q0 -3 -1 -4v-1l-1 -1q-45 -139 -45 -204
q0 -53 27 -53q21 0 40.5 13.5t37.5 40.5t28.5 46.5t26.5 53.5l8 16.5l7 14.5q10 19 29 10zM499 713q-12 -12 -29 -44q73 22 80 60q-2 1 -8 3h-9q-18 -3 -34 -19zM692 840q4 -7 0 -15.5t-12 -13.5q-8 -4 -16.5 -2t-11.5 10l-61 144q-7 18 11 29q21 10 28 -8z" />
    <glyph glyph-name="uni1EEB" unicode="&#x1eeb;" horiz-adv-x="365" 
d="M411 238q19 -9 10 -28l-1 -3q-19 -44 -32.5 -70t-37.5 -63t-52 -55.5t-59 -18.5h-2q-37 0 -56 29q-11 16 -14 42q-50 -71 -110 -71h-1q-37 0 -57 29q-14 22 -14 55v3q0 23 11 62q10 39 24 79l29 82l56 152q7 19 27 12q19 -7 12 -27l-55 -152l-11.5 -32l-11 -29.5
t-6.5 -18.5q-14 -39 -24 -76q-9 -40 -9 -53v-2q0 -21 7 -32q7 -10 23 -10q18 0 36 13t31 29t29.5 45t24.5 46.5l22 48.5v1q1 1 1 3l29 82l56 152q7 19 27 12q19 -7 13 -27q25 0 36 22q2 5 -2 6q-26 9 -23 36q2 16 15.5 27t28.5 11q30 0 30 -35q1 -40 -32 -71
q-27 -25 -63 -23h-1l-45 -125q-28 -77 -29 -80v-1q0 -1 -1 -4q-15 -44 -22 -71q-9 -33 -9 -53v-2q0 -21 7 -32q7 -10 22 -10h1q29 0 58.5 33.5t45.5 65t38 83.5l2 3q3 8 11.5 11.5t16.5 -0.5zM262 553q4 -7 0 -15.5t-12 -13.5q-8 -4 -16.5 -2t-11.5 10l-61 144q-7 18 11 29
q21 10 28 -8z" />
    <glyph glyph-name="uni1EEC" unicode="&#x1eec;" horiz-adv-x="776" 
d="M822 236q17 -10 9 -29q-6 -13 -15 -30l-23.5 -49t-26.5 -45.5t-34 -43.5t-39 -27.5t-48 -12.5q-69 0 -69 95q0 20 1 31q-16 -26 -25 -39q-83 -114 -183 -114h-2q-60 1 -87 45q-22 33 -22 88v4q0 36 18 106v1q19 74 50 163q3 8 8.5 26.5l8.5 28.5q38 127 57 177
q-23 -5 -61 -10q-54 -8 -82.5 -13.5t-73.5 -18t-69.5 -26.5t-45.5 -38.5t-25 -55.5q0 -2 -0.5 -6t-0.5 -6q-2 -34 17 -59q19 -26 52 -30q4 -1 10 -1q9 0 15 -6.5t6 -15.5q-1 -8 -7.5 -14.5t-14.5 -5.5q-10 0 -15 1q-50 7 -80 47q-27 36 -25 86q0 3 0.5 8t0.5 8q4 29 17.5 53
t30 40.5t45.5 31t51 23t61 17t61 12l65 10.5q50 8 86 15q1 2 13 29q20 37 38 57q27 27 59 31h19q18 -4 26 -9q17 -11 19 -26v-3q1 -4 0 -10q-6 -43 -42.5 -67t-100.5 -39q-29 -73 -66 -199q-14 -44 -17 -55v-1q-32 -93 -49 -160v-1q-17 -68 -17 -95v-4q0 -42 15 -65
q17 -25 53 -25h1q79 0 149 96q42 58 106 203v2q1 1 1 2l1 2l51 143l99 269q7 20 27 13q15 -5 13 -21q26 0 36 22q2 5 -2 6q-26 9 -23 36q2 16 15.5 27t28.5 11q31 0 31 -36q-1 -41 -35 -72q-27 -23 -60 -21l-90 -248l-51 -142l-1 -3q0 -3 -1 -4v-1l-1 -1q-45 -139 -45 -204
q0 -53 27 -53q21 0 40.5 13.5t37.5 40.5t28.5 46.5t26.5 53.5l8 16.5l7 14.5q10 19 29 10zM499 713q-12 -12 -29 -44q73 22 80 60q-2 1 -8 3h-9q-18 -3 -34 -19zM826 973q-11 -41 -33 -60.5t-65 -40.5q-9 -5 -14 -6l4 1q-16 -10 -28 -20q-5 -6 -14 -25q0 -1 -1 -4l-1 -2
q-9 -19 -29 -17q-8 1 -11.5 8t0.5 14q2 3 2 6q9 24 23 40q5 3 5 4q8 8 37 27q18 10 26 14h-1q19 11 26 16t17 16.5t14 26.5q5 23 -9 35q-17 15 -47 15q-7 0 -18 -3q-19 -4 -36 -21q-16 -12 -13 -38q0 -19 -22 -24h1q-9 -3 -15.5 0.5t-7.5 11.5q0 22 4 32q3 10 7.5 17
t10.5 13.5t8 10.5q25 25 62 35q18 5 31 5q44 0 70 -24q27 -25 17 -63z" />
    <glyph glyph-name="uni1EED" unicode="&#x1eed;" horiz-adv-x="365" 
d="M411 238q19 -9 10 -28l-1 -3q-19 -44 -32.5 -70t-37.5 -63t-52 -55.5t-59 -18.5h-2q-37 0 -56 29q-11 16 -14 42q-50 -71 -110 -71h-1q-37 0 -57 29q-14 22 -14 55v3q0 23 11 62q10 39 24 79l29 82l56 152q7 19 27 12q19 -7 12 -27l-55 -152l-11.5 -32l-11 -29.5
t-6.5 -18.5q-14 -39 -24 -76q-9 -40 -9 -53v-2q0 -21 7 -32q7 -10 23 -10q18 0 36 13t31 29t29.5 45t24.5 46.5l22 48.5v1q1 1 1 3l29 82l56 152q7 19 27 12q19 -7 13 -27q25 0 36 22q2 5 -2 6q-26 9 -23 36q2 16 15.5 27t28.5 11q30 0 30 -35q1 -40 -32 -71
q-27 -25 -63 -23h-1l-45 -125q-28 -77 -29 -80v-1q0 -1 -1 -4q-15 -44 -22 -71q-9 -33 -9 -53v-2q0 -21 7 -32q7 -10 22 -10h1q29 0 58.5 33.5t45.5 65t38 83.5l2 3q3 8 11.5 11.5t16.5 -0.5zM414 695q-11 -41 -33 -60.5t-65 -40.5q-9 -5 -14 -6l4 1q-16 -10 -28 -20
q-5 -6 -14 -25q0 -1 -1 -4l-1 -2q-9 -19 -29 -17q-8 1 -11.5 8t0.5 14q2 3 2 6q9 24 23 40q5 3 5 4q8 8 37 27q18 10 26 14h-1q19 11 26 16t17 16.5t14 26.5q5 23 -9 35q-17 15 -47 15q-7 0 -18 -3q-19 -4 -36 -21q-16 -12 -13 -38q0 -19 -22 -24h1q-9 -3 -15.5 0.5
t-7.5 11.5q0 22 4 32q3 10 7.5 17t10.5 13.5t8 10.5q25 25 62 35q18 5 31 5q44 0 70 -24q27 -25 17 -63z" />
    <glyph glyph-name="uni1EEE" unicode="&#x1eee;" horiz-adv-x="776" 
d="M822 236q17 -10 9 -29q-6 -13 -15 -30l-23.5 -49t-26.5 -45.5t-34 -43.5t-39 -27.5t-48 -12.5q-69 0 -69 95q0 20 1 31q-16 -26 -25 -39q-83 -114 -183 -114h-2q-60 1 -87 45q-22 33 -22 88v4q0 36 18 106v1q19 74 50 163q3 8 8.5 26.5l8.5 28.5q38 127 57 177
q-23 -5 -61 -10q-54 -8 -82.5 -13.5t-73.5 -18t-69.5 -26.5t-45.5 -38.5t-25 -55.5q0 -2 -0.5 -6t-0.5 -6q-2 -34 17 -59q19 -26 52 -30q4 -1 10 -1q9 0 15 -6.5t6 -15.5q-1 -8 -7.5 -14.5t-14.5 -5.5q-10 0 -15 1q-50 7 -80 47q-27 36 -25 86q0 3 0.5 8t0.5 8q4 29 17.5 53
t30 40.5t45.5 31t51 23t61 17t61 12l65 10.5q50 8 86 15q1 2 13 29q20 37 38 57q27 27 59 31h19q18 -4 26 -9q17 -11 19 -26v-3q1 -4 0 -10q-6 -43 -42.5 -67t-100.5 -39q-29 -73 -66 -199q-14 -44 -17 -55v-1q-32 -93 -49 -160v-1q-17 -68 -17 -95v-4q0 -42 15 -65
q17 -25 53 -25h1q79 0 149 96q42 58 106 203v2q1 1 1 2l1 2l51 143l99 269q7 20 27 13q15 -5 13 -21q26 0 36 22q2 5 -2 6q-26 9 -23 36q2 16 15.5 27t28.5 11q31 0 31 -36q-1 -41 -35 -72q-27 -23 -60 -21l-90 -248l-51 -142l-1 -3q0 -3 -1 -4v-1l-1 -1q-45 -139 -45 -204
q0 -53 27 -53q21 0 40.5 13.5t37.5 40.5t28.5 46.5t26.5 53.5l8 16.5l7 14.5q10 19 29 10zM499 713q-12 -12 -29 -44q73 22 80 60q-2 1 -8 3h-9q-18 -3 -34 -19zM812 881q9 -17 -5 -31q-28 -23 -55.5 -28t-46.5 1t-50 22q-68 31 -99 -18q-4 -7 -12.5 -7t-12.5 5
q-14 14 -2 30q46 63 129 31q8 -3 25.5 -11t25.5 -10t22 -3t27.5 5.5t29.5 20.5q5 5 12.5 2.5t11.5 -9.5z" />
    <glyph glyph-name="uni1EEF" unicode="&#x1eef;" horiz-adv-x="365" 
d="M411 238q19 -9 10 -28l-1 -3q-19 -44 -32.5 -70t-37.5 -63t-52 -55.5t-59 -18.5h-2q-37 0 -56 29q-11 16 -14 42q-50 -71 -110 -71h-1q-37 0 -57 29q-14 22 -14 55v3q0 23 11 62q10 39 24 79l29 82l56 152q7 19 27 12q19 -7 12 -27l-55 -152l-11.5 -32l-11 -29.5
t-6.5 -18.5q-14 -39 -24 -76q-9 -40 -9 -53v-2q0 -21 7 -32q7 -10 23 -10q18 0 36 13t31 29t29.5 45t24.5 46.5l22 48.5v1q1 1 1 3l29 82l56 152q7 19 27 12q19 -7 13 -27q25 0 36 22q2 5 -2 6q-26 9 -23 36q2 16 15.5 27t28.5 11q30 0 30 -35q1 -40 -32 -71
q-27 -25 -63 -23h-1l-45 -125q-28 -77 -29 -80v-1q0 -1 -1 -4q-15 -44 -22 -71q-9 -33 -9 -53v-2q0 -21 7 -32q7 -10 22 -10h1q29 0 58.5 33.5t45.5 65t38 83.5l2 3q3 8 11.5 11.5t16.5 -0.5zM412 629q9 -17 -5 -31q-28 -23 -55.5 -28t-46.5 1t-50 22q-68 31 -99 -18
q-4 -7 -12.5 -7t-12.5 5q-14 14 -2 30q46 63 129 31q8 -3 25.5 -11t25.5 -10t22 -3t27.5 5.5t29.5 20.5q5 5 12.5 2.5t11.5 -9.5z" />
    <glyph glyph-name="uni1EF0" unicode="&#x1ef0;" horiz-adv-x="776" 
d="M822 236q17 -10 9 -29q-6 -13 -15 -30l-23.5 -49t-26.5 -45.5t-34 -43.5t-39 -27.5t-48 -12.5q-69 0 -69 95q0 20 1 31q-16 -26 -25 -39q-83 -114 -183 -114h-2q-60 1 -87 45q-22 33 -22 88v4q0 36 18 106v1q19 74 50 163q3 8 8.5 26.5l8.5 28.5q38 127 57 177
q-23 -5 -61 -10q-54 -8 -82.5 -13.5t-73.5 -18t-69.5 -26.5t-45.5 -38.5t-25 -55.5q0 -2 -0.5 -6t-0.5 -6q-2 -34 17 -59q19 -26 52 -30q4 -1 10 -1q9 0 15 -6.5t6 -15.5q-1 -8 -7.5 -14.5t-14.5 -5.5q-10 0 -15 1q-50 7 -80 47q-27 36 -25 86q0 3 0.5 8t0.5 8q4 29 17.5 53
t30 40.5t45.5 31t51 23t61 17t61 12l65 10.5q50 8 86 15q1 2 13 29q20 37 38 57q27 27 59 31h19q18 -4 26 -9q17 -11 19 -26v-3q1 -4 0 -10q-6 -43 -42.5 -67t-100.5 -39q-29 -73 -66 -199q-14 -44 -17 -55v-1q-32 -93 -49 -160v-1q-17 -68 -17 -95v-4q0 -42 15 -65
q17 -25 53 -25h1q79 0 149 96q42 58 106 203v2q1 1 1 2l1 2l51 143l99 269q7 20 27 13q15 -5 13 -21q26 0 36 22q2 5 -2 6q-26 9 -23 36q2 16 15.5 27t28.5 11q31 0 31 -36q-1 -41 -35 -72q-27 -23 -60 -21l-90 -248l-51 -142l-1 -3q0 -3 -1 -4v-1l-1 -1q-45 -139 -45 -204
q0 -53 27 -53q21 0 40.5 13.5t37.5 40.5t28.5 46.5t26.5 53.5l8 16.5l7 14.5q10 19 29 10zM499 713q-12 -12 -29 -44q73 22 80 60q-2 1 -8 3h-9q-18 -3 -34 -19zM362 -86q14 0 24.5 -10.5t10.5 -24.5t-10.5 -24t-24.5 -10t-24 10t-10 24t10 24.5t24 10.5z" />
    <glyph glyph-name="uni1EF1" unicode="&#x1ef1;" horiz-adv-x="365" 
d="M411 238q19 -9 10 -28l-1 -3q-19 -44 -32.5 -70t-37.5 -63t-52 -55.5t-59 -18.5h-2q-37 0 -56 29q-11 16 -14 42q-50 -71 -110 -71h-1q-37 0 -57 29q-14 22 -14 55v3q0 23 11 62q10 39 24 79l29 82l56 152q7 19 27 12q19 -7 12 -27l-55 -152l-11.5 -32l-11 -29.5
t-6.5 -18.5q-14 -39 -24 -76q-9 -40 -9 -53v-2q0 -21 7 -32q7 -10 23 -10q18 0 36 13t31 29t29.5 45t24.5 46.5l22 48.5v1q1 1 1 3l29 82l56 152q7 19 27 12q19 -7 13 -27q25 0 36 22q2 5 -2 6q-26 9 -23 36q2 16 15.5 27t28.5 11q30 0 30 -35q1 -40 -32 -71
q-27 -25 -63 -23h-1l-45 -125q-28 -77 -29 -80v-1q0 -1 -1 -4q-15 -44 -22 -71q-9 -33 -9 -53v-2q0 -21 7 -32q7 -10 22 -10h1q29 0 58.5 33.5t45.5 65t38 83.5l2 3q3 8 11.5 11.5t16.5 -0.5zM50 -47q14 0 24.5 -10.5t10.5 -24.5t-10.5 -24t-24.5 -10t-24 10t-10 24t10 24.5
t24 10.5z" />
    <glyph glyph-name="Ygrave" unicode="&#x1ef2;" 
d="M690 838q4 -7 0 -15.5t-12 -13.5q-8 -4 -16.5 -2t-11.5 10l-61 144q-7 18 11 29q21 10 28 -8zM810 237q18 -9 11 -28q-46 -108 -109 -174q-58 -60 -129 -89q-24 -11 -54 -19l-12 -36q-26 -79 -49 -113q-41 -60 -105 -61q-15 0 -22 1q-47 4 -72 33q-23 26 -25 64q0 9 1 14
q2 25 13 44t23.5 30t39 20t43.5 12.5t54 10.5q45 7 79 16q2 5 55 157q-73 -89 -163 -89v0h-2q-58 0 -87 44q-23 35 -23 88v1l1 3q0 56 52 230q29 101 71 215q-20 -4 -62 -10q-54 -8 -82.5 -13.5t-73.5 -18t-69.5 -26.5t-45.5 -38.5t-25 -55.5q0 -2 -0.5 -6t-0.5 -6
q-2 -34 17 -59q19 -26 52 -30q4 -1 10 -1q9 0 15 -6.5t6 -15.5q-1 -9 -7 -15t-15 -5q-10 0 -15 1q-50 7 -80 47q-27 36 -25 86q0 3 0.5 8t0.5 8q4 29 17.5 53t30 40.5t45.5 31t51 23t61 17t61 12l65 10.5q60 10 87 15q2 6 6.5 16t5.5 13q20 37 38 57q27 27 59 31h19
q18 -4 26 -9q17 -11 19 -26v-3q1 -4 0 -10q-10 -75 -142 -105q-36 -91 -80 -237q-50 -168 -50 -218v-4q0 -42 15 -65q17 -25 52 -25h2q79 0 148 96q39 53 108 205l32 90l99 269q7 20 27 13q19 -7 12 -27l-98 -269q-8 -20 -19.5 -53t-12.5 -37q-1 0 -1 -2q-11 -28 -18 -50
l-1 -2l-42 -117q-73 -202 -76 -211q9 3 19 8q65 25 116 79q58 63 100 162q9 20 28 11zM499 713q-12 -12 -29 -44q73 22 80 60q-2 1 -8 3h-1h-8q-18 -3 -34 -19zM477 -95l4 10q-38 -8 -55 -11l-37 -7t-31 -7t-29 -10t-20 -13t-16 -18.5t-6 -23.5q-1 -3 -1 -9q2 -23 14 -37
q16 -16 45 -19q5 -1 17 -1q43 1 71 43q21 33 44 103z" />
    <glyph glyph-name="ygrave" unicode="&#x1ef3;" horiz-adv-x="377" 
d="M257 553q4 -7 0 -15.5t-12 -13.5q-8 -4 -16.5 -2t-11.5 10l-61 144q-7 18 11 29q21 10 28 -8zM421 239q8 -3 11.5 -11t0.5 -16q-48 -109 -109 -174q-55 -59 -130 -90q-22 -10 -53 -19l-12 -35q-29 -82 -50 -113q-40 -59 -104 -62q-15 0 -22 1q-45 4 -72 33q-23 26 -25 64
v14q3 25 14 44t23.5 30t39 20t43.5 12.5t54 10.5q71 14 78 16l24 68q-35 -32 -75 -32h-1h-1q-37 0 -57 29q-14 22 -14 55v0v3q2 29 11 62q5 19 24 79l29 82l56 152q7 19 27 12q19 -7 12 -27l-55 -152l-11.5 -32l-11 -29.5t-6.5 -18.5q-15 -47 -23 -76q-8 -30 -10 -53v-2h1
q0 -23 7 -32q7 -10 22 -10h1q22 0 42.5 16t40.5 49.5t30.5 54.5t28.5 62l1 3q1 1 1 2q2 6 6.5 17.5l6.5 16.5l73 196l1 1v1q3 8 11 12t16 0q20 -7 13 -27l-1 -1v-1q-23 -57 -74 -195l-53 -149l-42 -121l10 3.5t10 4.5q65 27 115 80q58 60 101 161q3 8 11.5 11.5t15.5 -0.5z
M89 -93l3 10q-8 -2 -26.5 -5.5l-28.5 -5.5q-35 -6 -53.5 -10.5t-40.5 -13t-32.5 -22t-12.5 -33.5v-9q2 -22 14 -36q16 -17 45 -20q5 -1 17 -1q42 1 70 43v0q18 27 45 103z" />
    </font>
</defs>
</svg>
