<svg xmlns="http://www.w3.org/2000/svg">
<defs>
<font id="UTMDuepuntozeroBold" horiz-adv-x="1265" >
  <font-face 
    font-family="UTM Duepuntozero"
    font-weight="700"
    font-stretch="normal"
    units-per-em="2048"
    panose-1="2 4 6 3 5 5 6 2 2 4"
    ascent="1638"
    descent="-410"
    x-height="1014"
    cap-height="1352"
    bbox="-79 -641 4942 2175"
    underline-thickness="109"
    underline-position="-143"
    unicode-range="U+0020-U+2026"
  />
<missing-glyph horiz-adv-x="5040" 
d="M3351 2045h10q37 -10 37 -52q0 -12 -32 -57h-28q0 24 28 54l2 10q-5 13 -10 15h-9q-8 0 -10 -19h-30q6 49 42 49zM2019 2016l29 -31q0 -16 -40 -30h-19l-59 12l-11 -12l-28 25q11 29 43 29h11l42 -11h2q10 0 30 18zM468 1980h142v-60h-94v-75h89v-59h-89v-129l-5 -5h-49
v323zM1155 1980h43l6 -5v-78h30v-52h-30v-188l-6 -5h-49v193h-25v52h25v78zM1621 1980h42l4 -5v-94h3q23 24 54 24h2q58 0 83 -71l2 -39v-143h-52v115q0 80 -42 80h-7q-43 0 -43 -86v-109h-51v323zM2200 1980h49l5 -5v-222q10 -51 45 -51q44 7 44 59v214l5 5h49v-216
q0 -85 -66 -112q-15 -8 -35 -8q-47 0 -82 55q-14 24 -14 57v224zM2435 1980h159v-60h-56v-268h-53v268h-55v55zM2621 1980h71q7 -4 83 -251h2l80 251h73v-328h-54v242h-2l-74 -242h-44q-4 0 -58 182l-19 60h-3v-242h-55v328zM3760 1980h52v-328h-45l-5 5v11l3 2l-3 14
q-29 -40 -78 -40q-67 0 -100 91l-5 39v3q0 94 92 125l23 3q35 0 63 -32h3v107zM2057 1928h36l4 -6v-49h-45v-221h-48v23q-23 -31 -59 -31q-89 14 -89 97v156h51v-104q0 -79 26 -86l18 -5h6q26 0 39 36l3 26v133h53v25zM3476 1928v-55h-31v-221h-47v25h-2q-15 -33 -57 -33
q-68 0 -86 78l-3 29v146h52v-120q0 -50 19 -68l21 -7h9q42 0 42 69v126h27q4 0 4 28l3 3h49zM758 1905q68 0 103 -77q9 -18 12 -54q0 -88 -90 -127l-32 -3q-63 0 -101 73q-12 22 -12 52v10q0 94 101 126h19zM1011 1905h3q74 0 83 -101v-152h-51v119q0 76 -42 76h-5
q-44 0 -44 -76v-119h-52v245h46v-21q30 29 62 29zM1466 1905h7q72 0 105 -89h-60q-16 31 -42 31h-17q-53 -14 -53 -61l-3 -15q12 -69 61 -69h9q22 0 47 27h40l2 3h3l2 -3l2 3l3 -3l2 3l2 -7q-33 -81 -110 -81q-76 0 -110 94l-4 36v3q0 85 77 120q15 8 37 8zM3141 1905h2

<glyph glyph-name=".notdef" horiz-adv-x="5040" 
d="M3351 2045h10q37 -10 37 -52q0 -12 -32 -57h-28q0 24 28 54l2 10q-5 13 -10 15h-9q-8 0 -10 -19h-30q6 49 42 49zM2019 2016l29 -31q0 -16 -40 -30h-19l-59 12l-11 -12l-28 25q11 29 43 29h11l42 -11h2q10 0 30 18zM468 1980h142v-60h-94v-75h89v-59h-89v-129l-5 -5h-49
v323zM1155 1980h43l6 -5v-78h30v-52h-30v-188l-6 -5h-49v193h-25v52h25v78zM1621 1980h42l4 -5v-94h3q23 24 54 24h2q58 0 83 -71l2 -39v-143h-52v115q0 80 -42 80h-7q-43 0 -43 -86v-109h-51v323zM2200 1980h49l5 -5v-222q10 -51 45 -51q44 7 44 59v214l5 5h49v-216
q0 -85 -66 -112q-15 -8 -35 -8q-47 0 -82 55q-14 24 -14 57v224zM2435 1980h159v-60h-56v-268h-53v268h-55v55zM2621 1980h71q7 -4 83 -251h2l80 251h73v-328h-54v242h-2l-74 -242h-44q-4 0 -58 182l-19 60h-3v-242h-55v328zM3760 1980h52v-328h-45l-5 5v11l3 2l-3 14
q-29 -40 -78 -40q-67 0 -100 91l-5 39v3q0 94 92 125l23 3q35 0 63 -32h3v107zM2057 1928h36l4 -6v-49h-45v-221h-48v23q-23 -31 -59 -31q-89 14 -89 97v156h51v-104q0 -79 26 -86l18 -5h6q26 0 39 36l3 26v133h53v25zM3476 1928v-55h-31v-221h-47v25h-2q-15 -33 -57 -33
q-68 0 -86 78l-3 29v146h52v-120q0 -50 19 -68l21 -7h9q42 0 42 69v126h27q4 0 4 28l3 3h49zM758 1905q68 0 103 -77q9 -18 12 -54q0 -88 -90 -127l-32 -3q-63 0 -101 73q-12 22 -12 52v10q0 94 101 126h19zM1011 1905h3q74 0 83 -101v-152h-51v119q0 76 -42 76h-5
q-44 0 -44 -76v-119h-52v245h46v-21q30 29 62 29zM1466 1905h7q72 0 105 -89h-60q-16 31 -42 31h-17q-53 -14 -53 -61l-3 -15q12 -69 61 -69h9q22 0 47 27h40l2 3h3l2 -3l2 3l3 -3l2 3l2 -7q-33 -81 -110 -81q-76 0 -110 94l-4 36v3q0 85 77 120q15 8 37 8zM3141 1905h2
q49 0 70 -60v-14h-52q0 16 -16 16h-4q-14 0 -19 -13v-13q0 -9 68 -35q30 -19 30 -59q0 -58 -61 -80l-23 -3q-76 12 -76 83h54q0 -20 27 -25h4q19 0 24 23q0 22 -68 44q-34 27 -34 59q0 66 74 77zM4203 1905q55 0 77 -63q7 -18 7 -65v-125h-52v112q0 83 -40 83h-11
q-33 0 -40 -54v-141h-52v5h-2l2 2v238h47v-21q25 29 64 29zM4432 1905h5q40 0 69 -40v18l-3 3l3 11h47v-208q0 -97 -85 -132l-33 -4h-7q-70 0 -104 80h59q24 -22 45 -23h13q22 0 43 22q15 13 22 52h-3q-32 -40 -73 -40q-57 0 -96 70q-10 18 -14 63q0 88 87 125zM3851 1897
h53v-136q6 -59 40 -59h7q46 0 46 93v102h51v-245h-47l-3 10h3l-3 3v5l3 2v3h-4q0 -23 -57 -31h-3q-59 0 -84 75l-2 85v93zM690 1771q10 -69 63 -69h7q59 14 59 65v15q-13 65 -59 65h-5q-58 0 -65 -76zM3630 1774q13 -72 61 -72h5q58 0 66 75q0 49 -51 70h-22q-37 0 -56 -57z
M4374 1774q8 -72 65 -72h5q59 12 59 72q0 61 -59 73h-14q-56 -16 -56 -62v-11zM3928 1620h52v-57h-52v57zM1054 1402q43 -11 43 -49v-4q0 -17 -32 -60h-28q0 25 31 57v7q0 12 -7 15h-12q-10 -4 -10 -19h-28v6q0 32 33 44zM3349 1339q92 0 138 -99h-60q-37 42 -80 42
q-55 0 -87 -68q-10 -22 -10 -47q0 -78 81 -110l18 -1q36 0 75 39h61q-44 -97 -138 -97q-93 0 -141 112q-10 31 -10 62q0 97 90 152q29 15 63 15zM3664 1339q57 0 103 -47q46 -51 46 -115v-20q0 -89 -91 -146q-33 -13 -63 -13q-89 0 -138 101q-13 33 -13 60v18q0 98 98 151
q29 11 58 11zM2261 1337h2l47 -11h3q11 0 26 11l18 -36q-18 -19 -35 -19h-3l-54 10l-20 -7l-20 36q18 16 36 16zM716 1334h19q118 0 129 -26q25 -26 25 -62q-10 -57 -30 -57v-6q47 -23 47 -66v-18q0 -63 -69 -88l-54 -5h-67v328zM2550 1334h53v-217q6 -61 45 -61q29 0 44 39
l3 30v203l4 6h45l5 -6v-171q0 -118 -40 -133q-24 -26 -64 -26q-55 0 -91 76l-4 54v206zM2805 1334h59q4 0 122 -237h4v237h50l4 -6v-322h-58q-29 48 -125 238h-3v-238h-53v328zM3101 1334h54v-328h-54v328zM3859 1334h8q155 0 174 -40q23 -11 47 -75l4 -36v-11l3 -2
q0 -94 -82 -149q-35 -15 -99 -15h-55v328zM4141 1334h153v-60h-103v-75h101v-57h-101v-74l4 -5h99v-57h-157v322zM3563 1175v-10q0 -76 79 -108l19 -1q68 0 96 86l3 20v15q0 61 -60 94q-12 8 -39 11q-66 0 -96 -83zM770 1274v-67h9q54 0 54 28l3 14q-11 25 -29 25h-37z
M3912 1274v-206l2 -3v-2q104 0 122 76l2 15v29q0 34 -32 68q-25 23 -78 23h-16zM1041 1259h5q38 0 71 -40v32h49v-245h-49v32q-36 -40 -80 -40q-75 0 -101 97l-5 36q0 89 85 125zM1314 1259h3q74 0 83 -102v-151h-51v128q0 67 -42 67h-10q-34 0 -39 -62v-133h-52v245h47v-21
q28 29 61 29zM1543 1259h5q45 0 71 -40v32h47v-219q0 -95 -104 -126h-16q-74 0 -108 82h59q26 -25 44 -25h14q52 0 64 77q-33 -42 -76 -42q-60 0 -101 81l-7 44v16q0 79 85 117zM1912 1259h2q43 0 61 -37h2q32 37 69 37h4q57 0 79 -55q8 -25 8 -45v-153h-52v138q0 44 -23 55
l-12 2h-15q-32 0 -36 -65v-130h-52v136q0 59 -43 59h-8q-32 0 -36 -57v-138h-54v245h50v-21h2q6 24 54 29zM2282 1259q47 0 75 -42v34h47v-245h-47v32q-36 -40 -78 -40q-74 0 -102 92l-6 41q0 90 85 125zM985 1117q0 -48 61 -61h4q45 0 62 46l3 15v22q-12 62 -57 62h-14
q-41 0 -59 -57v-27zM1487 1128q0 -48 43 -68l18 -4h5q47 0 63 57v23q-11 65 -58 65h-12q-50 0 -59 -73zM2225 1131v-14q15 -61 57 -61h14q58 12 58 64v11q0 45 -37 65l-18 5h-10q-64 -8 -64 -70zM770 1150v-82q0 -5 7 -5q77 0 77 45q0 34 -47 42h-37zM2966 753l24 -28
l-51 -55q-18 12 -27 26zM1524 727l85 -54q0 -15 -21 -42l-87 54q18 41 23 42zM2850 693h38l55 -60h-54l-21 26l-23 -26h-54q54 60 59 60zM3422 693h40l56 -60h-54l-24 26h-1q0 -5 -19 -26h-54zM622 685h52q8 -4 47 -137l34 -110q9 8 34 100l48 147h54v-2l-112 -326h-44z
M1159 685h51v-54h-51v54zM1354 685h46l6 -5v-323h-52v328zM2317 685h45l4 -5v-78h31v-52h-31v-193h-53v193h-26v52h26v78zM2425 685h52v-98h2q23 23 54 23h3q57 0 81 -71l3 -38v-144h-52v115q0 81 -39 81h-10q-42 0 -42 -87v-109h-52v328zM2664 685h52v-54h-52v54zM3028 685
h44l6 -5v-78h29v-52h-29v-193h-54v193h-27v52h27v78zM3234 685h52v-328h-52v328zM3957 685h52v-328h-52v328zM4316 685h51v-54h-51v54zM1555 610h5q83 0 110 -102l3 -23v-11q0 -83 -85 -120l-35 -5q-76 0 -111 97l-4 32q0 97 93 130zM1811 610h4q53 0 78 -60q7 -25 7 -81
v-112h-54v146q-7 50 -37 50h-10q-38 0 -42 -57v-139h-54v245h49v-21q26 29 59 29zM2046 610h4q45 0 63 -39h3v31h49v-206q0 -102 -89 -135l-28 -3h-5q-73 0 -106 81h52l37 -20l15 -3h14q50 0 61 72q-33 -39 -73 -39q-62 0 -98 76q-11 23 -12 60q0 85 86 123zM2866 610h2
q82 0 111 -104l2 -25l-2 -27h-172q15 -45 45 -45l14 -3q29 0 49 22h57v-3q-35 -76 -108 -76q-77 0 -111 97l-1 28v8q0 49 32 89q34 39 82 39zM3429 610h5q41 0 70 -39h2v31h47v-245h-47v31h-2q-35 -39 -77 -39q-71 0 -101 89l-5 36v14q0 86 84 120zM3711 610h7
q88 0 107 -128l-2 -1v-15q0 -65 -66 -106q-21 -11 -46 -11q-34 0 -64 32v-99l-5 -5h-49v325h49v-28q31 36 69 36zM4151 610q44 0 75 -39v31h49v-245h-49v31q-35 -39 -77 -39q-92 0 -108 132q0 84 73 121q15 8 37 8zM922 602h50v-136q3 -60 42 -60h5q44 0 44 87v109h52v-245
h-47v24h-5q0 -23 -56 -32h-3q-55 0 -82 68q-4 35 -4 99v81zM1159 602h51v-245h-51v245zM2664 602h52v-245h-52v245zM4316 602h51v-245h-51v245zM1492 488v-16q13 -66 59 -66h4q59 0 66 76q-13 71 -59 71h-11q-59 -16 -59 -65zM1987 472q15 -66 59 -66h11q48 0 59 75v1
q-13 71 -59 71h-14q-39 0 -56 -57v-24zM2805 506h122v2q-16 45 -59 45h-7q-35 0 -56 -47zM3373 474q13 -68 61 -68h5q52 0 65 63v12q-10 72 -57 72h-16q-56 -14 -56 -63zM3642 478q12 -72 61 -72h3q50 0 65 60v22q0 43 -49 65h-22q-47 0 -58 -72v-3zM4095 472q10 -66 66 -66
q43 0 61 48l2 15v16q0 54 -52 68h-18q-42 0 -59 -60v-21zM3416 321h51v-52h-51v52zM4137 321h51v-52h-51v52zM2733 133h4q35 0 43 -50v-2q0 -16 -24 -41l-10 -17h-28q0 25 28 56l3 2v2q-3 19 -9 19h-10q-8 0 -9 -19h-30q6 50 42 50zM1546 116l52 -60l-26 -19l-52 52zM352 79
h4q75 -48 85 -60l-20 -37q-88 49 -88 58zM3490 79l86 -58l-18 -39q-10 0 -91 55q15 36 23 42zM4578 76l19 -42l-91 -52l-20 39l92 58v-3zM1204 53h51v-19l5 -5h14v-36h-14l-5 -5v-279h-46v31q-34 -40 -81 -40q-72 0 -102 105l-3 26q0 102 101 131h14q33 0 66 -33v59l-6 5
h-43v36h49v24zM1480 45h40l56 -61h-53l-23 27l-23 -27h-53zM2641 45h33q12 0 63 -61h-54l-23 27q-19 -21 -19 -27h-58v4zM49 37h160v-60h-56v-268h-50l-4 5v245l2 3v2l-2 2l2 3l-2 2l2 3l-2 3h-54v54zM699 37h47v-73l2 -2l-2 -3v-3l2 -2l-2 -3v-3l2 -2v-2l-2 -3l2 -3h3
q17 24 51 24h3q53 0 77 -58q7 -17 7 -42v-153h-52v127q0 68 -40 68h-8q-43 0 -43 -86v-109h-52v322zM1297 37h47l5 -6v-49h-52v55zM1987 37h52v-198l70 115h62l-78 -118l90 -125v-2h-70q-10 22 -74 115v-115h-52v328zM2271 37v-99q24 24 53 24q57 0 80 -56q10 -19 10 -77
v-120h-54v133q0 62 -41 62h-11q-31 0 -37 -55v-140h-53v314l-1 3v3l1 2l-1 3l1 3h53zM2458 37h51v-55h-51v55zM3148 37h51v-108q27 33 68 33h3q75 0 105 -94l5 -37q0 -75 -64 -120q-30 -11 -49 -11q-41 0 -72 40v-31h-47v328zM4275 37h52v-99h2q23 24 54 24h3q60 0 82 -74
l2 -41v-138h-52v111q0 82 -32 82l-10 2h-12q-37 0 -37 -80v-115h-52v328zM329 -38h3v-58h-5q-42 0 -42 -57v-138h-53v245h47v-21q18 29 50 29zM564 -38q71 0 86 -87v-166h-51v136q-6 59 -41 59h-6q-45 0 -45 -84v-111h-52v245h50v-21q25 29 59 29zM1504 -38q72 0 105 -94
l5 -39q-2 -24 -7 -24h-169q17 -47 62 -47q24 0 48 21h57q-33 -79 -108 -79q-82 0 -113 105v37q0 81 89 117zM2657 -38h5q77 0 107 -97l3 -26v-21l-3 -13h-170q18 -47 53 -47h12q21 0 42 21h59q-34 -79 -105 -79q-84 0 -115 102l-2 29q0 93 91 128zM2915 -38h4q54 0 78 -60
q7 -25 7 -82v-111h-54v138q0 48 -35 57h-11q-38 0 -43 -57v-138h-54v245h50v-21q25 29 58 29zM3508 -38h6q40 0 70 -40h2v32h47v-245h-47v31h-2q-34 -40 -78 -40q-71 0 -101 90l-4 37v12q0 82 77 117q11 6 30 6zM3781 -38h4q62 0 82 -78l3 -84v-91h-54v138q0 48 -38 57h-9
q-38 0 -42 -52v-143h-54v245h49v-21q26 29 59 29zM4133 -38h1q74 0 104 -93l4 -40q0 -88 -84 -126l-25 -3q-41 0 -68 34v-106h-52v326h47v-29q30 37 73 37zM4714 -38h5q34 0 63 -37q27 37 69 37h6q56 0 79 -66l6 -51v-136h-52v122q0 73 -39 73h-7q-35 0 -41 -50v-140l-5 -5
h-48v140q0 42 -31 55h-17q-40 0 -40 -77v-118h-51v245h47v-21q22 29 56 29zM359 -46h49l5 -6v-234l-5 -5h-49v245zM1297 -46h52v-245h-52v245zM1649 -46h52v-136q4 -60 43 -60h4q44 0 44 81v115h52v-245h-47v24h-5q-12 -33 -59 -33q-52 0 -79 63q-5 12 -5 34v157zM2458 -46
h51v-245h-51v245zM4515 -46h51v-245h-51v245zM1077 -169q0 -53 51 -73h12q54 0 66 66v10q0 53 -54 70h-17q-38 0 -58 -57v-16zM1438 -143h122q-18 47 -53 47h-7q-43 0 -62 -44v-3zM2599 -143h122q-21 47 -54 47h-7q-46 0 -61 -47zM3196 -158v-11q10 -73 61 -73h5q64 8 64 71
v5q0 45 -38 65l-18 5h-14q-60 -14 -60 -62zM3452 -173q14 -69 62 -69h11q41 0 59 60v13q-8 73 -56 73h-17q-47 0 -59 -73v-4zM4062 -158v-22q0 -47 59 -62h9q50 0 61 76q-13 70 -58 70h-15q-56 -17 -56 -62z" />
    <glyph glyph-name=".null" horiz-adv-x="0" 
 />
    <glyph glyph-name="nonmarkingreturn" horiz-adv-x="571" 
 />
    <glyph glyph-name="space" unicode=" " horiz-adv-x="542" 
 />
    <glyph glyph-name="exclam" unicode="!" horiz-adv-x="362" 
d="M69 1225q0 45 33 77.5t76 32.5q47 0 78.5 -32.5t31.5 -77.5v-819q0 -48 -32.5 -79.5t-77.5 -31.5q-46 0 -77.5 31.5t-31.5 79.5v819zM69 166q0 45 33 76.5t76 31.5q47 0 78.5 -31.5t31.5 -76.5v-55q0 -48 -32.5 -79.5t-77.5 -31.5q-46 0 -77.5 31.5t-31.5 79.5v55z" />
    <glyph glyph-name="quotedbl" unicode="&#x22;" horiz-adv-x="602" 
d="M65 1239q0 47 31.5 79t77.5 32q45 0 77.5 -32t32.5 -79v-149q0 -46 -31.5 -78.5t-78.5 -32.5q-43 0 -76 32.5t-33 78.5v149zM313 1239q0 47 32.5 79t77.5 32t78 -32t33 -79v-149q0 -46 -31.5 -78.5t-79.5 -32.5q-45 0 -77.5 32.5t-32.5 78.5v149z" />
    <glyph glyph-name="numbersign" unicode="#" horiz-adv-x="929" 
d="M164 1217q0 47 31.5 78.5t76.5 31.5t78 -31.5t33 -78.5v-248h160v248q0 47 31.5 78.5t76.5 31.5t78 -31.5t33 -78.5v-248h12q45 0 77 -32t32 -79q0 -43 -32 -75.5t-77 -32.5h-12v-160h12q45 0 77 -32t32 -79q0 -45 -32 -77.5t-77 -32.5h-12v-258q0 -48 -32 -79.5
t-79 -31.5q-43 0 -75.5 31.5t-32.5 79.5v258h-160v-258q0 -48 -32 -79.5t-79 -31.5q-43 0 -75.5 31.5t-32.5 79.5v258h-6q-48 0 -79.5 32.5t-31.5 77.5t31.5 78t79.5 33h6v160h-6q-48 0 -79.5 31.5t-31.5 76.5t31.5 78t79.5 33h6v248zM383 750v-160h160v160h-160z" />
    <glyph glyph-name="dollar" unicode="$" horiz-adv-x="1046" 
d="M407 1380q0 45 31.5 77t78.5 32q43 0 76 -32t33 -77v-61q33 -6 70.5 -19.5t76.5 -37t74 -56t64 -80.5l13 -30.5t7 -32.5q0 -35 -30.5 -72t-77.5 -37q-25 0 -48.5 11.5t-37.5 29.5l2 -2l-53.5 56.5t-59.5 42.5v-279q172 -22 279.5 -123.5t107.5 -281.5
q0 -183 -107.5 -285.5t-279.5 -122.5v-66q0 -47 -32 -78.5t-77 -31.5t-77.5 31.5t-32.5 78.5v70q-41 8 -90 25.5t-98.5 51.5t-95.5 85t-81 129q-10 29 -10 55q0 47 29.5 79t74.5 32q43 0 72 -26.5t45 -67.5l2 -2q41 -97 152 -134v377q-74 13 -134.5 40.5t-105.5 71.5
t-69.5 105.5t-24.5 139.5q0 153 86 246.5t248 115.5v53zM626 223q68 19 118 65t50 120q0 77 -46 120t-122 60v-365zM407 1100q-66 -17 -89.5 -53.5t-23.5 -81.5q0 -56 31 -86.5t82 -44.5v266z" />
    <glyph glyph-name="percent" unicode="%" horiz-adv-x="1486" 
d="M69 1063q0 55 21.5 104.5t58.5 86t86 58t106 21.5q56 0 106 -21.5t87 -58t58.5 -86t21.5 -104.5v-186q0 -56 -21.5 -105t-58.5 -86t-87 -58.5t-106 -21.5q-55 0 -105 21.5t-87 58.5t-58.5 86t-21.5 105v186zM243 877q0 -41 28.5 -69t69.5 -28t70 28t29 69v186
q0 41 -30 67.5t-69 26.5q-41 0 -69.5 -26.5t-28.5 -67.5v-186zM1236 467q-8 31 -35.5 54.5t-62.5 23.5q-41 0 -68.5 -28t-27.5 -68v-187q0 -41 28.5 -68.5t67.5 -27.5q37 0 63.5 22.5t34.5 55.5v223zM866 440q0 56 21.5 105t58 86t86 58.5t106.5 21.5q55 0 105.5 -21.5
t87 -58.5t58 -86t21.5 -105v-186q0 -55 -21.5 -104.5t-58 -86t-87 -58t-105.5 -21.5t-105.5 21.5t-87 58t-58 86t-21.5 104.5v186zM1111 1327q17 23 39.5 32t44.5 9q50 0 80.5 -32.5t30.5 -78.5q0 -38 -23 -67l-423 -555.5l-424 -554.5q-17 -21 -38.5 -31t-43.5 -10
q-52 0 -83.5 35t-31.5 76q0 38 25 69z" />
    <glyph glyph-name="ampersand" unicode="&#x26;" horiz-adv-x="1128" 
d="M461 1036q0 -28 18.5 -47.5t44.5 -21.5h262q9 37 38.5 63.5t70.5 26.5q39 0 69.5 -26.5t39.5 -65.5q36 -9 62 -38.5t26 -70.5q0 -39 -25 -68.5t-63 -37.5v-271q0 -100 -36 -188t-99.5 -154.5t-149.5 -105.5t-187 -39q-100 0 -189 39t-155.5 105.5t-105.5 154.5t-39 188
q0 133 64.5 241.5t168.5 174.5q-16 31 -26 66.5t-10 74.5q0 62 23.5 114t63.5 92t93 62.5t115 22.5h4h84q45 0 76.5 -31.5t31.5 -78.5q0 -46 -31.5 -78.5t-76.5 -32.5h-84h-4q-29 0 -51.5 -19.5t-22.5 -50.5zM532 748q-55 0 -103 -21.5t-85 -58.5t-58.5 -85t-21.5 -104
q0 -55 20.5 -103t57.5 -84t86 -57.5t104 -21.5q56 0 102 21.5t80 57.5t52 84t18 103v269h-252z" />
    <glyph glyph-name="quotesingle" unicode="'" horiz-adv-x="331" 
d="M67 1298q0 29 23.5 53.5t52.5 24.5h82q32 0 55 -23.5t23 -54.5q0 -32 -23 -54.5t-55 -22.5h-2v-84q0 -33 -23.5 -55.5t-54.5 -22.5q-33 0 -55.5 22.5t-22.5 55.5v161z" />
    <glyph glyph-name="parenleft" unicode="(" horiz-adv-x="598" 
d="M61 1020q0 78 30.5 147.5t83 120.5t121 81t146.5 30q47 0 79 -32t32 -79q0 -45 -32 -76.5t-79 -31.5q-64 0 -110 -45t-50 -109v-1065q4 -61 50 -106t110 -45q47 0 79 -32t32 -77q0 -47 -32 -79t-79 -32q-78 0 -146.5 30t-121 81t-83 120.5t-30.5 147.5v1051z" />
    <glyph glyph-name="parenright" unicode=")" horiz-adv-x="598" 
d="M156 -190q63 0 110 45t49 108v1063q-2 64 -49 109t-110 45q-48 0 -79.5 31.5t-31.5 76.5q0 47 31.5 79t79.5 32q77 0 147 -30t122 -81t82 -120.5t30 -147.5v-1051q0 -78 -30 -147.5t-82 -120.5t-122 -81t-147 -30q-48 0 -79.5 32t-31.5 79q0 45 31.5 77t79.5 32z" />
    <glyph glyph-name="asterisk" unicode="*" horiz-adv-x="823" 
d="M185 743q-10 13 -12 26t-2 28q0 41 29.5 75.5t81.5 34.5q26 -4 51.5 -16t42.5 -39l37 -61q6 12 17 30.5l18 30.5q16 22 41.5 37.5t54.5 15.5q47 0 76.5 -32.5t29.5 -77.5q0 -13 -2 -26t-10 -28l-35 -59h70q45 0 76.5 -32t31.5 -77t-31.5 -77.5t-76.5 -32.5h-74
q10 -17 18.5 -33t18.5 -33q14 -26 14 -53q0 -39 -27.5 -73.5t-80.5 -34.5q-29 0 -54.5 15t-41.5 40q-15 20 -18 27.5t-17 33.5l-19 -31.5l-18 -29.5q-17 -25 -41.5 -40t-52.5 -15q-50 0 -80.5 32.5t-30.5 77.5q0 27 14 51l39 66h-71q-48 0 -79.5 31.5t-31.5 78.5
q0 43 31.5 76t79.5 33h69z" />
    <glyph glyph-name="plus" unicode="+" horiz-adv-x="782" 
d="M280 831q0 48 32 79.5t77 31.5t77.5 -31.5t32.5 -79.5v-149h152q47 0 78.5 -32t31.5 -77t-31.5 -77.5t-78.5 -32.5h-152v-152q0 -47 -31.5 -78.5t-78.5 -31.5q-43 0 -76 31.5t-33 78.5v152h-151q-46 0 -77.5 31.5t-31.5 78.5q0 43 31.5 76t77.5 33h151v149z" />
    <glyph glyph-name="comma" unicode="," horiz-adv-x="344" 
d="M61 111q0 45 31.5 76.5t77.5 31.5q45 0 77.5 -31.5t32.5 -76.5v-156q0 -47 -31.5 -79t-78.5 -32q-43 0 -76 32t-33 79v156z" />
    <glyph glyph-name="hyphen" unicode="-" horiz-adv-x="872" 
d="M174 463q-46 0 -77.5 31.5t-31.5 78.5q0 43 31.5 76t77.5 33h522q47 0 78.5 -32t31.5 -77t-31.5 -77.5t-78.5 -32.5h-522z" />
    <glyph glyph-name="hyphen" unicode="&#x2010;" horiz-adv-x="872" 
d="M174 463q-46 0 -77.5 31.5t-31.5 78.5q0 43 31.5 76t77.5 33h522q47 0 78.5 -32t31.5 -77t-31.5 -77.5t-78.5 -32.5h-522z" />
    <glyph glyph-name="period" unicode="." horiz-adv-x="321" 
d="M51 111q0 45 31.5 76.5t79.5 31.5q43 0 75.5 -31.5t32.5 -76.5q0 -48 -31.5 -79.5t-76.5 -31.5t-78 31.5t-33 79.5z" />
    <glyph glyph-name="slash" unicode="/" horiz-adv-x="1083" 
d="M880 1288q17 23 39.5 32t44.5 9q50 0 80.5 -32.5t30.5 -77.5q0 -39 -23 -68l-423 -555.5l-424 -554.5q-17 -21 -38.5 -31t-43.5 -10q-52 0 -83.5 35t-31.5 76q0 39 25 69z" />
    <glyph glyph-name="zero" unicode="0" horiz-adv-x="954" 
d="M59 981q0 86 33 161t89 131t132 89t162 33t162.5 -33t134 -89t90.5 -131t33 -161v-608q0 -86 -33 -161t-90.5 -132t-134 -90t-162.5 -33t-161 33t-132 90t-90 132t-33 161v608zM675 981q0 41 -15 77t-43 62.5t-64.5 42t-77.5 15.5q-82 0 -139.5 -57.5t-57.5 -139.5v-608
q0 -41 15.5 -77t43 -61.5t62.5 -41t76 -15.5q86 0 143 56.5t57 138.5v608z" />
    <glyph glyph-name="one" unicode="1" horiz-adv-x="495" 
d="M252 1309h-2q14 8 30.5 13t32.5 5q45 0 77 -31.5t32 -78.5v-1106q0 -48 -32 -79.5t-77 -31.5t-78 31.5t-33 79.5v913q-12 -6 -24 -14q-29 -17 -57 -17q-39 0 -74 30t-35 81q0 26 13.5 54t41.5 44l-2 -2z" />
    <glyph glyph-name="two" unicode="2" horiz-adv-x="964" 
d="M671 981q0 82 -57 138.5t-141 56.5q-39 0 -75 -14.5t-63.5 -40t-44 -60.5t-16.5 -74q0 -47 -31.5 -78.5t-76.5 -31.5q-48 0 -79.5 31.5t-31.5 78.5q0 84 34 159t91 130t133 88t160 33q86 0 162.5 -33t133 -90t89.5 -133t33 -162q0 -76 -25 -143.5t-70 -120.5l-387 -496
h391q46 0 78.5 -31.5t32.5 -76.5q0 -48 -32.5 -79.5t-78.5 -31.5h-634q-48 0 -79.5 31.5t-31.5 79.5q0 41 27 71l546 676q19 19 31 54.5t12 66.5v2z" />
    <glyph glyph-name="three" unicode="3" horiz-adv-x="929" 
d="M94 1034q0 74 29 140.5t79 115.5t116.5 78t142.5 29t142.5 -29t116.5 -78t78.5 -115.5t28.5 -142.5q0 -35 -4 -74.5t-14 -78.5t-28.5 -74t-49.5 -60q33 -28 60.5 -72t47 -95.5t30 -104.5t10.5 -100q0 -86 -33 -161t-89.5 -132t-133 -90t-162.5 -33t-162 33t-132 90
t-90 132t-34 161q0 47 31.5 78.5t79.5 31.5q45 0 77.5 -31.5t32.5 -78.5q0 -82 57.5 -138.5t139.5 -56.5q84 0 141 56.5t57 140.5q0 39 -15 79t-43 73.5t-63.5 55t-76.5 23.5q-45 0 -77 32t-32 77t32 87t77 42h6q43 2 70.5 19.5t43 45t20.5 59t5 60.5q0 59 -43 102.5
t-102 43.5q-62 0 -104 -42t-42 -102q0 -47 -32.5 -78.5t-77.5 -31.5q-47 0 -79 31.5t-32 78.5v4z" />
    <glyph glyph-name="four" unicode="4" horiz-adv-x="894" 
d="M551 1274h-2q14 26 40.5 38.5t53.5 12.5q47 0 79.5 -34t32.5 -74v-809q39 -9 65 -38.5t26 -70.5t-26 -70.5t-65 -38.5v-79q0 -48 -32.5 -79.5t-77.5 -31.5q-47 0 -79 31.5t-32 79.5v79h-415q-43 0 -76 34t-33 75q0 31 16 59zM534 801l-110.5 -190l-116.5 -201h227v391z
" />
    <glyph glyph-name="five" unicode="5" horiz-adv-x="944" 
d="M106 1241q0 47 32 79t79 32h512q47 0 78.5 -32t31.5 -79q0 -45 -31.5 -78t-78.5 -33h-404v-239q68 27 148 27q86 0 161.5 -33t133 -89.5t90.5 -131t33 -160.5v-139q0 -86 -33 -161t-90.5 -132.5t-133 -90t-161.5 -32.5t-162 32.5t-132 90t-90 132.5t-34 161
q0 47 31.5 78.5t79.5 31.5q45 0 76.5 -31.5t31.5 -85.5q2 -79 59.5 -133.5t139.5 -54.5q84 0 141 56.5t57 138.5v139q0 39 -15 74.5t-42 62.5t-63.5 42t-77.5 15q-51 0 -93 -22.5t-71 -59.5q-16 -16 -36.5 -34.5t-61.5 -18.5q-47 0 -76 31t-29 78v569z" />
    <glyph glyph-name="six" unicode="6" horiz-adv-x="946" 
d="M59 979q0 86 33 160.5t89 132t133 90.5t163 33q43 0 100 -15.5t108.5 -43t87.5 -64.5t36 -82q0 -47 -32 -79t-77 -32q-59 0 -90 43q-27 23 -61.5 37.5t-71.5 14.5q-84 0 -141.5 -56.5t-57.5 -138.5v-12q88 49 197 49q86 0 162.5 -33t134 -88t90.5 -130t33 -161v-229
q0 -86 -33 -161t-90.5 -132t-134 -90t-162.5 -33t-161 33t-132 90t-90 132t-33 161v604zM278 375q0 -41 15.5 -77t43 -61.5t62.5 -41t76 -15.5q86 0 143 56.5t57 138.5v229q0 39 -15 75t-43 63.5t-64.5 43t-77.5 15.5t-76 -15.5t-61.5 -41t-42 -59.5t-17.5 -73v-237z" />
    <glyph glyph-name="seven" unicode="7" horiz-adv-x="933" 
d="M802 1327q45 0 83 -29.5t38 -80.5q0 -27 -18 -60l-633 -1106q-17 -28 -41.5 -38.5t-46.5 -14.5q-47 0 -82 32.5t-35 78.5q0 28 18 57l135.5 238.5l132 231.5l133 231.5l136.5 238.5h-444q-48 0 -79.5 32.5t-31.5 78.5q0 47 31.5 78.5t79.5 31.5h624z" />
    <glyph glyph-name="eight" unicode="8" horiz-adv-x="933" 
d="M100 973q0 74 29 140.5t79 115.5t116.5 77.5t142.5 28.5t142.5 -28.5t116.5 -77.5t78.5 -115.5t28.5 -142.5q0 -70 -25.5 -133.5t-70.5 -112.5q66 -57 107 -140t41 -177q0 -86 -33 -161t-89.5 -132.5t-133 -90t-162.5 -32.5t-162 32.5t-132 90t-90 133.5t-34 162
q0 92 41 175t106 140q-45 49 -70.5 111.5t-25.5 134.5v2zM665 410q0 39 -15 73.5t-40.5 61t-61.5 43t-75 18.5h-6q-84 0 -141.5 -57t-57.5 -141q0 -82 58.5 -138.5t140.5 -56.5q84 0 141 56.5t57 140.5zM467 1112q-62 0 -105 -43t-43 -102q0 -60 44 -102t104 -42
q59 0 102 42t43 102q0 59 -43 102t-102 43z" />
    <glyph glyph-name="nine" unicode="9" horiz-adv-x="946" 
d="M51 979q0 86 33 160.5t90 132t134 90.5t163 33t160.5 -33t132 -90.5t90.5 -132t33 -160.5v-606q0 -86 -33 -161t-89.5 -132t-133 -90t-162.5 -33q-43 0 -100.5 15.5t-108.5 43t-87 64.5t-36 82q0 47 32 78.5t77 31.5q59 0 90 -43q26 -22 61 -36.5t72 -14.5q84 0 141 56.5
t57 138.5v12q-45 -25 -93 -38t-103 -13q-86 0 -163 32.5t-134 89t-90 131.5t-33 161v231zM270 748q0 -41 15.5 -77t43 -62.5t64.5 -42t78 -15.5q39 0 74.5 15.5t62.5 41t42 60t17 73.5v238q0 41 -15 77t-43 61.5t-63.5 41t-74.5 15.5q-86 0 -143.5 -56.5t-57.5 -138.5v-231z
" />
    <glyph glyph-name="colon" unicode=":" horiz-adv-x="335" 
d="M57 905q0 47 31.5 79t79.5 32q43 0 75.5 -32t32.5 -79q0 -45 -31.5 -76.5t-76.5 -31.5t-78 31.5t-33 76.5zM57 111q0 45 31.5 76.5t79.5 31.5q43 0 75.5 -31.5t32.5 -76.5q0 -48 -31.5 -79.5t-76.5 -31.5t-78 31.5t-33 79.5z" />
    <glyph glyph-name="semicolon" unicode=";" horiz-adv-x="344" 
d="M61 111q0 45 31.5 76.5t79.5 31.5q43 0 75.5 -31.5t32.5 -76.5v-156q0 -47 -31.5 -79t-76.5 -32t-78 32t-33 79v156zM61 905q0 47 31.5 79t79.5 32q43 0 75.5 -32t32.5 -79q0 -45 -31.5 -76.5t-76.5 -31.5t-78 31.5t-33 76.5z" />
    <glyph glyph-name="less" unicode="&#x3c;" horiz-adv-x="565" 
d="M305 918q16 22 38.5 30t45.5 8q49 0 79.5 -32.5t30.5 -75.5q0 -39 -22 -70l-105.5 -137l-107.5 -141l106.5 -138.5l106.5 -138.5q22 -28 22 -69t-30.5 -76t-79.5 -35q-51 0 -84 43l-268 348q-23 33 -23 64q0 39 25 73z" />
    <glyph glyph-name="equal" unicode="=" horiz-adv-x="872" 
d="M174 317q-46 0 -77.5 33t-31.5 78t31.5 78t77.5 33h522q47 0 78.5 -32t31.5 -79q0 -45 -31.5 -78t-78.5 -33h-522zM174 608q-46 0 -77.5 32t-31.5 79q0 43 31.5 75.5t77.5 32.5h522q47 0 78.5 -31.5t31.5 -76.5t-31.5 -78t-78.5 -33h-522z" />
    <glyph glyph-name="greater" unicode="&#x3e;" horiz-adv-x="569" 
d="M90 778q-25 33 -25 70q0 43 31.5 75.5t83.5 32.5q22 0 44.5 -8t39.5 -30l266 -349q22 -34 22 -67q0 -39 -24 -70l-264 -346q-37 -43 -84 -43q-52 0 -83.5 35t-31.5 76q0 39 25 69l106 139.5l109 139.5z" />
    <glyph glyph-name="question" unicode="?" horiz-adv-x="1007" 
d="M329 469q0 45 33 77t76 32q4 0 6 -1.5t6 -1.5h12q64 0 118 24t94 61.5t61.5 87t21.5 100.5q0 55 -20.5 103t-57.5 84t-86 57.5t-106 21.5q-88 0 -154.5 -49t-99.5 -125q-14 -31 -43 -47t-58 -16q-49 0 -77.5 33.5t-28.5 74.5q0 27 6 45q27 68 73 123t105.5 96t130 63.5
t146.5 22.5q100 0 190 -39t155.5 -104.5t104.5 -155.5t39 -190q0 -84 -30.5 -167t-88 -150.5t-138.5 -111.5t-179 -50q-12 -33 -40 -53.5t-62 -20.5q-45 0 -77 32.5t-32 77.5v66zM329 166q0 45 33 76.5t76 31.5q47 0 78.5 -31.5t31.5 -76.5v-55q0 -48 -32.5 -79.5
t-77.5 -31.5t-77 31.5t-32 79.5v55z" />
    <glyph glyph-name="at" unicode="@" horiz-adv-x="1085" 
d="M53 586q0 100 39 189t105.5 154.5t155.5 104.5t192 39q100 0 189 -39t155.5 -104.5t105.5 -154.5t39 -189v-164q0 -35 -12.5 -78t-40 -81t-71.5 -64.5t-107 -26.5h-261q-51 0 -97 20.5t-79.5 55.5t-54 81t-20.5 97v156q0 51 20.5 98t55 81t80.5 54.5t98 20.5
q51 0 98 -20.5t81 -54.5t54 -81t20 -98v-156v-16.5t-2 -16.5h7q8 0 10 10.5t2 18.5v164q0 55 -21.5 103t-58.5 84t-86 57.5t-104 21.5q-58 0 -107 -21.5t-86 -57.5t-57.5 -84t-20.5 -103v-164q0 -55 21.5 -103.5t58.5 -84t86 -57t105 -21.5h329q29 0 38 -22.5t-9 -43.5
q-68 -72 -160 -112.5t-198 -40.5q-101 0 -190 37.5t-156.5 104t-106.5 155t-39 188.5v164zM579 582q0 14 -10 24t-24 10q-15 0 -25 -10t-10 -24v-156q0 -14 10 -23.5t25 -9.5q14 0 24 9.5t10 23.5v156z" />
    <glyph glyph-name="A" unicode="A" 
d="M526 1292q32 68 102 68q10 0 21.5 -2t21.5 -8q43 -21 59 -58l488 -1140q10 -25 10 -43q0 -39 -29.5 -75t-81.5 -36q-75 0 -102 68l-127 296h-518l-64.5 -148l-62.5 -148q-16 -35 -43 -51.5t-59 -16.5q-52 0 -81.5 36t-29.5 75q0 10 2 22t6 21zM628 967q-23 -49 -42 -95.5
t-39.5 -91.5l-41 -92l-43.5 -100h330z" />
    <glyph glyph-name="B" unicode="B" horiz-adv-x="1110" 
d="M71 1239q0 47 33 80t80 33h385q61 0 115.5 -23.5t95.5 -63.5t64.5 -93.5t23.5 -114.5q0 -80 -37 -144q108 -65 172.5 -175.5t64.5 -245.5q0 -103 -38.5 -192t-106.5 -155.5t-159 -105.5t-193 -39h-387q-47 0 -80 33t-33 80v1126zM845 492q0 55 -21.5 103t-58.5 84
t-88 57.5t-108 23.5h-275v-537h277q57 0 107 21.5t87 57.5t58.5 85t21.5 105zM294 1128v-143h277q30 0 51.5 20.5t21.5 51.5q0 30 -22.5 50.5t-52.5 20.5h-275z" />
    <glyph glyph-name="C" unicode="C" horiz-adv-x="1069" 
d="M55 899q0 102 39 193.5t106.5 159t158.5 106.5t196 39q75 0 145 -21.5t129.5 -61.5t105.5 -94.5t74 -119.5q9 -15 12 -31t3 -29q0 -41 -29 -75.5t-82 -34.5q-70 0 -102 67q-31 76 -99.5 125t-156.5 49q-58 0 -108 -21.5t-88 -58t-59.5 -87t-21.5 -105.5v-444
q0 -56 22.5 -106t60.5 -87t88 -58.5t106 -21.5q88 0 156.5 50.5t101.5 125.5q14 29 43.5 47.5t56.5 18.5q51 0 81 -35t30 -76q0 -24 -8 -43q-27 -69 -73 -126.5t-105.5 -99.5t-131 -64.5t-151.5 -22.5q-103 0 -194 40t-158.5 107.5t-107.5 157.5t-40 193v444z" />
    <glyph glyph-name="D" unicode="D" horiz-adv-x="1124" 
d="M71 1239q0 47 33 80t80 33h385q104 0 195 -39t159 -105.5t106.5 -155.5t38.5 -192v-368q0 -103 -38.5 -192t-106.5 -155.5t-159 -105.5t-193 -39h-387q-47 0 -80 33t-33 80v1126zM294 1128v-905h277q57 0 107 21.5t87 57.5t58.5 85t21.5 105v368q0 55 -21.5 104.5
t-58.5 85t-88 57t-108 21.5h-275z" />
    <glyph glyph-name="E" unicode="E" horiz-adv-x="1136" 
d="M71 1239q0 47 33 80t80 33h774q47 0 78.5 -33t31.5 -80q0 -45 -31.5 -78t-78.5 -33h-664v-360h191q47 0 78.5 -31.5t31.5 -79.5q0 -47 -31.5 -79.5t-78.5 -32.5h-191v-322h664q47 0 78.5 -31.5t31.5 -78.5t-31.5 -80t-78.5 -33h-774q-47 0 -80 33t-33 80v1126z" />
    <glyph glyph-name="F" unicode="F" horiz-adv-x="1075" 
d="M71 1239q0 47 30.5 78t75.5 35h781q47 0 78.5 -33t31.5 -80q0 -45 -31.5 -78t-78.5 -33h-664v-360h191q47 0 78.5 -31.5t31.5 -79.5q0 -47 -31.5 -79.5t-78.5 -32.5h-191v-432q0 -47 -31.5 -80t-78.5 -33t-80 33t-33 80v1126z" />
    <glyph glyph-name="G" unicode="G" horiz-adv-x="1105" 
d="M57 897q0 102 40 193.5t107.5 159t158.5 106.5t194 39q78 0 149.5 -22.5t132 -63.5t106.5 -98.5t75 -127.5q4 -10 5 -21t1 -24q0 -41 -29 -75.5t-82 -34.5q-29 0 -57.5 16.5t-42.5 48.5q-33 78 -101.5 127t-156.5 49q-58 0 -108 -21.5t-87 -58t-58.5 -87t-21.5 -105.5
v-442q0 -56 21.5 -106t59.5 -87t88 -58.5t106 -21.5q57 0 107 21.5t87 58.5t58.5 87t21.5 106v55h-110q-48 0 -79.5 32.5t-31.5 80.5q0 45 31.5 77.5t79.5 32.5h223q47 0 79.5 -31.5t32.5 -78.5v-168q0 -103 -39.5 -193t-107.5 -157.5t-159 -107.5t-193 -40q-103 0 -194 40
t-158.5 107.5t-107.5 157.5t-40 193v442z" />
    <glyph glyph-name="H" unicode="H" horiz-adv-x="1140" 
d="M71 1239q0 47 33 80t80 33t78.5 -33t31.5 -80v-471h551v471q0 47 33 80t80 33t78.5 -33t31.5 -80v-1126q0 -47 -32.5 -80t-77.5 -33q-47 0 -80 33t-33 80v432h-551v-432q0 -47 -32.5 -80t-77.5 -33q-47 0 -80 33t-33 80v1126z" />
    <glyph glyph-name="I" unicode="I" horiz-adv-x="368" 
d="M69 1239q0 47 33 80t80 33q45 0 78.5 -33t33.5 -80v-1126q0 -47 -32.5 -80t-79.5 -33q-45 0 -79 33t-34 80v1126z" />
    <glyph glyph-name="J" unicode="J" horiz-adv-x="577" 
d="M127 217q65 0 112 45t51 111v866q0 47 33 80t80 33t79 -33t32 -80v-860q0 -80 -31 -150.5t-83 -123t-122.5 -83t-150.5 -30.5q-47 0 -80 32.5t-33 79.5q0 48 33 80.5t80 32.5z" />
    <glyph glyph-name="K" unicode="K" horiz-adv-x="1114" 
d="M71 1239q0 47 33 80t80 33q45 0 77.5 -33t32.5 -80v-238l201 163l201 163q32 25 69 25q43 0 77 -32t34 -81q0 -25 -9.5 -48.5t-29.5 -39.5l-367 -293l285 -338l285 -336q28 -34 28 -73q0 -43 -31.5 -77t-78.5 -34q-51 0 -88 39l-572 680l-4 -2v-604q0 -47 -31.5 -80
t-78.5 -33t-80 33t-33 80v1126z" />
    <glyph glyph-name="L" unicode="L" horiz-adv-x="1075" 
d="M71 1239q0 47 33 80t80 33q45 0 77.5 -33t32.5 -80v-1016h664q47 0 78.5 -31.5t31.5 -78.5t-31.5 -80t-78.5 -33h-774q-47 0 -80 33t-33 80v1126z" />
    <glyph glyph-name="M" unicode="M" horiz-adv-x="1771" 
d="M67 897q0 102 36 192.5t99.5 158t150.5 107.5t191 40q111 0 196 -41t144 -107q64 62 150 105t190 43q103 0 191 -40t152.5 -107.5t100 -158t35.5 -192.5v-784q0 -47 -32.5 -80t-77.5 -33q-47 0 -80 33t-33 80v784q0 55 -18.5 105.5t-52 87t-81 58t-104.5 21.5
q-55 0 -97 -21.5t-70.5 -58t-44 -87t-15.5 -105.5v-784q0 -47 -33 -80t-80 -33t-78.5 33t-31.5 80v786q0 55 -15.5 104.5t-45.5 86t-73 58t-96 21.5q-55 0 -102 -21.5t-81 -58t-52.5 -87t-18.5 -105.5v-784q0 -47 -32.5 -80t-79.5 -33q-48 0 -79.5 33t-31.5 80v784z" />
    <glyph glyph-name="N" unicode="N" horiz-adv-x="1124" 
d="M63 897q0 102 39 192.5t106.5 158t158.5 107.5t194 40q102 0 193 -40t159 -107.5t107.5 -158t39.5 -192.5v-784q0 -47 -31.5 -80t-78.5 -33q-45 0 -79 33t-34 80v784q0 55 -21.5 105.5t-59.5 87t-88 58t-107 21.5q-58 0 -108 -21.5t-87 -58t-58.5 -87t-21.5 -105.5v-784
q0 -47 -31.5 -80t-78.5 -33t-80 33t-33 80v784z" />
    <glyph glyph-name="O" unicode="O" horiz-adv-x="1114" 
d="M57 897q0 102 40 193.5t107.5 159t158.5 106.5t194 39q102 0 193 -39t159 -106.5t107.5 -159t39.5 -193.5v-442q0 -103 -39.5 -193t-107.5 -157.5t-159 -107.5t-193 -40q-103 0 -194 40t-158.5 107.5t-107.5 157.5t-40 193v442zM282 455q0 -56 21.5 -106t59.5 -87
t88 -58.5t106 -21.5q57 0 107 21.5t87 58.5t58.5 87t21.5 106v442q0 55 -21.5 105.5t-59.5 87t-88 58t-105 21.5q-58 0 -108 -21.5t-87 -58t-58.5 -87t-21.5 -105.5v-442z" />
    <glyph glyph-name="P" unicode="P" horiz-adv-x="1087" 
d="M71 1239q0 47 33 80t80 33h387q102 0 192 -39t158 -105.5t107.5 -155.5t39.5 -192q0 -102 -38.5 -192t-106.5 -157t-159 -105.5t-193 -38.5h-277v-254q0 -47 -31.5 -80t-78.5 -33t-80 33t-33 80v1126zM294 1128v-536h277q57 0 107 20.5t87 57.5t58.5 86t21.5 104
t-21.5 104.5t-59.5 85t-88 57t-105 21.5h-277z" />
    <glyph glyph-name="Q" unicode="Q" horiz-adv-x="1093" 
d="M47 899q0 102 40 193.5t107.5 159t158.5 106.5t194 39q102 0 193 -39t159 -106.5t107.5 -159t39.5 -193.5v-453q0 -88 -29.5 -166.5t-80.5 -143t-123 -109.5t-154 -64v-98q0 -47 -32.5 -80t-79.5 -33q-45 0 -78 33t-33 80v98q-84 19 -154.5 64t-123 109.5t-82 143
t-29.5 166.5v453zM272 446q0 -55 21.5 -105t59.5 -87t88 -58.5t106 -21.5q57 0 107 21.5t87 58.5t58.5 87t21.5 105v453q0 55 -21.5 105.5t-59.5 87t-88 58t-105 21.5q-58 0 -108 -21.5t-87 -58t-58.5 -87t-21.5 -105.5v-453z" />
    <glyph glyph-name="R" unicode="R" horiz-adv-x="1140" 
d="M71 1239q0 47 33 80t80 33h387q102 0 193 -39t159 -105.5t106.5 -155.5t38.5 -192q0 -137 -61.5 -246.5t-171.5 -173.5q53 -65 111.5 -128.5l111.5 -125.5q27 -32 27 -73q0 -47 -33 -81t-80 -34t-84 37l-262 305v-2q-12 12 -25.5 20.5t-27.5 8.5h-279v-254
q0 -47 -32.5 -80t-77.5 -33q-47 0 -80 33t-33 80v1126zM294 1128v-536h277q55 0 105 20.5t88 57.5t59.5 86t21.5 104t-21.5 104.5t-58.5 85t-87 57t-107 21.5h-277z" />
    <glyph glyph-name="S" unicode="S" horiz-adv-x="1095" 
d="M274 373q29 -66 100.5 -111t170.5 -45q53 0 103 11.5t89 36t62.5 61t23.5 90.5q0 51 -23.5 89t-61.5 61.5t-88 34.5t-105 11q-99 0 -182 21.5t-143 68t-95 116t-35 165.5q0 88 33 158.5t92 119t143 74t187 25.5q2 0 48 -4t108.5 -23.5t129 -62.5t113.5 -123
q6 -12 12 -29.5t6 -34.5q0 -36 -29.5 -73t-80.5 -37q-25 0 -48.5 11t-37.5 30l2 -2q-43 53 -91 88t-134 35q-127 0 -178.5 -46.5t-51.5 -105.5q0 -82 67.5 -114.5t164.5 -32.5q102 0 194 -27t161 -80t108.5 -131t39.5 -182q0 -107 -40.5 -186.5t-110.5 -132t-163 -79
t-198 -26.5q-20 0 -79.5 7t-131 37t-144.5 92t-122 173q-8 16 -10 29.5t-2 25.5q0 47 30.5 80t75.5 33q44 0 75.5 -28.5t47.5 -69.5z" />
    <glyph glyph-name="T" unicode="T" horiz-adv-x="1054" 
d="M139 1128q-48 0 -79.5 32t-31.5 79t31.5 80t79.5 33h774q47 0 79.5 -33t32.5 -80q0 -45 -32.5 -78t-79.5 -33h-275v-1015q0 -47 -32.5 -80t-79.5 -33q-45 0 -79 33t-34 80v1015h-274z" />
    <glyph glyph-name="U" unicode="U" horiz-adv-x="1124" 
d="M63 1239q0 47 33 80t80 33q45 0 77.5 -33t32.5 -80v-782q0 -56 22.5 -106t60.5 -87t88 -58.5t106 -21.5q57 0 107 21.5t87 58.5t58.5 87t21.5 106v782q0 47 33 80t80 33q45 0 77.5 -33t32.5 -80v-782q0 -103 -38.5 -193t-106.5 -157.5t-159 -107.5t-193 -40
q-103 0 -194 40t-158.5 107.5t-107.5 157.5t-40 193v782z" />
    <glyph glyph-name="V" unicode="V" horiz-adv-x="1259" 
d="M38 1198q-8 14 -8 43q0 43 29.5 78t81.5 35q32 0 59 -16.5t43 -51.5l385 -899l194.5 450.5l192.5 448.5q27 68 102 68q52 0 81.5 -35t29.5 -78q0 -10 -2 -21.5t-8 -21.5l-488 -1139q-14 -39 -59 -59q-16 -8 -43 -8q-70 0 -102 67z" />
    <glyph glyph-name="W" unicode="W" horiz-adv-x="1771" 
d="M67 1239q0 47 33 80t78 33q47 0 79.5 -33t32.5 -80v-784q0 -56 18.5 -106t52.5 -87t81 -58.5t104 -21.5q56 0 97.5 21.5t70.5 58.5t44.5 87t15.5 106v784q0 47 31.5 80t78.5 33t80 -33t33 -80v-786q0 -56 15.5 -105t45 -86t72.5 -58.5t96 -21.5q55 0 102.5 21.5t81 58.5
t52 87t18.5 106v784q0 47 33 80t80 33t78.5 -33t31.5 -80v-784q0 -103 -35.5 -193t-99 -157.5t-150.5 -107.5t-192 -40q-110 0 -196 40t-146 105q-65 -65 -146 -105t-192 -40q-102 0 -190 40t-152.5 107.5t-100.5 157.5t-36 193v784z" />
    <glyph glyph-name="X" unicode="X" horiz-adv-x="1220" 
d="M92 1171q-25 31 -25 70q0 45 31.5 79t83.5 34q22 0 45.5 -9.5t40.5 -31.5l344 -449l171 225.5l171 223.5q16 22 39.5 31.5t46.5 9.5q51 0 81.5 -34t30.5 -79q0 -16 -4 -34.5t-18 -35.5l-189.5 -246.5l-189.5 -246.5l190.5 -247l188.5 -247q14 -16 18 -34.5t4 -36.5
q0 -43 -30.5 -78t-81.5 -35q-49 0 -86 43l-342 446l-172 -222.5l-172 -223.5q-37 -43 -86 -43q-52 0 -83.5 35t-31.5 78q0 41 25 71l189 247l189 247z" />
    <glyph glyph-name="Y" unicode="Y" horiz-adv-x="1081" 
d="M40 1239q0 47 33 80t80 33q45 0 78.5 -33t33.5 -80v-377q0 -55 21.5 -104t59.5 -86t88 -58.5t108 -21.5q57 0 106 21.5t86 58.5t58.5 86t21.5 104v377q0 47 33 80t80 33q45 0 78.5 -33t33.5 -80v-377q0 -86 -29.5 -165t-80.5 -143.5t-123 -109.5t-154 -63v-268
q0 -47 -31.5 -80t-78.5 -33t-80 33t-33 80v268q-84 18 -154.5 63t-123 109.5t-82 143.5t-29.5 165v377z" />
    <glyph glyph-name="Z" unicode="Z" horiz-adv-x="1167" 
d="M200 1128q-47 0 -79.5 32t-32.5 79t32.5 80t79.5 33h754q55 0 94 -28t39 -81q0 -12 -5 -30.5t-16 -36.5l-671 -953h594q47 0 79.5 -31.5t32.5 -78.5t-32.5 -80t-79.5 -33h-797q-59 0 -93 31.5t-34 79.5q0 14 5 31.5t15 33.5l334 473.5l338 478.5h-557z" />
    <glyph glyph-name="bracketleft" unicode="[" horiz-adv-x="602" 
d="M71 1288q0 47 33 79t78 32h270q47 0 79 -33t32 -78t-32 -76.5t-79 -31.5h-160v-1370h160q47 0 79 -32t32 -77t-32 -78t-79 -33h-270q-45 0 -78 32t-33 79v1587z" />
    <glyph glyph-name="backslash" unicode="\" horiz-adv-x="1083" 
d="M33 1151q-25 31 -25 68q0 45 31.5 77.5t83.5 32.5q22 0 43.5 -9t38.5 -32l847 -1108q23 -28 23 -69t-30.5 -76t-80.5 -35q-22 0 -44.5 10t-39.5 31z" />
    <glyph glyph-name="bracketright" unicode="]" horiz-adv-x="604" 
d="M149 1180q-48 0 -79.5 31.5t-31.5 76.5t31.5 78t79.5 33h270q45 0 78 -32t33 -79v-1587q0 -47 -33 -79t-78 -32h-270q-48 0 -79.5 33t-31.5 78t31.5 77t79.5 32h161v1370h-161z" />
    <glyph glyph-name="asciicircum" unicode="^" horiz-adv-x="991" 
d="M429 1305q33 22 64 22q41 0 71 -24l348 -267q23 -16 31 -37.5t8 -44.5q0 -51 -32.5 -82.5t-77.5 -31.5q-37 0 -68 24l-137 105.5l-141 109.5l-138.5 -108l-138.5 -107q-30 -24 -69 -24q-41 0 -76 31.5t-35 82.5q0 23 10 44.5t31 37.5z" />
    <glyph glyph-name="underscore" unicode="_" horiz-adv-x="1116" 
d="M178 -152q-48 0 -79.5 33t-31.5 78t31.5 77t79.5 32h759q48 0 79.5 -33t31.5 -76q0 -47 -31.5 -79t-79.5 -32h-759z" />
    <glyph glyph-name="grave" unicode="`" horiz-adv-x="374" 
d="M54 1169v-2q-16 27 -16 60q0 43 33 75.5t80 32.5q59 0 92 -53l78 -135q10 -17 12 -31t2 -26q0 -46 -30.5 -77.5t-78.5 -31.5q-59 0 -94 53z" />
    <glyph glyph-name="a" unicode="a" horiz-adv-x="880" 
d="M55 645q0 78 29.5 146.5t82 121t121 82t148.5 29.5q78 0 147.5 -29.5t121.5 -82t82 -121t30 -146.5v-534q0 -48 -33 -79.5t-76 -31.5q-22 0 -45.5 12.5t-40.5 26.5q-88 -47 -186 -47q-78 0 -147.5 29.5t-122 82t-82 121t-29.5 146.5v274zM276 371q0 -66 47 -112t113 -46
q65 0 111.5 43t50.5 106v283q0 33 -13.5 61.5t-35 50t-51 34t-62.5 12.5q-68 0 -114 -46t-46 -112v-274z" />
    <glyph glyph-name="b" unicode="b" horiz-adv-x="856" 
d="M65 1239q0 47 31.5 79t79.5 32q43 0 75.5 -32t32.5 -79v-252q37 17 77 27t85 10q80 0 148.5 -29.5t120.5 -82t82 -121t30 -146.5v-274q0 -78 -30 -146.5t-82 -121t-121.5 -82t-147.5 -29.5q-80 0 -148.5 29.5t-121 82t-82 121t-29.5 146.5v868zM284 371q0 -66 47 -112
t115 -46q33 0 62.5 12.5t51 34t35 50t13.5 61.5v274q0 66 -47 112t-115 46q-66 0 -112 -44t-50 -108v-280z" />
    <glyph glyph-name="c" unicode="c" horiz-adv-x="839" 
d="M53 645q0 80 30.5 149.5t84 120t124 80t150.5 29.5q14 0 57 -6t95.5 -29.5t104.5 -71t87 -131.5q4 -8 6 -18t2 -20q0 -48 -31.5 -79.5t-78.5 -31.5q-33 0 -60.5 18.5t-40.5 49.5q-20 45 -61 71.5t-88 26.5q-68 0 -115 -46t-47 -112v-274q0 -33 13.5 -61.5t35 -50t51 -34
t62.5 -12.5q47 0 88 25.5t61 72.5q13 29 39.5 48.5t61.5 19.5q47 0 78.5 -33t31.5 -78q0 -16 -10 -41q-41 -92 -100.5 -140t-114.5 -69.5t-94 -23.5t-41 -2q-78 0 -147.5 29.5t-122 82t-82 121t-29.5 146.5v274z" />
    <glyph glyph-name="d" unicode="d" horiz-adv-x="858" 
d="M569 1239q0 47 32.5 79t77.5 32t78 -32t33 -79v-868q0 -78 -30 -146.5t-82 -121t-121.5 -82t-147.5 -29.5q-80 0 -148.5 29.5t-121 82t-82 121t-29.5 146.5v274q0 78 29.5 146.5t82 121t122 82t147.5 29.5q43 0 83 -11.5t77 -27.5v254zM247 371q0 -66 46 -112t116 -46
q65 0 112.5 46t47.5 112v274q0 66 -46 112t-114 46q-33 0 -62.5 -12.5t-51 -34t-35 -50t-13.5 -61.5v-274z" />
    <glyph glyph-name="e" unicode="e" horiz-adv-x="870" 
d="M55 645q0 78 29.5 146.5t82 121t121 82t148.5 29.5q78 0 147.5 -29.5t121.5 -82t82 -121t30 -146.5v-137q0 -47 -32 -79t-77 -32h-432v-26q0 -66 47 -112t113 -46q25 0 56.5 6t60.5 41q12 14 30.5 29.5t40 24t46 7t49.5 -19.5q32 -22 43.5 -64t-21.5 -90
q-45 -59 -116.5 -107t-188.5 -48q-78 0 -147.5 29.5t-122 82t-82 121t-29.5 146.5v274zM276 618h322v27q0 33 -13.5 61.5t-35 50t-51 34t-62.5 12.5q-68 0 -114 -46t-46 -112v-27z" />
    <glyph glyph-name="f" unicode="f" horiz-adv-x="815" 
d="M65 971q0 80 30.5 149.5t83 119.5t123 80t150.5 30q14 0 55 -5.5t93.5 -29t105.5 -71.5t90 -132q10 -25 10 -39q0 -47 -31.5 -78.5t-78.5 -31.5q-76 0 -103 69l2 -2q-20 47 -61 73.5t-88 26.5q-33 0 -62.5 -13t-51 -34.5t-35 -50t-13.5 -61.5v-353h168q45 0 77 -32.5
t32 -77.5q0 -47 -32 -79t-77 -32h-168v-286q0 -48 -32.5 -79.5t-77.5 -31.5q-46 0 -77.5 31.5t-31.5 79.5v860z" />
    <glyph glyph-name="g" unicode="g" horiz-adv-x="864" 
d="M40 645q0 78 29.5 146.5t82 121t121 82t148.5 29.5q78 0 146.5 -29.5t120.5 -82t83 -121t31 -146.5v-600q0 -78 -31 -147.5t-83 -120.5t-120.5 -81t-146.5 -30q-47 0 -79 32t-32 79q0 45 32 76.5t79 31.5q59 0 105 42t53 102q-74 -37 -158 -37q-78 0 -147.5 29.5t-122 82
t-82 121t-29.5 146.5v274zM259 371q0 -33 13.5 -61.5t35 -50t51 -34t62.5 -12.5q63 0 109.5 43t50.5 106v283q0 66 -47.5 112t-112.5 46q-70 0 -116 -46t-46 -112v-274z" />
    <glyph glyph-name="h" unicode="h" horiz-adv-x="866" 
d="M71 1239q0 47 31.5 79t79.5 32q43 0 75.5 -32t32.5 -79v-252q37 17 77 27t85 10q78 0 147.5 -29.5t121.5 -82t82 -121t30 -146.5v-534q0 -48 -33 -79.5t-78 -31.5t-76.5 31.5t-31.5 79.5v534q0 66 -48.5 112t-113.5 46q-68 0 -113 -44t-49 -110v-538q0 -48 -32.5 -79.5
t-75.5 -31.5q-48 0 -79.5 31.5t-31.5 79.5v1128z" />
    <glyph glyph-name="i" unicode="i" horiz-adv-x="360" 
d="M69 905q0 47 31.5 79t77.5 32q45 0 77.5 -32t32.5 -79v-794q0 -48 -31.5 -79.5t-78.5 -31.5q-43 0 -76 31.5t-33 79.5v794zM69 1239q0 47 31.5 79t77.5 32q45 0 77.5 -32t32.5 -79v-55q0 -45 -31.5 -77t-78.5 -32q-43 0 -76 32t-33 77v55z" />
    <glyph glyph-name="j" unicode="j" horiz-adv-x="567" 
d="M121 -115q65 0 111 45t50 109v866q0 47 33 79t78 32t76.5 -32t31.5 -79v-860q0 -78 -29.5 -147.5t-81.5 -120.5t-122 -81t-147 -30q-46 0 -77.5 32t-31.5 79q0 45 31.5 76.5t77.5 31.5zM282 1239q0 47 32 79t79 32q43 0 75.5 -32t32.5 -79v-55q0 -45 -31.5 -77t-76.5 -32
t-78 32t-33 77v55z" />
    <glyph glyph-name="k" unicode="k" horiz-adv-x="866" 
d="M71 1217q0 47 31.5 78.5t79.5 31.5q43 0 75.5 -31.5t32.5 -78.5v-469l156 124.5l155 126.5q31 25 70 25q41 0 74 -30.5t33 -80.5q0 -24 -8.5 -46.5t-28.5 -39.5l-277 -223l178 -211.5l181 -212.5q26 -33 26 -71q0 -41 -31.5 -75t-76.5 -34q-54 0 -86 39l-363 430l-2 -2
v-356q0 -48 -31.5 -79.5t-76.5 -31.5t-78 31.5t-33 79.5v1106z" />
    <glyph glyph-name="l" unicode="l" horiz-adv-x="364" 
d="M69 1217q0 47 31.5 78.5t77.5 31.5q45 0 77.5 -31.5t32.5 -78.5v-1106q0 -48 -31.5 -79.5t-78.5 -31.5q-43 0 -76 31.5t-33 79.5v1106z" />
    <glyph glyph-name="m" unicode="m" horiz-adv-x="1361" 
d="M67 645q0 78 26.5 146.5t75 121t114 82t144.5 29.5q76 0 140.5 -28.5t111.5 -75.5q50 51 112 77.5t142 26.5q78 0 144.5 -29.5t115 -82t75 -121t26.5 -146.5v-534q0 -48 -33 -79.5t-76 -31.5q-47 0 -78.5 31.5t-31.5 79.5v534q0 66 -39 112t-103 46q-67 0 -105 -46
t-38 -112v-534q0 -48 -33 -79.5t-78 -31.5t-76.5 31.5t-31.5 79.5v534q0 66 -39 112t-105 46q-65 0 -103 -46t-38 -112v-534q0 -48 -32.5 -79.5t-77.5 -31.5q-46 0 -77.5 31.5t-31.5 79.5v534z" />
    <glyph glyph-name="n" unicode="n" horiz-adv-x="888" 
d="M63 645q0 78 29.5 146.5t82 121t121 82t148.5 29.5q78 0 147.5 -29.5t121.5 -82t82 -121t30 -146.5v-534q0 -48 -33 -79.5t-78 -31.5t-76.5 31.5t-31.5 79.5v534q0 33 -13.5 61.5t-35 50t-51 34t-62.5 12.5q-68 0 -115 -46t-47 -112v-534q0 -48 -32.5 -79.5t-75.5 -31.5
q-48 0 -79.5 31.5t-31.5 79.5v534z" />
    <glyph glyph-name="o" unicode="o" horiz-adv-x="872" 
d="M55 645q0 78 29.5 146.5t82 121t121 82t148.5 29.5q78 0 147.5 -29.5t121.5 -82t82 -121t30 -146.5v-274q0 -78 -30 -146.5t-82 -121t-120.5 -82t-148.5 -29.5q-78 0 -147.5 29.5t-122 82t-82 121t-29.5 146.5v274zM276 371q0 -66 47 -112t113 -46q70 0 116 46t46 112
v274q0 33 -13.5 61.5t-35 50t-51 34t-62.5 12.5q-68 0 -114 -46t-46 -112v-274z" />
    <glyph glyph-name="p" unicode="p" horiz-adv-x="854" 
d="M65 645q0 78 29.5 146.5t82 121t121 82t148.5 29.5q78 0 147.5 -29.5t121.5 -82t82 -121t30 -146.5v-274q0 -78 -30 -146.5t-82 -121t-120.5 -82t-148.5 -29.5q-43 0 -85 10t-77 27v-252q0 -47 -32.5 -79t-75.5 -32q-48 0 -79.5 32t-31.5 79v868zM284 371
q0 -33 13.5 -61.5t35 -50t51 -34t62.5 -12.5q68 0 115 46t47 112v274q0 33 -13.5 61.5t-35 50t-51 34t-62.5 12.5q-68 0 -115 -46t-47 -112v-274z" />
    <glyph glyph-name="q" unicode="q" horiz-adv-x="856" 
d="M26 645q0 78 29.5 146.5t82 121t122 82t147.5 29.5q80 0 148.5 -29.5t120.5 -82t82 -121t30 -146.5v-868q0 -47 -32 -79t-79 -32q-45 0 -77.5 32t-32.5 79v252q-37 -17 -76 -27t-84 -10q-80 0 -148.5 29.5t-121 82t-82 121t-29.5 146.5v274zM245 371q0 -66 46 -112
t116 -46q65 0 112.5 46t47.5 112v274q0 66 -46 112t-114 46q-33 0 -62.5 -12.5t-51 -34t-35 -50t-13.5 -61.5v-274z" />
    <glyph glyph-name="r" unicode="r" horiz-adv-x="716" 
d="M71 905q0 47 31.5 79t77.5 32q51 0 86 -41q88 49 192 49l39 -4t85 -18.5t85 -45t39 -82.5q0 -49 -32 -79.5t-79 -30.5q-35 0 -65 20q-19 11 -37.5 15t-40.5 4q-68 0 -113 -44t-49 -108v-540q0 -48 -31.5 -79.5t-78.5 -31.5q-43 0 -76 31.5t-33 79.5v794z" />
    <glyph glyph-name="s" unicode="s" horiz-adv-x="860" 
d="M69 721q0 67 27 122.5t75 95.5t114.5 62.5t144.5 22.5q63 -2 123 -20q51 -17 104 -49.5t88 -94.5q19 -31 19 -61q0 -45 -31 -77t-76 -32q-22 0 -46.5 11.5t-41.5 33.5v-2q-29 37 -59.5 53.5t-79.5 16.5q-64 0 -102.5 -23.5t-38.5 -58.5q0 -47 37.5 -65.5t103.5 -18.5
q78 0 147.5 -20.5t121.5 -61.5t82 -100.5t30 -139.5q0 -82 -31 -142t-83 -100t-122.5 -60.5t-148.5 -20.5q-17 0 -62 5t-100 27.5t-111.5 70.5t-93.5 132q-8 17 -8 41q0 45 31.5 78t79.5 33q34 0 61 -19.5t39 -48.5q20 -47 69.5 -72.5t98.5 -25.5q65 0 113.5 21.5t48.5 80.5
q0 60 -46 81.5t-116 21.5q-78 0 -144.5 15.5t-114.5 50t-75 93t-27 144.5z" />
    <glyph glyph-name="t" unicode="t" horiz-adv-x="819" 
d="M65 1219q0 47 31.5 78.5t77.5 31.5q45 0 77.5 -31.5t32.5 -78.5v-203h330q47 0 78.5 -32t31.5 -79q0 -43 -31.5 -75.5t-78.5 -32.5h-330v-426q0 -33 13.5 -61.5t35 -50t51 -34t62.5 -12.5q47 0 88 25.5t61 72.5q13 29 39.5 48.5t61.5 19.5q47 0 78.5 -33t31.5 -78
q0 -16 -10 -41q-41 -92 -100.5 -140t-114.5 -69.5t-94 -23.5t-41 -2q-78 0 -147.5 29.5t-122 82t-82 121t-29.5 146.5v848z" />
    <glyph glyph-name="u" unicode="u" horiz-adv-x="888" 
d="M63 905q0 47 31.5 79t79.5 32q43 0 75.5 -32t32.5 -79v-534q0 -66 47 -112t115 -46q33 0 62.5 12.5t51 34t35 50t13.5 61.5v534q0 47 31.5 79t76.5 32t78 -32t33 -79v-534q0 -78 -30 -146.5t-82 -121t-121.5 -82t-147.5 -29.5q-80 0 -148.5 29.5t-121 82t-82 121
t-29.5 146.5v534z" />
    <glyph glyph-name="v" unicode="v" horiz-adv-x="974" 
d="M40 864q-8 17 -8 43q0 41 28.5 76t80.5 35q32 0 59 -16.5t41 -49.5l246 -573l124.5 286.5l122.5 286.5q29 66 101 66q49 0 77.5 -35t28.5 -76q0 -10 -2 -21.5t-6 -21.5l-346 -805q-29 -67 -100 -67q-76 0 -103 69l2 -2z" />
    <glyph glyph-name="w" unicode="w" horiz-adv-x="1361" 
d="M67 905q0 47 33 79t76 32q47 0 78.5 -32t31.5 -79v-534q0 -66 39 -112t102 -46q68 0 106 46t38 112v534q0 47 32.5 79t75.5 32q47 0 79 -32t32 -79v-534q0 -66 39 -112t104 -46q66 0 104 46t38 112v534q0 47 32.5 79t77.5 32t77 -32t32 -79v-534q0 -78 -26.5 -146.5
t-75 -121t-114 -82t-145.5 -29.5q-78 0 -141 28.5t-113 75.5q-47 -51 -109.5 -77.5t-142.5 -26.5q-77 0 -143.5 29.5t-115 82t-75 121t-26.5 146.5v534z" />
    <glyph glyph-name="x" unicode="x" horiz-adv-x="1011" 
d="M92 834h2q-15 16 -21 34.5t-6 34.5q0 45 31.5 78t83.5 33q22 0 43.5 -8.5t38.5 -30.5v2l62 -77l58.5 -70.5l57 -70.5l63.5 -77l120 146.5l120 148.5v-2q16 22 38.5 30.5t45.5 8.5q49 0 80.5 -33t31.5 -78q0 -39 -24 -69l-135.5 -163l-136.5 -165l135.5 -164l136.5 -164
q24 -31 24 -72q0 -40 -31.5 -75t-80.5 -35q-47 0 -84 43v-2l-62.5 75.5l-57.5 68.5l-57.5 70l-62.5 77l-120.5 -145.5l-120.5 -145.5v2q-17 -21 -38.5 -32t-43.5 -11q-52 0 -83.5 35t-31.5 75q0 41 27 72h-2l133.5 165l134.5 165z" />
    <glyph glyph-name="y" unicode="y" horiz-adv-x="854" 
d="M45 905q0 47 31.5 79t79.5 32q45 0 77.5 -32t32.5 -79v-534q0 -66 46 -112t114 -46q33 0 62.5 12.5t51 34t35 50t13.5 61.5v534q0 47 31.5 79t78.5 32q43 0 76 -32t33 -79v-534q0 -66 -20.5 -124.5t-56.5 -105.5t-85 -81.5t-108 -51.5v-231q0 -47 -32 -79t-79 -32
q-43 0 -76 32t-33 79v231q-59 17 -109 51.5t-86 81.5t-56.5 105.5t-20.5 124.5v534z" />
    <glyph glyph-name="z" unicode="z" horiz-adv-x="923" 
d="M204 797q-47 0 -78.5 31.5t-31.5 76.5t31.5 78t78.5 33h514q54 0 92.5 -26.5t38.5 -80.5q0 -12 -5 -29.5t-17 -35.5l-436 -625h356q45 0 77 -31.5t32 -76.5t-32 -78t-77 -33h-559q-57 0 -91 30.5t-34 78.5q0 34 23 63v-2l112 162l106.5 151.5l107.5 151.5l114 162h-322z
" />
    <glyph glyph-name="braceleft" unicode="{" horiz-adv-x="688" 
d="M202 1061q0 76 30 143.5t80 117.5t117.5 79t143.5 29q33 0 55.5 -23t22.5 -55q0 -33 -22.5 -55.5t-55.5 -22.5q-43 0 -82 -16.5t-67.5 -44t-46 -64.5t-19.5 -80v-498q0 -28 -20.5 -50.5t-49.5 -26.5q29 -5 49.5 -27.5t20.5 -50.5v-498q2 -43 19.5 -80t46 -64.5t67.5 -44
t82 -16.5q33 0 55.5 -22.5t22.5 -55.5q0 -32 -22.5 -54.5t-55.5 -22.5q-76 0 -143.5 28.5t-117.5 78.5t-80 117.5t-30 143.5v420q0 25 -22.5 47.5t-46.5 22.5h-41q-33 0 -55.5 22.5t-22.5 55.5q0 30 22.5 53.5t55.5 23.5h41q24 0 46.5 21.5t22.5 46.5v422z" />
    <glyph glyph-name="bar" unicode="|" horiz-adv-x="309" 
d="M73 1280q0 33 22.5 55.5t55.5 22.5q31 0 54.5 -22.5t23.5 -55.5v-1563q0 -32 -22.5 -54.5t-55.5 -22.5q-31 0 -54.5 22.5t-23.5 54.5v1563z" />
    <glyph glyph-name="braceright" unicode="}" horiz-adv-x="688" 
d="M329 1069q-2 43 -19.5 80t-47 64.5t-67.5 44t-81 16.5q-33 0 -55.5 22.5t-22.5 55.5q0 32 22.5 55t55.5 23q76 0 143.5 -29t117.5 -79t80 -117.5t30 -143.5v-422q0 -25 22.5 -46.5t46.5 -21.5h41q33 0 55.5 -23.5t22.5 -53.5q0 -33 -22.5 -55.5t-55.5 -22.5h-41
q-24 0 -46.5 -22.5t-22.5 -47.5v-420q0 -76 -30 -143.5t-80 -117.5t-117.5 -78.5t-143.5 -28.5q-33 0 -55.5 22.5t-22.5 54.5q0 33 22.5 55.5t55.5 22.5q43 0 81 16.5t67.5 44t47 64.5t19.5 80v498q0 28 20.5 50.5t48.5 27.5q-28 4 -48.5 26.5t-20.5 50.5v498z" />
    <glyph glyph-name="asciitilde" unicode="~" horiz-adv-x="1105" 
d="M463 395q-17 15 -43.5 21t-48.5 6q-35 0 -69 -15.5t-58 -44.5v3q-33 -43 -84 -43q-50 0 -80.5 35.5t-30.5 76.5q0 37 25 68q57 69 135 105t159 36q62 0 123.5 -20.5t116.5 -65.5l35 -31q18 -14 44 -21t48 -7q76 0 127 61v-2q16 23 38.5 32t47.5 9q47 0 78 -35t31 -76
q0 -36 -25 -67q-57 -72 -135 -106.5t-164 -34.5q-59 2 -121.5 21t-116.5 65z" />
    <glyph glyph-name="dieresis" unicode="&#xa8;" horiz-adv-x="1024" 
 />
    <glyph glyph-name="copyright" unicode="&#xa9;" horiz-adv-x="1529" 
 />
    <glyph glyph-name="registered" unicode="&#xae;" horiz-adv-x="1529" 
 />
    <glyph glyph-name="acute" unicode="&#xb4;" horiz-adv-x="1024" 
 />
    <glyph glyph-name="paragraph" unicode="&#xb6;" horiz-adv-x="1024" 
d="M929 1435v-70h-127v-1365h-82v1365h-166v-1365h-84v738q-174 8 -275.5 102.5t-101.5 245.5q0 157 107.5 253t285.5 96h443z" />
    <glyph glyph-name="onequarter" unicode="&#xbc;" horiz-adv-x="1298" 
 />
    <glyph glyph-name="onehalf" unicode="&#xbd;" horiz-adv-x="1320" 
 />
    <glyph glyph-name="threequarters" unicode="&#xbe;" horiz-adv-x="1288" 
 />
    <glyph glyph-name="Agrave" unicode="&#xc0;" 
d="M526 1292q32 68 102 68q10 0 21.5 -2t21.5 -8q43 -21 59 -58l488 -1140q10 -25 10 -43q0 -39 -29.5 -75t-81.5 -36q-75 0 -102 68l-127 296h-518l-64.5 -148l-62.5 -148q-16 -35 -43 -51.5t-59 -16.5q-52 0 -81.5 36t-29.5 75q0 10 2 22t6 21zM628 967q-23 -49 -42 -95.5
t-39.5 -91.5l-41 -92l-43.5 -100h330zM436 1671v-2q-17 27 -17 60q0 43 33 75.5t80 32.5q59 0 92 -53l78 -135q10 -17 12 -31t2 -27q0 -45 -30.5 -76.5t-77.5 -31.5q-60 0 -95 53z" />
    <glyph glyph-name="Aacute" unicode="&#xc1;" 
d="M526 1292q32 68 102 68q10 0 21.5 -2t21.5 -8q43 -21 59 -58l488 -1140q10 -25 10 -43q0 -39 -29.5 -75t-81.5 -36q-75 0 -102 68l-127 296h-518l-64.5 -148l-62.5 -148q-16 -35 -43 -51.5t-59 -16.5q-52 0 -81.5 36t-29.5 75q0 10 2 22t6 21zM628 967q-23 -49 -42 -95.5
t-39.5 -91.5l-41 -92l-43.5 -100h330zM634 1784q33 53 94 53q47 0 78 -32.5t31 -75.5q0 -15 -2 -30.5t-12 -29.5v2l-39.5 -66.5t-38.5 -68.5q-33 -53 -92 -53q-48 0 -80.5 31.5t-32.5 76.5q0 29 16 58z" />
    <glyph glyph-name="uni1EA2" unicode="&#x1ea2;" 
d="M526 1292q32 68 102 68q10 0 21.5 -2t21.5 -8q43 -21 59 -58l488 -1140q10 -25 10 -43q0 -39 -29.5 -75t-81.5 -36q-75 0 -102 68l-127 296h-518l-64.5 -148l-62.5 -148q-16 -35 -43 -51.5t-59 -16.5q-52 0 -81.5 36t-29.5 75q0 10 2 22t6 21zM628 967q-23 -49 -42 -95.5
t-39.5 -91.5l-41 -92l-43.5 -100h330zM553 1566q0 32 22.5 53.5t61.5 21.5q14 0 26.5 5t21.5 13.5t13 19t4 20.5q0 12 -4 22t-12 17.5t-18.5 12t-22.5 4.5q-19 0 -33 -10.5t-22 -28.5q-10 -22 -29.5 -33t-39.5 -11q-34 0 -54 23.5t-20 51.5q0 15 4 28q12 30 31.5 53.5t45 41
t55.5 27t62 9.5q43 0 81 -16.5t66 -44.5t44.5 -66t16.5 -81q0 -36 -13 -71t-37.5 -64t-59 -47.5t-46 -20.5t-28.5 -14.5t-41 -12.5q-32 0 -53.5 22.5t-21.5 53.5v22z" />
    <glyph glyph-name="Atilde" unicode="&#xc3;" 
d="M526 1292q32 68 102 68q10 0 21.5 -2t21.5 -8q43 -21 59 -58l488 -1140q10 -25 10 -43q0 -39 -29.5 -75t-81.5 -36q-75 0 -102 68l-127 296h-518l-64.5 -148l-62.5 -148q-16 -35 -43 -51.5t-59 -16.5q-52 0 -81.5 36t-29.5 75q0 10 2 22t6 21zM628 967q-23 -49 -42 -95.5
t-39.5 -91.5l-41 -92l-43.5 -100h330zM343 1640q0 39 23.5 66t57.5 42t72 21.5t64 6.5q29 0 64 -13h-2q16 -4 32.5 -7t39.5 -3q41 0 57 3t22 7h-2q19 13 37 13q45 0 78 -32t33 -79q0 -39 -24.5 -64.5t-58.5 -41t-71 -21.5t-61 -6q-49 0 -117 20h4h-22q-41 0 -60.5 -6
t-29.5 -10q-5 -2 -8 -3t-15 -1q-43 0 -78 31.5t-35 76.5z" />
    <glyph glyph-name="uni1EA0" unicode="&#x1ea0;" 
d="M526 1292q32 68 102 68q10 0 21.5 -2t21.5 -8q43 -21 59 -58l488 -1140q10 -25 10 -43q0 -39 -29.5 -75t-81.5 -36q-75 0 -102 68l-127 296h-518l-64.5 -148l-62.5 -148q-16 -35 -43 -51.5t-59 -16.5q-52 0 -81.5 36t-29.5 75q0 10 2 22t6 21zM628 967q-23 -49 -42 -95.5
t-39.5 -91.5l-41 -92l-43.5 -100h330zM509 -220q0 49 35 84t84 35t85 -35t36 -84q0 -52 -34.5 -86.5t-86.5 -34.5q-47 0 -83 34.5t-36 86.5z" />
    <glyph glyph-name="Acircumflex" unicode="&#xc2;" 
d="M526 1292q32 68 102 68q10 0 21.5 -2t21.5 -8q43 -21 59 -58l488 -1140q10 -25 10 -43q0 -39 -29.5 -75t-81.5 -36q-75 0 -102 68l-127 296h-518l-64.5 -148l-62.5 -148q-16 -35 -43 -51.5t-59 -16.5q-52 0 -81.5 36t-29.5 75q0 10 2 22t6 21zM628 967q-23 -49 -42 -95.5
t-39.5 -91.5l-41 -92l-43.5 -100h330zM571 1733q26 18 55 18q37 0 66 -22l124 -91q23 -16 35.5 -40.5t12.5 -47.5q0 -47 -36 -78.5t-79 -31.5q-17 0 -32 4t-30 16q-20 15 -31.5 21t-31.5 20q-16 -10 -27.5 -20.5t-27.5 -20.5q-33 -20 -64 -20q-47 0 -80 31.5t-33 78.5
q0 23 12.5 47.5t35.5 40.5z" />
    <glyph glyph-name="uni1EA6" unicode="&#x1ea6;" 
d="M526 1292q32 68 102 68q10 0 21.5 -2t21.5 -8q43 -21 59 -58l488 -1140q10 -25 10 -43q0 -39 -29.5 -75t-81.5 -36q-75 0 -102 68l-127 296h-518l-64.5 -148l-62.5 -148q-16 -35 -43 -51.5t-59 -16.5q-52 0 -81.5 36t-29.5 75q0 10 2 22t6 21zM628 967q-23 -49 -42 -95.5
t-39.5 -91.5l-41 -92l-43.5 -100h330zM660 1896v-2q-17 27 -17 60q0 43 33 75.5t80 32.5q59 0 92 -53l78 -135q10 -17 12 -31t2 -27q0 -45 -30.5 -76.5t-77.5 -31.5q-60 0 -95 53zM571 1733q26 18 55 18q37 0 66 -22l124 -91q23 -16 35.5 -40.5t12.5 -47.5q0 -47 -36 -78.5
t-79 -31.5q-17 0 -32 4t-30 16q-20 15 -31.5 21t-31.5 20q-16 -10 -27.5 -20.5t-27.5 -20.5q-33 -20 -64 -20q-47 0 -80 31.5t-33 78.5q0 23 12.5 47.5t35.5 40.5z" />
    <glyph glyph-name="uni1EA4" unicode="&#x1ea4;" 
d="M526 1292q32 68 102 68q10 0 21.5 -2t21.5 -8q43 -21 59 -58l488 -1140q10 -25 10 -43q0 -39 -29.5 -75t-81.5 -36q-75 0 -102 68l-127 296h-518l-64.5 -148l-62.5 -148q-16 -35 -43 -51.5t-59 -16.5q-52 0 -81.5 36t-29.5 75q0 10 2 22t6 21zM628 967q-23 -49 -42 -95.5
t-39.5 -91.5l-41 -92l-43.5 -100h330zM850 2000q33 53 94 53q47 0 78 -32.5t31 -75.5q0 -15 -2 -30.5t-12 -29.5v2l-39.5 -66.5t-38.5 -68.5q-33 -53 -92 -53q-48 0 -80.5 31.5t-32.5 76.5q0 29 16 58zM571 1733q26 18 55 18q37 0 66 -22l124 -91q23 -16 35.5 -40.5
t12.5 -47.5q0 -47 -36 -78.5t-79 -31.5q-17 0 -32 4t-30 16q-20 15 -31.5 21t-31.5 20q-16 -10 -27.5 -20.5t-27.5 -20.5q-33 -20 -64 -20q-47 0 -80 31.5t-33 78.5q0 23 12.5 47.5t35.5 40.5z" />
    <glyph glyph-name="uni1EA8" unicode="&#x1ea8;" 
d="M526 1292q32 68 102 68q10 0 21.5 -2t21.5 -8q43 -21 59 -58l488 -1140q10 -25 10 -43q0 -39 -29.5 -75t-81.5 -36q-75 0 -102 68l-127 296h-518l-64.5 -148l-62.5 -148q-16 -35 -43 -51.5t-59 -16.5q-52 0 -81.5 36t-29.5 75q0 10 2 22t6 21zM628 967q-23 -49 -42 -95.5
t-39.5 -91.5l-41 -92l-43.5 -100h330zM760 1799q0 32 22.5 53.5t61.5 21.5q14 0 26.5 5t21.5 13.5t13 19t4 20.5q0 12 -4 22t-12 17.5t-18.5 12t-22.5 4.5q-19 0 -33 -10.5t-22 -28.5q-10 -22 -29.5 -33t-39.5 -11q-34 0 -54 23.5t-20 51.5q0 15 4 28q12 30 31.5 53.5t45 41
t55.5 27t62 9.5q43 0 81 -16.5t66 -44.5t44.5 -66t16.5 -81q0 -36 -13 -71t-37.5 -64t-59 -47.5t-46 -20.5t-28.5 -14.5t-41 -12.5q-32 0 -53.5 22.5t-21.5 53.5v22zM571 1733q26 18 55 18q37 0 66 -22l124 -91q23 -16 35.5 -40.5t12.5 -47.5q0 -47 -36 -78.5t-79 -31.5
q-17 0 -32 4t-30 16q-20 15 -31.5 21t-31.5 20q-16 -10 -27.5 -20.5t-27.5 -20.5q-33 -20 -64 -20q-47 0 -80 31.5t-33 78.5q0 23 12.5 47.5t35.5 40.5z" />
    <glyph glyph-name="uni1EAA" unicode="&#x1eaa;" 
d="M526 1292q32 68 102 68q10 0 21.5 -2t21.5 -8q43 -21 59 -58l488 -1140q10 -25 10 -43q0 -39 -29.5 -75t-81.5 -36q-75 0 -102 68l-127 296h-518l-64.5 -148l-62.5 -148q-16 -35 -43 -51.5t-59 -16.5q-52 0 -81.5 36t-29.5 75q0 10 2 22t6 21zM628 967q-23 -49 -42 -95.5
t-39.5 -91.5l-41 -92l-43.5 -100h330zM424 1883q0 39 23.5 66t57.5 42t72 21.5t64 6.5q29 0 64 -13h-2q16 -4 32.5 -7t39.5 -3q41 0 57 3t22 7h-2q19 13 37 13q45 0 78 -32t33 -79q0 -39 -24.5 -64.5t-58.5 -41t-71 -21.5t-61 -6q-49 0 -117 20h4h-22q-41 0 -60.5 -6
t-29.5 -10q-5 -2 -8 -3t-15 -1q-43 0 -78 31.5t-35 76.5zM571 1733q26 18 55 18q37 0 66 -22l124 -91q23 -16 35.5 -40.5t12.5 -47.5q0 -47 -36 -78.5t-79 -31.5q-17 0 -32 4t-30 16q-20 15 -31.5 21t-31.5 20q-16 -10 -27.5 -20.5t-27.5 -20.5q-33 -20 -64 -20
q-47 0 -80 31.5t-33 78.5q0 23 12.5 47.5t35.5 40.5z" />
    <glyph glyph-name="uni1EAC" unicode="&#x1eac;" 
d="M526 1292q32 68 102 68q10 0 21.5 -2t21.5 -8q43 -21 59 -58l488 -1140q10 -25 10 -43q0 -39 -29.5 -75t-81.5 -36q-75 0 -102 68l-127 296h-518l-64.5 -148l-62.5 -148q-16 -35 -43 -51.5t-59 -16.5q-52 0 -81.5 36t-29.5 75q0 10 2 22t6 21zM628 967q-23 -49 -42 -95.5
t-39.5 -91.5l-41 -92l-43.5 -100h330zM509 -220q0 49 35 84t84 35t85 -35t36 -84q0 -52 -34.5 -86.5t-86.5 -34.5q-47 0 -83 34.5t-36 86.5zM571 1733q26 18 55 18q37 0 66 -22l124 -91q23 -16 35.5 -40.5t12.5 -47.5q0 -47 -36 -78.5t-79 -31.5q-17 0 -32 4t-30 16
q-20 15 -31.5 21t-31.5 20q-16 -10 -27.5 -20.5t-27.5 -20.5q-33 -20 -64 -20q-47 0 -80 31.5t-33 78.5q0 23 12.5 47.5t35.5 40.5z" />
    <glyph glyph-name="Abreve" unicode="&#x102;" 
d="M526 1292q32 68 102 68q10 0 21.5 -2t21.5 -8q43 -21 59 -58l488 -1140q10 -25 10 -43q0 -39 -29.5 -75t-81.5 -36q-75 0 -102 68l-127 296h-518l-64.5 -148l-62.5 -148q-16 -35 -43 -51.5t-59 -16.5q-52 0 -81.5 36t-29.5 75q0 10 2 22t6 21zM628 967q-23 -49 -42 -95.5
t-39.5 -91.5l-41 -92l-43.5 -100h330zM440 1534q-23 17 -35.5 41.5t-12.5 46.5q0 48 33 79.5t80 31.5q31 0 47 -15.5t54 -26.5t72 7.5t44 26.5t27 8q43 0 79 -31.5t36 -79.5q0 -22 -12.5 -46.5t-35.5 -41.5q-76 -67 -187 -69t-189 69z" />
    <glyph glyph-name="uni1EB0" unicode="&#x1eb0;" 
d="M526 1292q32 68 102 68q10 0 21.5 -2t21.5 -8q43 -21 59 -58l488 -1140q10 -25 10 -43q0 -39 -29.5 -75t-81.5 -36q-75 0 -102 68l-127 296h-518l-64.5 -148l-62.5 -148q-16 -35 -43 -51.5t-59 -16.5q-52 0 -81.5 36t-29.5 75q0 10 2 22t6 21zM628 967q-23 -49 -42 -95.5
t-39.5 -91.5l-41 -92l-43.5 -100h330zM462 1923v-2q-17 27 -17 60q0 43 33 75.5t80 32.5q59 0 92 -53l78 -135q10 -17 12 -31t2 -27q0 -45 -30.5 -76.5t-77.5 -31.5q-60 0 -95 53zM440 1534q-23 17 -35.5 41.5t-12.5 46.5q0 48 33 79.5t80 31.5q31 0 47 -15.5t54 -26.5
t72 7.5t44 26.5t27 8q43 0 79 -31.5t36 -79.5q0 -22 -12.5 -46.5t-35.5 -41.5q-76 -67 -187 -69t-189 69z" />
    <glyph glyph-name="uni1EAE" unicode="&#x1eae;" 
d="M526 1292q32 68 102 68q10 0 21.5 -2t21.5 -8q43 -21 59 -58l488 -1140q10 -25 10 -43q0 -39 -29.5 -75t-81.5 -36q-75 0 -102 68l-127 296h-518l-64.5 -148l-62.5 -148q-16 -35 -43 -51.5t-59 -16.5q-52 0 -81.5 36t-29.5 75q0 10 2 22t6 21zM628 967q-23 -49 -42 -95.5
t-39.5 -91.5l-41 -92l-43.5 -100h330zM634 2044q33 53 94 53q47 0 78 -32.5t31 -75.5q0 -15 -2 -30.5t-12 -29.5v2l-39.5 -66.5t-38.5 -68.5q-33 -53 -92 -53q-48 0 -80.5 31.5t-32.5 76.5q0 29 16 58zM440 1534q-23 17 -35.5 41.5t-12.5 46.5q0 48 33 79.5t80 31.5
q31 0 47 -15.5t54 -26.5t72 7.5t44 26.5t27 8q43 0 79 -31.5t36 -79.5q0 -22 -12.5 -46.5t-35.5 -41.5q-76 -67 -187 -69t-189 69z" />
    <glyph glyph-name="uni1EB2" unicode="&#x1eb2;" 
d="M526 1292q32 68 102 68q10 0 21.5 -2t21.5 -8q43 -21 59 -58l488 -1140q10 -25 10 -43q0 -39 -29.5 -75t-81.5 -36q-75 0 -102 68l-127 296h-518l-64.5 -148l-62.5 -148q-16 -35 -43 -51.5t-59 -16.5q-52 0 -81.5 36t-29.5 75q0 10 2 22t6 21zM628 967q-23 -49 -42 -95.5
t-39.5 -91.5l-41 -92l-43.5 -100h330zM579 1835q0 32 22.5 53.5t61.5 21.5q14 0 26.5 5t21.5 13.5t13 19t4 20.5q0 12 -4 22t-12 17.5t-18.5 12t-22.5 4.5q-19 0 -33 -10.5t-22 -28.5q-10 -22 -29.5 -33t-39.5 -11q-34 0 -54 23.5t-20 51.5q0 15 4 28q12 30 31.5 53.5t45 41
t55.5 27t62 9.5q43 0 81 -16.5t66 -44.5t44.5 -66t16.5 -81q0 -36 -13 -71t-37.5 -64t-59 -47.5t-46 -20.5t-28.5 -14.5t-41 -12.5q-32 0 -53.5 22.5t-21.5 53.5v22zM440 1534q-23 17 -35.5 41.5t-12.5 46.5q0 48 33 79.5t80 31.5q31 0 47 -15.5t54 -26.5t72 7.5t44 26.5
t27 8q43 0 79 -31.5t36 -79.5q0 -22 -12.5 -46.5t-35.5 -41.5q-76 -67 -187 -69t-189 69z" />
    <glyph glyph-name="uni1EB4" unicode="&#x1eb4;" 
d="M526 1292q32 68 102 68q10 0 21.5 -2t21.5 -8q43 -21 59 -58l488 -1140q10 -25 10 -43q0 -39 -29.5 -75t-81.5 -36q-75 0 -102 68l-127 296h-518l-64.5 -148l-62.5 -148q-16 -35 -43 -51.5t-59 -16.5q-52 0 -81.5 36t-29.5 75q0 10 2 22t6 21zM628 967q-23 -49 -42 -95.5
t-39.5 -91.5l-41 -92l-43.5 -100h330zM424 1883q0 39 23.5 66t57.5 42t72 21.5t64 6.5q29 0 64 -13h-2q16 -4 32.5 -7t39.5 -3q41 0 57 3t22 7h-2q19 13 37 13q45 0 78 -32t33 -79q0 -39 -24.5 -64.5t-58.5 -41t-71 -21.5t-61 -6q-49 0 -117 20h4h-22q-41 0 -60.5 -6
t-29.5 -10q-5 -2 -8 -3t-15 -1q-43 0 -78 31.5t-35 76.5zM440 1534q-23 17 -35.5 41.5t-12.5 46.5q0 48 33 79.5t80 31.5q31 0 47 -15.5t54 -26.5t72 7.5t44 26.5t27 8q43 0 79 -31.5t36 -79.5q0 -22 -12.5 -46.5t-35.5 -41.5q-76 -67 -187 -69t-189 69z" />
    <glyph glyph-name="uni1EB6" unicode="&#x1eb6;" 
d="M526 1292q32 68 102 68q10 0 21.5 -2t21.5 -8q43 -21 59 -58l488 -1140q10 -25 10 -43q0 -39 -29.5 -75t-81.5 -36q-75 0 -102 68l-127 296h-518l-64.5 -148l-62.5 -148q-16 -35 -43 -51.5t-59 -16.5q-52 0 -81.5 36t-29.5 75q0 10 2 22t6 21zM628 967q-23 -49 -42 -95.5
t-39.5 -91.5l-41 -92l-43.5 -100h330zM509 -220q0 49 35 84t84 35t85 -35t36 -84q0 -52 -34.5 -86.5t-86.5 -34.5q-47 0 -83 34.5t-36 86.5zM440 1534q-23 17 -35.5 41.5t-12.5 46.5q0 48 33 79.5t80 31.5q31 0 47 -15.5t54 -26.5t72 7.5t44 26.5t27 8q43 0 79 -31.5
t36 -79.5q0 -22 -12.5 -46.5t-35.5 -41.5q-76 -67 -187 -69t-189 69z" />
    <glyph glyph-name="Egrave" unicode="&#xc8;" horiz-adv-x="1081" 
d="M71 1239q0 47 33 80t80 33h774q47 0 78.5 -33t31.5 -80q0 -45 -31.5 -78t-78.5 -33h-664v-360h191q47 0 78.5 -31.5t31.5 -79.5q0 -47 -31.5 -79.5t-78.5 -32.5h-191v-322h664q47 0 78.5 -31.5t31.5 -78.5t-31.5 -80t-78.5 -33h-774q-47 0 -80 33t-33 80v1126zM399 1671
v-2q-17 27 -17 60q0 43 33 75.5t80 32.5q59 0 92 -53l78 -135q10 -17 12 -31t2 -27q0 -45 -30.5 -76.5t-77.5 -31.5q-60 0 -94 53z" />
    <glyph glyph-name="Eacute" unicode="&#xc9;" horiz-adv-x="1081" 
d="M71 1239q0 47 33 80t80 33h774q47 0 78.5 -33t31.5 -80q0 -45 -31.5 -78t-78.5 -33h-664v-360h191q47 0 78.5 -31.5t31.5 -79.5q0 -47 -31.5 -79.5t-78.5 -32.5h-191v-322h664q47 0 78.5 -31.5t31.5 -78.5t-31.5 -80t-78.5 -33h-774q-47 0 -80 33t-33 80v1126zM536 1784
q33 53 94 53q47 0 78 -32.5t31 -75.5q0 -15 -2 -30.5t-13 -29.5v2q-18 -33 -38.5 -66.5t-39.5 -68.5q-32 -53 -92 -53q-47 0 -79.5 31.5t-32.5 76.5q0 29 16 58z" />
    <glyph glyph-name="uni1EBA" unicode="&#x1eba;" horiz-adv-x="1136" 
d="M71 1239q0 47 33 80t80 33h774q47 0 78.5 -33t31.5 -80q0 -45 -31.5 -78t-78.5 -33h-664v-360h191q47 0 78.5 -31.5t31.5 -79.5q0 -47 -31.5 -79.5t-78.5 -32.5h-191v-322h664q47 0 78.5 -31.5t31.5 -78.5t-31.5 -80t-78.5 -33h-774q-47 0 -80 33t-33 80v1126zM490 1566
q0 32 22.5 53.5t61.5 21.5q14 0 26.5 5t21.5 13.5t13.5 19t4.5 20.5q0 12 -4.5 22t-12.5 17.5t-18.5 12t-22.5 4.5q-19 0 -33 -10.5t-22 -28.5q-10 -22 -29.5 -33t-39.5 -11q-34 0 -54 23.5t-20 51.5q0 15 4 28q12 30 31.5 53.5t45 41t55.5 27t62 9.5q43 0 81 -16.5
t66 -44.5t44.5 -66t16.5 -81q0 -36 -13 -71t-37.5 -64t-59 -47.5t-46 -20.5t-28.5 -14.5t-41 -12.5q-32 0 -53.5 22.5t-21.5 53.5v22z" />
    <glyph glyph-name="uni1EBC" unicode="&#x1ebc;" horiz-adv-x="1136" 
d="M71 1239q0 47 33 80t80 33h774q47 0 78.5 -33t31.5 -80q0 -45 -31.5 -78t-78.5 -33h-664v-360h191q47 0 78.5 -31.5t31.5 -79.5q0 -47 -31.5 -79.5t-78.5 -32.5h-191v-322h664q47 0 78.5 -31.5t31.5 -78.5t-31.5 -80t-78.5 -33h-774q-47 0 -80 33t-33 80v1126zM289 1640
q0 39 23.5 66t57.5 42t72 21.5t64 6.5q29 0 64 -13h-2q16 -4 32.5 -7t39.5 -3q41 0 57 3t22 7h-2q19 13 37 13q45 0 78 -32t33 -79q0 -39 -24.5 -64.5t-58.5 -41t-71 -21.5t-61 -6q-49 0 -117 20h4h-22q-41 0 -60.5 -6t-29.5 -10q-5 -2 -8 -3t-15 -1q-43 0 -78 31.5
t-35 76.5z" />
    <glyph glyph-name="uni1EB8" unicode="&#x1eb8;" horiz-adv-x="1136" 
d="M71 1239q0 47 33 80t80 33h774q47 0 78.5 -33t31.5 -80q0 -45 -31.5 -78t-78.5 -33h-664v-360h191q47 0 78.5 -31.5t31.5 -79.5q0 -47 -31.5 -79.5t-78.5 -32.5h-191v-322h664q47 0 78.5 -31.5t31.5 -78.5t-31.5 -80t-78.5 -33h-774q-47 0 -80 33t-33 80v1126zM438 -220
q0 49 35 84t84 35t85 -35t36 -84q0 -52 -34.5 -86.5t-86.5 -34.5q-47 0 -83 34.5t-36 86.5z" />
    <glyph glyph-name="Ecircumflex" unicode="&#xca;" horiz-adv-x="1081" 
d="M71 1239q0 47 33 80t80 33h774q47 0 78.5 -33t31.5 -80q0 -45 -31.5 -78t-78.5 -33h-664v-360h191q47 0 78.5 -31.5t31.5 -79.5q0 -47 -31.5 -79.5t-78.5 -32.5h-191v-322h664q47 0 78.5 -31.5t31.5 -78.5t-31.5 -80t-78.5 -33h-774q-47 0 -80 33t-33 80v1126zM499 1733
q27 18 55 18q37 0 66 -22l125 -91q22 -16 34.5 -40.5t12.5 -47.5q0 -47 -36 -78.5t-79 -31.5q-16 0 -31.5 4t-29.5 16q-21 15 -32 21t-32 20q-16 -10 -27.5 -20.5t-27.5 -20.5q-33 -20 -64 -20q-47 0 -79.5 31.5t-32.5 78.5q0 23 12 47.5t35 40.5z" />
    <glyph glyph-name="uni1EC0" unicode="&#x1ec0;" horiz-adv-x="1081" 
d="M71 1239q0 47 33 80t80 33h774q47 0 78.5 -33t31.5 -80q0 -45 -31.5 -78t-78.5 -33h-664v-360h191q47 0 78.5 -31.5t31.5 -79.5q0 -47 -31.5 -79.5t-78.5 -32.5h-191v-322h664q47 0 78.5 -31.5t31.5 -78.5t-31.5 -80t-78.5 -33h-774q-47 0 -80 33t-33 80v1126zM588 1905
v-2q-17 27 -17 60q0 43 33 75.5t80 32.5q59 0 92 -53l78 -135q10 -17 12 -31t2 -27q0 -45 -30.5 -76.5t-77.5 -31.5q-60 0 -94 53zM499 1733q27 18 55 18q37 0 66 -22l125 -91q22 -16 34.5 -40.5t12.5 -47.5q0 -47 -36 -78.5t-79 -31.5q-16 0 -31.5 4t-29.5 16
q-21 15 -32 21t-32 20q-16 -10 -27.5 -20.5t-27.5 -20.5q-33 -20 -64 -20q-47 0 -79.5 31.5t-32.5 78.5q0 23 12 47.5t35 40.5z" />
    <glyph glyph-name="uni1EBE" unicode="&#x1ebe;" horiz-adv-x="1081" 
d="M71 1239q0 47 33 80t80 33h774q47 0 78.5 -33t31.5 -80q0 -45 -31.5 -78t-78.5 -33h-664v-360h191q47 0 78.5 -31.5t31.5 -79.5q0 -47 -31.5 -79.5t-78.5 -32.5h-191v-322h664q47 0 78.5 -31.5t31.5 -78.5t-31.5 -80t-78.5 -33h-774q-47 0 -80 33t-33 80v1126zM778 1982
q33 53 94 53q47 0 78 -32.5t31 -75.5q0 -15 -2 -30.5t-13 -29.5v2q-18 -33 -38.5 -66.5t-39.5 -68.5q-32 -53 -92 -53q-47 0 -79.5 31.5t-32.5 76.5q0 29 16 58zM499 1733q27 18 55 18q37 0 66 -22l125 -91q22 -16 34.5 -40.5t12.5 -47.5q0 -47 -36 -78.5t-79 -31.5
q-16 0 -31.5 4t-29.5 16q-21 15 -32 21t-32 20q-16 -10 -27.5 -20.5t-27.5 -20.5q-33 -20 -64 -20q-47 0 -79.5 31.5t-32.5 78.5q0 23 12 47.5t35 40.5z" />
    <glyph glyph-name="uni1EC2" unicode="&#x1ec2;" horiz-adv-x="1136" 
d="M71 1239q0 47 33 80t80 33h774q47 0 78.5 -33t31.5 -80q0 -45 -31.5 -78t-78.5 -33h-664v-360h191q47 0 78.5 -31.5t31.5 -79.5q0 -47 -31.5 -79.5t-78.5 -32.5h-191v-322h664q47 0 78.5 -31.5t31.5 -78.5t-31.5 -80t-78.5 -33h-774q-47 0 -80 33t-33 80v1126zM696 1781
q0 32 22.5 53.5t61.5 21.5q14 0 26.5 5t21.5 13.5t13.5 19t4.5 20.5q0 12 -4.5 22t-12.5 17.5t-18.5 12t-22.5 4.5q-19 0 -33 -10.5t-22 -28.5q-10 -22 -29.5 -33t-39.5 -11q-34 0 -54 23.5t-20 51.5q0 15 4 28q12 30 31.5 53.5t45 41t55.5 27t62 9.5q43 0 81 -16.5
t66 -44.5t44.5 -66t16.5 -81q0 -36 -13 -71t-37.5 -64t-59 -47.5t-46 -20.5t-28.5 -14.5t-41 -12.5q-32 0 -53.5 22.5t-21.5 53.5v22zM499 1733q27 18 55 18q37 0 66 -22l125 -91q22 -16 34.5 -40.5t12.5 -47.5q0 -47 -36 -78.5t-79 -31.5q-16 0 -31.5 4t-29.5 16
q-21 15 -32 21t-32 20q-16 -10 -27.5 -20.5t-27.5 -20.5q-33 -20 -64 -20q-47 0 -79.5 31.5t-32.5 78.5q0 23 12 47.5t35 40.5z" />
    <glyph glyph-name="uni1EC4" unicode="&#x1ec4;" horiz-adv-x="1136" 
d="M71 1239q0 47 33 80t80 33h774q47 0 78.5 -33t31.5 -80q0 -45 -31.5 -78t-78.5 -33h-664v-360h191q47 0 78.5 -31.5t31.5 -79.5q0 -47 -31.5 -79.5t-78.5 -32.5h-191v-322h664q47 0 78.5 -31.5t31.5 -78.5t-31.5 -80t-78.5 -33h-774q-47 0 -80 33t-33 80v1126zM352 1884
q0 39 23.5 66t57.5 42t72 21.5t64 6.5q29 0 64 -13h-2q16 -4 32.5 -7t39.5 -3q41 0 57 3t22 7h-2q19 13 37 13q45 0 78 -32t33 -79q0 -39 -24.5 -64.5t-58.5 -41t-71 -21.5t-61 -6q-49 0 -117 20h4h-22q-41 0 -60.5 -6t-29.5 -10q-5 -2 -8 -3t-15 -1q-43 0 -78 31.5
t-35 76.5zM499 1733q27 18 55 18q37 0 66 -22l125 -91q22 -16 34.5 -40.5t12.5 -47.5q0 -47 -36 -78.5t-79 -31.5q-16 0 -31.5 4t-29.5 16q-21 15 -32 21t-32 20q-16 -10 -27.5 -20.5t-27.5 -20.5q-33 -20 -64 -20q-47 0 -79.5 31.5t-32.5 78.5q0 23 12 47.5t35 40.5z" />
    <glyph glyph-name="uni1EC6" unicode="&#x1ec6;" horiz-adv-x="1136" 
d="M71 1239q0 47 33 80t80 33h774q47 0 78.5 -33t31.5 -80q0 -45 -31.5 -78t-78.5 -33h-664v-360h191q47 0 78.5 -31.5t31.5 -79.5q0 -47 -31.5 -79.5t-78.5 -32.5h-191v-322h664q47 0 78.5 -31.5t31.5 -78.5t-31.5 -80t-78.5 -33h-774q-47 0 -80 33t-33 80v1126zM438 -220
q0 49 35 84t84 35t85 -35t36 -84q0 -52 -34.5 -86.5t-86.5 -34.5q-47 0 -83 34.5t-36 86.5zM499 1733q27 18 55 18q37 0 66 -22l125 -91q22 -16 34.5 -40.5t12.5 -47.5q0 -47 -36 -78.5t-79 -31.5q-16 0 -31.5 4t-29.5 16q-21 15 -32 21t-32 20q-16 -10 -27.5 -20.5
t-27.5 -20.5q-33 -20 -64 -20q-47 0 -79.5 31.5t-32.5 78.5q0 23 12 47.5t35 40.5z" />
    <glyph glyph-name="Igrave" unicode="&#xcc;" horiz-adv-x="309" 
d="M70 1239q0 47 33 80t80 33q45 0 79 -33t34 -80v-1126q0 -47 -33 -80t-80 -33q-45 0 -79 33t-34 80v1126zM-10 1671v-2q-16 27 -16 60q0 43 33 75.5t80 32.5q59 0 92 -53l78 -135q10 -17 12 -31t2 -27q0 -45 -30.5 -76.5t-78.5 -31.5q-59 0 -94 53z" />
    <glyph glyph-name="Iacute" unicode="&#xcd;" horiz-adv-x="309" 
d="M69 1239q0 47 33 80t80 33q45 0 78.5 -33t33.5 -80v-1126q0 -47 -32.5 -80t-79.5 -33q-45 0 -79 33t-34 80v1126zM182 1786q32 53 94 53q47 0 77.5 -32.5t30.5 -75.5q0 -15 -2 -30t-12 -30v2q-18 -33 -38.5 -66.5t-39.5 -68.5q-33 -53 -92 -53q-47 0 -80 31.5t-33 76.5
q0 29 17 58z" />
    <glyph glyph-name="uni1EC8" unicode="&#x1ec8;" horiz-adv-x="368" 
d="M69 1239q0 47 33 80t80 33q45 0 78.5 -33t33.5 -80v-1126q0 -47 -32.5 -80t-79.5 -33q-45 0 -79 33t-34 80v1126zM77 1566q0 32 22.5 53.5t61.5 21.5q14 0 26.5 5t21.5 13.5t13.5 19t4.5 20.5q0 12 -4.5 22t-12 17.5t-18.5 12t-23 4.5q-19 0 -33 -10.5t-22 -28.5
q-10 -22 -29.5 -33t-39.5 -11q-34 0 -54 23.5t-20 51.5q0 15 4 28q12 30 31.5 53.5t45 41t55.5 27t62 9.5q43 0 81 -16.5t66 -44.5t44.5 -66t16.5 -81q0 -36 -13 -71t-37.5 -64t-59 -47.5t-46 -20.5t-28.5 -14.5t-41 -12.5q-32 0 -53.5 22.5t-21.5 53.5v22z" />
    <glyph glyph-name="Itilde" unicode="&#x128;" horiz-adv-x="368" 
d="M69 1239q0 47 32.5 80t79.5 33q45 0 79 -33t34 -80v-1126q0 -47 -33 -80t-80 -33q-45 0 -78.5 33t-33.5 80v1126zM-62 1640q0 39 23.5 66t57.5 42t71.5 21.5t64.5 6.5q29 0 64 -13h-2q16 -4 32.5 -7t38.5 -3q41 0 57.5 3t22.5 7h-2q18 13 37 13q45 0 77.5 -32t32.5 -79
q0 -39 -24.5 -64.5t-58 -41t-70.5 -21.5t-62 -6q-49 0 -116 20h4h-23q-41 0 -60.5 -6t-29.5 -10q-4 -2 -7 -3t-15 -1q-43 0 -78 31.5t-35 76.5z" />
    <glyph glyph-name="uni1ECA" unicode="&#x1eca;" horiz-adv-x="368" 
d="M69 1239q0 47 32.5 80t80.5 33q45 0 78.5 -33t33.5 -80v-1126q0 -47 -32.5 -80t-79.5 -33q-45 0 -79 33t-34 80v1126zM61 -220q0 49 35 84t84 35t85 -35t36 -84q0 -52 -34.5 -86.5t-86.5 -34.5q-47 0 -83 34.5t-36 86.5z" />
    <glyph glyph-name="Ograve" unicode="&#xd2;" horiz-adv-x="1091" 
d="M57 897q0 102 40 193.5t107.5 159t158.5 106.5t194 39q102 0 193 -39t159 -106.5t107.5 -159t39.5 -193.5v-442q0 -103 -39.5 -193t-107.5 -157.5t-159 -107.5t-193 -40q-103 0 -194 40t-158.5 107.5t-107.5 157.5t-40 193v442zM282 455q0 -56 21.5 -106t59.5 -87
t88 -58.5t106 -21.5q57 0 107 21.5t87 58.5t58.5 87t21.5 106v442q0 55 -21.5 105.5t-59.5 87t-88 58t-105 21.5q-58 0 -108 -21.5t-87 -58t-58.5 -87t-21.5 -105.5v-442zM362 1671v-2q-16 27 -16 60q0 43 32.5 75.5t79.5 32.5q60 0 93 -53l77 -135q11 -17 13 -31t2 -27
q0 -45 -31 -76.5t-78 -31.5q-59 0 -94 53z" />
    <glyph glyph-name="Oacute" unicode="&#xd3;" horiz-adv-x="1091" 
d="M57 897q0 102 40 193.5t107.5 159t158.5 106.5t194 39q102 0 193 -39t159 -106.5t107.5 -159t39.5 -193.5v-442q0 -103 -39.5 -193t-107.5 -157.5t-159 -107.5t-193 -40q-103 0 -194 40t-158.5 107.5t-107.5 157.5t-40 193v442zM282 455q0 -56 21.5 -106t59.5 -87
t88 -58.5t106 -21.5q57 0 107 21.5t87 58.5t58.5 87t21.5 106v442q0 55 -21.5 105.5t-59.5 87t-88 58t-105 21.5q-58 0 -108 -21.5t-87 -58t-58.5 -87t-21.5 -105.5v-442zM520 1786q33 53 94 53q47 0 78 -32.5t31 -75.5q0 -15 -2 -30t-13 -30v2q-18 -33 -38.5 -66.5
t-39.5 -68.5q-32 -53 -92 -53q-47 0 -79.5 31.5t-32.5 76.5q0 29 16 58z" />
    <glyph glyph-name="uni1ECE" unicode="&#x1ece;" horiz-adv-x="1114" 
d="M57 897q0 102 40 193.5t107.5 159t158.5 106.5t194 39q102 0 193 -39t159 -106.5t107.5 -159t39.5 -193.5v-442q0 -103 -39.5 -193t-107.5 -157.5t-159 -107.5t-193 -40q-103 0 -194 40t-158.5 107.5t-107.5 157.5t-40 193v442zM282 455q0 -56 21.5 -106t59.5 -87
t88 -58.5t106 -21.5q57 0 107 21.5t87 58.5t58.5 87t21.5 106v442q0 55 -21.5 105.5t-59.5 87t-88 58t-105 21.5q-58 0 -108 -21.5t-87 -58t-58.5 -87t-21.5 -105.5v-442zM455 1566q0 32 22.5 53.5t61.5 21.5q14 0 26.5 5t21.5 13.5t13.5 19t4.5 20.5q0 12 -4.5 22t-12 17.5
t-18 12t-23.5 4.5q-18 0 -32.5 -10.5t-22.5 -28.5q-10 -22 -29.5 -33t-38.5 -11q-35 0 -55 23.5t-20 51.5q0 15 5 28q11 30 31 53.5t45 41t55 27t62 9.5q43 0 81.5 -16.5t66 -44.5t44 -66t16.5 -81q0 -36 -13 -71t-37 -64t-59 -47.5t-46.5 -20.5t-28 -14.5t-41.5 -12.5
q-31 0 -53 22.5t-22 53.5v22z" />
    <glyph glyph-name="Otilde" unicode="&#xd5;" horiz-adv-x="1091" 
d="M57 897q0 102 40 193.5t107.5 159t158.5 106.5t194 39q102 0 193 -39t159 -106.5t107.5 -159t39.5 -193.5v-442q0 -103 -39.5 -193t-107.5 -157.5t-159 -107.5t-193 -40q-103 0 -194 40t-158.5 107.5t-107.5 157.5t-40 193v442zM282 455q0 -56 21.5 -106t59.5 -87
t88 -58.5t106 -21.5q57 0 107 21.5t87 58.5t58.5 87t21.5 106v442q0 55 -21.5 105.5t-59.5 87t-88 58t-105 21.5q-58 0 -108 -21.5t-87 -58t-58.5 -87t-21.5 -105.5v-442zM260 1640q0 39 23.5 66t57 42t71.5 21.5t65 6.5q29 0 63 -13h-2q17 -4 33 -7t39 -3q41 0 57.5 3
t22.5 7h-2q18 13 37 13q45 0 77.5 -32t32.5 -79q0 -39 -24.5 -64.5t-58 -41t-70.5 -21.5t-62 -6q-49 0 -117 20h5h-23q-41 0 -60.5 -6t-29.5 -10q-4 -2 -7 -3t-16 -1q-43 0 -77.5 31.5t-34.5 76.5z" />
    <glyph glyph-name="uni1ECC" unicode="&#x1ecc;" horiz-adv-x="1114" 
d="M57 897q0 102 40 193.5t107.5 159t158.5 106.5t194 39q102 0 193 -39t159 -106.5t107.5 -159t39.5 -193.5v-442q0 -103 -39.5 -193t-107.5 -157.5t-159 -107.5t-193 -40q-103 0 -194 40t-158.5 107.5t-107.5 157.5t-40 193v442zM282 455q0 -56 21.5 -106t59.5 -87
t88 -58.5t106 -21.5q57 0 107 21.5t87 58.5t58.5 87t21.5 106v442q0 55 -21.5 105.5t-59.5 87t-88 58t-105 21.5q-58 0 -108 -21.5t-87 -58t-58.5 -87t-21.5 -105.5v-442zM438 -220q0 49 35 84t84 35q50 0 85.5 -35t35.5 -84q0 -52 -34.5 -86.5t-86.5 -34.5q-47 0 -83 34.5
t-36 86.5z" />
    <glyph glyph-name="Ocircumflex" unicode="&#xd4;" horiz-adv-x="1091" 
d="M57 897q0 102 40 193.5t107.5 159t158.5 106.5t194 39q102 0 193 -39t159 -106.5t107.5 -159t39.5 -193.5v-442q0 -103 -39.5 -193t-107.5 -157.5t-159 -107.5t-193 -40q-103 0 -194 40t-158.5 107.5t-107.5 157.5t-40 193v442zM282 455q0 -56 21.5 -106t59.5 -87
t88 -58.5t106 -21.5q57 0 107 21.5t87 58.5t58.5 87t21.5 106v442q0 55 -21.5 105.5t-59.5 87t-88 58t-105 21.5q-58 0 -108 -21.5t-87 -58t-58.5 -87t-21.5 -105.5v-442zM491 1733q27 18 55 18q37 0 66 -22l125 -91q22 -16 34.5 -40.5t12.5 -47.5q0 -47 -36 -78.5
t-79 -31.5q-16 0 -31.5 4t-29.5 16q-21 15 -32 21t-32 20q-16 -10 -27 -20.5t-28 -20.5q-33 -20 -63 -20q-47 0 -80 31.5t-33 78.5q0 23 12.5 47.5t34.5 40.5z" />
    <glyph glyph-name="uni1ED2" unicode="&#x1ed2;" horiz-adv-x="1091" 
d="M57 897q0 102 40 193.5t107.5 159t158.5 106.5t194 39q102 0 193 -39t159 -106.5t107.5 -159t39.5 -193.5v-442q0 -103 -39.5 -193t-107.5 -157.5t-159 -107.5t-193 -40q-103 0 -194 40t-158.5 107.5t-107.5 157.5t-40 193v442zM282 455q0 -56 21.5 -106t59.5 -87
t88 -58.5t106 -21.5q57 0 107 21.5t87 58.5t58.5 87t21.5 106v442q0 55 -21.5 105.5t-59.5 87t-88 58t-105 21.5q-58 0 -108 -21.5t-87 -58t-58.5 -87t-21.5 -105.5v-442zM578 1896v-2q-16 27 -16 60q0 43 32.5 75.5t79.5 32.5q60 0 93 -53l77 -135q11 -17 13 -31t2 -27
q0 -45 -31 -76.5t-78 -31.5q-59 0 -94 53zM491 1733q27 18 55 18q37 0 66 -22l125 -91q22 -16 34.5 -40.5t12.5 -47.5q0 -47 -36 -78.5t-79 -31.5q-16 0 -31.5 4t-29.5 16q-21 15 -32 21t-32 20q-16 -10 -27 -20.5t-28 -20.5q-33 -20 -63 -20q-47 0 -80 31.5t-33 78.5
q0 23 12.5 47.5t34.5 40.5z" />
    <glyph glyph-name="uni1ED0" unicode="&#x1ed0;" horiz-adv-x="1091" 
d="M57 897q0 102 40 193.5t107.5 159t158.5 106.5t194 39q102 0 193 -39t159 -106.5t107.5 -159t39.5 -193.5v-442q0 -103 -39.5 -193t-107.5 -157.5t-159 -107.5t-193 -40q-103 0 -194 40t-158.5 107.5t-107.5 157.5t-40 193v442zM282 455q0 -56 21.5 -106t59.5 -87
t88 -58.5t106 -21.5q57 0 107 21.5t87 58.5t58.5 87t21.5 106v442q0 55 -21.5 105.5t-59.5 87t-88 58t-105 21.5q-58 0 -108 -21.5t-87 -58t-58.5 -87t-21.5 -105.5v-442zM753 1993q33 53 94 53q47 0 78 -32.5t31 -75.5q0 -15 -2 -30t-13 -30v2q-18 -33 -38.5 -66.5
t-39.5 -68.5q-32 -53 -92 -53q-47 0 -79.5 31.5t-32.5 76.5q0 29 16 58zM491 1733q27 18 55 18q37 0 66 -22l125 -91q22 -16 34.5 -40.5t12.5 -47.5q0 -47 -36 -78.5t-79 -31.5q-16 0 -31.5 4t-29.5 16q-21 15 -32 21t-32 20q-16 -10 -27 -20.5t-28 -20.5q-33 -20 -63 -20
q-47 0 -80 31.5t-33 78.5q0 23 12.5 47.5t34.5 40.5z" />
    <glyph glyph-name="uni1ED4" unicode="&#x1ed4;" horiz-adv-x="1114" 
d="M57 897q0 102 40 193.5t107.5 159t158.5 106.5t194 39q102 0 193 -39t159 -106.5t107.5 -159t39.5 -193.5v-442q0 -103 -39.5 -193t-107.5 -157.5t-159 -107.5t-193 -40q-103 0 -194 40t-158.5 107.5t-107.5 157.5t-40 193v442zM282 455q0 -56 21.5 -106t59.5 -87
t88 -58.5t106 -21.5q57 0 107 21.5t87 58.5t58.5 87t21.5 106v442q0 55 -21.5 105.5t-59.5 87t-88 58t-105 21.5q-58 0 -108 -21.5t-87 -58t-58.5 -87t-21.5 -105.5v-442zM670 1808q0 32 22.5 53.5t61.5 21.5q14 0 26.5 5t21.5 13.5t13.5 19t4.5 20.5q0 12 -4.5 22t-12 17.5
t-18 12t-23.5 4.5q-18 0 -32.5 -10.5t-22.5 -28.5q-10 -22 -29.5 -33t-38.5 -11q-35 0 -55 23.5t-20 51.5q0 15 5 28q11 30 31 53.5t45 41t55 27t62 9.5q43 0 81.5 -16.5t66 -44.5t44 -66t16.5 -81q0 -36 -13 -71t-37 -64t-59 -47.5t-46.5 -20.5t-28 -14.5t-41.5 -12.5
q-31 0 -53 22.5t-22 53.5v22zM491 1733q27 18 55 18q37 0 66 -22l125 -91q22 -16 34.5 -40.5t12.5 -47.5q0 -47 -36 -78.5t-79 -31.5q-16 0 -31.5 4t-29.5 16q-21 15 -32 21t-32 20q-16 -10 -27 -20.5t-28 -20.5q-33 -20 -63 -20q-47 0 -80 31.5t-33 78.5q0 23 12.5 47.5
t34.5 40.5z" />
    <glyph glyph-name="uni1ED6" unicode="&#x1ed6;" horiz-adv-x="1091" 
d="M57 897q0 102 40 193.5t107.5 159t158.5 106.5t194 39q102 0 193 -39t159 -106.5t107.5 -159t39.5 -193.5v-442q0 -103 -39.5 -193t-107.5 -157.5t-159 -107.5t-193 -40q-103 0 -194 40t-158.5 107.5t-107.5 157.5t-40 193v442zM282 455q0 -56 21.5 -106t59.5 -87
t88 -58.5t106 -21.5q57 0 107 21.5t87 58.5t58.5 87t21.5 106v442q0 55 -21.5 105.5t-59.5 87t-88 58t-105 21.5q-58 0 -108 -21.5t-87 -58t-58.5 -87t-21.5 -105.5v-442zM348 1892q0 39 23.5 66t57 42t71.5 21.5t65 6.5q29 0 63 -13h-2q17 -4 33 -7t39 -3q41 0 57.5 3
t22.5 7h-2q18 13 37 13q45 0 77.5 -32t32.5 -79q0 -39 -24.5 -64.5t-58 -41t-70.5 -21.5t-62 -6q-49 0 -117 20h5h-23q-41 0 -60.5 -6t-29.5 -10q-4 -2 -7 -3t-16 -1q-43 0 -77.5 31.5t-34.5 76.5zM491 1733q27 18 55 18q37 0 66 -22l125 -91q22 -16 34.5 -40.5t12.5 -47.5
q0 -47 -36 -78.5t-79 -31.5q-16 0 -31.5 4t-29.5 16q-21 15 -32 21t-32 20q-16 -10 -27 -20.5t-28 -20.5q-33 -20 -63 -20q-47 0 -80 31.5t-33 78.5q0 23 12.5 47.5t34.5 40.5z" />
    <glyph glyph-name="uni1ED8" unicode="&#x1ed8;" horiz-adv-x="1114" 
d="M57 897q0 102 40 193.5t107.5 159t158.5 106.5t194 39q102 0 193 -39t159 -106.5t107.5 -159t39.5 -193.5v-442q0 -103 -39.5 -193t-107.5 -157.5t-159 -107.5t-193 -40q-103 0 -194 40t-158.5 107.5t-107.5 157.5t-40 193v442zM282 455q0 -56 21.5 -106t59.5 -87
t88 -58.5t106 -21.5q57 0 107 21.5t87 58.5t58.5 87t21.5 106v442q0 55 -21.5 105.5t-59.5 87t-88 58t-105 21.5q-58 0 -108 -21.5t-87 -58t-58.5 -87t-21.5 -105.5v-442zM438 -220q0 49 35 84t84 35q50 0 85.5 -35t35.5 -84q0 -52 -34.5 -86.5t-86.5 -34.5q-47 0 -83 34.5
t-36 86.5zM491 1733q27 18 55 18q37 0 66 -22l125 -91q22 -16 34.5 -40.5t12.5 -47.5q0 -47 -36 -78.5t-79 -31.5q-16 0 -31.5 4t-29.5 16q-21 15 -32 21t-32 20q-16 -10 -27 -20.5t-28 -20.5q-33 -20 -63 -20q-47 0 -80 31.5t-33 78.5q0 23 12.5 47.5t34.5 40.5z" />
    <glyph glyph-name="Ugrave" unicode="&#xd9;" horiz-adv-x="1107" 
d="M63 1239q0 47 33 80t80 33q45 0 77.5 -33t32.5 -80v-782q0 -56 22.5 -106t60.5 -87t88 -58.5t106 -21.5q57 0 107 21.5t87 58.5t58.5 87t21.5 106v782q0 47 33 80t80 33q45 0 77.5 -33t32.5 -80v-782q0 -103 -38.5 -193t-106.5 -157.5t-159 -107.5t-193 -40
q-103 0 -194 40t-158.5 107.5t-107.5 157.5t-40 193v782zM399 1671v-2q-17 27 -17 60q0 43 33 75.5t80 32.5q60 0 92 -53l78 -135q10 -17 12 -31t2 -27q0 -45 -30.5 -76.5t-77.5 -31.5q-59 0 -94 53z" />
    <glyph glyph-name="Uacute" unicode="&#xda;" horiz-adv-x="1107" 
d="M63 1239q0 47 33 80t80 33q45 0 77.5 -33t32.5 -80v-782q0 -56 22.5 -106t60.5 -87t88 -58.5t106 -21.5q57 0 107 21.5t87 58.5t58.5 87t21.5 106v782q0 47 33 80t80 33q45 0 77.5 -33t32.5 -80v-782q0 -103 -38.5 -193t-106.5 -157.5t-159 -107.5t-193 -40
q-103 0 -194 40t-158.5 107.5t-107.5 157.5t-40 193v782zM548 1784q33 53 95 53q47 0 77.5 -32.5t30.5 -75.5q0 -15 -2 -30.5t-12 -29.5v2l-39.5 -66.5t-38.5 -68.5q-33 -53 -92 -53q-47 0 -80 31.5t-33 76.5q0 29 17 58z" />
    <glyph glyph-name="uni1EE6" unicode="&#x1ee6;" horiz-adv-x="1124" 
d="M63 1239q0 47 33 80t80 33q45 0 77.5 -33t32.5 -80v-782q0 -56 22.5 -106t60.5 -87t88 -58.5t106 -21.5q57 0 107 21.5t87 58.5t58.5 87t21.5 106v782q0 47 33 80t80 33q45 0 77.5 -33t32.5 -80v-782q0 -103 -38.5 -193t-106.5 -157.5t-159 -107.5t-193 -40
q-103 0 -194 40t-158.5 107.5t-107.5 157.5t-40 193v782zM495 1566q0 32 22.5 53.5t60.5 21.5q15 0 27.5 5t21 13.5t13 19t4.5 20.5q0 12 -4 22t-12 17.5t-18.5 12t-22.5 4.5q-19 0 -33 -10.5t-22 -28.5q-10 -22 -29.5 -33t-39.5 -11q-34 0 -54 23.5t-20 51.5q0 15 4 28
q12 30 31.5 53.5t45 41t55.5 27t62 9.5q43 0 81 -16.5t66 -44.5t44.5 -66t16.5 -81q0 -36 -13 -71t-37.5 -64t-59 -47.5t-46 -20.5t-28.5 -14.5t-41 -12.5q-32 0 -53.5 22.5t-21.5 53.5v22z" />
    <glyph glyph-name="Utilde" unicode="&#x168;" horiz-adv-x="1124" 
d="M63 1239q0 47 33 80t80 33q45 0 77.5 -33t32.5 -80v-782q0 -56 22.5 -106t60.5 -87t88 -58.5t106 -21.5q57 0 107 21.5t87 58.5t58.5 87t21.5 106v782q0 47 33 80t80 33q45 0 77.5 -33t32.5 -80v-782q0 -103 -38.5 -193t-106.5 -157.5t-159 -107.5t-193 -40
q-103 0 -194 40t-158.5 107.5t-107.5 157.5t-40 193v782zM289 1640q0 39 23.5 66t57.5 42t72 21.5t64 6.5q29 0 64 -13h-2q16 -4 32.5 -7t38.5 -3q41 0 57.5 3t22.5 7h-2q19 13 37 13q45 0 78 -32t33 -79q0 -39 -24.5 -64.5t-58.5 -41t-71 -21.5t-61 -6q-49 0 -117 20h4h-22
q-41 0 -60.5 -6t-30.5 -10q-4 -2 -7 -3t-15 -1q-43 0 -78 31.5t-35 76.5z" />
    <glyph glyph-name="uni1EE4" unicode="&#x1ee4;" horiz-adv-x="1124" 
d="M63 1239q0 47 33 80t80 33q45 0 77.5 -33t32.5 -80v-782q0 -56 22.5 -106t60.5 -87t88 -58.5t106 -21.5q57 0 107 21.5t87 58.5t58.5 87t21.5 106v782q0 47 33 80t80 33q45 0 77.5 -33t32.5 -80v-782q0 -103 -38.5 -193t-106.5 -157.5t-159 -107.5t-193 -40
q-103 0 -194 40t-158.5 107.5t-107.5 157.5t-40 193v782zM438 -220q0 49 34.5 84t84.5 35q49 0 85 -35t36 -84q0 -52 -35 -86.5t-86 -34.5q-47 0 -83 34.5t-36 86.5z" />
    <glyph glyph-name="Uhorn" unicode="&#x1af;" horiz-adv-x="1124" 
d="M63 1239q0 47 33 80t80 33q45 0 77.5 -33t32.5 -80v-782q0 -56 22.5 -106t60.5 -87t88 -58.5t106 -21.5q57 0 107 21.5t87 58.5t58.5 87t21.5 106v782q0 47 33 80t80 33q45 0 77.5 -33t32.5 -80v-782q0 -103 -38.5 -193t-106.5 -157.5t-159 -107.5t-193 -40
q-103 0 -194 40t-158.5 107.5t-107.5 157.5t-40 193v782zM1111 1322q17 42 58 60t85 1q40 -16 59 -57.5t2 -83.5l-56 -145q-18 -44 -59 -62t-83 -1q-42 16 -61 57.5t-1 85.5z" />
    <glyph glyph-name="uni1EEA" unicode="&#x1eea;" horiz-adv-x="1107" 
d="M63 1239q0 47 33 80t80 33q45 0 77.5 -33t32.5 -80v-782q0 -56 22.5 -106t60.5 -87t88 -58.5t106 -21.5q57 0 107 21.5t87 58.5t58.5 87t21.5 106v782q0 47 33 80t80 33q45 0 77.5 -33t32.5 -80v-782q0 -103 -38.5 -193t-106.5 -157.5t-159 -107.5t-193 -40
q-103 0 -194 40t-158.5 107.5t-107.5 157.5t-40 193v782zM399 1671v-2q-17 27 -17 60q0 43 33 75.5t80 32.5q60 0 92 -53l78 -135q10 -17 12 -31t2 -27q0 -45 -30.5 -76.5t-77.5 -31.5q-59 0 -94 53zM1084 1322q17 42 58 60t85 1q40 -16 59 -57.5t2 -83.5l-56 -145
q-18 -44 -59 -62t-83 -1q-42 16 -61 57.5t-1 85.5z" />
    <glyph glyph-name="uni1EE8" unicode="&#x1ee8;" horiz-adv-x="1107" 
d="M548 1784q33 53 95 53q47 0 77.5 -32.5t30.5 -75.5q0 -15 -2 -30.5t-12 -29.5v2l-39.5 -66.5t-38.5 -68.5q-33 -53 -92 -53q-47 0 -80 31.5t-33 76.5q0 29 17 58zM1060 1051v-594q0 -103 -38.5 -193t-106.5 -157.5t-159 -107.5t-193 -40q-103 0 -194 40t-158.5 107.5
t-107.5 157.5t-40 193v782q0 47 33 80t80 33q45 0 77.5 -33t32.5 -80v-782q0 -56 22.5 -106t60.5 -87t88 -58.5t106 -21.5q57 0 107 21.5t87 58.5t58.5 87t21.5 106v782q0 47 33 80t80 33q45 0 78 -33q26 -27 31 -62l25 65q17 42 58 60t85 1q40 -16 59 -57.5t2 -83.5
l-56 -145q-18 -44 -59 -62t-83 -1q-17 6 -30 17z" />
    <glyph glyph-name="uni1EEC" unicode="&#x1eec;" horiz-adv-x="1124" 
d="M495 1566q0 32 22.5 53.5t60.5 21.5q15 0 27.5 5t21 13.5t13 19t4.5 20.5q0 12 -4 22t-12 17.5t-18.5 12t-22.5 4.5q-19 0 -33 -10.5t-22 -28.5q-10 -22 -29.5 -33t-39.5 -11q-34 0 -54 23.5t-20 51.5q0 15 4 28q12 30 31.5 53.5t45 41t55.5 27t62 9.5q43 0 81 -16.5
t66 -44.5t44.5 -66t16.5 -81q0 -36 -13 -71t-37.5 -64t-59 -47.5t-46 -20.5t-28.5 -14.5t-41 -12.5q-32 0 -53.5 22.5t-21.5 53.5v22zM1060 1051v-594q0 -103 -38.5 -193t-106.5 -157.5t-159 -107.5t-193 -40q-103 0 -194 40t-158.5 107.5t-107.5 157.5t-40 193v782
q0 47 33 80t80 33q45 0 77.5 -33t32.5 -80v-782q0 -56 22.5 -106t60.5 -87t88 -58.5t106 -21.5q57 0 107 21.5t87 58.5t58.5 87t21.5 106v782q0 47 33 80t80 33q45 0 78 -33q26 -27 31 -62l25 65q17 42 58 60t85 1q40 -16 59 -57.5t2 -83.5l-56 -145q-18 -44 -59 -62t-83 -1
q-17 6 -30 17z" />
    <glyph glyph-name="uni1EEE" unicode="&#x1eee;" horiz-adv-x="1124" 
d="M289 1640q0 39 23.5 66t57.5 42t72 21.5t64 6.5q29 0 64 -13h-2q16 -4 32.5 -7t38.5 -3q41 0 57.5 3t22.5 7h-2q19 13 37 13q45 0 78 -32t33 -79q0 -39 -24.5 -64.5t-58.5 -41t-71 -21.5t-61 -6q-49 0 -117 20h4h-22q-41 0 -60.5 -6t-30.5 -10q-4 -2 -7 -3t-15 -1
q-43 0 -78 31.5t-35 76.5zM1060 1051v-594q0 -103 -38.5 -193t-106.5 -157.5t-159 -107.5t-193 -40q-103 0 -194 40t-158.5 107.5t-107.5 157.5t-40 193v782q0 47 33 80t80 33q45 0 77.5 -33t32.5 -80v-782q0 -56 22.5 -106t60.5 -87t88 -58.5t106 -21.5q57 0 107 21.5
t87 58.5t58.5 87t21.5 106v782q0 47 33 80t80 33q45 0 78 -33q26 -27 31 -62l25 65q17 42 58 60t85 1q40 -16 59 -57.5t2 -83.5l-56 -145q-18 -44 -59 -62t-83 -1q-17 6 -30 17z" />
    <glyph glyph-name="uni1EF0" unicode="&#x1ef0;" horiz-adv-x="1124" 
d="M438 -220q0 49 34.5 84t84.5 35q49 0 85 -35t36 -84q0 -52 -35 -86.5t-86 -34.5q-47 0 -83 34.5t-36 86.5zM1060 1051v-594q0 -103 -38.5 -193t-106.5 -157.5t-159 -107.5t-193 -40q-103 0 -194 40t-158.5 107.5t-107.5 157.5t-40 193v782q0 47 33 80t80 33
q45 0 77.5 -33t32.5 -80v-782q0 -56 22.5 -106t60.5 -87t88 -58.5t106 -21.5q57 0 107 21.5t87 58.5t58.5 87t21.5 106v782q0 47 33 80t80 33q45 0 78 -33q26 -27 31 -62l25 65q17 42 58 60t85 1q40 -16 59 -57.5t2 -83.5l-56 -145q-18 -44 -59 -62t-83 -1q-17 6 -30 17z
" />
    <glyph glyph-name="Ohorn" unicode="&#x1a0;" horiz-adv-x="1114" 
d="M57 897q0 102 40 193.5t107.5 159t158.5 106.5t194 39q102 0 193 -39t159 -106.5t107.5 -159t39.5 -193.5v-442q0 -103 -39.5 -193t-107.5 -157.5t-159 -107.5t-193 -40q-103 0 -194 40t-158.5 107.5t-107.5 157.5t-40 193v442zM282 455q0 -56 21.5 -106t59.5 -87
t88 -58.5t106 -21.5q57 0 107 21.5t87 58.5t58.5 87t21.5 106v442q0 55 -21.5 105.5t-59.5 87t-88 58t-105 21.5q-58 0 -108 -21.5t-87 -58t-58.5 -87t-21.5 -105.5v-442zM1040 1322q17 42 58 60t85 1q40 -16 59 -57.5t2 -83.5l-56 -145q-18 -44 -59 -62t-83 -1
q-42 16 -61 57.5t-1 85.5z" />
    <glyph glyph-name="uni1EDC" unicode="&#x1edc;" horiz-adv-x="1091" 
d="M282 455q0 -56 21.5 -106t59.5 -87t88 -58.5t106 -21.5q57 0 107 21.5t87 58.5t58.5 87t21.5 106v442q0 55 -21.5 105.5t-59.5 87t-88 58t-105 21.5q-58 0 -108 -21.5t-87 -58t-58.5 -87t-21.5 -105.5v-442zM362 1671v-2q-16 27 -16 60q0 43 32.5 75.5t79.5 32.5
q60 0 93 -53l77 -135q11 -17 13 -31t2 -27q0 -45 -31 -76.5t-78 -31.5q-59 0 -94 53zM1035 1039q21 -68 21 -142v-442q0 -103 -39.5 -193t-107.5 -157.5t-159 -107.5t-193 -40q-103 0 -194 40t-158.5 107.5t-107.5 157.5t-40 193v442q0 102 40 193.5t107.5 159t158.5 106.5
t194 39q102 0 193 -39t159 -106q40 -40 70 -88q2 8 5 15l56 145q17 42 58 60t85 1q40 -16 59 -57.5t2 -83.5l-56 -145q-18 -44 -59 -62t-83 -1q-5 2 -11 5z" />
    <glyph glyph-name="uni1EDA" unicode="&#x1eda;" horiz-adv-x="1091" 
d="M282 455q0 -56 21.5 -106t59.5 -87t88 -58.5t106 -21.5q57 0 107 21.5t87 58.5t58.5 87t21.5 106v442q0 55 -21.5 105.5t-59.5 87t-88 58t-105 21.5q-58 0 -108 -21.5t-87 -58t-58.5 -87t-21.5 -105.5v-442zM520 1786q33 53 94 53q47 0 78 -32.5t31 -75.5q0 -15 -2 -30
t-13 -30v2q-18 -33 -38.5 -66.5t-39.5 -68.5q-32 -53 -92 -53q-47 0 -79.5 31.5t-32.5 76.5q0 29 16 58zM1035 1039q21 -68 21 -142v-442q0 -103 -39.5 -193t-107.5 -157.5t-159 -107.5t-193 -40q-103 0 -194 40t-158.5 107.5t-107.5 157.5t-40 193v442q0 102 40 193.5
t107.5 159t158.5 106.5t194 39q102 0 193 -39t159 -106q40 -40 70 -88q2 8 5 15l56 145q17 42 58 60t85 1q40 -16 59 -57.5t2 -83.5l-56 -145q-18 -44 -59 -62t-83 -1q-5 2 -11 5z" />
    <glyph glyph-name="uni1EDE" unicode="&#x1ede;" horiz-adv-x="1114" 
d="M282 455q0 -56 21.5 -106t59.5 -87t88 -58.5t106 -21.5q57 0 107 21.5t87 58.5t58.5 87t21.5 106v442q0 55 -21.5 105.5t-59.5 87t-88 58t-105 21.5q-58 0 -108 -21.5t-87 -58t-58.5 -87t-21.5 -105.5v-442zM455 1566q0 32 22.5 53.5t61.5 21.5q14 0 26.5 5t21.5 13.5
t13.5 19t4.5 20.5q0 12 -4.5 22t-12 17.5t-18 12t-23.5 4.5q-18 0 -32.5 -10.5t-22.5 -28.5q-10 -22 -29.5 -33t-38.5 -11q-35 0 -55 23.5t-20 51.5q0 15 5 28q11 30 31 53.5t45 41t55 27t62 9.5q43 0 81.5 -16.5t66 -44.5t44 -66t16.5 -81q0 -36 -13 -71t-37 -64t-59 -47.5
t-46.5 -20.5t-28 -14.5t-41.5 -12.5q-31 0 -53 22.5t-22 53.5v22zM1035 1039q21 -68 21 -142v-442q0 -103 -39.5 -193t-107.5 -157.5t-159 -107.5t-193 -40q-103 0 -194 40t-158.5 107.5t-107.5 157.5t-40 193v442q0 102 40 193.5t107.5 159t158.5 106.5t194 39
q102 0 193 -39t159 -106q40 -40 70 -88q2 8 5 15l56 145q17 42 58 60t85 1q40 -16 59 -57.5t2 -83.5l-56 -145q-18 -44 -59 -62t-83 -1q-5 2 -11 5z" />
    <glyph glyph-name="uni1EE0" unicode="&#x1ee0;" horiz-adv-x="1091" 
d="M282 455q0 -56 21.5 -106t59.5 -87t88 -58.5t106 -21.5q57 0 107 21.5t87 58.5t58.5 87t21.5 106v442q0 55 -21.5 105.5t-59.5 87t-88 58t-105 21.5q-58 0 -108 -21.5t-87 -58t-58.5 -87t-21.5 -105.5v-442zM260 1640q0 39 23.5 66t57 42t71.5 21.5t65 6.5q29 0 63 -13
h-2q17 -4 33 -7t39 -3q41 0 57.5 3t22.5 7h-2q18 13 37 13q45 0 77.5 -32t32.5 -79q0 -39 -24.5 -64.5t-58 -41t-70.5 -21.5t-62 -6q-49 0 -117 20h5h-23q-41 0 -60.5 -6t-29.5 -10q-4 -2 -7 -3t-16 -1q-43 0 -77.5 31.5t-34.5 76.5zM1035 1039q21 -68 21 -142v-442
q0 -103 -39.5 -193t-107.5 -157.5t-159 -107.5t-193 -40q-103 0 -194 40t-158.5 107.5t-107.5 157.5t-40 193v442q0 102 40 193.5t107.5 159t158.5 106.5t194 39q102 0 193 -39t159 -106q40 -40 70 -88q2 8 5 15l56 145q17 42 58 60t85 1q40 -16 59 -57.5t2 -83.5l-56 -145
q-18 -44 -59 -62t-83 -1q-5 2 -11 5z" />
    <glyph glyph-name="uni1EE2" unicode="&#x1ee2;" horiz-adv-x="1114" 
d="M282 455q0 -56 21.5 -106t59.5 -87t88 -58.5t106 -21.5q57 0 107 21.5t87 58.5t58.5 87t21.5 106v442q0 55 -21.5 105.5t-59.5 87t-88 58t-105 21.5q-58 0 -108 -21.5t-87 -58t-58.5 -87t-21.5 -105.5v-442zM438 -220q0 49 35 84t84 35q50 0 85.5 -35t35.5 -84
q0 -52 -34.5 -86.5t-86.5 -34.5q-47 0 -83 34.5t-36 86.5zM1035 1039q21 -68 21 -142v-442q0 -103 -39.5 -193t-107.5 -157.5t-159 -107.5t-193 -40q-103 0 -194 40t-158.5 107.5t-107.5 157.5t-40 193v442q0 102 40 193.5t107.5 159t158.5 106.5t194 39q102 0 193 -39
t159 -106q40 -40 70 -88q2 8 5 15l56 145q17 42 58 60t85 1q40 -16 59 -57.5t2 -83.5l-56 -145q-18 -44 -59 -62t-83 -1q-5 2 -11 5z" />
    <glyph glyph-name="Ygrave" unicode="&#x1ef2;" horiz-adv-x="1081" 
d="M40 1239q0 47 33 80t80 33q45 0 78.5 -33t33.5 -80v-377q0 -55 21.5 -104t59.5 -86t88 -58.5t108 -21.5q57 0 106 21.5t86 58.5t58.5 86t21.5 104v377q0 47 33 80t80 33q45 0 78.5 -33t33.5 -80v-377q0 -86 -29.5 -165t-80.5 -143.5t-123 -109.5t-154 -63v-268
q0 -47 -31.5 -80t-78.5 -33t-80 33t-33 80v268q-84 18 -154.5 63t-123 109.5t-82 143.5t-29.5 165v377zM398 1671v-2q-16 27 -16 60q0 43 32.5 75.5t79.5 32.5q60 0 92 -53l78 -135q10 -17 12 -31t2 -27q0 -45 -30.5 -76.5t-77.5 -31.5q-59 0 -94 53z" />
    <glyph glyph-name="Yacute" unicode="&#xdd;" horiz-adv-x="1058" 
d="M40 1239q0 47 33 80t80 33q45 0 78.5 -33t33.5 -80v-377q0 -55 21.5 -104t59.5 -86t88 -58.5t108 -21.5q57 0 106 21.5t86 58.5t58.5 86t21.5 104v377q0 47 33 80t80 33q45 0 78.5 -33t33.5 -80v-377q0 -86 -29.5 -165t-80.5 -143.5t-123 -109.5t-154 -63v-268
q0 -47 -31.5 -80t-78.5 -33t-80 33t-33 80v268q-84 18 -154.5 63t-123 109.5t-82 143.5t-29.5 165v377zM525 1784q33 53 95 53q47 0 77.5 -32.5t30.5 -75.5q0 -15 -2 -30.5t-12 -29.5v2l-39.5 -66.5t-38.5 -68.5q-33 -53 -92 -53q-47 0 -80 31.5t-33 76.5q0 29 17 58z" />
    <glyph glyph-name="uni1EF6" unicode="&#x1ef6;" horiz-adv-x="1081" 
d="M40 1239q0 47 33 80t80 33q45 0 78.5 -33t33.5 -80v-377q0 -55 21.5 -104t59.5 -86t88 -58.5t108 -21.5q57 0 106 21.5t86 58.5t58.5 86t21.5 104v377q0 47 33 80t80 33q45 0 78.5 -33t33.5 -80v-377q0 -86 -29.5 -165t-80.5 -143.5t-123 -109.5t-154 -63v-268
q0 -47 -31.5 -80t-78.5 -33t-80 33t-33 80v268q-84 18 -154.5 63t-123 109.5t-82 143.5t-29.5 165v377zM494 1566q0 32 22.5 53.5t60.5 21.5q15 0 27.5 5t21 13.5t13 19t4.5 20.5q0 12 -4 22t-12 17.5t-18.5 12t-22.5 4.5q-19 0 -33 -10.5t-22 -28.5q-10 -22 -29.5 -33
t-39.5 -11q-34 0 -54 23.5t-20 51.5q0 15 4 28q12 30 31.5 53.5t45 41t55.5 27t62 9.5q43 0 81 -16.5t66 -44.5t44.5 -66t16.5 -81q0 -36 -13 -71t-37.5 -64t-59 -47.5t-46 -20.5t-28.5 -14.5t-41 -12.5q-32 0 -53.5 22.5t-21.5 53.5v22z" />
    <glyph glyph-name="uni1EF8" unicode="&#x1ef8;" horiz-adv-x="1081" 
d="M40 1239q0 47 33 80t80 33q45 0 78.5 -33t33.5 -80v-377q0 -55 21.5 -104t59.5 -86t88 -58.5t108 -21.5q57 0 106 21.5t86 58.5t58.5 86t21.5 104v377q0 47 33 80t80 33q45 0 78.5 -33t33.5 -80v-377q0 -86 -29.5 -165t-80.5 -143.5t-123 -109.5t-154 -63v-268
q0 -47 -31.5 -80t-78.5 -33t-80 33t-33 80v268q-84 18 -154.5 63t-123 109.5t-82 143.5t-29.5 165v377zM288 1640q0 39 23.5 66t57.5 42t72 21.5t64 6.5q29 0 64 -13h-2q16 -4 32.5 -7t39.5 -3q40 0 56.5 3t22.5 7h-2q19 13 37 13q45 0 78 -32t33 -79q0 -39 -24.5 -64.5
t-58.5 -41t-71 -21.5t-61 -6q-49 0 -117 20h4h-22q-41 0 -60.5 -6t-30.5 -10q-4 -2 -7 -3t-15 -1q-43 0 -78 31.5t-35 76.5z" />
    <glyph glyph-name="uni1EF4" unicode="&#x1ef4;" horiz-adv-x="1081" 
d="M40 1239q0 47 33 80t80 33q45 0 78.5 -33t33.5 -80v-377q0 -55 21.5 -104t59.5 -86t88 -58.5t108 -21.5q57 0 106 21.5t86 58.5t58.5 86t21.5 104v377q0 47 33 80t80 33q45 0 78.5 -33t33.5 -80v-377q0 -86 -29.5 -165t-80.5 -143.5t-123 -109.5t-154 -63v-268
q0 -47 -31.5 -80t-78.5 -33t-80 33t-33 80v268q-84 18 -154.5 63t-123 109.5t-82 143.5t-29.5 165v377zM420 -220q0 49 34.5 84t84.5 35q49 0 85 -35t36 -84q0 -52 -35 -86.5t-86 -34.5q-48 0 -83.5 34.5t-35.5 86.5z" />
    <glyph glyph-name="agrave" unicode="&#xe0;" horiz-adv-x="864" 
d="M55 645q0 78 29.5 146.5t82 121t121 82t148.5 29.5q78 0 147.5 -29.5t121.5 -82t82 -121t30 -146.5v-534q0 -48 -33 -79.5t-76 -31.5q-22 0 -45.5 12.5t-40.5 26.5q-88 -47 -186 -47q-78 0 -147.5 29.5t-122 82t-82 121t-29.5 146.5v274zM276 371q0 -66 47 -112t113 -46
q65 0 111.5 43t50.5 106v283q0 33 -13.5 61.5t-35 50t-51 34t-62.5 12.5q-68 0 -114 -46t-46 -112v-274zM256 1343v-2q-17 27 -17 60q0 43 33 75.5t80 32.5q59 0 92 -53l78 -135q10 -16 12 -30.5t2 -26.5q0 -45 -30.5 -77t-77.5 -32q-60 0 -94 53z" />
    <glyph glyph-name="aacute" unicode="&#xe1;" horiz-adv-x="864" 
d="M55 645q0 78 29.5 146.5t82 121t121 82t148.5 29.5q78 0 147.5 -29.5t121.5 -82t82 -121t30 -146.5v-534q0 -48 -33 -79.5t-76 -31.5q-22 0 -45.5 12.5t-40.5 26.5q-88 -47 -186 -47q-78 0 -147.5 29.5t-122 82t-82 121t-29.5 146.5v274zM276 371q0 -66 47 -112t113 -46
q65 0 111.5 43t50.5 106v283q0 33 -13.5 61.5t-35 50t-51 34t-62.5 12.5q-68 0 -114 -46t-46 -112v-274zM420 1454q32 53 94 53q47 0 77.5 -32.5t30.5 -75.5q0 -15 -2 -30t-12 -30v2l-38.5 -66t-39.5 -69q-33 -53 -92 -53q-47 0 -80 32t-33 77q0 28 17 57z" />
    <glyph glyph-name="uni1EA3" unicode="&#x1ea3;" horiz-adv-x="880" 
d="M55 645q0 78 29.5 146.5t82 121t121 82t148.5 29.5q78 0 147.5 -29.5t121.5 -82t82 -121t30 -146.5v-534q0 -48 -33 -79.5t-76 -31.5q-22 0 -45.5 12.5t-40.5 26.5q-88 -47 -186 -47q-78 0 -147.5 29.5t-122 82t-82 121t-29.5 146.5v274zM276 371q0 -66 47 -112t113 -46
q65 0 111.5 43t50.5 106v283q0 33 -13.5 61.5t-35 50t-51 34t-62.5 12.5q-68 0 -114 -46t-46 -112v-274zM338 1206q0 32 22.5 53.5t61.5 21.5q14 0 26.5 5t21.5 13.5t13.5 19t4.5 20.5q0 12 -4.5 22t-12 17.5t-18.5 12t-23 4.5q-19 0 -33 -10.5t-22 -28.5q-10 -22 -29.5 -33
t-39.5 -11q-34 0 -54 23.5t-20 51.5q0 15 4 28q12 30 31.5 53.5t45 41t55.5 27t62 9.5q43 0 81 -16.5t66 -44.5t44.5 -66t16.5 -81q0 -36 -13 -71t-37.5 -64t-59 -47.5t-46 -20.5t-28.5 -14.5t-41 -12.5q-32 0 -53.5 22.5t-21.5 53.5v22z" />
    <glyph glyph-name="atilde" unicode="&#xe3;" horiz-adv-x="864" 
d="M55 645q0 78 29.5 146.5t82 121t121 82t148.5 29.5q78 0 147.5 -29.5t121.5 -82t82 -121t30 -146.5v-534q0 -48 -33 -79.5t-76 -31.5q-22 0 -45.5 12.5t-40.5 26.5q-88 -47 -186 -47q-78 0 -147.5 29.5t-122 82t-82 121t-29.5 146.5v274zM276 371q0 -66 47 -112t113 -46
q65 0 111.5 43t50.5 106v283q0 33 -13.5 61.5t-35 50t-51 34t-62.5 12.5q-68 0 -114 -46t-46 -112v-274zM147 1305q0 38 23.5 65t57.5 42t72 21.5t64 6.5q29 0 64 -13h-2q16 -4 32.5 -7t38.5 -3q41 0 57.5 3t22.5 7h-2q19 13 37 13q45 0 78 -32t33 -79q0 -39 -25 -64.5
t-58.5 -41t-70.5 -21.5t-61 -6q-50 0 -117 21h4h-23q-41 0 -60 -6.5l-30 -10.5q-4 -2 -7 -3t-15 -1q-43 0 -78 32t-35 77z" />
    <glyph glyph-name="uni1EA1" unicode="&#x1ea1;" horiz-adv-x="880" 
d="M55 645q0 78 29.5 146.5t82 121t121 82t148.5 29.5q78 0 147.5 -29.5t121.5 -82t82 -121t30 -146.5v-534q0 -48 -33 -79.5t-76 -31.5q-22 0 -45.5 12.5t-40.5 26.5q-88 -47 -186 -47q-78 0 -147.5 29.5t-122 82t-82 121t-29.5 146.5v274zM276 371q0 -66 47 -112t113 -46
q65 0 111.5 43t50.5 106v283q0 33 -13.5 61.5t-35 50t-51 34t-62.5 12.5q-68 0 -114 -46t-46 -112v-274zM317 -220q0 49 34.5 84t84.5 35q49 0 85 -35t36 -84q0 -52 -35 -86.5t-86 -34.5q-47 0 -83 34.5t-36 86.5z" />
    <glyph glyph-name="acircumflex" unicode="&#xe2;" horiz-adv-x="864" 
d="M55 645q0 78 29.5 146.5t82 121t121 82t148.5 29.5q78 0 147.5 -29.5t121.5 -82t82 -121t30 -146.5v-534q0 -48 -33 -79.5t-76 -31.5q-22 0 -45.5 12.5t-40.5 26.5q-88 -47 -186 -47q-78 0 -147.5 29.5t-122 82t-82 121t-29.5 146.5v274zM276 371q0 -66 47 -112t113 -46
q65 0 111.5 43t50.5 106v283q0 33 -13.5 61.5t-35 50t-51 34t-62.5 12.5q-68 0 -114 -46t-46 -112v-274zM370 1448q27 18 56 18q37 0 65 -22l125 -90q23 -17 35 -41.5t12 -46.5q0 -47 -35.5 -79t-78.5 -32q-17 0 -32.5 4t-29.5 17q-20 14 -31.5 20t-31.5 21q-17 -11 -28 -21
t-28 -20q-32 -21 -63 -21q-47 0 -80 32t-33 79q0 22 12.5 46.5t34.5 41.5z" />
    <glyph glyph-name="uni1EA7" unicode="&#x1ea7;" horiz-adv-x="864" 
d="M55 645q0 78 29.5 146.5t82 121t121 82t148.5 29.5q78 0 147.5 -29.5t121.5 -82t82 -121t30 -146.5v-534q0 -48 -33 -79.5t-76 -31.5q-22 0 -45.5 12.5t-40.5 26.5q-88 -47 -186 -47q-78 0 -147.5 29.5t-122 82t-82 121t-29.5 146.5v274zM276 371q0 -66 47 -112t113 -46
q65 0 111.5 43t50.5 106v283q0 33 -13.5 61.5t-35 50t-51 34t-62.5 12.5q-68 0 -114 -46t-46 -112v-274zM445 1630v-2q-17 27 -17 60q0 43 33 75.5t80 32.5q59 0 92 -53l78 -135q10 -16 12 -30.5t2 -26.5q0 -45 -30.5 -77t-77.5 -32q-60 0 -94 53zM370 1448q27 18 55 18
q37 0 66 -22l125 -90q22 -17 34.5 -41.5t12.5 -46.5q0 -47 -36 -79t-79 -32q-16 0 -31.5 4t-29.5 17q-21 14 -32 20t-32 21q-16 -11 -27.5 -21t-27.5 -20q-33 -21 -63 -21q-48 0 -80.5 32t-32.5 79q0 22 12 46.5t35 41.5z" />
    <glyph glyph-name="uni1EA5" unicode="&#x1ea5;" horiz-adv-x="864" 
d="M55 645q0 78 29.5 146.5t82 121t121 82t148.5 29.5q78 0 147.5 -29.5t121.5 -82t82 -121t30 -146.5v-534q0 -48 -33 -79.5t-76 -31.5q-22 0 -45.5 12.5t-40.5 26.5q-88 -47 -186 -47q-78 0 -147.5 29.5t-122 82t-82 121t-29.5 146.5v274zM276 371q0 -66 47 -112t113 -46
q65 0 111.5 43t50.5 106v283q0 33 -13.5 61.5t-35 50t-51 34t-62.5 12.5q-68 0 -114 -46t-46 -112v-274zM626 1723q32 53 94 53q47 0 77.5 -32.5t30.5 -75.5q0 -15 -2 -30t-12 -30v2l-38.5 -66t-39.5 -69q-33 -53 -92 -53q-47 0 -80 32t-33 77q0 28 17 57zM370 1448
q27 18 55 18q37 0 66 -22l125 -90q22 -17 34.5 -41.5t12.5 -46.5q0 -47 -36 -79t-79 -32q-16 0 -31.5 4t-29.5 17q-21 14 -32 20t-32 21q-16 -11 -27.5 -21t-27.5 -20q-33 -21 -63 -21q-48 0 -80.5 32t-32.5 79q0 22 12 46.5t35 41.5z" />
    <glyph glyph-name="uni1EA9" unicode="&#x1ea9;" horiz-adv-x="880" 
d="M55 645q0 78 29.5 146.5t82 121t121 82t148.5 29.5q78 0 147.5 -29.5t121.5 -82t82 -121t30 -146.5v-534q0 -48 -33 -79.5t-76 -31.5q-22 0 -45.5 12.5t-40.5 26.5q-88 -47 -186 -47q-78 0 -147.5 29.5t-122 82t-82 121t-29.5 146.5v274zM276 371q0 -66 47 -112t113 -46
q65 0 111.5 43t50.5 106v283q0 33 -13.5 61.5t-35 50t-51 34t-62.5 12.5q-68 0 -114 -46t-46 -112v-274zM532 1519q0 32 22.5 53.5t61.5 21.5q14 0 26.5 5t21.5 13.5t13.5 19t4.5 20.5q0 12 -4.5 22t-12 17.5t-18.5 12t-23 4.5q-19 0 -33 -10.5t-22 -28.5q-10 -22 -29.5 -33
t-39.5 -11q-34 0 -54 23.5t-20 51.5q0 15 4 28q12 30 31.5 53.5t45 41t55.5 27t62 9.5q43 0 81 -16.5t66 -44.5t44.5 -66t16.5 -81q0 -36 -13 -71t-37.5 -64t-59 -47.5t-46 -20.5t-28.5 -14.5t-41 -12.5q-32 0 -53.5 22.5t-21.5 53.5v22zM370 1448q27 18 55 18q37 0 66 -22
l125 -90q22 -17 34.5 -41.5t12.5 -46.5q0 -47 -36 -79t-79 -32q-16 0 -31.5 4t-29.5 17q-21 14 -32 20t-32 21q-16 -11 -27.5 -21t-27.5 -20q-33 -21 -63 -21q-48 0 -80.5 32t-32.5 79q0 22 12 46.5t35 41.5z" />
    <glyph glyph-name="uni1EAB" unicode="&#x1eab;" horiz-adv-x="864" 
d="M55 645q0 78 29.5 146.5t82 121t121 82t148.5 29.5q78 0 147.5 -29.5t121.5 -82t82 -121t30 -146.5v-534q0 -48 -33 -79.5t-76 -31.5q-22 0 -45.5 12.5t-40.5 26.5q-88 -47 -186 -47q-78 0 -147.5 29.5t-122 82t-82 121t-29.5 146.5v274zM276 371q0 -66 47 -112t113 -46
q65 0 111.5 43t50.5 106v283q0 33 -13.5 61.5t-35 50t-51 34t-62.5 12.5q-68 0 -114 -46t-46 -112v-274zM198 1592q0 38 23.5 65t57.5 42t72 21.5t64 6.5q29 0 64 -13h-2q16 -4 32.5 -7t38.5 -3q41 0 57.5 3t22.5 7h-2q19 13 37 13q45 0 78 -32t33 -79q0 -39 -25 -64.5
t-58.5 -41t-70.5 -21.5t-61 -6q-50 0 -117 21h4h-23q-41 0 -60 -6.5l-30 -10.5q-4 -2 -7 -3t-15 -1q-43 0 -78 32t-35 77zM370 1448q27 18 56 18q37 0 65 -22l125 -90q23 -17 35 -41.5t12 -46.5q0 -47 -35.5 -79t-78.5 -32q-17 0 -32.5 4t-29.5 17q-20 14 -31.5 20t-31.5 21
q-17 -11 -28 -21t-28 -20q-32 -21 -63 -21q-47 0 -80 32t-33 79q0 22 12.5 46.5t34.5 41.5z" />
    <glyph glyph-name="uni1EAD" unicode="&#x1ead;" horiz-adv-x="880" 
d="M55 645q0 78 29.5 146.5t82 121t121 82t148.5 29.5q78 0 147.5 -29.5t121.5 -82t82 -121t30 -146.5v-534q0 -48 -33 -79.5t-76 -31.5q-22 0 -45.5 12.5t-40.5 26.5q-88 -47 -186 -47q-78 0 -147.5 29.5t-122 82t-82 121t-29.5 146.5v274zM276 371q0 -66 47 -112t113 -46
q65 0 111.5 43t50.5 106v283q0 33 -13.5 61.5t-35 50t-51 34t-62.5 12.5q-68 0 -114 -46t-46 -112v-274zM317 -220q0 49 34.5 84t84.5 35q49 0 85 -35t36 -84q0 -52 -35 -86.5t-86 -34.5q-47 0 -83 34.5t-36 86.5zM370 1448q27 18 55 18q37 0 66 -22l125 -90
q22 -17 34.5 -41.5t12.5 -46.5q0 -47 -36 -79t-79 -32q-16 0 -31.5 4t-29.5 17q-21 14 -32 20t-32 21q-16 -11 -27.5 -21t-27.5 -20q-33 -21 -63 -21q-48 0 -80.5 32t-32.5 79q0 22 12 46.5t35 41.5z" />
    <glyph glyph-name="abreve" unicode="&#x103;" horiz-adv-x="864" 
d="M55 645q0 78 29.5 146.5t82 121t121 82t148.5 29.5q78 0 147.5 -29.5t121.5 -82t82 -121t30 -146.5v-534q0 -48 -33 -79.5t-76 -31.5q-22 0 -45.5 12.5t-40.5 26.5q-88 -47 -186 -47q-78 0 -147.5 29.5t-122 82t-82 121t-29.5 146.5v274zM276 371q0 -66 47 -112t113 -46
q65 0 111.5 43t50.5 106v283q0 33 -13.5 61.5t-35 50t-51 34t-62.5 12.5q-68 0 -114 -46t-46 -112v-274zM242 1183q-23 17 -35.5 41.5t-12.5 46.5q0 48 33 79.5t80 31.5q31 0 47 -15.5t54 -26.5t72 7.5t44 26.5t27 8q43 0 79 -31.5t36 -79.5q0 -22 -12.5 -46.5t-35.5 -41.5
q-76 -67 -187 -69t-189 69z" />
    <glyph glyph-name="uni1EB1" unicode="&#x1eb1;" horiz-adv-x="864" 
d="M55 645q0 78 29.5 146.5t82 121t121 82t148.5 29.5q78 0 147.5 -29.5t121.5 -82t82 -121t30 -146.5v-534q0 -48 -33 -79.5t-76 -31.5q-22 0 -45.5 12.5t-40.5 26.5q-88 -47 -186 -47q-78 0 -147.5 29.5t-122 82t-82 121t-29.5 146.5v274zM276 371q0 -66 47 -112t113 -46
q65 0 111.5 43t50.5 106v283q0 33 -13.5 61.5t-35 50t-51 34t-62.5 12.5q-68 0 -114 -46t-46 -112v-274zM266 1630v-2q-17 27 -17 60q0 43 33 75.5t80 32.5q59 0 92 -53l78 -135q10 -16 12 -30.5t2 -26.5q0 -45 -30.5 -77t-77.5 -32q-60 0 -94 53zM241 1183
q-22 17 -34.5 41.5t-12.5 46.5q0 48 33 79.5t80 31.5q31 0 47 -15.5t54 -26.5t71.5 7.5t44 26.5t27.5 8q43 0 78.5 -31.5t35.5 -79.5q0 -22 -12 -46.5t-35 -41.5q-76 -67 -187 -69t-190 69z" />
    <glyph glyph-name="uni1EAF" unicode="&#x1eaf;" horiz-adv-x="864" 
d="M55 645q0 78 29.5 146.5t82 121t121 82t148.5 29.5q78 0 147.5 -29.5t121.5 -82t82 -121t30 -146.5v-534q0 -48 -33 -79.5t-76 -31.5q-22 0 -45.5 12.5t-40.5 26.5q-88 -47 -186 -47q-78 0 -147.5 29.5t-122 82t-82 121t-29.5 146.5v274zM276 371q0 -66 47 -112t113 -46
q65 0 111.5 43t50.5 106v283q0 33 -13.5 61.5t-35 50t-51 34t-62.5 12.5q-68 0 -114 -46t-46 -112v-274zM464 1723q32 53 94 53q47 0 77.5 -32.5t30.5 -75.5q0 -15 -2 -30t-12 -30v2l-38.5 -66t-39.5 -69q-33 -53 -92 -53q-47 0 -80 32t-33 77q0 28 17 57zM241 1183
q-22 17 -34.5 41.5t-12.5 46.5q0 48 33 79.5t80 31.5q31 0 47 -15.5t54 -26.5t71.5 7.5t44 26.5t27.5 8q43 0 78.5 -31.5t35.5 -79.5q0 -22 -12 -46.5t-35 -41.5q-76 -67 -187 -69t-190 69z" />
    <glyph glyph-name="uni1EB3" unicode="&#x1eb3;" horiz-adv-x="880" 
d="M55 645q0 78 29.5 146.5t82 121t121 82t148.5 29.5q78 0 147.5 -29.5t121.5 -82t82 -121t30 -146.5v-534q0 -48 -33 -79.5t-76 -31.5q-22 0 -45.5 12.5t-40.5 26.5q-88 -47 -186 -47q-78 0 -147.5 29.5t-122 82t-82 121t-29.5 146.5v274zM276 371q0 -66 47 -112t113 -46
q65 0 111.5 43t50.5 106v283q0 33 -13.5 61.5t-35 50t-51 34t-62.5 12.5q-68 0 -114 -46t-46 -112v-274zM361 1519q0 32 22.5 53.5t61.5 21.5q14 0 26.5 5t21.5 13.5t13.5 19t4.5 20.5q0 12 -4.5 22t-12 17.5t-18.5 12t-23 4.5q-19 0 -33 -10.5t-22 -28.5q-10 -22 -29.5 -33
t-39.5 -11q-34 0 -54 23.5t-20 51.5q0 15 4 28q12 30 31.5 53.5t45 41t55.5 27t62 9.5q43 0 81 -16.5t66 -44.5t44.5 -66t16.5 -81q0 -36 -13 -71t-37.5 -64t-59 -47.5t-46 -20.5t-28.5 -14.5t-41 -12.5q-32 0 -53.5 22.5t-21.5 53.5v22zM241 1183q-22 17 -34.5 41.5
t-12.5 46.5q0 48 33 79.5t80 31.5q31 0 47 -15.5t54 -26.5t71.5 7.5t44 26.5t27.5 8q43 0 78.5 -31.5t35.5 -79.5q0 -22 -12 -46.5t-35 -41.5q-76 -67 -187 -69t-190 69z" />
    <glyph glyph-name="uni1EB5" unicode="&#x1eb5;" horiz-adv-x="864" 
d="M55 645q0 78 29.5 146.5t82 121t121 82t148.5 29.5q78 0 147.5 -29.5t121.5 -82t82 -121t30 -146.5v-534q0 -48 -33 -79.5t-76 -31.5q-22 0 -45.5 12.5t-40.5 26.5q-88 -47 -186 -47q-78 0 -147.5 29.5t-122 82t-82 121t-29.5 146.5v274zM276 371q0 -66 47 -112t113 -46
q65 0 111.5 43t50.5 106v283q0 33 -13.5 61.5t-35 50t-51 34t-62.5 12.5q-68 0 -114 -46t-46 -112v-274zM207 1547q0 38 23.5 65t57.5 42t72 21.5t64 6.5q29 0 64 -13h-2q16 -4 32.5 -7t38.5 -3q41 0 57.5 3t22.5 7h-2q19 13 37 13q45 0 78 -32t33 -79q0 -39 -25 -64.5
t-58.5 -41t-70.5 -21.5t-61 -6q-50 0 -117 21h4h-23q-41 0 -60 -6.5l-30 -10.5q-4 -2 -7 -3t-15 -1q-43 0 -78 32t-35 77zM242 1183q-23 17 -35.5 41.5t-12.5 46.5q0 48 33 79.5t80 31.5q31 0 47 -15.5t54 -26.5t72 7.5t44 26.5t27 8q43 0 79 -31.5t36 -79.5
q0 -22 -12.5 -46.5t-35.5 -41.5q-76 -67 -187 -69t-189 69z" />
    <glyph glyph-name="uni1EB7" unicode="&#x1eb7;" horiz-adv-x="880" 
d="M55 645q0 78 29.5 146.5t82 121t121 82t148.5 29.5q78 0 147.5 -29.5t121.5 -82t82 -121t30 -146.5v-534q0 -48 -33 -79.5t-76 -31.5q-22 0 -45.5 12.5t-40.5 26.5q-88 -47 -186 -47q-78 0 -147.5 29.5t-122 82t-82 121t-29.5 146.5v274zM276 371q0 -66 47 -112t113 -46
q65 0 111.5 43t50.5 106v283q0 33 -13.5 61.5t-35 50t-51 34t-62.5 12.5q-68 0 -114 -46t-46 -112v-274zM317 -220q0 49 34.5 84t84.5 35q49 0 85 -35t36 -84q0 -52 -35 -86.5t-86 -34.5q-47 0 -83 34.5t-36 86.5zM241 1183q-22 17 -34.5 41.5t-12.5 46.5q0 48 33 79.5
t80 31.5q31 0 47 -15.5t54 -26.5t71.5 7.5t44 26.5t27.5 8q43 0 78.5 -31.5t35.5 -79.5q0 -22 -12 -46.5t-35 -41.5q-76 -67 -187 -69t-190 69z" />
    <glyph glyph-name="egrave" unicode="&#xe8;" horiz-adv-x="851" 
d="M55 645q0 78 29.5 146.5t82 121t121 82t148.5 29.5q78 0 147.5 -29.5t121.5 -82t82 -121t30 -146.5v-137q0 -47 -32 -79t-77 -32h-432v-26q0 -66 47 -112t113 -46q25 0 56.5 6t60.5 41q12 14 30.5 29.5t40 24t46 7t49.5 -19.5q32 -22 43.5 -64t-21.5 -90
q-45 -59 -116.5 -107t-188.5 -48q-78 0 -147.5 29.5t-122 82t-82 121t-29.5 146.5v274zM276 618h322v27q0 33 -13.5 61.5t-35 50t-51 34t-62.5 12.5q-68 0 -114 -46t-46 -112v-27zM241 1343v-2q-16 27 -16 60q0 43 33 75.5t80 32.5q59 0 92 -53l78 -135q10 -16 12 -30.5
t2 -26.5q0 -45 -30.5 -77t-78.5 -32q-59 0 -94 53z" />
    <glyph glyph-name="eacute" unicode="&#xe9;" horiz-adv-x="851" 
d="M55 645q0 78 29.5 146.5t82 121t121 82t148.5 29.5q78 0 147.5 -29.5t121.5 -82t82 -121t30 -146.5v-137q0 -47 -32 -79t-77 -32h-432v-26q0 -66 47 -112t113 -46q25 0 56.5 6t60.5 41q12 14 30.5 29.5t40 24t46 7t49.5 -19.5q32 -22 43.5 -64t-21.5 -90
q-45 -59 -116.5 -107t-188.5 -48q-78 0 -147.5 29.5t-122 82t-82 121t-29.5 146.5v274zM276 618h322v27q0 33 -13.5 61.5t-35 50t-51 34t-62.5 12.5q-68 0 -114 -46t-46 -112v-27zM405 1458q33 53 94 53q48 0 78.5 -32.5t30.5 -75.5q0 -14 -2 -29.5t-12 -30.5v3l-39.5 -67
t-38.5 -69q-33 -53 -92 -53q-47 0 -80 32t-33 77q0 28 16 57z" />
    <glyph glyph-name="uni1EBB" unicode="&#x1ebb;" horiz-adv-x="870" 
d="M55 645q0 78 29.5 146.5t82 121t121 82t148.5 29.5q78 0 147.5 -29.5t121.5 -82t82 -121t30 -146.5v-137q0 -47 -32 -79t-77 -32h-432v-26q0 -66 47 -112t113 -46q25 0 56.5 6t60.5 41q12 14 30.5 29.5t40 24t46 7t49.5 -19.5q32 -22 43.5 -64t-21.5 -90
q-45 -59 -116.5 -107t-188.5 -48q-78 0 -147.5 29.5t-122 82t-82 121t-29.5 146.5v274zM276 618h322v27q0 33 -13.5 61.5t-35 50t-51 34t-62.5 12.5q-68 0 -114 -46t-46 -112v-27zM338 1206q0 32 22.5 53.5t61.5 21.5q14 0 26.5 5t21.5 13.5t13.5 19t4.5 20.5q0 12 -4.5 22
t-12 17.5t-18.5 12t-23 4.5q-19 0 -33 -10.5t-22 -28.5q-10 -22 -29.5 -33t-39.5 -11q-34 0 -54 23.5t-20 51.5q0 15 4 28q12 30 31.5 53.5t45 41t55.5 27t62 9.5q43 0 81 -16.5t66 -44.5t44.5 -66t16.5 -81q0 -36 -13 -71t-37.5 -64t-59 -47.5t-46 -20.5t-28.5 -14.5
t-41 -12.5q-32 0 -53.5 22.5t-21.5 53.5v22z" />
    <glyph glyph-name="uni1EBD" unicode="&#x1ebd;" horiz-adv-x="870" 
d="M55 645q0 78 29.5 146.5t82 121t121 82t148.5 29.5q78 0 147.5 -29.5t121.5 -82t82 -121t30 -146.5v-137q0 -47 -32 -79t-77 -32h-432v-26q0 -66 47 -112t113 -46q25 0 56.5 6t60.5 41q12 14 30.5 29.5t40 24t46 7t49.5 -19.5q32 -22 43.5 -64t-21.5 -90
q-45 -59 -116.5 -107t-188.5 -48q-78 0 -147.5 29.5t-122 82t-82 121t-29.5 146.5v274zM276 618h322v27q0 33 -13.5 61.5t-35 50t-51 34t-62.5 12.5q-68 0 -114 -46t-46 -112v-27zM147 1305q0 38 23.5 65t57.5 42t71.5 21.5t64.5 6.5q29 0 63 -13h-2q17 -4 33.5 -7t38.5 -3
q41 0 57.5 3t22.5 7h-2q18 13 37 13q45 0 77.5 -32t32.5 -79q0 -39 -24.5 -64.5t-58 -41t-70.5 -21.5t-62 -6q-49 0 -116 21h4h-23q-41 0 -60.5 -6.5t-29.5 -10.5q-4 -2 -7 -3t-15 -1q-44 0 -78.5 32t-34.5 77z" />
    <glyph glyph-name="uni1EB9" unicode="&#x1eb9;" horiz-adv-x="870" 
d="M55 645q0 78 29.5 146.5t82 121t121 82t148.5 29.5q78 0 147.5 -29.5t121.5 -82t82 -121t30 -146.5v-137q0 -47 -32 -79t-77 -32h-432v-26q0 -66 47 -112t113 -46q25 0 56.5 6t60.5 41q12 14 30.5 29.5t40 24t46 7t49.5 -19.5q32 -22 43.5 -64t-21.5 -90
q-45 -59 -116.5 -107t-188.5 -48q-78 0 -147.5 29.5t-122 82t-82 121t-29.5 146.5v274zM276 618h322v27q0 33 -13.5 61.5t-35 50t-51 34t-62.5 12.5q-68 0 -114 -46t-46 -112v-27zM317 -220q0 49 34.5 84t84.5 35q49 0 85 -35t36 -84q0 -52 -35 -86.5t-86 -34.5
q-47 0 -83 34.5t-36 86.5z" />
    <glyph glyph-name="ecircumflex" unicode="&#xea;" horiz-adv-x="851" 
d="M55 645q0 78 29.5 146.5t82 121t121 82t148.5 29.5q78 0 147.5 -29.5t121.5 -82t82 -121t30 -146.5v-137q0 -47 -32 -79t-77 -32h-432v-26q0 -66 47 -112t113 -46q25 0 56.5 6t60.5 41q12 14 30.5 29.5t40 24t46 7t49.5 -19.5q32 -22 43.5 -64t-21.5 -90
q-45 -59 -116.5 -107t-188.5 -48q-78 0 -147.5 29.5t-122 82t-82 121t-29.5 146.5v274zM276 618h322v27q0 33 -13.5 61.5t-35 50t-51 34t-62.5 12.5q-68 0 -114 -46t-46 -112v-27zM364 1397q27 18 56 18q36 0 65 -22l125 -90q23 -17 35 -41.5t12 -47.5q0 -47 -36 -78.5
t-79 -31.5q-16 0 -31.5 4t-29.5 16q-20 15 -31.5 21t-32.5 20q-16 -10 -27 -20t-28 -21q-33 -20 -63 -20q-47 0 -80 31.5t-33 78.5q0 23 12.5 47.5t34.5 41.5z" />
    <glyph glyph-name="uni1EC1" unicode="&#x1ec1;" horiz-adv-x="851" 
d="M55 645q0 78 29.5 146.5t82 121t121 82t148.5 29.5q78 0 147.5 -29.5t121.5 -82t82 -121t30 -146.5v-137q0 -47 -32 -79t-77 -32h-432v-26q0 -66 47 -112t113 -46q25 0 56.5 6t60.5 41q12 14 30.5 29.5t40 24t46 7t49.5 -19.5q32 -22 43.5 -64t-21.5 -90
q-45 -59 -116.5 -107t-188.5 -48q-78 0 -147.5 29.5t-122 82t-82 121t-29.5 146.5v274zM276 618h322v27q0 33 -13.5 61.5t-35 50t-51 34t-62.5 12.5q-68 0 -114 -46t-46 -112v-27zM439 1576v-2q-16 27 -16 60q0 43 33 75.5t80 32.5q59 0 92 -53l78 -135q10 -16 12 -30.5
t2 -26.5q0 -45 -30.5 -77t-78.5 -32q-59 0 -94 53zM364 1397q27 18 56 18q36 0 65 -22l125 -90q23 -17 35 -41.5t12 -47.5q0 -47 -36 -78.5t-79 -31.5q-16 0 -31.5 4t-29.5 16q-20 15 -31.5 21t-32.5 20q-16 -10 -27 -20t-28 -21q-33 -20 -63 -20q-47 0 -80 31.5t-33 78.5
q0 23 12.5 47.5t34.5 41.5z" />
    <glyph glyph-name="uni1EBF" unicode="&#x1ebf;" horiz-adv-x="851" 
d="M55 645q0 78 29.5 146.5t82 121t121 82t148.5 29.5q78 0 147.5 -29.5t121.5 -82t82 -121t30 -146.5v-137q0 -47 -32 -79t-77 -32h-432v-26q0 -66 47 -112t113 -46q25 0 56.5 6t60.5 41q12 14 30.5 29.5t40 24t46 7t49.5 -19.5q32 -22 43.5 -64t-21.5 -90
q-45 -59 -116.5 -107t-188.5 -48q-78 0 -147.5 29.5t-122 82t-82 121t-29.5 146.5v274zM276 618h322v27q0 33 -13.5 61.5t-35 50t-51 34t-62.5 12.5q-68 0 -114 -46t-46 -112v-27zM629 1656q33 53 94 53q48 0 78.5 -32.5t30.5 -75.5q0 -14 -2 -29.5t-12 -30.5v3l-39.5 -67
t-38.5 -69q-33 -53 -92 -53q-47 0 -80 32t-33 77q0 28 16 57zM364 1397q27 18 56 18q36 0 65 -22l125 -90q23 -17 35 -41.5t12 -47.5q0 -47 -36 -78.5t-79 -31.5q-16 0 -31.5 4t-29.5 16q-20 15 -31.5 21t-32.5 20q-16 -10 -27 -20t-28 -21q-33 -20 -63 -20q-47 0 -80 31.5
t-33 78.5q0 23 12.5 47.5t34.5 41.5z" />
    <glyph glyph-name="uni1EC3" unicode="&#x1ec3;" horiz-adv-x="870" 
d="M55 645q0 78 29.5 146.5t82 121t121 82t148.5 29.5q78 0 147.5 -29.5t121.5 -82t82 -121t30 -146.5v-137q0 -47 -32 -79t-77 -32h-432v-26q0 -66 47 -112t113 -46q25 0 56.5 6t60.5 41q12 14 30.5 29.5t40 24t46 7t49.5 -19.5q32 -22 43.5 -64t-21.5 -90
q-45 -59 -116.5 -107t-188.5 -48q-78 0 -147.5 29.5t-122 82t-82 121t-29.5 146.5v274zM276 618h322v27q0 33 -13.5 61.5t-35 50t-51 34t-62.5 12.5q-68 0 -114 -46t-46 -112v-27zM561 1439q0 32 22.5 53.5t61.5 21.5q14 0 26.5 5t21.5 13.5t13.5 19t4.5 20.5q0 12 -4.5 22
t-12 17.5t-18.5 12t-23 4.5q-19 0 -33 -10.5t-22 -28.5q-10 -22 -29.5 -33t-39.5 -11q-34 0 -54 23.5t-20 51.5q0 15 4 28q12 30 31.5 53.5t45 41t55.5 27t62 9.5q43 0 81 -16.5t66 -44.5t44.5 -66t16.5 -81q0 -36 -13 -71t-37.5 -64t-59 -47.5t-46 -20.5t-28.5 -14.5
t-41 -12.5q-32 0 -53.5 22.5t-21.5 53.5v22zM364 1397q27 18 55 18q37 0 66 -22l125 -90q22 -17 34.5 -41.5t12.5 -47.5q0 -47 -36 -78.5t-79 -31.5q-16 0 -31.5 4t-29.5 16q-21 15 -32 21t-32 20q-16 -10 -27.5 -20t-27.5 -21q-33 -20 -64 -20q-47 0 -79.5 31.5t-32.5 78.5
q0 23 12 47.5t35 41.5z" />
    <glyph glyph-name="uni1EC5" unicode="&#x1ec5;" horiz-adv-x="870" 
d="M55 645q0 78 29.5 146.5t82 121t121 82t148.5 29.5q78 0 147.5 -29.5t121.5 -82t82 -121t30 -146.5v-137q0 -47 -32 -79t-77 -32h-432v-26q0 -66 47 -112t113 -46q25 0 56.5 6t60.5 41q12 14 30.5 29.5t40 24t46 7t49.5 -19.5q32 -22 43.5 -64t-21.5 -90
q-45 -59 -116.5 -107t-188.5 -48q-78 0 -147.5 29.5t-122 82t-82 121t-29.5 146.5v274zM276 618h322v27q0 33 -13.5 61.5t-35 50t-51 34t-62.5 12.5q-68 0 -114 -46t-46 -112v-27zM192 1565q0 38 23.5 65t57.5 42t71.5 21.5t64.5 6.5q29 0 63 -13h-2q17 -4 33.5 -7t38.5 -3
q41 0 57.5 3t22.5 7h-2q18 13 37 13q45 0 77.5 -32t32.5 -79q0 -39 -24.5 -64.5t-58 -41t-70.5 -21.5t-62 -6q-49 0 -116 21h4h-23q-41 0 -60.5 -6.5t-29.5 -10.5q-4 -2 -7 -3t-15 -1q-44 0 -78.5 32t-34.5 77zM364 1397q27 18 55 18q37 0 66 -22l125 -90q22 -17 34.5 -41.5
t12.5 -47.5q0 -47 -36 -78.5t-79 -31.5q-16 0 -31.5 4t-29.5 16q-21 15 -32 21t-32 20q-16 -10 -27.5 -20t-27.5 -21q-33 -20 -64 -20q-47 0 -79.5 31.5t-32.5 78.5q0 23 12 47.5t35 41.5z" />
    <glyph glyph-name="uni1EC7" unicode="&#x1ec7;" horiz-adv-x="870" 
d="M55 645q0 78 29.5 146.5t82 121t121 82t148.5 29.5q78 0 147.5 -29.5t121.5 -82t82 -121t30 -146.5v-137q0 -47 -32 -79t-77 -32h-432v-26q0 -66 47 -112t113 -46q25 0 56.5 6t60.5 41q12 14 30.5 29.5t40 24t46 7t49.5 -19.5q32 -22 43.5 -64t-21.5 -90
q-45 -59 -116.5 -107t-188.5 -48q-78 0 -147.5 29.5t-122 82t-82 121t-29.5 146.5v274zM276 618h322v27q0 33 -13.5 61.5t-35 50t-51 34t-62.5 12.5q-68 0 -114 -46t-46 -112v-27zM317 -220q0 49 34.5 84t84.5 35q49 0 85 -35t36 -84q0 -52 -35 -86.5t-86 -34.5
q-47 0 -83 34.5t-36 86.5zM364 1397q27 18 55 18q37 0 66 -22l125 -90q22 -17 34.5 -41.5t12.5 -47.5q0 -47 -36 -78.5t-79 -31.5q-16 0 -31.5 4t-29.5 16q-21 15 -32 21t-32 20q-16 -10 -27.5 -20t-27.5 -21q-33 -20 -64 -20q-47 0 -79.5 31.5t-32.5 78.5q0 23 12 47.5
t35 41.5z" />
    <glyph glyph-name="igrave" unicode="&#xec;" horiz-adv-x="387" 
d="M83 905q0 47 31.5 79t78.5 32q45 0 78 -32t33 -79v-794q0 -48 -33 -79.5t-78 -31.5t-77.5 31.5t-32.5 79.5v794zM-16 1343v-2q-16 27 -16 60q0 43 33 75.5t80 32.5q59 0 92 -53l78 -135q10 -16 12 -30.5t2 -26.5q0 -45 -30.5 -77t-78.5 -32q-59 0 -94 53z" />
    <glyph glyph-name="iacute" unicode="&#xed;" horiz-adv-x="428" 
d="M53 905q0 47 31.5 79t79.5 32q45 0 77.5 -32t32.5 -79v-794q0 -48 -31.5 -79.5t-78.5 -31.5q-45 0 -78 31.5t-33 79.5v794zM157 1458q33 53 95 53q47 0 77.5 -32.5t30.5 -75.5q0 -14 -2 -29.5t-12 -30.5v3l-39.5 -67t-38.5 -69q-33 -53 -92 -53q-47 0 -80 32t-33 77
q0 28 17 57z" />
    <glyph glyph-name="uni1EC9" unicode="&#x1ec9;" horiz-adv-x="360" 
d="M68 905q0 47 32 79t77 32t77.5 -32t32.5 -79v-794q0 -48 -31.5 -79.5t-78.5 -31.5q-43 0 -76 31.5t-33 79.5v794zM76 1206q0 32 22.5 53.5t61.5 21.5q14 0 26.5 5t21.5 13.5t13.5 19t4.5 20.5q0 12 -4.5 22t-12 17.5t-18.5 12t-23 4.5q-19 0 -33 -10.5t-22 -28.5
q-10 -22 -29.5 -33t-39.5 -11q-34 0 -54 23.5t-20 51.5q0 15 4 28q12 30 31.5 53.5t45 41t55.5 27t62 9.5q43 0 81 -16.5t66 -44.5t44.5 -66t16.5 -81q0 -36 -13 -71t-37.5 -64t-59 -47.5t-46 -20.5t-28.5 -14.5t-41 -12.5q-32 0 -53.5 22.5t-21.5 53.5v22z" />
    <glyph glyph-name="itilde" unicode="&#x129;" horiz-adv-x="360" 
d="M68 905q0 47 32 79t77 32t78 -32t33 -79v-794q0 -48 -32 -79.5t-79 -31.5q-43 0 -76 31.5t-33 79.5v794zM-79 1198q0 38 23.5 65t57.5 42t71.5 21.5t64.5 6.5q29 0 64 -13h-2q16 -4 32.5 -7t38.5 -3q41 0 57.5 3t22.5 7h-2q18 13 37 13q45 0 77.5 -32t32.5 -79
q0 -39 -24.5 -64.5t-58 -41t-70.5 -21.5t-62 -6q-49 0 -116 21h4h-23q-41 0 -60.5 -6.5t-29.5 -10.5q-4 -2 -7 -3t-15 -1q-43 0 -78 32t-35 77z" />
    <glyph glyph-name="uni1ECB" unicode="&#x1ecb;" horiz-adv-x="360" 
d="M68 905q0 47 32 79t77 32t78 -32t33 -79v-794q0 -48 -32 -79.5t-79 -31.5q-43 0 -76 31.5t-33 79.5v794zM68 1239q0 47 32 79t77 32t78 -32t33 -79v-55q0 -45 -32 -77t-79 -32q-43 0 -76 32t-33 77v55zM65 -220q0 49 35 84t84 35t85 -35t36 -84q0 -52 -34.5 -86.5
t-86.5 -34.5q-47 0 -83 34.5t-36 86.5z" />
    <glyph glyph-name="ograve" unicode="&#xf2;" horiz-adv-x="858" 
d="M55 645q0 78 29.5 146.5t82 121t121 82t148.5 29.5q78 0 147.5 -29.5t121.5 -82t82 -121t30 -146.5v-274q0 -78 -30 -146.5t-82 -121t-120.5 -82t-148.5 -29.5q-78 0 -147.5 29.5t-122 82t-82 121t-29.5 146.5v274zM276 371q0 -66 47 -112t113 -46q70 0 116 46t46 112
v274q0 33 -13.5 61.5t-35 50t-51 34t-62.5 12.5q-68 0 -114 -46t-46 -112v-274zM239 1343v-2q-16 27 -16 60q0 43 32.5 75.5t80.5 32.5q59 0 92 -53l78 -135q10 -16 12 -30.5t2 -26.5q0 -45 -31 -77t-78 -32q-59 0 -94 53z" />
    <glyph glyph-name="oacute" unicode="&#xf3;" horiz-adv-x="858" 
d="M55 645q0 78 29.5 146.5t82 121t121 82t148.5 29.5q78 0 147.5 -29.5t121.5 -82t82 -121t30 -146.5v-274q0 -78 -30 -146.5t-82 -121t-120.5 -82t-148.5 -29.5q-78 0 -147.5 29.5t-122 82t-82 121t-29.5 146.5v274zM276 371q0 -66 47 -112t113 -46q70 0 116 46t46 112
v274q0 33 -13.5 61.5t-35 50t-51 34t-62.5 12.5q-68 0 -114 -46t-46 -112v-274zM417 1458q33 53 95 53q47 0 77.5 -32.5t30.5 -75.5q0 -14 -2 -29.5t-12 -30.5v3l-39 -67l-39 -69q-33 -53 -92 -53q-47 0 -80 32t-33 77q0 28 17 57z" />
    <glyph glyph-name="uni1ECF" unicode="&#x1ecf;" horiz-adv-x="872" 
d="M55 645q0 78 29.5 146.5t82 121t121 82t148.5 29.5q78 0 147.5 -29.5t121.5 -82t82 -121t30 -146.5v-274q0 -78 -30 -146.5t-82 -121t-120.5 -82t-148.5 -29.5q-78 0 -147.5 29.5t-122 82t-82 121t-29.5 146.5v274zM276 371q0 -66 47 -112t113 -46q70 0 116 46t46 112
v274q0 33 -13.5 61.5t-35 50t-51 34t-62.5 12.5q-68 0 -114 -46t-46 -112v-274zM347 1206q0 32 22.5 53.5t61.5 21.5q14 0 26.5 5t21.5 13.5t13.5 19t4.5 20.5q0 12 -4.5 22t-12 17.5t-18.5 12t-23 4.5q-19 0 -33 -10.5t-22 -28.5q-10 -22 -29.5 -33t-39.5 -11
q-34 0 -54 23.5t-20 51.5q0 15 4 28q12 30 31.5 53.5t45 41t55.5 27t62 9.5q43 0 81 -16.5t66 -44.5t44.5 -66t16.5 -81q0 -36 -13 -71t-37.5 -64t-59 -47.5t-46 -20.5t-28.5 -14.5t-41 -12.5q-32 0 -53.5 22.5t-21.5 53.5v22z" />
    <glyph glyph-name="otilde" unicode="&#xf5;" horiz-adv-x="858" 
d="M55 645q0 78 29.5 146.5t82 121t121 82t148.5 29.5q78 0 147.5 -29.5t121.5 -82t82 -121t30 -146.5v-274q0 -78 -30 -146.5t-82 -121t-120.5 -82t-148.5 -29.5q-78 0 -147.5 29.5t-122 82t-82 121t-29.5 146.5v274zM276 371q0 -66 47 -112t113 -46q70 0 116 46t46 112
v274q0 33 -13.5 61.5t-35 50t-51 34t-62.5 12.5q-68 0 -114 -46t-46 -112v-274zM143 1303q0 38 23.5 65t57.5 42t72 21.5t64 6.5q29 0 64 -13h-2q16 -4 32.5 -7t38.5 -3q41 0 57.5 3t22.5 7h-2q19 13 37 13q45 0 78 -32t33 -79q0 -39 -25 -64.5t-58.5 -41t-70.5 -21.5
t-61 -6q-50 0 -117 20h4h-23q-41 0 -60.5 -6t-29.5 -10q-4 -2 -7 -3t-15 -1q-43 0 -78 31.5t-35 77.5z" />
    <glyph glyph-name="uni1ECD" unicode="&#x1ecd;" horiz-adv-x="872" 
d="M55 645q0 78 29.5 146.5t82 121t121 82t148.5 29.5q78 0 147.5 -29.5t121.5 -82t82 -121t30 -146.5v-274q0 -78 -30 -146.5t-82 -121t-120.5 -82t-148.5 -29.5q-78 0 -147.5 29.5t-122 82t-82 121t-29.5 146.5v274zM276 371q0 -66 47 -112t113 -46q70 0 116 46t46 112
v274q0 33 -13.5 61.5t-35 50t-51 34t-62.5 12.5q-68 0 -114 -46t-46 -112v-274zM317 -220q0 49 34.5 84t84.5 35q49 0 85 -35t36 -84q0 -52 -35 -86.5t-86 -34.5q-47 0 -83 34.5t-36 86.5z" />
    <glyph glyph-name="ocircumflex" unicode="&#xf4;" horiz-adv-x="858" 
d="M55 645q0 78 29.5 146.5t82 121t121 82t148.5 29.5q78 0 147.5 -29.5t121.5 -82t82 -121t30 -146.5v-274q0 -78 -30 -146.5t-82 -121t-120.5 -82t-148.5 -29.5q-78 0 -147.5 29.5t-122 82t-82 121t-29.5 146.5v274zM276 371q0 -66 47 -112t113 -46q70 0 116 46t46 112
v274q0 33 -13.5 61.5t-35 50t-51 34t-62.5 12.5q-68 0 -114 -46t-46 -112v-274zM374 1397q27 18 56 18q37 0 65 -22l125 -90q23 -17 35 -41.5t12 -47.5q0 -47 -35.5 -78.5t-78.5 -31.5q-17 0 -32 4t-30 16q-20 15 -31.5 21t-31.5 20q-17 -10 -28 -20t-28 -21
q-32 -20 -63 -20q-47 0 -80 31.5t-33 78.5q0 23 12.5 47.5t34.5 41.5z" />
    <glyph glyph-name="uni1ED3" unicode="&#x1ed3;" horiz-adv-x="858" 
d="M55 645q0 78 29.5 146.5t82 121t121 82t148.5 29.5q78 0 147.5 -29.5t121.5 -82t82 -121t30 -146.5v-274q0 -78 -30 -146.5t-82 -121t-120.5 -82t-148.5 -29.5q-78 0 -147.5 29.5t-122 82t-82 121t-29.5 146.5v274zM276 371q0 -66 47 -112t113 -46q70 0 116 46t46 112
v274q0 33 -13.5 61.5t-35 50t-51 34t-62.5 12.5q-68 0 -114 -46t-46 -112v-274zM455 1558v-2q-16 27 -16 60q0 43 32.5 75.5t80.5 32.5q59 0 92 -53l78 -135q10 -16 12 -30.5t2 -26.5q0 -45 -31 -77t-78 -32q-59 0 -94 53zM374 1397q27 18 56 18q37 0 65 -22l125 -90
q23 -17 35 -41.5t12 -47.5q0 -47 -35.5 -78.5t-78.5 -31.5q-17 0 -32 4t-30 16q-20 15 -31.5 21t-31.5 20q-17 -10 -28 -20t-28 -21q-32 -20 -63 -20q-47 0 -80 31.5t-33 78.5q0 23 12.5 47.5t34.5 41.5z" />
    <glyph glyph-name="uni1ED1" unicode="&#x1ed1;" horiz-adv-x="858" 
d="M55 645q0 78 29.5 146.5t82 121t121 82t148.5 29.5q78 0 147.5 -29.5t121.5 -82t82 -121t30 -146.5v-274q0 -78 -30 -146.5t-82 -121t-120.5 -82t-148.5 -29.5q-78 0 -147.5 29.5t-122 82t-82 121t-29.5 146.5v274zM276 371q0 -66 47 -112t113 -46q70 0 116 46t46 112
v274q0 33 -13.5 61.5t-35 50t-51 34t-62.5 12.5q-68 0 -114 -46t-46 -112v-274zM630 1664q33 53 95 53q47 0 77.5 -32.5t30.5 -75.5q0 -14 -2 -29.5t-12 -30.5v3l-39 -67l-39 -69q-33 -53 -92 -53q-47 0 -80 32t-33 77q0 28 17 57zM374 1397q27 18 56 18q37 0 65 -22
l125 -90q23 -17 35 -41.5t12 -47.5q0 -47 -35.5 -78.5t-78.5 -31.5q-17 0 -32 4t-30 16q-20 15 -31.5 21t-31.5 20q-17 -10 -28 -20t-28 -21q-32 -20 -63 -20q-47 0 -80 31.5t-33 78.5q0 23 12.5 47.5t34.5 41.5z" />
    <glyph glyph-name="uni1ED5" unicode="&#x1ed5;" horiz-adv-x="872" 
d="M55 645q0 78 29.5 146.5t82 121t121 82t148.5 29.5q78 0 147.5 -29.5t121.5 -82t82 -121t30 -146.5v-274q0 -78 -30 -146.5t-82 -121t-120.5 -82t-148.5 -29.5q-78 0 -147.5 29.5t-122 82t-82 121t-29.5 146.5v274zM276 371q0 -66 47 -112t113 -46q70 0 116 46t46 112
v274q0 33 -13.5 61.5t-35 50t-51 34t-62.5 12.5q-68 0 -114 -46t-46 -112v-274zM553 1466q0 32 22.5 53.5t61.5 21.5q14 0 26.5 5t21.5 13.5t13.5 19t4.5 20.5q0 12 -4.5 22t-12 17.5t-18.5 12t-23 4.5q-19 0 -33 -10.5t-22 -28.5q-10 -22 -29.5 -33t-39.5 -11
q-34 0 -54 23.5t-20 51.5q0 15 4 28q12 30 31.5 53.5t45 41t55.5 27t62 9.5q43 0 81 -16.5t66 -44.5t44.5 -66t16.5 -81q0 -36 -13 -71t-37.5 -64t-59 -47.5t-46 -20.5t-28.5 -14.5t-41 -12.5q-32 0 -53.5 22.5t-21.5 53.5v22zM374 1397q27 18 55 18q37 0 66 -22l125 -90
q22 -17 34.5 -41.5t12.5 -47.5q0 -47 -36 -78.5t-79 -31.5q-16 0 -31.5 4t-29.5 16q-21 15 -32 21t-32 20q-16 -10 -27 -20t-28 -21q-33 -20 -63 -20q-47 0 -80 31.5t-33 78.5q0 23 12.5 47.5t34.5 41.5z" />
    <glyph glyph-name="uni1ED7" unicode="&#x1ed7;" horiz-adv-x="858" 
d="M55 645q0 78 29.5 146.5t82 121t121 82t148.5 29.5q78 0 147.5 -29.5t121.5 -82t82 -121t30 -146.5v-274q0 -78 -30 -146.5t-82 -121t-120.5 -82t-148.5 -29.5q-78 0 -147.5 29.5t-122 82t-82 121t-29.5 146.5v274zM276 371q0 -66 47 -112t113 -46q70 0 116 46t46 112
v274q0 33 -13.5 61.5t-35 50t-51 34t-62.5 12.5q-68 0 -114 -46t-46 -112v-274zM195 1556q0 38 23.5 65t57.5 42t72 21.5t64 6.5q29 0 64 -13h-2q16 -4 32.5 -7t38.5 -3q41 0 57.5 3t22.5 7h-2q19 13 37 13q45 0 78 -32t33 -79q0 -39 -25 -64.5t-58.5 -41t-70.5 -21.5
t-61 -6q-50 0 -117 20h4h-23q-41 0 -60.5 -6t-29.5 -10q-4 -2 -7 -3t-15 -1q-43 0 -78 31.5t-35 77.5zM374 1397q27 18 56 18q37 0 65 -22l125 -90q23 -17 35 -41.5t12 -47.5q0 -47 -35.5 -78.5t-78.5 -31.5q-17 0 -32 4t-30 16q-20 15 -31.5 21t-31.5 20q-17 -10 -28 -20
t-28 -21q-32 -20 -63 -20q-47 0 -80 31.5t-33 78.5q0 23 12.5 47.5t34.5 41.5z" />
    <glyph glyph-name="uni1ED9" unicode="&#x1ed9;" horiz-adv-x="872" 
d="M55 645q0 78 29.5 146.5t82 121t121 82t148.5 29.5q78 0 147.5 -29.5t121.5 -82t82 -121t30 -146.5v-274q0 -78 -30 -146.5t-82 -121t-120.5 -82t-148.5 -29.5q-78 0 -147.5 29.5t-122 82t-82 121t-29.5 146.5v274zM276 371q0 -66 47 -112t113 -46q70 0 116 46t46 112
v274q0 33 -13.5 61.5t-35 50t-51 34t-62.5 12.5q-68 0 -114 -46t-46 -112v-274zM317 -220q0 49 34.5 84t84.5 35q49 0 85 -35t36 -84q0 -52 -35 -86.5t-86 -34.5q-47 0 -83 34.5t-36 86.5zM374 1397q27 18 55 18q37 0 66 -22l125 -90q22 -17 34.5 -41.5t12.5 -47.5
q0 -47 -36 -78.5t-79 -31.5q-16 0 -31.5 4t-29.5 16q-21 15 -32 21t-32 20q-16 -10 -27 -20t-28 -21q-33 -20 -63 -20q-47 0 -80 31.5t-33 78.5q0 23 12.5 47.5t34.5 41.5z" />
    <glyph glyph-name="glyph216" unicode="&#xf9;" horiz-adv-x="872" 
d="M63 905q0 47 31.5 79t79.5 32q43 0 75.5 -32t32.5 -79v-534q0 -66 47 -112t115 -46q33 0 62.5 12.5t51 34t35 50t13.5 61.5v534q0 47 31.5 79t76.5 32t78 -32t33 -79v-534q0 -78 -30 -146.5t-82 -121t-121.5 -82t-147.5 -29.5q-80 0 -148.5 29.5t-121 82t-82 121
t-29.5 146.5v534zM272 1343v-2q-16 27 -16 60q0 43 32.5 75.5t79.5 32.5q60 0 92 -53l78 -135q10 -16 12 -30.5t2 -26.5q0 -45 -30.5 -77t-77.5 -32q-59 0 -94 53z" />
    <glyph glyph-name="glyph217" unicode="&#xfa;" horiz-adv-x="872" 
d="M63 905q0 47 31.5 79t79.5 32q43 0 75.5 -32t32.5 -79v-534q0 -66 47 -112t115 -46q33 0 62.5 12.5t51 34t35 50t13.5 61.5v534q0 47 31.5 79t76.5 32t78 -32t33 -79v-534q0 -78 -30 -146.5t-82 -121t-121.5 -82t-147.5 -29.5q-80 0 -148.5 29.5t-121 82t-82 121
t-29.5 146.5v534zM432 1458q32 53 94 53q47 0 77.5 -32.5t30.5 -75.5q0 -14 -2 -29.5t-12 -30.5v3q-18 -33 -38.5 -67t-39.5 -69q-33 -53 -92 -53q-47 0 -80 32t-33 77q0 28 17 57z" />
    <glyph glyph-name="uni1EE7" unicode="&#x1ee7;" horiz-adv-x="888" 
d="M63 905q0 47 31.5 79t79.5 32q43 0 75.5 -32t32.5 -79v-534q0 -66 47 -112t115 -46q33 0 62.5 12.5t51 34t35 50t13.5 61.5v534q0 47 31.5 79t76.5 32t78 -32t33 -79v-534q0 -78 -30 -146.5t-82 -121t-121.5 -82t-147.5 -29.5q-80 0 -148.5 29.5t-121 82t-82 121
t-29.5 146.5v534zM347 1206q0 32 22.5 53.5t60.5 21.5q15 0 27.5 5t21 13.5t13 19t4.5 20.5q0 12 -4 22t-12 17.5t-18.5 12t-22.5 4.5q-19 0 -33 -10.5t-22 -28.5q-10 -22 -29.5 -33t-39.5 -11q-34 0 -54 23.5t-20 51.5q0 15 4 28q12 30 31.5 53.5t45 41t55.5 27t62 9.5
q43 0 81 -16.5t66 -44.5t44.5 -66t16.5 -81q0 -36 -13 -71t-37.5 -64t-59 -47.5t-46 -20.5t-28.5 -14.5t-41 -12.5q-32 0 -53.5 22.5t-21.5 53.5v22z" />
    <glyph glyph-name="utilde" unicode="&#x169;" horiz-adv-x="888" 
d="M63 905q0 47 31.5 79t79.5 32q43 0 75.5 -32t32.5 -79v-534q0 -66 47 -112t115 -46q33 0 62.5 12.5t51 34t35 50t13.5 61.5v534q0 47 31.5 79t76.5 32t78 -32t33 -79v-534q0 -78 -30 -146.5t-82 -121t-121.5 -82t-147.5 -29.5q-80 0 -148.5 29.5t-121 82t-82 121
t-29.5 146.5v534zM156 1303q0 38 23.5 65t57.5 42t72 21.5t64 6.5q29 0 64 -13h-2q16 -4 32.5 -7t38.5 -3q41 0 57.5 3t22.5 7h-2q19 13 37 13q45 0 78 -32t33 -79q0 -39 -24.5 -64.5t-58.5 -41t-71 -21.5t-61 -6q-50 0 -117 20h4h-23q-40 0 -59.5 -6t-30.5 -10q-4 -2 -7 -3
t-15 -1q-43 0 -78 31.5t-35 77.5z" />
    <glyph glyph-name="uni1EE5" unicode="&#x1ee5;" horiz-adv-x="888" 
d="M63 905q0 47 31.5 79t79.5 32q43 0 75.5 -32t32.5 -79v-534q0 -66 47 -112t115 -46q33 0 62.5 12.5t51 34t35 50t13.5 61.5v534q0 47 31.5 79t76.5 32t78 -32t33 -79v-534q0 -78 -30 -146.5t-82 -121t-121.5 -82t-147.5 -29.5q-80 0 -148.5 29.5t-121 82t-82 121
t-29.5 146.5v534zM324 -220q0 49 34.5 84t84.5 35q49 0 85 -35t36 -84q0 -52 -35 -86.5t-86 -34.5q-47 0 -83 34.5t-36 86.5z" />
    <glyph glyph-name="uhorn" unicode="&#x1b0;" horiz-adv-x="888" 
d="M63 905q0 47 31.5 79t79.5 32q43 0 75.5 -32t32.5 -79v-534q0 -66 47 -112t115 -46q33 0 62.5 12.5t51 34t35 50t13.5 61.5v534q0 47 31.5 79t76.5 32t78 -32t33 -79v-534q0 -78 -30 -146.5t-82 -121t-121.5 -82t-147.5 -29.5q-80 0 -148.5 29.5t-121 82t-82 121
t-29.5 146.5v534zM806 1017q16 42 57.5 60t84.5 1q40 -16 59 -57.5t3 -83.5l-57 -145q-17 -44 -58 -62t-83 -1q-42 16 -61 57.5t-2 85.5z" />
    <glyph glyph-name="uni1EEB" unicode="&#x1eeb;" horiz-adv-x="872" 
d="M272 1343v-2q-16 27 -16 60q0 43 32.5 75.5t79.5 32.5q60 0 92 -53l78 -135q10 -16 12 -30.5t2 -26.5q0 -45 -30.5 -77t-77.5 -32q-59 0 -94 53zM825 725v-354q0 -78 -30 -146.5t-82 -121t-121.5 -82t-147.5 -29.5q-80 0 -148.5 29.5t-121 82t-82 121t-29.5 146.5v534
q0 47 31.5 79t79.5 32q43 0 75.5 -32t32.5 -79v-534q0 -66 47 -112t115 -46q33 0 62.5 12.5t51 34t35 50t13.5 61.5v534q0 47 31.5 79t76.5 32t78 -32l1 -1l13 34q17 42 58 60t85 1q40 -16 59 -57.5t2 -83.5l-56 -145q-18 -44 -59 -62q-35 -15 -70 -5z" />
    <glyph glyph-name="uni1EE9" unicode="&#x1ee9;" horiz-adv-x="872" 
d="M432 1458q32 53 94 53q47 0 77.5 -32.5t30.5 -75.5q0 -14 -2 -29.5t-12 -30.5v3q-18 -33 -38.5 -67t-39.5 -69q-33 -53 -92 -53q-47 0 -80 32t-33 77q0 28 17 57zM825 725v-354q0 -78 -30 -146.5t-82 -121t-121.5 -82t-147.5 -29.5q-80 0 -148.5 29.5t-121 82t-82 121
t-29.5 146.5v534q0 47 31.5 79t79.5 32q43 0 75.5 -32t32.5 -79v-534q0 -66 47 -112t115 -46q33 0 62.5 12.5t51 34t35 50t13.5 61.5v534q0 47 31.5 79t76.5 32t78 -32l1 -1l13 34q17 42 58 60t85 1q40 -16 59 -57.5t2 -83.5l-56 -145q-18 -44 -59 -62q-35 -15 -70 -5z" />
    <glyph glyph-name="uni1EED" unicode="&#x1eed;" horiz-adv-x="888" 
d="M347 1206q0 32 22.5 53.5t61.5 21.5q14 0 26.5 5t21.5 13.5t13.5 19t4.5 20.5q0 12 -4.5 22t-12 17.5t-18 12t-23.5 4.5q-18 0 -32.5 -10.5t-22.5 -28.5q-10 -22 -29.5 -33t-38.5 -11q-35 0 -55 23.5t-20 51.5q0 15 5 28q11 30 31 53.5t45 41t55 27t62 9.5
q43 0 81.5 -16.5t66 -44.5t44 -66t16.5 -81q0 -36 -13 -71t-37 -64t-59 -47.5t-46.5 -20.5t-28 -14.5t-41.5 -12.5q-31 0 -53 22.5t-22 53.5v22zM825 725v-354q0 -78 -29.5 -146.5t-81.5 -121t-122 -82t-148 -29.5q-79 0 -148 29.5t-121 82t-82 121t-30 146.5v534
q0 47 32 79t79 32q43 0 76 -32t33 -79v-534q0 -66 47 -112t114 -46q33 0 63 12.5t51.5 34t34.5 50t13 61.5v534q0 47 32 79t77 32t78 -32v-1l13 34q17 42 58 60t85 1q40 -16 59 -57.5t2 -83.5l-56 -145q-18 -44 -59 -62q-35 -15 -70 -5z" />
    <glyph glyph-name="uni1EEF" unicode="&#x1eef;" horiz-adv-x="888" 
d="M157 1303q0 38 23.5 65t57 42t71.5 21.5t65 6.5q28 0 63 -13h-2q17 -4 33 -7t39 -3q41 0 57.5 3t22.5 7h-2q18 13 37 13q45 0 77.5 -32t32.5 -79q0 -39 -24.5 -64.5t-58.5 -41t-70.5 -21.5t-61.5 -6q-49 0 -117 20h4h-22q-41 0 -60.5 -6t-29.5 -10q-4 -2 -7 -3t-16 -1
q-43 0 -77.5 31.5t-34.5 77.5zM825 725v-354q0 -78 -29.5 -146.5t-81.5 -121t-122 -82t-148 -29.5q-79 0 -148 29.5t-121 82t-82 121t-30 146.5v534q0 47 32 79t79 32q43 0 76 -32t33 -79v-534q0 -66 47 -112t114 -46q33 0 63 12.5t51.5 34t34.5 50t13 61.5v534q0 47 32 79
t77 32t78 -32v-1l13 34q17 42 58 60t85 1q40 -16 59 -57.5t2 -83.5l-56 -145q-18 -44 -59 -62q-35 -15 -70 -5z" />
    <glyph glyph-name="uni1EF1" unicode="&#x1ef1;" horiz-adv-x="888" 
d="M324 -220q0 49 35 84t84 35q50 0 85.5 -35t35.5 -84q0 -52 -34.5 -86.5t-86.5 -34.5q-47 0 -83 34.5t-36 86.5zM825 725v-354q0 -78 -29.5 -146.5t-81.5 -121t-122 -82t-148 -29.5q-79 0 -148 29.5t-121 82t-82 121t-30 146.5v534q0 47 32 79t79 32q43 0 76 -32t33 -79
v-534q0 -66 47 -112t114 -46q33 0 63 12.5t51.5 34t34.5 50t13 61.5v534q0 47 32 79t77 32t78 -32v-1l13 34q17 42 58 60t85 1q40 -16 59 -57.5t2 -83.5l-56 -145q-18 -44 -59 -62q-35 -15 -70 -5z" />
    <glyph glyph-name="ohorn" unicode="&#x1a1;" horiz-adv-x="872" 
d="M276 371q0 -66 47.5 -112t112.5 -46q70 0 116 46t46 112v274q0 33 -13.5 61.5t-35 50t-51 34t-62.5 12.5q-67 0 -113.5 -46t-46.5 -112v-274zM809 721q8 -37 8 -76v-274q0 -78 -29.5 -146.5t-82 -121t-121 -82t-148.5 -29.5q-78 0 -147.5 29.5t-121.5 82t-82 121
t-30 146.5v274q0 78 30 146.5t82 121t120.5 82t148.5 29.5q78 0 147.5 -29.5t122.5 -81.5q2 -3 4 -5l42 109q17 42 58 60t85 1q40 -16 59 -57.5t2 -83.5l-56 -145q-18 -44 -59 -62q-16 -7 -32 -9z" />
    <glyph glyph-name="uni1EDD" unicode="&#x1edd;" horiz-adv-x="858" 
d="M276 371q0 -66 47 -112t113 -46q70 0 116 46t46 112v274q0 33 -13.5 61.5t-35 50t-51 34t-62.5 12.5q-68 0 -114 -46t-46 -112v-274zM239 1343v-2q-16 27 -16 60q0 43 32.5 75.5t80.5 32.5q59 0 92 -53l78 -135q10 -16 12 -30.5t2 -26.5q0 -45 -31 -77t-78 -32
q-59 0 -94 53zM809 721q8 -37 8 -76v-274q0 -78 -30 -146.5t-82 -121t-120.5 -82t-148.5 -29.5q-78 0 -147.5 29.5t-122 82t-82 121t-29.5 146.5v274q0 78 29.5 146.5t82 121t121 82t148.5 29.5q78 0 147.5 -29.5t121.5 -81.5q2 -3 5 -5l42 109q17 42 58 60t85 1
q40 -16 59 -57.5t2 -83.5l-56 -145q-18 -44 -59 -62q-16 -7 -32 -9z" />
    <glyph glyph-name="uni1EDB" unicode="&#x1edb;" horiz-adv-x="858" 
d="M276 371q0 -66 47 -112t113 -46q70 0 116 46t46 112v274q0 33 -13.5 61.5t-35 50t-51 34t-62.5 12.5q-68 0 -114 -46t-46 -112v-274zM417 1458q33 53 95 53q47 0 77.5 -32.5t30.5 -75.5q0 -14 -2 -29.5t-12 -30.5v3l-39 -67l-39 -69q-33 -53 -92 -53q-47 0 -80 32t-33 77
q0 28 17 57zM809 721q8 -37 8 -76v-274q0 -78 -30 -146.5t-82 -121t-120.5 -82t-148.5 -29.5q-78 0 -147.5 29.5t-122 82t-82 121t-29.5 146.5v274q0 78 29.5 146.5t82 121t121 82t148.5 29.5q78 0 147.5 -29.5t121.5 -81.5q2 -3 5 -5l42 109q17 42 58 60t85 1
q40 -16 59 -57.5t2 -83.5l-56 -145q-18 -44 -59 -62q-16 -7 -32 -9z" />
    <glyph glyph-name="uni1EDF" unicode="&#x1edf;" horiz-adv-x="872" 
d="M276 371q0 -66 47.5 -112t112.5 -46q70 0 116 46t46 112v274q0 33 -13.5 61.5t-35 50t-51 34t-62.5 12.5q-67 0 -113.5 -46t-46.5 -112v-274zM347 1206q0 32 22.5 53.5t61.5 21.5q14 0 26.5 5t21.5 13.5t13.5 19t4.5 20.5q0 12 -4.5 22t-12 17.5t-18 12t-23.5 4.5
q-18 0 -32.5 -10.5t-22.5 -28.5q-10 -22 -29.5 -33t-38.5 -11q-35 0 -55 23.5t-20 51.5q0 15 5 28q11 30 31 53.5t45 41t55 27t62 9.5q43 0 81.5 -16.5t66 -44.5t44 -66t16.5 -81q0 -36 -13 -71t-37 -64t-59 -47.5t-46.5 -20.5t-28 -14.5t-41.5 -12.5q-31 0 -53 22.5
t-22 53.5v22zM809 721q8 -37 8 -76v-274q0 -78 -29.5 -146.5t-82 -121t-121 -82t-148.5 -29.5q-78 0 -147.5 29.5t-121.5 82t-82 121t-30 146.5v274q0 78 30 146.5t82 121t120.5 82t148.5 29.5q78 0 147.5 -29.5t122.5 -81.5q2 -3 4 -5l42 109q17 42 58 60t85 1
q40 -16 59 -57.5t2 -83.5l-56 -145q-18 -44 -59 -62q-16 -7 -32 -9z" />
    <glyph glyph-name="uni1EE1" unicode="&#x1ee1;" horiz-adv-x="858" 
d="M276 371q0 -66 47 -112t113 -46q70 0 116 46t46 112v274q0 33 -13.5 61.5t-35 50t-51 34t-62.5 12.5q-68 0 -114 -46t-46 -112v-274zM143 1303q0 38 23.5 65t57.5 42t72 21.5t64 6.5q29 0 64 -13h-2q16 -4 32.5 -7t38.5 -3q41 0 57.5 3t22.5 7h-2q19 13 37 13
q45 0 78 -32t33 -79q0 -39 -25 -64.5t-58.5 -41t-70.5 -21.5t-61 -6q-50 0 -117 20h4h-23q-41 0 -60.5 -6t-29.5 -10q-4 -2 -7 -3t-15 -1q-43 0 -78 31.5t-35 77.5zM809 721q8 -37 8 -76v-274q0 -78 -30 -146.5t-82 -121t-120.5 -82t-148.5 -29.5q-78 0 -147.5 29.5t-122 82
t-82 121t-29.5 146.5v274q0 78 29.5 146.5t82 121t121 82t148.5 29.5q78 0 147.5 -29.5t121.5 -81.5q2 -3 5 -5l42 109q17 42 58 60t85 1q40 -16 59 -57.5t2 -83.5l-56 -145q-18 -44 -59 -62q-16 -7 -32 -9z" />
    <glyph glyph-name="uni1EE3" unicode="&#x1ee3;" horiz-adv-x="872" 
d="M276 371q0 -66 47.5 -112t112.5 -46q70 0 116 46t46 112v274q0 33 -13.5 61.5t-35 50t-51 34t-62.5 12.5q-67 0 -113.5 -46t-46.5 -112v-274zM317 -220q0 49 35 84t84 35q50 0 85.5 -35t35.5 -84q0 -52 -34.5 -86.5t-86.5 -34.5q-47 0 -83 34.5t-36 86.5zM809 721
q8 -37 8 -76v-274q0 -78 -29.5 -146.5t-82 -121t-121 -82t-148.5 -29.5q-78 0 -147.5 29.5t-121.5 82t-82 121t-30 146.5v274q0 78 30 146.5t82 121t120.5 82t148.5 29.5q78 0 147.5 -29.5t122.5 -81.5q2 -3 4 -5l42 109q17 42 58 60t85 1q40 -16 59 -57.5t2 -83.5l-56 -145
q-18 -44 -59 -62q-16 -7 -32 -9z" />
    <glyph glyph-name="ygrave" unicode="&#x1ef3;" horiz-adv-x="854" 
d="M45 905q0 47 31.5 79t79.5 32q45 0 77.5 -32t32.5 -79v-534q0 -66 46 -112t114 -46q33 0 62.5 12.5t51 34t35 50t13.5 61.5v534q0 47 31.5 79t78.5 32q43 0 76 -32t33 -79v-534q0 -66 -20.5 -124.5t-56.5 -105.5t-85 -81.5t-108 -51.5v-231q0 -47 -32 -79t-79 -32
q-43 0 -76 32t-33 79v231q-59 17 -109 51.5t-86 81.5t-56.5 105.5t-20.5 124.5v534zM272 1343v-2q-17 27 -17 60q0 43 33 75.5t80 32.5q59 0 92 -53l78 -135q10 -16 12 -30.5t2 -26.5q0 -45 -30.5 -77t-77.5 -32q-60 0 -94 53z" />
    <glyph glyph-name="glyph234" unicode="&#xfd;" horiz-adv-x="831" 
d="M45 905q0 47 31.5 79t79.5 32q45 0 77.5 -32t32.5 -79v-534q0 -66 46 -112t114 -46q33 0 62.5 12.5t51 34t35 50t13.5 61.5v534q0 47 31.5 79t78.5 32q43 0 76 -32t33 -79v-534q0 -66 -20.5 -124.5t-56.5 -105.5t-85 -81.5t-108 -51.5v-231q0 -47 -32 -79t-79 -32
q-43 0 -76 32t-33 79v231q-59 17 -109 51.5t-86 81.5t-56.5 105.5t-20.5 124.5v534zM420 1454q33 53 94 53q47 0 78 -32.5t31 -75.5q0 -15 -2.5 -30t-12.5 -30v2l-38.5 -66t-39.5 -69q-32 -53 -92 -53q-47 0 -79.5 32t-32.5 77q0 28 16 57z" />
    <glyph glyph-name="uni1EF7" unicode="&#x1ef7;" horiz-adv-x="854" 
d="M45 905q0 47 31.5 79t79.5 32q45 0 77.5 -32t32.5 -79v-534q0 -66 46 -112t114 -46q33 0 62.5 12.5t51 34t35 50t13.5 61.5v534q0 47 31.5 79t78.5 32q43 0 76 -32t33 -79v-534q0 -66 -20.5 -124.5t-56.5 -105.5t-85 -81.5t-108 -51.5v-231q0 -47 -32 -79t-79 -32
q-43 0 -76 32t-33 79v231q-59 17 -109 51.5t-86 81.5t-56.5 105.5t-20.5 124.5v534zM347 1206q0 32 22.5 53.5t61.5 21.5q14 0 26.5 5t21.5 13.5t13.5 19t4.5 20.5q0 12 -4.5 22t-12 17.5t-18 12t-23.5 4.5q-18 0 -32.5 -10.5t-22.5 -28.5q-10 -22 -29.5 -33t-39.5 -11
q-34 0 -54 23.5t-20 51.5q0 15 5 28q11 30 31 53.5t45 41t55 27t62 9.5q43 0 81.5 -16.5t66 -44.5t44 -66t16.5 -81q0 -36 -13 -71t-37 -64t-59 -47.5t-46.5 -20.5t-28 -14.5t-41.5 -12.5q-31 0 -53 22.5t-22 53.5v22z" />
    <glyph glyph-name="uni1EF9" unicode="&#x1ef9;" horiz-adv-x="854" 
d="M45 905q0 47 31.5 79t79.5 32q45 0 77.5 -32t32.5 -79v-534q0 -66 46 -112t114 -46q33 0 62.5 12.5t51 34t35 50t13.5 61.5v534q0 47 31.5 79t78.5 32q43 0 76 -32t33 -79v-534q0 -66 -20.5 -124.5t-56.5 -105.5t-85 -81.5t-108 -51.5v-231q0 -47 -32 -79t-79 -32
q-43 0 -76 32t-33 79v231q-59 17 -109 51.5t-86 81.5t-56.5 105.5t-20.5 124.5v534zM157 1303q0 38 23.5 65t57 42t71.5 21.5t65 6.5q28 0 63 -13h-2q17 -4 33 -7t39 -3q41 0 57.5 3t22.5 7h-2q18 13 37 13q45 0 77.5 -32t32.5 -79q0 -39 -24.5 -64.5t-58.5 -41t-70.5 -21.5
t-61.5 -6q-49 0 -117 20h4h-22q-41 0 -60.5 -6t-29.5 -10q-4 -2 -7 -3t-16 -1q-43 0 -77.5 31.5t-34.5 77.5z" />
    <glyph glyph-name="uni1EF5" unicode="&#x1ef5;" horiz-adv-x="854" 
d="M45 905q0 47 31.5 79t79.5 32q45 0 77.5 -32t32.5 -79v-534q0 -66 46 -112t114 -46q33 0 62.5 12.5t51 34t35 50t13.5 61.5v534q0 47 31.5 79t78.5 32q43 0 76 -32t33 -79v-534q0 -66 -20.5 -124.5t-56.5 -105.5t-85 -81.5t-108 -51.5v-231q0 -47 -32 -79t-79 -32
q-43 0 -76 32t-33 79v231q-59 17 -109 51.5t-86 81.5t-56.5 105.5t-20.5 124.5v534zM306 -520q0 49 34.5 84t84.5 35q49 0 85 -35t36 -84q0 -52 -35 -86.5t-86 -34.5q-47 0 -83 34.5t-36 86.5z" />
    <glyph glyph-name="divide" unicode="&#xf7;" horiz-adv-x="1706" 
 />
    <glyph glyph-name="ugrave" horiz-adv-x="582" 
 />
    <glyph glyph-name="uacute" horiz-adv-x="580" 
 />
    <glyph glyph-name="yacute" horiz-adv-x="629" 
 />
    <glyph glyph-name="Ccaron" unicode="&#x10c;" horiz-adv-x="1274" 
 />
    <glyph glyph-name="ccaron" unicode="&#x10d;" horiz-adv-x="922" 
 />
    <glyph glyph-name="Dslash" unicode="&#x110;" horiz-adv-x="1220" 
d="M166 1239q0 47 31.5 80t78.5 33h387q105 0 196 -39t158.5 -105.5t106.5 -155.5t39 -192v-368q0 -103 -39 -192t-106.5 -155.5t-158.5 -105.5t-194 -39h-389q-45 0 -77.5 33t-32.5 80v434h-4q-47 0 -80 32.5t-33 79.5q0 46 33 78.5t80 32.5h4v469zM389 1128v-358h188
q47 0 79 -31.5t32 -79.5q0 -47 -32 -79.5t-79 -32.5h-188v-324h276q58 0 108 21.5t87 57.5t58.5 85t21.5 105v368q0 55 -21.5 104.5t-59.5 85t-88 57t-108 21.5h-274z" />
    <glyph glyph-name="dcroat" unicode="&#x111;" horiz-adv-x="858" 
d="M247 371q0 -66 46 -112t116 -46q65 0 112 46t47 112v274q0 66 -46 112t-113 46q-33 0 -63 -12.5t-51.5 -34t-34.5 -50t-13 -61.5v-274zM573 1272q7 26 28 46q33 32 78 32t78 -32t33 -79v-868q0 -78 -30 -146.5t-82 -121t-122 -82t-147 -29.5q-80 0 -148.5 29.5t-121 82
t-82 121t-29.5 146.5v274q0 78 29.5 146.5t82 121t122 82t147.5 29.5q43 0 82.5 -11.5t76.5 -27.5v68h-220q-48 0 -79.5 32.5t-31.5 75.5q0 47 31.5 79t79.5 32h225z" />
    <glyph glyph-name="quoteleft" unicode="&#x2018;" horiz-adv-x="395" 
d="M63 1239q0 41 34 76t75 35h75q47 0 79 -33t32 -78q0 -37 -19.5 -64.5t-54.5 -39.5v-45q0 -46 -32.5 -78.5t-77.5 -32.5q-48 0 -79.5 32.5t-31.5 78.5v149z" />
    <glyph glyph-name="quoteright" unicode="&#x2019;" horiz-adv-x="395" 
d="M110 1239q0 47 32.5 79t77.5 32t78 -32t33 -79v-149q0 -41 -34 -76t-75 -35h-75q-48 0 -79.5 32.5t-31.5 78.5q0 36 19.5 65t54.5 39v45z" />
    <glyph glyph-name="quotedblleft" unicode="&#x201c;" horiz-adv-x="710" 
d="M51 1239q0 41 33 76t73 35h76q47 0 79 -33t32 -78q0 -37 -19.5 -64.5t-54.5 -39.5v-45q0 -46 -32.5 -78.5t-77.5 -32.5q-46 0 -77.5 32.5t-31.5 78.5v149zM381 1239q0 41 32.5 76t73.5 35h76q47 0 79 -33t32 -78q0 -37 -19.5 -64.5t-54.5 -39.5v-45q0 -46 -33 -78.5
t-78 -32.5t-76.5 32.5t-31.5 78.5v149z" />
    <glyph glyph-name="quotedblright" unicode="&#x201d;" horiz-adv-x="763" 
d="M475 1239q0 47 32.5 79t78.5 32q45 0 76.5 -32t31.5 -79v-149q0 -41 -32.5 -76t-73.5 -35h-76q-47 0 -79 32.5t-32 78.5q0 36 19.5 65t54.5 39v45zM125 1239q0 47 32.5 79t77.5 32t77 -32t32 -79v-149q0 -41 -33 -76t-74 -35h-75q-48 0 -79.5 32.5t-31.5 78.5
q0 36 19.5 65t54.5 39v45z" />
    <glyph glyph-name="ellipsis" unicode="&#x2026;" horiz-adv-x="835" 
d="M63 111q0 45 33 76.5t78 31.5t77.5 -31.5t32.5 -76.5q0 -48 -31.5 -79.5t-78.5 -31.5q-45 0 -78 31.5t-33 79.5zM307 111q0 45 31.5 76.5t78.5 31.5q43 0 76 -31.5t33 -76.5q0 -48 -32 -79.5t-77 -31.5t-77.5 31.5t-32.5 79.5zM548 111q0 45 32 76.5t79 31.5
q45 0 78 -31.5t33 -76.5q0 -48 -32 -79.5t-79 -31.5q-45 0 -78 31.5t-33 79.5z" />
  </font>
</defs>
</svg>
